<?xml version="1.0" standalone="no"?>
<!DOCTYPE svg PUBLIC "-//W3C//DTD SVG 20010904//EN"
 "http://www.w3.org/TR/2001/REC-SVG-20010904/DTD/svg10.dtd">
<svg version="1.0" xmlns="http://www.w3.org/2000/svg"
 width="1250.000000pt" height="1250.000000pt" viewBox="0 0 1250.000000 1250.000000"
 preserveAspectRatio="xMidYMid meet">
<metadata>
Created by potrace 1.11, written by Peter Selinger 2001-2013
</metadata>
<g transform="translate(0.000000,1250.000000) scale(0.100000,-0.100000)"
fill="#000000" stroke="none">
<path d="M6925 11619 c-46 -9 -101 -23 -122 -29 -94 -30 -270 -106 -365 -156
-121 -65 -122 -66 -479 -459 -85 -93 -263 -295 -349 -395 -12 -14 -31 -36 -43
-50 -12 -14 -51 -59 -86 -100 -35 -41 -67 -77 -70 -80 -8 -6 -330 -393 -396
-475 -26 -33 -50 -62 -51 -64 -5 -6 -42 42 -55 72 -17 41 -26 33 -20 -20 5
-43 6 -85 2 -135 0 -10 -6 -18 -13 -18 -15 0 -75 66 -94 102 -8 16 -19 28 -24
28 -9 0 -2 -23 23 -77 6 -13 8 -25 5 -28 -7 -7 -33 50 -54 120 l-19 60 -2 -45
c-6 -93 -12 -110 -39 -110 -14 0 -34 5 -45 11 -18 9 -18 6 6 -40 14 -28 22
-51 18 -51 -12 1 -53 37 -53 47 1 13 -64 142 -72 143 -3 0 0 -21 8 -47 16 -54
19 -117 4 -108 -14 9 -12 -19 2 -33 9 -9 9 -12 1 -12 -7 0 -36 36 -65 80 -29
43 -53 78 -55 76 -2 -1 6 -30 18 -64 11 -33 19 -74 17 -91 -3 -29 -4 -30 -28
-18 -18 9 -30 30 -45 79 -25 82 -35 95 -29 34 5 -46 -2 -56 -24 -34 -8 8 -12
8 -12 1 0 -6 7 -16 15 -23 12 -10 13 -16 4 -26 -14 -17 -36 -18 -78 -3 -24 8
-31 16 -26 28 7 16 24 111 20 111 -1 0 -17 -21 -35 -47 -93 -134 -140 -147
-156 -44 -8 50 -11 74 -14 121 -2 31 -4 28 -19 -30 -20 -74 -59 -160 -72 -160
-14 0 -37 52 -58 135 -12 43 -22 79 -23 81 -2 1 -4 -43 -5 -98 -1 -55 -6 -105
-11 -110 -6 -6 -21 23 -42 81 -18 50 -35 91 -37 91 -2 0 -1 -28 4 -62 9 -78 9
-126 -1 -136 -9 -8 -61 49 -113 123 -20 28 -32 41 -29 30 22 -64 47 -172 44
-194 -6 -49 -43 -41 -155 36 -55 37 -81 46 -54 17 16 -16 62 -103 76 -144 22
-61 6 -74 -91 -74 -44 0 -97 3 -119 7 -33 6 -37 5 -24 -5 8 -7 36 -30 61 -51
66 -55 73 -120 6 -68 l-24 19 -1 -40 c-1 -65 -37 -84 -127 -67 -22 4 -42 6
-44 5 -1 -2 20 -18 47 -36 48 -33 77 -67 67 -77 -3 -4 -30 10 -61 30 -66 44
-74 46 -43 9 36 -43 62 -98 55 -116 -7 -17 -32 -15 -121 10 -27 8 -52 14 -54
14 -2 0 23 -20 56 -44 69 -51 77 -61 54 -64 -9 -1 -26 -3 -37 -5 -11 -2 -37 0
-59 5 -51 11 -55 5 -11 -20 28 -17 35 -28 35 -51 0 -35 -34 -65 -59 -52 -9 5
-34 12 -56 16 l-39 7 49 -41 c53 -43 94 -102 58 -83 -10 6 -32 23 -48 39 -61
57 -69 60 -46 22 29 -49 51 -117 45 -134 -7 -16 -41 -20 -62 -6 -10 6 -12 277
-10 1449 3 1010 0 1442 -7 1442 -6 0 -19 -6 -30 -14 -11 -7 -42 -25 -70 -41
-27 -15 -171 -98 -320 -185 -419 -244 -1065 -621 -1099 -640 -62 -35 -501
-291 -516 -300 -8 -5 -44 -26 -80 -47 -36 -21 -77 -44 -91 -53 -34 -20 -176
-102 -200 -116 -239 -137 -338 -200 -348 -220 -7 -17 -11 -321 -12 -997 -4
-4100 -5 -5284 -1 -5294 4 -12 42 5 132 58 19 12 148 87 285 167 138 80 318
185 401 233 83 48 169 97 190 109 46 26 350 201 479 275 105 61 684 401 798
468 43 26 83 47 88 47 5 0 9 5 9 10 0 6 5 10 11 10 6 0 46 21 88 46 42 26 92
56 111 66 112 62 160 94 166 107 4 9 8 454 10 990 l2 975 24 18 c12 9 34 18
47 18 23 0 23 -1 7 -25 -9 -14 -15 -25 -14 -26 2 0 12 -2 23 -4 35 -7 47 -35
41 -95 -4 -36 -2 -50 4 -39 5 8 34 24 65 34 88 30 105 8 80 -101 l-12 -53 42
44 c64 68 74 58 36 -38 -6 -16 -11 -30 -11 -33 0 -2 21 16 48 41 26 25 55 45
66 45 17 0 18 -7 14 -75 l-5 -76 26 24 c44 42 111 64 111 37 0 -5 12 -20 26
-33 19 -18 25 -34 26 -66 0 -35 3 -40 15 -29 8 6 38 12 66 13 63 2 73 -13 46
-67 -11 -21 -19 -39 -19 -42 0 -2 21 7 46 20 76 40 88 22 37 -58 l-23 -37 48
29 c95 57 115 46 83 -46 -11 -29 -19 -54 -18 -54 1 0 24 11 51 25 49 25 116
34 116 16 0 -5 12 -24 27 -42 21 -24 27 -43 27 -75 0 -42 8 -55 20 -35 8 12
100 24 125 16 25 -8 27 -41 6 -92 -8 -20 -14 -37 -12 -39 1 -2 22 10 46 27 60
40 77 38 48 -6 -8 -11 -22 -33 -33 -50 l-19 -30 35 26 c50 37 99 61 111 54 14
-9 6 -52 -20 -111 l-22 -49 33 31 c82 77 107 93 95 59 -4 -8 -2 -17 3 -20 13
-8 13 -61 1 -103 -5 -17 -8 -32 -6 -32 1 0 17 22 34 49 24 37 36 48 51 44 26
-7 29 -40 8 -95 -20 -55 -16 -59 23 -22 22 21 38 26 81 28 52 1 53 0 56 -29 2
-19 -8 -53 -26 -88 -16 -31 -28 -57 -26 -57 1 0 24 20 51 44 26 24 50 43 52
40 2 -2 -16 -27 -40 -56 -24 -29 -39 -49 -34 -46 6 3 41 27 78 52 38 25 76 46
84 46 21 0 11 -46 -27 -127 l-29 -62 72 72 c65 66 71 70 75 48 3 -20 -12 -91
-35 -160 -3 -9 11 9 32 39 49 73 77 103 85 90 7 -12 5 -93 -4 -148 l-6 -37 23
37 c82 131 111 130 153 -4 17 -56 25 -65 30 -31 5 33 27 73 40 73 13 0 51 -52
69 -95 7 -18 9 -17 14 9 3 16 12 31 19 34 12 4 33 -37 25 -50 -7 -13 12 -9 25
4 17 17 32 -5 24 -35 -4 -17 -2 -19 14 -13 31 13 60 18 49 9 -5 -4 -16 -16
-24 -26 -14 -18 -13 -18 28 -1 23 9 45 14 48 10 4 -3 -4 -20 -17 -38 -21 -28
-21 -30 -4 -25 84 27 106 31 122 21 18 -12 22 -58 9 -107 l-8 -28 52 36 c56
38 90 51 114 41 21 -8 45 -67 45 -109 0 -51 9 -51 49 0 l36 46 5 -34 c3 -19 5
-791 4 -1716 0 -926 1 -1683 2 -1683 6 0 121 65 146 82 14 10 28 18 30 18 4 0
118 65 286 161 17 11 47 27 65 38 62 35 715 410 1091 625 208 120 399 229 425
243 25 15 75 43 110 65 34 21 65 38 66 38 2 0 54 29 115 65 61 36 113 65 115
65 15 0 114 72 119 87 4 9 7 349 6 754 l0 736 39 44 c33 37 42 42 58 33 20
-12 40 -72 45 -139 3 -24 6 -47 9 -50 3 -2 14 28 24 68 20 81 35 117 46 117
10 0 14 -14 35 -120 l19 -95 11 85 c14 98 29 143 47 138 6 -2 33 -46 58 -96
l46 -93 6 52 c7 60 46 144 66 144 11 0 23 -13 38 -43 1 -2 12 3 25 11 31 21
70 12 104 -24 35 -37 41 -36 38 4 -3 29 -3 29 5 7 9 -26 11 -24 28 34 5 16 17
34 27 40 14 9 22 5 44 -20 15 -17 33 -39 39 -50 11 -16 12 -11 10 34 -2 28 0
52 3 52 4 0 15 -18 25 -40 10 -23 21 -43 24 -45 3 -2 5 25 3 58 l-3 62 23 -27
c13 -15 30 -36 38 -48 14 -20 15 -19 13 29 0 27 5 58 11 67 12 16 17 13 57
-28 l45 -45 -18 51 c-19 56 -23 92 -10 100 9 5 42 -10 98 -45 l32 -20 -28 53
c-16 29 -32 70 -35 90 -7 34 -5 38 20 44 25 6 64 0 145 -22 23 -7 21 -3 -17
38 -48 54 -73 97 -73 131 0 37 64 62 178 69 33 2 33 3 14 18 -12 8 -39 26 -62
40 -49 29 -80 78 -58 91 7 5 19 9 26 9 6 0 12 8 12 19 0 29 36 67 82 86 l43
18 -30 11 c-35 13 -68 35 -79 54 -7 11 1 13 38 8 25 -4 46 -4 46 -1 0 4 -13
18 -30 32 -42 35 -39 59 8 72 20 6 48 11 62 11 20 1 14 6 -28 26 -29 14 -51
31 -49 38 2 6 26 16 55 21 l51 10 -50 28 c-62 34 -61 53 4 86 l49 24 -28 23
c-26 23 -27 24 -5 24 l23 0 -21 36 c-41 68 -16 100 70 92 l48 -5 -50 45 c-60
54 -55 72 19 66 26 -3 53 -7 60 -9 23 -8 12 5 -25 29 -47 30 -83 63 -83 77 0
6 7 9 15 5 9 -3 24 3 35 14 14 14 34 20 66 20 27 0 43 4 39 10 -8 14 -7 13 87
-16 147 -47 371 -155 354 -171 -3 -3 -29 8 -57 26 l-52 32 17 -26 c10 -15 15
-29 12 -32 -3 -3 -35 13 -71 36 l-66 42 61 -72 c87 -105 83 -121 -23 -78 l-71
30 39 -35 c22 -18 53 -45 70 -60 34 -29 28 -43 -12 -28 -15 5 -37 13 -48 17
-12 4 -4 -8 20 -29 22 -19 37 -37 35 -39 -3 -3 -38 5 -77 18 -78 24 -93 21
-40 -10 50 -29 116 -79 117 -88 0 -8 -38 -4 -99 9 -20 4 -16 0 16 -19 58 -35
92 -61 93 -70 0 -8 -71 -2 -149 13 -25 5 -48 7 -50 5 -2 -2 35 -22 82 -43 46
-22 88 -45 91 -51 5 -8 -17 -11 -71 -12 l-78 0 48 -22 c27 -12 45 -25 41 -29
-4 -5 -48 -8 -97 -8 -84 0 -106 -5 -61 -14 89 -18 152 -44 112 -47 -91 -6
-107 -15 -44 -24 86 -13 69 -29 -44 -40 -36 -4 -66 -8 -68 -9 -1 -2 29 -8 68
-15 38 -7 70 -16 70 -20 0 -12 -43 -29 -109 -42 -34 -6 -63 -14 -65 -18 -2 -3
26 -7 62 -9 36 -1 83 -7 104 -13 35 -9 38 -12 26 -26 -7 -9 -39 -28 -70 -43
l-56 -27 99 5 c54 3 99 2 99 -1 0 -4 -24 -20 -52 -37 l-53 -31 52 5 c29 3 55
2 57 -3 3 -4 -34 -32 -82 -60 -48 -29 -78 -50 -67 -47 168 46 225 56 225 40 0
-8 -33 -39 -75 -72 -34 -27 -33 -27 34 -1 65 24 121 32 121 15 0 -6 -41 -50
-90 -98 l-91 -88 73 40 c79 42 158 73 166 65 8 -7 -13 -44 -58 -102 l-40 -53
57 35 c34 20 60 30 62 24 2 -6 -22 -48 -53 -93 -31 -45 -56 -85 -56 -90 0 -5
18 8 39 27 51 46 90 71 98 63 7 -7 -13 -51 -36 -78 -24 -30 -3 -20 39 18 22
20 44 34 47 30 4 -4 -12 -46 -36 -94 l-43 -87 56 58 c31 32 61 55 66 52 9 -6
-9 -76 -41 -157 -10 -27 -17 -48 -15 -48 2 0 16 19 32 43 41 60 102 123 110
114 4 -4 3 -35 -3 -70 -6 -34 -9 -63 -8 -65 2 -2 19 26 38 61 20 35 43 70 52
77 13 11 15 9 15 -11 -1 -13 -5 -43 -9 -67 -10 -50 -9 -50 22 8 38 72 50 65
42 -26 -3 -44 -8 -88 -11 -99 -6 -30 21 30 52 113 26 69 52 109 55 83 1 -6 3
-15 4 -21 1 -5 3 -31 5 -57 l2 -48 14 45 c27 80 47 121 58 117 14 -5 34 -84
44 -177 l8 -75 14 90 c8 50 14 92 15 95 12 52 18 70 25 70 14 0 37 -44 50 -98
8 -28 16 -52 19 -52 3 0 7 17 8 38 1 20 5 48 8 61 5 20 8 22 19 10 16 -18 76
-168 76 -191 0 -10 4 -18 9 -18 6 0 8 8 6 19 -2 10 -6 53 -10 95 -8 89 2 97
41 31 28 -48 39 -58 29 -24 -13 40 -14 100 -2 96 7 -2 34 -39 61 -83 27 -43
46 -70 42 -59 -12 34 -19 145 -10 145 15 -1 48 -32 98 -95 27 -33 51 -62 53
-65 3 -3 -3 13 -12 35 -42 99 -56 155 -38 155 4 0 29 -21 56 -48 l48 -47 -35
70 c-48 94 -45 108 10 55 l46 -45 -26 49 c-15 26 -26 52 -24 57 2 5 30 -13 63
-40 33 -27 61 -48 63 -47 1 2 -21 38 -50 79 -28 42 -49 79 -46 83 4 3 24 -6
45 -20 52 -36 61 -33 24 9 -29 33 -66 95 -57 95 10 0 84 -34 106 -49 14 -10
43 -28 65 -41 36 -21 31 -15 -37 58 -106 112 -103 120 22 65 l55 -24 -42 43
c-24 24 -43 47 -43 50 0 9 85 -16 145 -42 25 -11 45 -16 45 -12 0 4 -25 25
-56 47 -74 53 -76 59 -18 50 l49 -7 -43 32 c-24 17 -41 34 -38 37 2 3 39 -2
81 -12 85 -19 104 -15 53 9 -107 52 -97 80 26 71 43 -3 83 -8 89 -12 5 -3 7
-2 4 4 -4 6 -28 18 -54 28 -26 10 -57 24 -68 32 -18 12 -17 13 15 14 35 0 35
0 -20 25 -65 30 -56 44 30 44 67 0 57 11 -37 40 -40 12 -75 26 -78 30 -5 8 26
19 120 44 6 2 -11 6 -37 10 -26 4 -50 12 -54 17 -7 12 9 32 28 35 31 5 131 34
136 39 3 3 -12 5 -34 6 -87 2 -144 14 -144 29 0 5 21 21 48 34 l47 25 -55 1
c-104 1 -98 21 25 83 l70 35 -77 -5 c-51 -4 -78 -2 -78 5 0 12 57 62 71 62 6
0 8 4 5 9 -3 5 -15 7 -25 4 -40 -10 -29 18 23 59 30 23 54 43 53 44 -1 1 -36
-7 -77 -17 -136 -35 -154 -16 -72 79 l45 54 -49 -25 c-27 -14 -66 -29 -86 -35
-48 -13 -50 0 -8 48 39 46 37 52 -7 29 -47 -24 -64 -24 -56 -1 7 20 61 101 80
120 28 28 10 21 -53 -23 -37 -25 -73 -45 -80 -45 -18 0 -18 20 -1 45 32 47 25
53 -20 19 -64 -49 -72 -33 -30 59 l35 75 -59 -45 c-98 -77 -110 -46 -53 147 5
16 -10 3 -44 -39 -93 -115 -117 -116 -114 -4 l1 68 -21 -35 c-67 -110 -71
-115 -78 -95 -4 11 -6 39 -5 63 1 23 1 42 -1 42 -2 0 -13 -18 -24 -40 -20 -40
-39 -52 -41 -27 -1 6 -3 43 -4 80 -2 38 -5 70 -7 72 -2 3 -14 -26 -26 -64 -25
-75 -47 -105 -56 -74 -3 10 -7 31 -10 47 -7 42 -13 42 -21 -1 -4 -21 -11 -46
-17 -56 -16 -30 -29 -7 -48 79 l-16 77 -13 -57 c-14 -65 -22 -63 -44 9 -8 28
-54 164 -101 303 -118 346 -153 478 -191 708 -23 137 -25 182 -23 384 6 590 0
1018 -17 1122 -2 13 -6 65 -10 115 -3 51 -8 103 -10 115 -2 13 -6 57 -10 98
-7 82 -6 75 -35 310 -18 143 -60 423 -75 500 -84 432 -124 574 -168 603 -66
42 -295 110 -507 151 -14 2 -45 9 -70 15 -25 5 -142 26 -260 46 -118 20 -226
38 -240 40 -14 2 -45 7 -70 10 -25 3 -56 7 -70 10 -33 6 -219 31 -380 51 -19
2 -51 6 -70 9 -19 2 -57 7 -85 10 -27 3 -68 7 -90 10 -41 5 -113 12 -200 20
-27 3 -72 7 -100 10 -116 11 -154 15 -230 20 -44 3 -102 8 -130 10 -49 4 -149
11 -335 21 -52 3 -240 6 -418 8 -271 2 -336 -1 -407 -15z m-2684 -1956 c13
-16 12 -17 -3 -4 -10 7 -18 15 -18 17 0 8 8 3 21 -13z m-1077 -769 c8 -21 -7
-17 -21 6 -11 16 -10 18 1 14 8 -3 17 -12 20 -20z m-194 -299 c11 -13 10 -14
-4 -9 -9 3 -16 10 -16 15 0 13 6 11 20 -6z m-13 -107 c-3 -8 -6 -5 -6 6 -1 11
2 17 5 13 3 -3 4 -12 1 -19z"/>
<path d="M5624 4929 c-27 -18 -50 -31 -52 -30 -1 1 -55 -30 -120 -68 -64 -38
-270 -157 -457 -266 -187 -109 -346 -202 -353 -208 -12 -10 16 -30 140 -100
24 -13 153 -89 288 -167 135 -79 315 -183 400 -233 85 -49 170 -98 188 -109
l32 -20 0 616 c0 339 -4 616 -8 616 -4 0 -30 -14 -58 -31z"/>
<path d="M2800 4801 c-102 -59 -336 -196 -520 -303 -184 -108 -351 -205 -370
-216 -65 -36 -745 -432 -760 -442 -8 -5 -42 -25 -75 -43 -33 -19 -98 -57 -145
-84 -47 -28 -184 -108 -305 -178 -121 -70 -224 -131 -228 -135 -7 -6 83 -70
99 -70 3 0 18 -8 32 -19 26 -18 50 -32 152 -89 25 -14 69 -40 98 -59 29 -18
54 -33 56 -33 2 0 66 -37 142 -81 76 -45 162 -94 189 -109 28 -15 169 -96 315
-180 146 -84 285 -164 310 -178 25 -14 151 -86 280 -160 129 -74 255 -146 280
-160 25 -14 88 -50 140 -80 52 -30 120 -68 150 -85 30 -16 60 -33 65 -37 6 -4
27 -17 48 -29 110 -62 201 -114 482 -276 132 -76 253 -146 268 -154 16 -9 36
-20 46 -26 9 -5 136 -79 281 -163 146 -84 272 -157 280 -162 159 -96 246 -139
269 -133 14 3 110 55 213 115 104 60 203 117 221 127 17 10 178 103 357 206
179 103 364 210 412 237 49 27 92 58 98 68 6 12 10 281 10 750 l0 732 -29 26
c-16 15 -51 39 -77 53 -76 40 -1006 579 -1036 600 -15 11 -29 19 -32 19 -3 0
-29 14 -58 32 -29 17 -80 47 -113 66 -33 19 -73 42 -90 52 -16 9 -118 68 -225
130 -107 62 -207 121 -222 131 -15 11 -29 19 -31 19 -2 0 -78 43 -168 96 -90
53 -184 108 -209 122 -25 14 -56 32 -70 42 -14 9 -32 20 -40 23 -8 4 -28 15
-45 26 -117 72 -213 121 -235 120 -14 0 -108 -49 -210 -108z"/>
</g>
</svg>
