<?xml version="1.0" encoding="utf-8"?>
<!-- Generator: Adobe Illustrator 16.0.0, SVG Export Plug-In . SVG Version: 6.00 Build 0)  -->
<!DOCTYPE svg PUBLIC "-//W3C//DTD SVG 1.1//EN" "http://www.w3.org/Graphics/SVG/1.1/DTD/svg11.dtd">
<svg version="1.1" id="Capa_1" xmlns="http://www.w3.org/2000/svg" xmlns:xlink="http://www.w3.org/1999/xlink" x="0px" y="0px"
	 width="300px" height="300px" viewBox="0 0 300 300" enable-background="new 0 0 300 300" xml:space="preserve">
<g>
	<ellipse fill="#DFE3EB" cx="183.18" cy="264.426" rx="93.992" ry="12.668"/>
	<g>
		<g opacity="0.13">
			<g>
				<g>
					<defs>
						<path id="SVGID_1_" d="M297.114,257.281c0,9.299-32.75,16.836-73.148,16.836c-40.4,0-73.151-7.537-73.151-16.836
							s32.751-16.838,73.151-16.838C264.364,240.443,297.114,247.982,297.114,257.281"/>
					</defs>
					<clipPath id="SVGID_2_">
						<use xlink:href="#SVGID_1_"  overflow="visible"/>
					</clipPath>
				</g>
			</g>
		</g>
		<path fill="#FCD14E" d="M206.901,108.469c0,0-4.297,7.976-14.183,7.16c-2.353-0.194-8.319-1.507-10.389-1.771
			c-47.991-4.469-42.321,42.586-42.321,42.586l3.373-1.951c3.101-40.014,35.73-33.118,39.806-32.096
			c0.44,11.663-1.169,34.163-15.642,60.499l-4.092,8.736l58.783,10.322C222.237,201.955,229.161,126.889,206.901,108.469"/>
		<path fill="#2C2829" d="M251.374,195.924c-0.342-2.047,8.846-2.412,11.278,2.234c0,0,2.931,5.889-4.202,15.924l-24.994,34.682
			l-4.201-3.053l15.236-26.85C244.491,218.861,252.481,202.537,251.374,195.924"/>
		<path fill="#221F20" d="M232.821,239.424c0,0,15.629-45.707,15.726-45.432s10.21-0.984,12.628,2.42
			c0,0-18.965,40.713-27.143,44.535L232.821,239.424z"/>
		<path fill="#2C2829" d="M170.862,182.621c0,0-42.059,9.709-58.611,14.736c0,0-16.367,2.887-12.49,20.473l3.587,22.262l8.325-1.781
			c0,0-10.979-28.955,5.066-30.262l50.363-12.256l5.389-13.172H170.862z"/>
		<path fill="#FCD14E" d="M259.713,88.78c0,0,17.798,5.519,13.214,20.473c0,0-3.548,19.856-12.498,20.907l-6.279,1.183l4.806,7.216
			c0,0,4.421,0.271,9.878-4.532c0,0,15.391-14.602,13.754-28.899c0,0-3.494-19.742-20.412-22.472l-2.33,5.447"/>
		<polygon fill="#E1CAB7" points="236.684,244.287 232.323,250.738 227.65,247.762 232.823,239.424 		"/>
		<polygon fill="#E1CAB7" points="103.348,240.1 104.177,243.609 112.472,241.867 111.642,238.178 		"/>
		<path fill="#221F20" d="M108.566,238.855c0,0-7.153-21.346-2.51-28.313c0,0,1.106-2.543,4.978-4.424l55.131-14.787l-3.275,5.965
			l-45.773,12.088c0,0-8.537,3.014-7.939,9.441c0.024,0.258,0.063,0.518,0.116,0.785c1.409,6.969,3.179,18.564,3.179,18.564
			L108.566,238.855z"/>
		<path fill="#B6282E" d="M207.05,105.377c0.202,3.272-2.042,6.581-4.963,8.069c-2.232,1.14-4.841,1.233-7.348,1.187
			c-4.61-0.085-9.417-0.731-13.945-1.6c0.02,2.803,1.842,4.985,4.174,6.539c0.58,0.387,1.193,0.714,1.83,0.988l-16.68,31.314
			l11.564,6.691l9.717-36.897c0.523,0.048,1.047,0.081,1.568,0.088c4.332,0.05,8.836-1.297,11.83-4.426
			S209.239,109.115,207.05,105.377"/>
		<polyline fill="#A96128" points="186.787,120.59 167.546,142.863 173.146,146.189 188.696,121.688 		"/>
		<path fill="#2C2829" d="M114.685,251.328c-0.23-1.18-0.651-3.27-1.021-4.816c-0.144-0.635-0.254-1.004-0.254-1.004
			c-0.127-0.463-0.237-0.787-0.315-0.885c0,0-3.129,0.893-5.16,2.314l-0.58,0.15l-28.588,2.105c-3.376-0.109-4.98,1.926-4.98,1.926
			l32.766,8.975l1.416-2.508l0.914,2.834l6.91,1.74C116.36,260.754,115.517,255.551,114.685,251.328"/>
		<path fill="#2C2829" d="M258.027,260.816l-26.672-10.275l-2.419-1.463c-0.389-0.709-0.826-1.246-1.285-1.316l-0.229,0.404
			c0,0-0.01,0.018-0.026,0.045l-3.427,6.037l0.111,0.039c-1.996,3.797-4.125,8.156-4.006,9.285h5.861l1.715-2.959l0.607,2.551
			l33.952,1.037C262.211,264.201,262.763,261.715,258.027,260.816"/>
		<path fill="#FFFFFF" d="M229.169,245.082c-0.08,0.121,4.345,3.896,4.313,3.945c-0.032,0.047-1.788,3.482-1.788,3.482
			s-6.73,3.117-5.724-1.771L229.169,245.082z"/>
		<path fill="#FFFFFF" d="M114.131,247.432l-0.524-1.818c-0.104-0.504-1.273-4.408-1.273-4.408l-8.371,1.518l1.018,4.25
			C104.979,246.973,114.774,253.992,114.131,247.432"/>
		<path fill="#E1CAB7" d="M164.56,72.303c0,0-2.845,18.336,8.875,33.788c0,0,9.264,15.109,28.465,8.594
			c0,0,8.111-4.173,4.059-13.284l-16.58-46.706C189.378,54.695,165.228,64.225,164.56,72.303"/>
		<path fill="#2C2829" d="M219.405,86.78c-1.302-1.846-3.109-3.328-5.172-4.245c1.299,0.672,2.969-0.414,3.385-1.818
			c0.414-1.403-0.079-2.91-0.715-4.229c-1.252-2.599-3.156-4.968-5.715-6.294c-2.561-1.327-5.83-1.462-8.264,0.087
			c2.125-1.913,3.129-4.826,3.307-7.679c0.18-2.854-0.379-5.694-0.936-8.498c-0.328-1.656-0.691-3.39-1.775-4.686
			c-1.774-2.125-4.678-3.764-7.443-3.916c-3.035-0.168-7.438,0.56-10.334,1.857c-2.215-2.501-5.619-3.969-8.961-3.664
			c-4.342,0.396-8.257,3.755-9.309,7.988c-0.085,0.344-0.162,0.711-0.403,0.974c-0.276,0.299-0.704,0.394-1.103,0.479
			c-2.756,0.593-5.59,1.619-7.365,3.81c-1.777,2.188-2.018,5.809,0.135,7.629c-2.637,0.476-5.216,1.256-7.672,2.323
			c-1.973,0.857-4.07,2.163-4.482,4.275c-0.431,2.222,1.201,4.286,2.852,5.835c0.313,0.292,0.641,0.595,0.784,0.995
			c0.411,1.138-0.775,2.146-1.685,2.944c-2.498,2.188-3.759,5.834-2.77,9.005c0.793,2.538,3.129,4.543,5.709,4.96
			c-0.252,1.046-1.803,8.643,6.759,6.76c0,0,8.983,6.652,11.405-1.566l-0.244-0.126c0.023-0.085,0.045-0.172,0.043-0.267
			c-0.077-2.142-2.173-6.808-2.924-9.168c-1.163-3.652-1.766-7.484-1.777-11.318c-0.008-2.49,0.244-5.033,1.261-7.307
			c1.231-2.755,3.487-4.911,5.837-6.804c4.465-3.595,9.477-6.505,14.805-8.62c1.738,4.514,4.154,8.73,6.008,13.449
			c3.037,7.723,5.826,15.478,9.902,22.708c0.633,1.125,3.217,9.731,4.137,10.772c2.182,2.468,3.213,0.531,6.726-1.9
			c1.28-0.886,2.429-4.916,0.37-6.206c2.843-0.39,6.264-1.402,6.864-4.208C220.97,89.599,220.297,88.042,219.405,86.78"/>
		<path fill="#E1CAB7" d="M194.44,78.383c0.547-2.838,3.898-4.701,6.654-3.833s4.438,4.125,3.727,6.925
			c-0.713,2.802-3.574,4.831-6.463,4.771"/>
		<path fill="#CEA17F" d="M176.717,72.849c0,0-2.93,13.605-0.403,16.744c0,0,1.186,1.864,3.033,2.53
			c1.903,0.688,4.492,0.136,5.92-2.538c0.305-0.57,0.802-1.908,0.276-3.152c0,0-4.172-10.397-4.631-13.449
			c-0.021-0.131-0.015-0.249-0.036-0.346C180.315,70.218,177.025,70.663,176.717,72.849"/>
		<path fill="#C57558" d="M195.073,98.86c-1.194,6.471-6.051,5.6-6.811,5.462l-0.012-0.038L195.073,98.86z"/>
		<path fill="#2C2829" d="M166.271,75.375L166.271,75.375c-0.77-0.508-0.982-1.551-0.475-2.32l3.521-5.33
			c0.508-0.769,1.551-0.982,2.319-0.475c0.769,0.507,0.982,1.552,0.474,2.319l-3.793,5.033
			C167.81,75.372,167.038,75.883,166.271,75.375"/>
		<path fill="#2C2829" d="M187.979,63.899L187.979,63.899c0.039-0.919-0.684-1.704-1.604-1.742l-6.383-0.266
			c-0.921-0.038-1.705,0.683-1.742,1.604c-0.038,0.919,0.683,1.703,1.602,1.742l6.303-0.13
			C187.075,65.145,187.94,64.819,187.979,63.899"/>
		<path fill="#333333" d="M187.442,73.927c0.598-0.036,1.159,0.087,1.644,0.32c0.001-0.083,0.011-0.164,0.005-0.249
			c-0.082-1.363-1.059-2.414-2.18-2.347c-1.123,0.068-1.966,1.229-1.883,2.593c0.017,0.278,0.078,0.537,0.164,0.783
			C185.71,74.412,186.511,73.984,187.442,73.927"/>
		<path fill="#333333" d="M171.728,78.875c0.587-0.116,1.162-0.071,1.672,0.095c-0.01-0.082-0.012-0.164-0.027-0.247
			c-0.268-1.341-1.378-2.249-2.479-2.029c-1.103,0.22-1.78,1.484-1.514,2.824c0.055,0.273,0.151,0.522,0.27,0.753
			C170.077,79.589,170.812,79.058,171.728,78.875"/>
		<path fill="#3B130F" d="M196.33,231.207l-12.755-2.627l-0.105,5.408l2.326,0.557l-8.297,23.6c0,0-0.83,1.99,0.663,2.652
			c0,0,0.331-0.084,1.078-1.822l10.244-23.547l5.765,1.381L196.33,231.207z"/>
		<path fill="#A96128" d="M222.618,114.551c0,0-29.859,1.326-36.162,36.494c0,0-1.658,6.637,5.972,2.988c0,0,8.958-4.314,9.29,5.307
			c0,0-6.968,26.211-12.939,26.873l12.607,2.986l19.242-41.471l-11.943-1.99L222.618,114.551z"/>
		<path fill="#A96128" d="M293.032,10.048c0,0-4.723-10.953-19.32-7.304c0,0-11.225,2.544-9.123,15.151l11.417,2.101l4.812-0.442
			c0,0-3.871-4.202,0.221-9.843c0,0,6.856-2.129,11.252,0L293.032,10.048z"/>
		<path fill="#7F1517" d="M233.104,116.679l-52.509,112.553l44.253,9.58c0,0,9.106,2.973,11.54-3.135
			c0,0,23.721-37.936,11.557-42.607c0,0-9.376-0.951-12.773-1.162c-0.875,0.68-21.92-1.105-9.621-19.74
			c0,0,8.453-13.188,27.365-4.895c0,0,9.047,5.061,10.539-1.988c0,0,10.202-26.792-3.732-33.592L233.104,116.679z"/>
		<path fill="#262B2B" d="M196.33,188.002c0,0-16.095,40.207-19.661,42.766c0,0,3.406-0.125,4.761-2.199
			c0.079-0.121,0.151-0.25,0.216-0.387c1.158-2.445,19.077-38.982,19.077-38.982L196.33,188.002z"/>
		<path fill="#7F1517" d="M185.185,186.32c0,0-10.506-7.57-13.898-3.461c0,0-23.647,36.365-13.859,41.342
			c0,0,12.939,4.645,18.578,4.313L185.185,186.32z"/>
		<path fill="#3B130F" d="M201.781,188.506c-0.216,2.551-0.428,5.158,0.212,7.637c0.641,2.479,2.304,4.846,4.744,5.617
			c0.467,0.148,0.96,0.236,1.445,0.176c1.178-0.145,2.076-1.109,2.754-2.086c0.566-0.816,1.064-1.703,1.279-2.676
			c0.214-0.973,0.117-2.045-0.433-2.875s-1.598-1.355-2.567-1.133c-0.971,0.223-1.713,1.291-1.441,2.248
			c0.051,0.178,0.137,0.354,0.275,0.477c0.295,0.262,0.736,0.23,1.123,0.309c1.188,0.242,1.853,1.836,1.188,2.85
			c-0.756,1.154-2.598,1.084-3.656,0.199c-1.057-0.885-1.51-2.285-1.848-3.621c-0.697-2.756-1.17-6.469-1.314-9.307"/>
		<path fill="#7F1517" d="M186.331,151.875c0,0,6.732-8.442,10.902-6.452c0,0,7.229,3.217,5.258,13.584l-1.391,2.525
			c0,0-0.82-9.713-9.668-6.727C191.433,154.807,183.771,157.35,186.331,151.875"/>
		<path fill="#3F4242" d="M206.473,146.014c0.249,0,13.843,2.388,13.843,2.388l45.848-105.431l-6.055-1.99L206.473,146.014z"/>
		<path fill="#2C2829" d="M243.41,122.493c0.019,0.159-9.497-5.356-9.497-5.356l32.25-74.165l0.471,1.134
			C266.634,44.105,240.864,101.375,243.41,122.493"/>
		<path fill="#3B130F" d="M187.009,186.32c0.217,2.551,0.311-0.619-0.33,1.859c-0.64,2.479-2.303,4.846-4.743,5.619
			c-0.466,0.148-0.96,0.234-1.444,0.174c-1.18-0.146-2.078-1.109-2.755-2.084c-0.567-0.818-1.065-1.705-1.28-2.678
			c-0.213-0.973-0.115-2.045,0.434-2.875s1.598-1.355,2.567-1.131c0.972,0.221,1.713,1.289,1.44,2.246
			c-0.051,0.18-0.137,0.354-0.274,0.477c-0.296,0.262-0.737,0.232-1.123,0.311c-1.188,0.242-1.853,1.834-1.188,2.85
			c0.755,1.152,2.598,1.082,3.655,0.197c1.057-0.885,1.51-2.285,1.848-3.621c0.699-2.756,0.253,1.111,0.398-1.727"/>
		<path fill="#2C2829" d="M158.145,164.93c0.49-0.338,81.947,12.59,81.947,12.59s1.327,3.881,4.093,4.24
			c0,0,1.105,1.357-0.885,1.578c0,0-4.646,0.443-5.309-3.76l-80.396-12.219C157.595,167.359,156.375,166.146,158.145,164.93"/>
		<path fill="none" stroke="#2C2829" stroke-width="1.691" stroke-miterlimit="10" d="M184.88,185.938
			c0,0,55.323-120.157,75.229-144.957"/>
		<path fill="none" stroke="#2C2829" stroke-width="1.691" stroke-miterlimit="10" d="M187.009,186.32
			c0,0,67.504-133.487,74.582-144.629"/>
		<path fill="none" stroke="#2C2829" stroke-width="1.691" stroke-miterlimit="10" d="M191.935,187.209
			c0,0,64.545-133.206,72.332-144.238"/>
		
			<line fill="none" stroke="#2C2829" stroke-width="1.691" stroke-miterlimit="10" x1="194.786" y1="188.002" x2="266.634" y2="44.105"/>
		<path fill="#E1CAB7" d="M259.604,82.449c1.091-3.71-0.484-20.083-0.484-20.083c-0.982-4.803-4.803-3.82-5.458-3.711
			c-1.941,0.323-0.873,1.964-0.873,1.964c0.982-1.31,2.51,0,2.51,0c2.184,0.982,1.42,7.313,1.42,7.313
			c-3.166-4.911-7.477-4.365-7.477-4.365c-3.438-0.655-4.203,3.602-4.203,3.602l1.311-1.42c2.838-2.837,7.096,2.184,7.096,2.184
			c-4.148-3.82-7.75,0-7.75,0c-1.529,1.092-1.42,3.274-1.42,3.274l1.42-1.528c4.801-3.711,8.076,4.039,8.076,4.039
			c0.218,0.874-1.092,0.874-1.092,0.874l-0.764-1.201c-2.947-3.492-4.911-2.51-4.911-2.51c-4.148,0.981-4.258,5.566-4.258,5.566
			c0.109,2.619,1.528,1.31,1.528,1.31c-0.328-3.057,3.275-3.603,3.275-3.603c4.584,0.654,4.474,5.458,4.474,5.458
			c0.47,5.25,2.865,6.551,3.533,6.814l4.383,2.431l2.235-6.189L259.604,82.449z"/>
		<path fill="#3F4242" d="M184.548,185.152l-8.543,43.361c0,0-0.664,3.65,2.488,1.658l18.74-41.924L184.548,185.152z"/>
		<path fill="#7F1517" d="M259.445,40.816c0,0,5.751-6.927,7.741-8.696c0,0,8.488-10.243,8.82-12.123l4.34-0.591
			c0,0-4.756-8.663,2.655-11.316c0,0,12.966-3.492,10.726,7.834c0,0-14.132,17.668-25.91,24.734c-0.553,0.332-0.631,3.89-0.631,3.89
			l-7.076-2.986L259.445,40.816z"/>
		<path fill="#7F1517" d="M268.237,25.991c0,0,0.939-0.311-0.719-0.311h-7.078c0,0-1.99,0.531-0.332,1.748
			c0,0,2.58,2.809,4.387,2.146l3.244-2.252l3.318,0.184l0.64-0.881L268.237,25.991z"/>
		<path fill="#7F1517" d="M281.065,34.484l-3.649,2.654c0,0-0.165,0.719,0.442,1.051c0,0,7.687-0.277,8.682-1.382
			c0,0,1.604-0.886,0-1.715C286.54,35.092,282.779,33.931,281.065,34.484"/>
		<path fill="#A96128" d="M280.339,35.012c-0.196,0.144-7.899-0.677-7.899-0.677s-1.077,1.192,0,1.697l5.522,0.708L280.339,35.012z"
			/>
		<path fill="#7F1517" d="M289.747,25.416c0,0-3.428,2.569-3.041,3.344c0,0,0.301,1.63,1.506,1.63h6.733
			c0,0,2.488-1.132,0.221-2.487L289.747,25.416z"/>
		<path fill="#A96128" d="M288.265,26.463l-6.258-1.048c0,0-1.445,1.817-0.499,2.378l6.083,0.275l0.939-1.327"/>
		<path fill="#A96128" d="M290.001,11.329c-0.332,0.166-6.693-2.326-6.777,3.313c0,0-0.836,3.976,3.451,3.976h4.289l1.99-1.882
			c0,0-3.815-3.47-2.57-4.88"/>
		<path fill="#7F1517" d="M293.627,12.103l-2.839,2.935c0,0-0.072,0.728,0.475,1.01c0,0,6.479-0.892,7.217-2.072
			c0,0,1.273-1.01-0.162-1.707C298.317,12.268,295.026,11.415,293.627,12.103"/>
		<path fill="#7F1517" d="M292.928,13.125h-3.292c0,0-1.814,0.785-0.33,2.354h1.268"/>
		
			<line fill="none" stroke="#A96128" stroke-width="1.691" stroke-miterlimit="10" x1="155.889" y1="167.086" x2="243.3" y2="183.338"/>
		<path fill="#7F1517" d="M157.241,164.559l-20.055-3.912c0,0-1.102,2.229-0.325,3.412l12.556,1.998l0.024,0.109l8.358,2.049
			l1.537-3.176L157.241,164.559z"/>
		<path fill="#E1CAB7" d="M140.684,157.943c0,0-0.675,3.973,1.648,5.473c2.324,1.5,0.675,0,0.675,0l0.693,3.182
			c0,0,0.229,1.365,0.828,0.166c0,0,0.568,1.693,1.618,1.244c0,0-0.366-2.492-0.815-3.768c0,0,0.6-0.449,0.749,0.449
			c0,0,0.524,3.447,1.574,4.123c0,0,0.525,0.824,0.899,0c0,0-0.899-5.322-1.35-6.221l1.95,6.588c0,0,0.823,0.383,0.899-0.816
			c0,0-2.25-6.746-1.201-8.246c0,0,0.451-1.949,3.15-0.225c0,0,0.974,2.023,1.049,4.049c0,0,0.674,1.199,1.198,0.148
			c0,0,0.9-4.498-0.749-5.621c0,0-3.973-1.5-6.821-1.574c0,0-1.874,0.225-2.623-1.125l-0.675-1.275l-3.373,1.949L140.684,157.943z"
			/>
	</g>
</g>
<g>
	<path fill="#644F43" d="M238.076,284.684h12.853l-13.174-16.762L238.076,284.684z"/>
	<path fill="#9A6C3D" d="M240.058,257.373l10.871,27.311l-13.174-11.566L240.058,257.373z"/>
	<path fill="#C58D4D" d="M238.076,284.684H57.391l1.981-27.311h180.686L238.076,284.684z"/>
</g>
</svg>
