<svg xmlns="http://www.w3.org/2000/svg" width="300" height="300" viewBox="0 0 300 300"><path fill="#FFF" d="M195.399 72.96c-12.732-10.248-28.906-16.394-46.523-16.394-41.014 0-74.261 33.248-74.261 74.262 0 .374.015.743.022 1.114 9.167.29 17.515 3.686 23.855 9.174-6.511-3.399-14.008-5.306-21.971-5.211a47.329 47.329 0 0 0-3.188.146l-.151.014a46.47 46.47 0 0 0-6.15.919c-15.343 3.594-27.321 15.897-30.431 31.424 9.312.208 17.799 3.625 24.224 9.188-6.51-3.399-14.004-5.308-21.971-5.211a46.502 46.502 0 0 0-15.454 2.811c-9.825 4.644-16.64 14.614-16.64 26.205 0 16.018 12.986 29.002 29.005 29.002.148 0 .296-.019.447-.021.14.004.281.026.426.026H63.14c99.416-41.872 125.667-124.903 132.259-157.448z"/><path fill="#F1F3FA" d="M265.614 230.391c.086 0 .17.011.254.011 16.02 0 29.006-12.984 29.006-29.002 0-16.019-12.986-29.005-29.006-29.005-2.264 0-4.459.287-6.577.778-1.54-19.533-16.925-35.17-36.353-37.082a75.13 75.13 0 0 0 .206-5.263c0-23.397-10.831-44.256-27.745-57.868-6.593 32.544-32.844 115.576-132.258 157.447h202.195c.093 0 .185-.016.278-.016z"/></svg>