<svg xmlns="http://www.w3.org/2000/svg" width="300" height="300" viewBox="0 0 300 300"><path fill="#FFF" d="M222.944 96.26c-.225-.002-.448-.016-.676-.016-.773 0-1.544.021-2.31.059.025-.068.041-.138.065-.205-10.356-.023-19.075 1.807-24.417 5.138 3.604-5.29 13.249-8.468 25.634-8.873a48.314 48.314 0 0 0 1.811-13.117c0-26.789-21.715-48.501-48.503-48.501-19.646 0-36.535 11.692-44.161 28.485 6.992 1.444 12.234 4.065 14.683 7.66-5.524-3.446-14.666-5.285-25.498-5.126-25.146 1.802-44.988 22.755-44.988 48.361 0 11.463 3.986 21.988 10.634 30.289-.055.021-.101.051-.154.073 4.509 4.606 9.047 7.869 13.155 9.39-4.645.282-10.361-2.66-16.171-7.937a48.688 48.688 0 0 0-18.657 17.134c8.857 1.019 15.602 3.738 18.555 7.874-7.922-4.705-23.002-6.055-39.797-2.998-19.702 6.166-33.999 24.557-33.999 46.295 0 22.285 15.032 41.045 35.51 46.725a22.283 22.283 0 0 0 9.403 2.087h20.512C167.27 216.409 206.629 144.273 222.944 96.26z"/><path fill="#F1F3FA" d="M242.93 258.422c25.001-1.949 44.684-22.838 44.684-48.339 0-17.508-9.278-32.843-23.183-41.371a48.243 48.243 0 0 0 6.34-23.967c0-26.562-21.349-48.121-47.826-48.485-16.315 48.013-55.675 120.149-149.37 162.796h164.133a22.467 22.467 0 0 0 5.222-.634z"/></svg>