<svg xmlns="http://www.w3.org/2000/svg" width="300" height="300" viewBox="0 0 300 300"><path fill="#F5D76B" d="M-.088 84.254h300.763v131.404H-.088V84.254z"/><path fill="#F3D06B" d="M76.76 84.342h7.157v130.936H76.76V84.342zm-69.427 0h7.157v130.936H7.333V84.342zm13.874 0h7.157v130.936h-7.157V84.342zm13.902 0h7.157v130.936h-7.157V84.342zm13.874 0h7.157v130.936h-7.157V84.342zm13.903 0h7.157v130.936h-7.157V84.342zm27.777 0h7.157v130.936h-7.157V84.342zm13.874 0h7.157v130.936h-7.157V84.342zm13.902 0h7.157v130.936h-7.157V84.342zm13.874 0h7.157v130.936h-7.157V84.342zm13.903 0h7.157v130.936h-7.157V84.342zm13.874 0h7.156v130.936h-7.156V84.342zm13.903 0h7.157v130.936h-7.157V84.342zm13.903 0h7.156v130.936h-7.156V84.342zm13.874 0h7.156v130.936h-7.156V84.342zm13.903 0h7.157v130.936h-7.157V84.342zm13.874 0h7.156v130.936h-7.156V84.342zm13.902 0h7.157v130.936h-7.157V84.342zm13.874 0h7.157v130.936h-7.157V84.342zm13.904 0h7.156v130.936h-7.156V84.342zm13.873 0h7.156v130.936H285.1V84.342z"/><path fill="#C68D4D" d="M202.238 151.393l2.377 2.377 9.943-9.915v36.224h2.697v-38.922l9.621-9.621v37.368h2.699v-40.067l9.62-9.621v36.195h2.698v-38.894l9.621-9.621v36.928h2.698v-39.626l9.62-9.621v36.605h2.699V91.88l7.538-7.538h-4.781l-67.05 67.051zm73.916-67.051h2.697v34.2h-2.697v-34.2zm12.319-.088h2.699v21.207h-2.699V84.254zm-14.343 0l-.059.088h2.083v-.088h-2.024z"/><linearGradient id="a" gradientUnits="userSpaceOnUse" x1="1191.307" y1="-896.73" x2="1214.311" y2="-896.73" gradientTransform="matrix(.2933 0 0 -.2933 -147.187 -97.946)"><stop offset="0" stop-color="#f1d4af"/><stop offset="1" stop-color="#c99d67"/></linearGradient><path fill="url(#a)" d="M207.813 139.104c.703-.616 1.173-1.496 1.173-2.522a3.355 3.355 0 0 0-3.373-3.373 3.355 3.355 0 0 0-3.374 3.373c0 .997.47 1.877 1.174 2.522a3.47 3.47 0 0 0-.851 1.173h-.323v56.668h6.747v-56.698h-.323c-.206-.439-.499-.85-.85-1.143z"/><path fill="#C68D4D" d="M208.985 150.015v-3.227c-.235 2.493-.909 5.603-1.32 7.333-.499 2.229-.352 7.743-.264 13.814.059 5.045.029 22.996 0 28.98h.909c-.117-7.069-.469-29.01-.439-34.26.059-5.132.557-8.944 1.114-12.64zM207.783 134c.146 1.349.352 2.933.557 4.487.234-.322.41-.704.527-1.085-.146-.88-.264-1.76-.41-2.61a3.445 3.445 0 0 0-.674-.792zm.762 6.013c.176 1.408.352 2.728.44 3.813v-3.578h-.323a.845.845 0 0 0-.117-.235zm-.352 5.983v-.733c0-.235-.029-.528-.059-.851-.029-.323-.059-.704-.117-1.085-.059-.411-.117-.851-.234-1.261a1.236 1.236 0 0 0-.323-.528c-.146-.147-.353-.293-.528-.323-.205-.059-.322 0-.439.146a1.562 1.562 0 0 0-.264.587 3.112 3.112 0 0 0-.088.733l-.029.411v.381c-.029.528 0 1.056.029 1.584s.088 1.027.146 1.525.176.968.293 1.378c.088.206.146.411.264.586v.03l.029.029.029.029.088.029c.088 0 .146-.059.234-.118.265-.264.411-.616.559-.938.117-.293.205-.586.264-.821.059-.234.088-.411.088-.528.058-.203.058-.262.058-.262zm0 0s0 .264-.117.733c-.059.235-.117.499-.234.821s-.235.675-.499.997a.457.457 0 0 1-.294.206c-.059.029-.146 0-.205 0-.029-.029-.088-.029-.088-.059l-.029-.029-.029-.029v-.029c-.176-.176-.264-.381-.381-.616-.205-.44-.353-.909-.499-1.408-.117-.499-.235-1.027-.294-1.555s-.088-1.085-.059-1.643l.029-.411.029-.411c.029-.293.088-.557.147-.851.088-.264.205-.557.44-.821a.941.941 0 0 1 .469-.264c.176-.03.352 0 .498.059.294.117.499.322.676.528.176.205.293.469.322.704.059.469.088.909.088 1.32s.029.792.029 1.114v1.644h.001zm-.968-.498s.411-1.877.029-2.024c-.381-.146-.264.821-.264.821-.263 1.144.235 1.203.235 1.203z"/><path fill="#C68D4D" d="M208.047 139.719c.146.411.234.675.234.675s-.088-.323-.234-.675zm-2.142-1.232c-.675 1.379-.821 3.843-.821 3.843s1.027-3.637 1.877-3.725c.499-.059.852.586 1.057 1.085-.059-.176-.117-.381-.205-.616l-.029-.029c-.118-.381-.294-.821-.44-1.261-.353-.968-.528-2.611-.616-4.4-.146-.059-.293-.088-.439-.117.027 1.964.262 3.871-.384 5.22z"/><path fill="#C68D4D" d="M206.141 187.793c.029-2.845.527-7.948.645-10.617.117-2.67-.176-16.25-.117-18.626.059-2.347.352-6.746.088-7.89-.264-1.144-1.965-3.139-2.229-6.248-.265-3.109.645-5.515 1.29-7.362.323-.88.323-2.258.265-3.813-.147-.029-.294-.029-.44-.029h-.089c.06 1.32.089 2.346.029 2.815-.205 1.701-1.466 4.488-1.789 7.626-.322 3.167 1.643 5.866 2.112 7.01.47 1.144.44 2.522.323 3.93-.088 1.408.176 11.41.176 14.695s.088 6.863-.117 8.858c-.205 1.994-.852 7.274-.764 9.239.059 1.32.323 6.424.47 9.533h.558c-.177-2.697-.411-7.185-.411-9.121zm.791-2.287s-.293 3.578-.088 4.898c.176 1.319-.029 1.643-.029 1.643s-.527-4.986-.205-5.75l.322-.791zm-2.463-47.693c.264-1.203.41-2.581.264-4.429v-.059a1.884 1.884 0 0 0-.704.293c-.059 3.109-.177 6.189-.177 6.189s.352-.791.617-1.994zm.029 12.701c.645.938 1.319 1.378 1.319 4.135 0 2.758-.47 11.851-.265 13.698.206 1.818.793 5.983.353 8.154s-.909 5.69-.909 6.481c0 .793-.029 1.145-.029 1.145s-.059-.968-.029-3.754c.029-2.787.557-3.521.645-5.75.089-2.229-.615-5.631-.615-8.77s.498-7.392.41-8.74c-.088-1.35-.029-2.142-.498-3.989-.499-1.819-.382-2.61-.382-2.61z"/><path fill="#C68D4D" d="M203.031 134.411a20.665 20.665 0 0 1-.176 2.023c-.059.528-.117 1.115-.206 1.76.147.234.294.44.47.645.088-1.291.176-2.317.234-2.787.059-.499.088-1.231.117-2.112l-.439.471zm1.35 52.532a429.47 429.47 0 0 0-.382-11.763c-.177-3.52-.029-5.221.146-7.216.146-1.994.704-7.42.382-11.468-.323-4.048-1.203-6.189-1.584-8.154-.265-1.349-.059-5.72.176-8.946a3.909 3.909 0 0 0-.558.851h-.029c-.146 2.053-.205 4.429-.146 6.98.088 4.341 1.173 7.568 1.613 11.411.44 3.842-.06 3.226-.587 6.041-.527 2.816.059 8.595.234 10.766.176 2.17.146 8.359.176 12.113 0 2.552 0 6.863.029 9.357h.559l-.029-9.972z"/><path fill="#C68D4D" d="M204.85 172.658s.527 1.291.293 2.376c-.234 1.056-.117.47-.352-.234-.205-.675-.322-1.672.059-2.142zm4.135-16.102c-.147 1.524-.294 2.962-.411 3.726-.293 1.936.264 10.441.234 12.67-.029 2.229.235 14.197.177 16.455-.029 1.525-.029 5.25 0 7.51h.029v-27.631c-.118-3.461-.235-6.336-.265-7.068-.059-.998.029-3.051.265-5.221v-.44h-.029zm-6.747 37.573c.06.997.118 1.994.147 2.787h.47c-.029-1.057-.088-2.523-.294-3.844-.353-2.316-.616-7.919.294-11.175.908-3.255.029-5.778-.206-7.187-.234-1.407-.411-6.951-.352-9.238.059-2.288.968-4.986 1.173-7.274.146-1.907-.88-4.928-1.232-5.896v.352c.206 1.174.646 3.695.734 5.074.117 1.32-.353 3.227-.734 5.221v12.672c.118.88.206 1.701.353 2.404.558 3.139-.059 3.109-.353 4.43v11.674z"/><linearGradient id="b" gradientUnits="userSpaceOnUse" x1="1357.958" y1="-684.977" x2="1357.958" y2="-1019.875" gradientTransform="matrix(.2933 0 0 -.2933 -147.187 -97.946)"><stop offset="0" stop-color="#f1d4af"/><stop offset="1" stop-color="#a77c4f"/></linearGradient><path fill="url(#b)" d="M300 102.967h-11.527v12.29h-12.318v12.26h-12.32v12.29h-12.318v12.29h-12.319v12.26h-12.319v12.29h-12.318v12.261h-12.32v12.289H300"/><linearGradient id="c" gradientUnits="userSpaceOnUse" x1="1013.209" y1="-1069.48" x2="1013.209" y2="-1019.58" gradientTransform="matrix(.2933 0 0 -.2933 -147.187 -97.946)"><stop offset="0" stop-color="#f1d4af"/><stop offset="1" stop-color="#c68d4d"/></linearGradient><path fill="url(#c)" d="M0 201.109h300v14.637H0v-14.637z"/><path fill="#C68D4D" d="M249.463 195.185h9.737v20.151h-9.737v-20.151z"/><path fill="#996B3D" d="M256.941 195.185h2.259v20.151h-2.259v-20.151z"/><path fill="#B2A58E" d="M246.207 210.467l2.287 4.957h13.492l1.818-6.307-4.604 2.816-2.259-2.816-2.61 3.168-1.231-3.168-2.054 2.816-4.839-1.466z"/><path fill="#00725A" d="M273.221 165.062h12.348l-18.654-26.779h9.24l-21.882-31.355.059.146v89.079h38.601l-19.712-31.091zm-37.897 0l-19.593 31.091 19.593-31.091z"/><path fill="#0DB06D" d="M254.331 138.282v-31.208l-.059-.146-21.764 31.355h9.151l-18.566 26.779h12.23l-19.593 31.091h38.6v-57.871z"/><circle fill="none" cx="254.302" cy="100.621" r="6.159"/><linearGradient id="d" gradientUnits="userSpaceOnUse" x1="1247.072" y1="-867.725" x2="1392.773" y2="-867.725" gradientTransform="scale(.2932 -.2932) rotate(3.5 -4837.89 -7966.04)"><stop offset="0" stop-color="#f15b29"/><stop offset=".076" stop-color="#f15c2c"/><stop offset=".127" stop-color="#f16035"/><stop offset=".169" stop-color="#f16744"/><stop offset=".208" stop-color="#f27159"/><stop offset=".243" stop-color="#f37d74"/><stop offset=".276" stop-color="#f48d95"/><stop offset=".296" stop-color="#f597ad"/><stop offset=".608" stop-color="#f15b29"/><stop offset=".805" stop-color="#f597ad"/><stop offset="1" stop-color="#f15b29"/></linearGradient><path fill="url(#d)" d="M277.885 149.839c-.088-.088-.176-.088-.265-.059l-1.407.645-.117-.029.088-.675c.029-.117-.029-.234-.117-.323-.089-.088-.177-.088-.294-.029l-1.319.675-.089-.029.089-.675a.324.324 0 0 0-.089-.293c-.088-.088-.176-.088-.264-.059l-1.496.645-.146-.029.088-.675a.326.326 0 0 0-.088-.293c-.088-.088-.176-.088-.265-.059l-1.407.645-.117-.029.088-.675c.029-.117-.029-.234-.117-.322-.089-.088-.177-.088-.294-.029l-1.319.674-.089-.029.089-.674a.322.322 0 0 0-.089-.293c-.088-.088-.176-.088-.264-.059l-1.467.645-.146-.029.088-.675a.326.326 0 0 0-.088-.293c-.088-.088-.176-.088-.264-.059l-1.408.645-.117-.029.088-.674c.029-.118-.029-.235-.117-.323-.088-.088-.176-.088-.293-.029l-1.32.674-.088-.029.088-.674a.325.325 0 0 0-.088-.293c-.088-.088-.176-.088-.264-.059l-1.496.645-.146-.029.088-.674a.325.325 0 0 0-.088-.293c-.088-.088-.176-.088-.264-.059l-1.408.645-.117-.029.088-.674c.029-.118-.029-.235-.117-.323s-.176-.088-.293-.029l-1.32.674-.088-.029.088-.674a.325.325 0 0 0-.088-.293c-.088-.088-.176-.088-.264-.059l-1.496.645-.146-.029.088-.674a.325.325 0 0 0-.088-.293c-.088-.088-.177-.088-.265-.059l-1.407.645-.118-.029.089-.674c.029-.118-.029-.235-.118-.323-.088-.088-.176-.088-.293-.029l-1.32.674-.088-.029.088-.674a.322.322 0 0 0-.088-.293c-.088-.088-.176-.088-.264-.059l-1.467.645-.146-.029.088-.674a.326.326 0 0 0-.088-.293c-.088-.088-.177-.088-.265-.059l-1.407.645-.118-.029.089-.674c.029-.118-.029-.235-.118-.323-.088-.088-.176-.088-.293-.029l-1.319.675-.089-.029.089-.675a.326.326 0 0 0-.089-.293c-.088-.088-.176-.088-.264-.059l-1.496.646-.146-.03.088-.674a.326.326 0 0 0-.088-.293c-.088-.088-.176-.088-.264-.059l-1.408.646-.117-.029.088-.675c.029-.117-.029-.235-.117-.323s-.176-.088-.293-.029l-1.32.675-.088-.029.088-.675a.326.326 0 0 0-.088-.293c-.088-.088-.176-.088-.264-.059l-1.496.646-.146-.029.088-.675a.326.326 0 0 0-.088-.293c-.088-.088-.176-.088-.264-.059l-1.408.646-.117-.029.088-.675c.029-.117-.029-.235-.117-.323s-.176-.088-.293-.029c0 0-1.32.528-1.966 1.73-.704 1.32-.616 3.256-.616 3.256-.029.117.029.235.117.323s.176.088.293.029l1.35-.381-.059.411v.088c0 .029 0 .059.029.088a.356.356 0 0 0 .205.206c.059 0 .117 0 .176-.029l1.467-.352-.059.381a.326.326 0 0 0 .088.293c.088.088.176.088.265.059l1.613-.323-.06.381c-.029.117.029.234.118.323.088.088.176.088.293.029l1.35-.381-.06.411v.088c0 .029 0 .059.029.088a.36.36 0 0 0 .206.206c.059 0 .117 0 .176-.029l1.467-.352-.059.381a.326.326 0 0 0 .088.293c.088.088.176.088.265.059l1.612-.323-.059.381c-.029.117.029.234.118.322.088.088.176.088.293.03l1.35-.381-.06.411v.088c0 .029 0 .059.029.088a.357.357 0 0 0 .206.206c.059 0 .117 0 .176-.029l1.467-.352-.059.381a.326.326 0 0 0 .088.293c.088.088.176.088.264.059l1.613-.322-.059.381c-.029.118.029.235.117.323.088.088.176.088.293.029l1.35-.381-.059.411v.088c0 .029 0 .059.029.088a.351.351 0 0 0 .205.205c.059 0 .117 0 .176-.029l1.467-.352-.059.381a.328.328 0 0 0 .088.294c.088.088.176.088.264.059l1.613-.323-.059.382c-.029.117.029.234.117.322s.176.088.293.029l1.35-.381-.059.41v.088c0 .029 0 .059.029.088a.351.351 0 0 0 .205.205c.059 0 .117 0 .176-.029l1.467-.352-.059.381a.328.328 0 0 0 .088.294c.088.088.176.088.265.059l1.612-.323-.059.382c-.029.117.029.235.118.323.088.088.176.088.293.029l1.35-.382-.06.411v.088c0 .029 0 .059.029.088.03.088.118.176.206.205.059 0 .117 0 .176-.029l1.467-.352-.059.381a.326.326 0 0 0 .088.293c.088.088.176.088.265.059l1.612-.322-.059.381c-.029.117.029.235.118.323.088.088.176.088.293.029l1.349-.382-.059.411v.088c0 .029 0 .059.029.088a.355.355 0 0 0 .206.206c.059 0 .117 0 .176-.029l1.467-.353-.059.382a.326.326 0 0 0 .088.293c.088.088.176.088.264.059l1.613-.322-.059.381c-.029.117.029.234.117.322s.176.088.293.029l1.35-.381-.059.41v.088c0 .029 0 .059.029.088a.353.353 0 0 0 .205.206c.059 0 .117 0 .176-.029l1.467-.353-.059.382a.326.326 0 0 0 .088.293c.088.088.176.088.264.059 0 0 .939-.44 1.291-2.962.117-1.128-.47-2.419-.527-2.477z"/><linearGradient id="e" gradientUnits="userSpaceOnUse" x1="1309.753" y1="-769.027" x2="1416.711" y2="-769.027" gradientTransform="matrix(.2933 0 0 -.2933 -147.187 -97.946)"><stop offset="0" stop-color="#f6e002"/><stop offset=".136" stop-color="#f7dd04"/><stop offset=".226" stop-color="#f7d40c"/><stop offset=".301" stop-color="#f8c518"/><stop offset=".369" stop-color="#fab02a"/><stop offset=".388" stop-color="#fba930"/><stop offset=".697" stop-color="#f6e002"/><stop offset="1" stop-color="#fcb867"/></linearGradient><path fill="url(#e)" d="M268.352 125.523c.088-1.203-.586-2.024-.646-2.024-.117 0-.41.528-.41.528l-.06-.47c0-.088-.059-.146-.117-.176s-.146 0-.205.029l-.851.792-.088.029-.059-.469c0-.088-.059-.146-.117-.176-.059-.03-.146 0-.206.059l-.762.763h-.059l-.059-.47c0-.088-.059-.146-.117-.176s-.146-.029-.206.029l-.88.792-.117.029-.059-.469c0-.088-.059-.146-.117-.176-.059-.03-.146 0-.205.029l-.852.792-.088.029-.059-.47c0-.088-.059-.146-.117-.176s-.146 0-.205.059l-.763.763h-.059l-.059-.469a.199.199 0 0 0-.117-.176.183.183 0 0 0-.206.029l-.879.792-.117.029-.06-.469c0-.088-.059-.146-.117-.176s-.146 0-.205.029l-.851.792-.088.029-.059-.469c0-.088-.059-.147-.117-.176s-.146 0-.206.059l-.763.762h-.059l-.059-.469c0-.088-.059-.146-.117-.176s-.146-.029-.205.029l-.881.792-.117.029-.059-.469c0-.088-.059-.147-.117-.176s-.146 0-.205.029l-.851.792-.088.029-.059-.469c0-.088-.059-.146-.118-.176-.059-.029-.146 0-.205.059l-.762.763h-.059l-.059-.469a.199.199 0 0 0-.117-.176.183.183 0 0 0-.206.029l-.88.792-.117.029-.059-.469c0-.088-.059-.146-.117-.176s-.146 0-.205.029l-.852.792-.088.029-.059-.469c0-.088-.059-.147-.117-.176s-.146 0-.205.059l-.763.763h-.059l-.06-.469c0-.088-.059-.146-.117-.176a.178.178 0 0 0-.205.029l-.88.792-.117.029-.059-.469c0-.088-.059-.147-.117-.176s-.147 0-.206.029l-.85.792-.088.029-.059-.469c0-.088-.059-.146-.117-.176-.06-.029-.147 0-.206.059l-.763.763h-.059l-.059-.47c0-.088-.059-.146-.117-.176s-.146-.029-.205.029l-.881.792-.117.029-.059-.469c0-.088-.059-.146-.117-.176-.059-.029-.146 0-.205.03l-.851.792-.088.029-.06-.469c0-.088-.059-.146-.117-.176s-.146 0-.205.059l-.762.763h-.059l-.06-.469c0-.088-.059-.146-.117-.176a.18.18 0 0 0-.205.03l-.88.792-.117.029-.059-.469c0-.088-.059-.146-.117-.176s-.147 0-.206.029l-.851.792-.088.029-.059-.469c0-.088-.059-.147-.117-.176s-.146 0-.205.059c0 0-.91.821-.969 1.995-.059 1.144.205 2.083.264 2.112.06.029.147 0 .206-.059l.851-.586.029.264v.059l.029.059c.029.059.117.088.176.088s.088-.029.117-.059l.939-.616.029.264c0 .088.059.146.117.176s.146.029.205-.029l1.026-.645.029.264c0 .088.06.147.118.176s.146 0 .205-.059l.85-.587.029.264v.059l.029.059c.029.059.118.088.177.088s.088-.029.117-.059l.938-.616.029.264c0 .088.059.147.117.176s.146.029.205-.029l1.027-.646.029.264c0 .088.059.146.117.176s.146 0 .205-.059l.852-.586.029.264v.059l.029.059c.029.059.117.088.176.088s.088-.029.117-.059l.938-.616.029.264c0 .088.059.146.117.176s.146.029.206-.029l1.025-.645.029.264c0 .088.059.147.117.176.06.029.147 0 .206-.059l.851-.587.029.264v.059l.029.059c.029.059.117.088.176.088s.088-.029.117-.059l.939-.616.029.264c0 .088.059.147.117.176s.146.029.205-.029l1.026-.646.029.264c0 .088.059.146.118.176.059.029.146 0 .205-.059l.85-.586.029.264v.059l.029.059c.029.059.118.088.177.088s.088-.029.117-.059l.938-.616.029.264c0 .088.059.146.117.176s.146.029.205-.029l1.027-.645.029.264c0 .088.059.146.117.176.059.029.146 0 .205-.059l.851-.586.03.264v.059l.029.059c.029.059.117.088.176.088s.088-.029.117-.059l.938-.616.029.264c0 .088.059.147.117.176s.146.029.205-.029l1.026-.646.029.264c0 .088.059.146.117.176s.147 0 .206-.059l.851-.586.029.264v.059l.029.059c.029.059.117.088.176.088s.088-.029.117-.059l.939-.616.029.264c0 .088.059.146.117.176s.146.029.205-.029l1.026-.646.029.264c0 .088.059.146.118.176.059.029.146 0 .205-.059l.85-.586.029.264v.059l.029.059c.029.059.118.088.177.088s.088-.029.117-.059l.938-.616.029.264c0 .088.059.146.117.176.059.03.146.03.205-.029.263.406.909-.385.997-1.383z"/><linearGradient id="f" gradientUnits="userSpaceOnUse" x1="1265.62" y1="-929.028" x2="1446.676" y2="-929.028" gradientTransform="matrix(.2933 0 0 -.2933 -147.187 -97.946)"><stop offset="0" stop-color="#f6e002"/><stop offset=".136" stop-color="#f7dd04"/><stop offset=".226" stop-color="#f7d40c"/><stop offset=".301" stop-color="#f8c518"/><stop offset=".369" stop-color="#fab02a"/><stop offset=".388" stop-color="#fba930"/><stop offset=".697" stop-color="#f6e002"/><stop offset="1" stop-color="#fcb867"/></linearGradient><path fill="url(#f)" d="M277.092 168.053c-.264-1.29-1.495-2.199-1.495-2.199l-.792.763-.205.059-.146-.704c-.029-.117-.118-.205-.235-.234s-.234 0-.323.088l-1.319 1.32-.146.029-.146-.704c-.029-.118-.118-.206-.235-.235s-.234 0-.322.088l-1.203 1.291-.117.029-.146-.703c-.029-.118-.117-.206-.234-.235s-.234 0-.322.088l-1.408 1.35-.176.059-.146-.704a.317.317 0 0 0-.234-.234.332.332 0 0 0-.323.088l-1.319 1.32-.147.029-.146-.705a.317.317 0 0 0-.234-.234.332.332 0 0 0-.323.088l-1.202 1.291-.117.029-.147-.704c-.029-.117-.117-.205-.234-.234s-.234 0-.322.088l-1.408 1.349-.205.059-.146-.703c-.029-.117-.117-.205-.234-.234s-.234 0-.323.088l-1.319 1.319-.146.03-.147-.705c-.029-.117-.117-.205-.234-.234s-.235 0-.323.088l-1.202 1.291-.117.029-.146-.704a.318.318 0 0 0-.235-.234.329.329 0 0 0-.322.088l-1.408 1.349-.205.059-.146-.703c-.029-.117-.117-.205-.234-.234s-.234 0-.322.088l-1.32 1.319-.146.029-.146-.704a.316.316 0 0 0-.235-.234.33.33 0 0 0-.322.088l-1.202 1.291-.118.029-.146-.704a.316.316 0 0 0-.234-.235.332.332 0 0 0-.323.088l-1.408 1.35-.176.059-.146-.703a.32.32 0 0 0-.234-.235.329.329 0 0 0-.322.089l-1.32 1.319-.146.029-.146-.704c-.029-.117-.117-.205-.234-.234s-.235 0-.323.088l-1.202 1.291-.117.029-.146-.705c-.029-.117-.118-.205-.235-.234s-.234 0-.323.088l-1.407 1.35-.206.059-.146-.703c-.029-.118-.117-.206-.234-.235s-.234 0-.322.088l-1.32 1.32-.146.029-.146-.704c-.029-.117-.117-.205-.234-.234s-.234 0-.322.088l-1.203 1.291-.117.029-.146-.705a.316.316 0 0 0-.235-.234.33.33 0 0 0-.322.088l-1.408 1.35-.205.059-.146-.704c-.03-.117-.118-.205-.235-.234s-.234 0-.322.088l-1.32 1.319-.146.029-.146-.703c-.029-.117-.117-.205-.234-.234s-.234 0-.322.088l-1.203 1.29-.117.029-.146-.704c-.029-.117-.117-.205-.234-.234s-.235 0-.323.088l-1.407 1.35-.177.059-.146-.704a.317.317 0 0 0-.234-.234.332.332 0 0 0-.323.088l-1.319 1.319-.147.029-.146-.703c-.029-.117-.117-.205-.234-.234s-.234 0-.322.088c0 0-1.789 1.701-1.76 3.256.029 1.495.879 2.874.879 2.874.03.117.118.205.235.234s.235 0 .323-.088l1.378-1.026.088.41v.029c0 .029 0 .029.029.059l.059.088c.089.088.206.117.294.088s.146-.059.176-.117l1.525-1.056.088.411c.029.117.117.205.234.234s.234 0 .322-.088l1.672-1.115.088.411a.32.32 0 0 0 .235.235c.117.029.234 0 .322-.089l1.379-1.026.088.41v.029c0 .029 0 .029.029.059 0 .029.029.059.059.088.088.089.206.118.294.089s.146-.06.176-.118l1.525-1.055.088.41c.029.117.117.205.234.234s.234 0 .322-.088l1.672-1.115.088.411c.029.118.117.206.234.235s.235 0 .323-.088l1.378-1.027.088.41v.029c0 .029 0 .029.029.059l.06.089c.088.088.205.117.293.088.089-.029.147-.059.177-.117l1.524-1.056.089.41c.029.117.117.205.234.234s.234 0 .322-.088l1.672-1.114.088.411c.029.117.117.205.234.234s.234 0 .322-.088l1.379-1.027.088.411v.029c0 .029 0 .029.029.059l.059.088c.088.088.206.117.294.088s.146-.059.176-.117l1.525-1.056.088.41a.316.316 0 0 0 .235.234.33.33 0 0 0 .322-.088l1.672-1.114.088.411c.029.117.117.205.234.234s.234 0 .322-.088l1.379-1.027.088.411v.029c0 .029 0 .029.029.059 0 .029.029.059.059.088.088.088.205.118.293.088.089-.029.147-.059.177-.117l1.525-1.056.088.41a.317.317 0 0 0 .234.234c.118.029.235 0 .323-.088l1.672-1.114.088.411c.029.117.117.205.234.234s.234 0 .322-.088l1.379-1.027.088.411v.029c0 .029 0 .029.029.059l.059.089c.088.088.205.117.293.088s.146-.059.176-.117l1.525-1.057.088.41c.029.117.118.206.235.235s.234 0 .323-.089l1.672-1.113.088.41c.029.117.117.205.234.234s.234 0 .322-.088l1.379-1.026.088.411v.029c0 .029 0 .029.029.059l.059.088c.088.088.205.117.293.088s.146-.059.176-.117l1.525-1.057.088.41a.316.316 0 0 0 .234.235c.118.029.235 0 .323-.088l1.672-1.114.088.41c.029.117.118.205.235.234s.234 0 .322-.088l1.379-1.026.088.411v.029c0 .029 0 .029.029.059 0 .029.029.059.059.088.088.088.205.117.293.088s.146-.059.176-.117l1.525-1.057.088.411c.029.117.117.205.234.234s.235 0 .323-.088l.997-.938c-.117-.009.645-1.358.381-2.649z"/><linearGradient id="g" gradientUnits="userSpaceOnUse" x1="1269.068" y1="-959.227" x2="1269.475" y2="-959.227" gradientTransform="matrix(.2933 0 0 -.2933 -147.187 -97.946)"><stop offset="0" stop-color="#f6e002"/><stop offset=".136" stop-color="#f7dd04"/><stop offset=".226" stop-color="#f7d40c"/><stop offset=".301" stop-color="#f8c518"/><stop offset=".369" stop-color="#fab02a"/><stop offset=".388" stop-color="#fba930"/><stop offset=".697" stop-color="#f6e002"/><stop offset="1" stop-color="#fcb867"/></linearGradient><path fill="url(#g)" d="M225.059 183.394l.117.029"/><linearGradient id="h" gradientUnits="userSpaceOnUse" x1="1395.811" y1="-783.829" x2="1395.811" y2="-810.779" gradientTransform="matrix(.2933 0 0 -.2933 -147.187 -97.946)"><stop offset="0" stop-color="#fff"/><stop offset="1" stop-color="#decce4"/></linearGradient><circle fill="url(#h)" cx="262.221" cy="135.906" r="3.96"/><path opacity=".1" fill="#82368B" d="M259.054 136.2a3.605 3.605 0 0 1 3.607-3.608c.206 0 .411.029.616.059a3.036 3.036 0 0 0-1.262-.264 3.249 3.249 0 0 0-3.256 3.256c0 .704.235 1.349.587 1.877a2.917 2.917 0 0 1-.292-1.32z"/><path fill="#E12145" d="M262.221 137.08l-1.172.586.234-1.261-.939-.938 1.291-.176.586-1.173.588 1.203 1.29.176-.938.909.205 1.291-1.145-.617z"/><path fill="#F1617A" d="M264.099 135.496l-1.261-.176-.617.586v-1.789l-.586 1.173-1.291.176.939.938-.234 1.261 1.172-.586 1.145.616-.205-1.291.938-.908z"/><path fill="#E12145" d="M263.16 136.405l.938-.909-1.878.411.94.498zm-.939.675l1.145.616-1.145-1.789v1.173zm-.938-.675l-.234 1.261 1.172-1.76-.938.499zm.938-.499l-.557-.616h-.029l-1.262.176 1.848.44z"/><path fill="#F496AC" d="M256.941 194.979h35.374v6.247h-35.374v-6.247z"/><path opacity=".4" fill="#542437" d="M258.115 201.726h1.261v13.728h-1.261v-13.728zm-1.76-6.394h2.375v6.364h-2.375v-6.364z"/><path fill="#F1738F" d="M280.612 201.197l2.64-6.218h-3.578l-2.641 6.218h3.579zm-7.391 0l2.669-6.218h-3.578l-2.669 6.218h3.578zm-7.363 0l2.669-6.218h-3.578l-2.669 6.218h3.578zm-4.721-6.218h-3.579l-.616 1.466v4.752h1.555l2.64-6.218zm26.838 6.218l2.669-6.218h-3.579l-2.668 6.218h3.578z"/><path fill="#F496AC" d="M279.351 201.197l-6.101 14.256h3.813l6.072-14.256h-3.784zm-14.753 0l-5.896 13.786v-8.359l2.317-5.427h-2.317v14.256h3.608l6.101-14.256h-3.813zm22.115 0l-6.071 14.256h3.784l6.1-14.256h-3.813zm3.812 14.256v-5.926l-2.521 5.926h2.521zm-18.566-14.256l-6.071 14.256h3.784l6.101-14.256h-3.814z"/><path fill="#F1738F" d="M258.701 214.983l5.896-13.786h-3.579l-2.317 5.427v8.359zm31.824-13.786l-6.1 14.256h3.578l2.521-5.926v-8.33zm-3.812 0h-3.578l-6.072 14.256h3.579l6.071-14.256zm-7.362 0h-3.578l-6.101 14.256h3.578l6.101-14.256zm-7.392 0h-3.549l-6.101 14.256h3.578l6.072-14.256z"/><linearGradient id="i" gradientUnits="userSpaceOnUse" x1="1412.035" y1="-1033.579" x2="1427.071" y2="-1033.579" gradientTransform="matrix(.2933 0 0 -.2933 -147.187 -97.946)"><stop offset="0" stop-color="#b1465c"/><stop offset="1" stop-color="#f0617a"/></linearGradient><path fill="url(#i)" d="M266.973 194.979h4.4v20.474h-4.4v-20.474z"/><linearGradient id="j" gradientUnits="userSpaceOnUse" x1="367" y1="-945.389" x2="351.705" y2="-960.684" gradientTransform="rotate(135.002 89.846 -7.398) scale(.2933)"><stop offset="0" stop-color="#993c4f"/><stop offset="1" stop-color="#f0617a"/></linearGradient><path fill="url(#j)" d="M272.84 199.174v-1.584h1.584l-2.377-2.405-2.375-2.376-.793.793-.791.791 2.375 2.405 2.377 2.376z"/><linearGradient id="k" gradientUnits="userSpaceOnUse" x1="1676.522" y1="364.132" x2="1661.225" y2="348.834" gradientTransform="scale(.2933 -.2933) rotate(-45 51.805 761.476)"><stop offset="0" stop-color="#993c4f"/><stop offset="1" stop-color="#f0617a"/></linearGradient><path fill="url(#k)" d="M264.979 199.174v-1.584h-1.584l2.376-2.405 2.376-2.376.791.793.793.791-2.376 2.405-2.376 2.376z"/><linearGradient id="l" gradientUnits="userSpaceOnUse" x1="1264.307" y1="-560.236" x2="1294.904" y2="-560.236" gradientTransform="rotate(90 145.134 -36.62) scale(.2933)"><stop offset="0" stop-color="#b1465c"/><stop offset="1" stop-color="#f0617a"/></linearGradient><path fill="url(#l)" d="M276.77 189.084l-3.93 2.258-3.932 2.23 3.932 2.229 3.93 2.258-1.056-4.486 1.056-4.489z"/><linearGradient id="m" gradientUnits="userSpaceOnUse" x1="1264.307" y1="1330.403" x2="1294.904" y2="1330.403" gradientTransform="matrix(0 .2933 .2933 0 -125.246 -181.753)"><stop offset="0" stop-color="#b1465c"/><stop offset="1" stop-color="#f0617a"/></linearGradient><path fill="url(#m)" d="M261.049 189.084l3.93 2.258 3.93 2.23-3.93 2.229-3.93 2.258 1.055-4.486-1.055-4.489z"/><path opacity=".1" fill="#1D1C1A" d="M270.845 192.457l.294.498v1.203l-.294.527-1.937-1.113 1.937-1.115zm-4.165.498l.293-.498 1.936 1.115-1.936 1.113-.293-.527v-1.203z"/><linearGradient id="n" gradientUnits="userSpaceOnUse" x1="-493.498" y1="-555.035" x2="-493.498" y2="-543.561" gradientTransform="rotate(180 62.08 16.228) scale(.2933)"><stop offset="0" stop-color="#b1465c"/><stop offset="1" stop-color="#f0617a"/></linearGradient><path fill="url(#n)" d="M269.349 195.244l.792-.44.439-.792v-.88l-.439-.792-.792-.44h-.88l-.792.44-.44.792v.88l.44.792.792.44h.88z"/><path opacity=".2" fill="#36393B" d="M258.701 201.197h31.824v3.109h-31.824v-3.109z"/><linearGradient id="o" gradientUnits="userSpaceOnUse" x1="1483.84" y1="-1006.546" x2="1483.84" y2="-943.937" gradientTransform="matrix(.2933 0 0 -.2933 -147.187 -97.946)"><stop offset="0" stop-color="#eee0b7"/><stop offset=".474" stop-color="#ede0ba"/><stop offset=".785" stop-color="#ede2c2"/><stop offset="1" stop-color="#ece5ce"/></linearGradient><path fill="url(#o)" d="M293.958 179.287l4.957 8.184a.757.757 0 0 1-.265 1.026l-14.195 8.771c-.353.205-6.806-1.262-7.305-2.054-.469-.792 1.203-7.187 1.555-7.421l14.197-8.77c.381-.205.85-.087 1.056.264z"/><linearGradient id="p" gradientUnits="userSpaceOnUse" x1="1452.111" y1="-998.431" x2="1452.111" y2="-994.032" gradientTransform="matrix(.2933 0 0 -.2933 -147.187 -97.946)"><stop offset="0" stop-color="#eee0b7"/><stop offset=".474" stop-color="#ede0ba"/><stop offset=".785" stop-color="#ede2c2"/><stop offset="1" stop-color="#ece5ce"/></linearGradient><circle opacity=".4" fill="url(#p)" cx="278.734" cy="194.276" r=".645"/><linearGradient id="q" gradientUnits="userSpaceOnUse" x1="1486.56" y1="-949.579" x2="1486.56" y2="-1001.676" gradientTransform="matrix(.2933 0 0 -.2933 -147.187 -97.946)"><stop offset="0" stop-color="#eee0b7"/><stop offset=".474" stop-color="#ede0ba"/><stop offset=".785" stop-color="#ede2c2"/><stop offset="1" stop-color="#ece5ce"/></linearGradient><path opacity=".4" fill="url(#q)" d="M293.254 180.578l4.37 7.215-13.198 8.066-4.371-7.244 13.199-8.037z"/><path d="M281.199 188.468l-.029.147-.47.293-.147-.029.646-.411zm.293 1.379l-.587-.909-.234.146.029-.146.234-.146.587.908-.029.147zm-.322-1.232l.146.029-.234.146.586.908-.146-.029-.587-.908.235-.146zm1.055-.352l.294.47c.059.088.059.205.059.293-.029.088-.088.176-.176.234s-.206.059-.294.059a.45.45 0 0 1-.234-.176l-.293-.469c-.059-.088-.059-.206-.059-.294a.45.45 0 0 1 .176-.234c.088-.06.205-.06.293-.06.087.03.175.089.234.177zm-.088.058c-.088-.117-.264-.176-.381-.088s-.176.264-.088.382l.293.469c.088.117.264.176.382.088.117-.088.176-.264.088-.381l-.294-.47zm0 0l.294.47c.088.117.029.293-.088.381-.118.088-.294.029-.382-.088l-.293-.469c-.088-.118-.029-.294.088-.382.146-.058.293-.029.381.088zm-.088.059c-.029-.029-.059-.059-.088-.059s-.088 0-.117.029-.059.059-.088.117c0 .029 0 .088.029.118l.293.469c.029.029.059.059.088.059s.088 0 .118-.029c.029-.029.059-.059.059-.088s0-.088-.029-.117l-.265-.499zm1.056-.088l-.176.117-.117-.176.176-.117.117.176zm.235.353l-.176.117-.117-.176.176-.118.117.177z" opacity=".23"/><path fill="#542437" d="M20.033 214.279l4.751-10.911h156.16l3.139 10.911H20.033z"/><path fill="#231F20" stroke="#000" stroke-miterlimit="10" d="M25.753 204.395l153.901.234m-157.655 8.507l160.588.264"/><path fill="#EEDD12" d="M234.151 181.34h.088v.029h-.088v-.029z"/><path fill="#ECDEB6" d="M219.691 206.448h-1.35 1.672-.322z"/><linearGradient id="r" gradientUnits="userSpaceOnUse" x1="1247.421" y1="-1037.779" x2="1253.075" y2="-1037.779" gradientTransform="matrix(.2933 0 0 -.2933 -147.187 -97.946)"><stop offset="0" stop-color="#f0617a"/><stop offset="1" stop-color="#e12145"/></linearGradient><path fill="url(#r)" d="M219.691 206.448h-1.35 1.672-.322z"/><path fill="#F68F3D" d="M107.382 104.903a.373.373 0 1 1-.527.528.373.373 0 0 1 .527-.528m.264-.264c-.293-.293-.762-.293-1.056 0s-.293.763 0 1.056a.744.744 0 0 0 1.056 0 .744.744 0 0 0 0-1.056z"/><circle fill="#F68F3D" cx="100.518" cy="113.615" r=".733"/><path opacity=".2" fill="#1D1C1A" d="M101.046 113.086a.744.744 0 0 0-1.056 0c-.117.118-.206.293-.206.44l.47.352c.234.147.44.264.645.381.059-.029.088-.059.147-.117a.744.744 0 0 0 0-1.056z"/><linearGradient id="s" gradientUnits="userSpaceOnUse" x1="1678.569" y1="-46.065" x2="1678.569" y2="-10.585" gradientTransform="scale(.2933 -.2933) rotate(-45 600.477 1401.725)"><stop offset="0" stop-color="#f7d322"/><stop offset="1" stop-color="#f68f3d"/></linearGradient><path fill="url(#s)" d="M103.657 113.292v-.117l3.109-3.109c1.291-1.291 1.291-3.432 0-4.722s-3.432-1.291-4.722 0l-3.109 3.109h-.117c-.293.029-.528.118-.704.293-.176.176-.293.44-.293.704-.029.293.029.616.146.968s.293.733.557 1.115c.235.381.558.763.91 1.114.352.352.733.675 1.114.909.381.235.763.44 1.115.558s.704.176.968.146c.293-.029.528-.117.704-.293.204-.147.292-.382.322-.675z"/><path opacity=".1" fill="#1D1C1A" d="M107.235 105.9c.147-.029.323-.088.44-.205a.737.737 0 0 0 .03-1.027l-.352.176c.029 0 .029.029.059.059a.373.373 0 1 1-.528 0c.059-.059.088-.088.146-.088l-.117-.176c-.059-.059-.088-.088-.147-.117-.059.029-.088.059-.146.117s-.088.117-.117.176a.62.62 0 0 1 .146.088.373.373 0 1 1-.528 0l.059-.059-.352-.176a.736.736 0 0 0 .029 1.027.77.77 0 0 0 .44.205c-.821 1.291-.674 3.05.469 4.165l.029.029-.029-.029a3.423 3.423 0 0 0 .469-4.165z"/><path fill="#F68F3D" d="M106.854 104.903a.373.373 0 1 1 .529.528.373.373 0 0 1-.529-.528m-.264-.264a.744.744 0 0 0 0 1.056.744.744 0 0 0 1.056 0 .744.744 0 0 0 0-1.056.744.744 0 0 0-1.056 0z"/><circle fill="#F68F3D" cx="113.688" cy="113.615" r=".733"/><path opacity=".2" fill="#1D1C1A" d="M113.189 113.086a.744.744 0 0 1 1.056 0c.117.118.206.293.206.44l-.469.352c-.235.147-.44.264-.646.381-.059-.029-.088-.059-.146-.117a.743.743 0 0 1-.001-1.056z"/><linearGradient id="t" gradientUnits="userSpaceOnUse" x1="1069.328" y1="-655.316" x2="1069.328" y2="-619.832" gradientTransform="rotate(135.002 151.075 -80.913) scale(.2933)"><stop offset="0" stop-color="#f7d322"/><stop offset="1" stop-color="#f68f3d"/></linearGradient><path fill="url(#t)" d="M110.579 113.292v-.117l-3.109-3.109c-1.291-1.291-1.291-3.432 0-4.722s3.432-1.291 4.722 0l3.109 3.109h.117c.293.029.528.118.704.293.176.176.293.44.293.704.029.293-.029.616-.146.968s-.293.733-.557 1.115a6.347 6.347 0 0 1-.909 1.114 6.264 6.264 0 0 1-1.115.909c-.381.235-.763.44-1.115.558s-.704.176-.968.146c-.293-.029-.528-.117-.704-.293-.205-.147-.293-.382-.322-.675z"/><linearGradient id="u" gradientUnits="userSpaceOnUse" x1="1425.187" y1="-81.944" x2="1420.119" y2="-87.012" gradientTransform="scale(.2933 -.2933) rotate(-45 558.31 1056.588)"><stop offset="0" stop-color="#993c4f"/><stop offset="1" stop-color="#f0617a"/></linearGradient><path fill="url(#u)" d="M105.798 107.015v-.528h-.499l.763-.792.792-.763.264.234.264.264-.792.792-.792.793z"/><linearGradient id="v" gradientUnits="userSpaceOnUse" x1="810.423" y1="-696.661" x2="805.354" y2="-701.73" gradientTransform="rotate(135.002 108.006 -76.262) scale(.2933)"><stop offset="0" stop-color="#993c4f"/><stop offset="1" stop-color="#f0617a"/></linearGradient><path fill="url(#v)" d="M108.438 107.015v-.528h.499l-.762-.792-.792-.763-.264.234-.264.264.792.792.791.793z"/><linearGradient id="w" gradientUnits="userSpaceOnUse" x1="1417.718" y1="809.218" x2="1427.855" y2="809.218" gradientTransform="matrix(0 .2933 .2933 0 -131.542 -312.154)"><stop offset="0" stop-color="#b1465c"/><stop offset="1" stop-color="#f0617a"/></linearGradient><path fill="url(#w)" d="M104.507 103.671l1.32.763 1.291.733-1.291.733-1.32.763.352-1.496-.352-1.496z"/><linearGradient id="x" gradientUnits="userSpaceOnUse" x1="1417.718" y1="-21.152" x2="1427.855" y2="-21.152" gradientTransform="rotate(90 207.186 -104.968) scale(.2933)"><stop offset="0" stop-color="#b1465c"/><stop offset="1" stop-color="#f0617a"/></linearGradient><path fill="url(#x)" d="M109.728 103.671l-1.32.763-1.291.733 1.291.733 1.32.763-.352-1.496.352-1.496z"/><path opacity=".1" fill="#1D1C1A" d="M106.473 104.786l-.088.176v.411l.088.176.645-.381-.645-.382zm1.378.176l-.088-.176-.646.381.646.381.088-.176v-.41z"/><linearGradient id="y" gradientUnits="userSpaceOnUse" x1="867.009" y1="-694.38" x2="867.009" y2="-690.58" gradientTransform="matrix(.2933 0 0 -.2933 -147.187 -97.946)"><stop offset="0" stop-color="#b1465c"/><stop offset="1" stop-color="#f0617a"/></linearGradient><path fill="url(#y)" d="M106.971 105.725l-.264-.147-.146-.264v-.293l.146-.264.264-.146h.293l.264.146.146.264v.293l-.146.264-.264.147h-.293z"/><linearGradient id="z" gradientUnits="userSpaceOnUse" x1="1312.309" y1="-854.606" x2="1312.309" y2="-881.557" gradientTransform="matrix(.2933 0 0 -.2933 -147.187 -97.946)"><stop offset="0" stop-color="#fff"/><stop offset="1" stop-color="#decce4"/></linearGradient><circle fill="url(#z)" cx="237.73" cy="156.673" r="3.96"/><path opacity=".1" fill="#82368B" d="M234.563 156.938a3.605 3.605 0 0 1 3.607-3.608c.205 0 .41.029.615.059a3.032 3.032 0 0 0-1.261-.264 3.248 3.248 0 0 0-3.256 3.255c0 .705.235 1.35.587 1.878-.205-.383-.292-.822-.292-1.32z"/><path fill="#E12145" d="M237.73 157.846l-1.174.587.234-1.29-.938-.91 1.319-.176.588-1.173.557 1.173 1.291.205-.939.91.205 1.29-1.143-.616z"/><path fill="#F1617A" d="M239.607 156.262l-1.262-.205-.615.616.029-1.789-.588 1.173-1.319.176.938.91-.234 1.29 1.174-.587 1.143.616-.205-1.29.939-.91z"/><path fill="#E12145" d="M238.668 157.172l.939-.91-1.877.411.938.499zm-.938.674l1.143.616-1.143-1.789v1.173zm-.939-.674l-.234 1.261 1.174-1.76-.94.499zm.939-.499l-.559-.616-1.29.176 1.849.44z"/><linearGradient id="A" gradientUnits="userSpaceOnUse" x1="1440.71" y1="-937.119" x2="1440.71" y2="-964.069" gradientTransform="matrix(.2933 0 0 -.2933 -147.187 -97.946)"><stop offset="0" stop-color="#fff"/><stop offset="1" stop-color="#decce4"/></linearGradient><circle fill="url(#A)" cx="275.391" cy="180.872" r="3.959"/><path opacity=".1" fill="#82368B" d="M272.193 181.135a3.605 3.605 0 0 1 3.608-3.607c.205 0 .411.029.616.059a3.043 3.043 0 0 0-1.262-.264 3.25 3.25 0 0 0-3.256 3.256c0 .703.234 1.35.587 1.877-.204-.382-.293-.822-.293-1.321z"/><path fill="#E12145" d="M275.361 182.045l-1.144.586.206-1.262-.91-.938 1.291-.176.586-1.174.558 1.174 1.29.205-.938.908.205 1.291-1.144-.614z"/><path fill="#F1617A" d="M277.238 180.461l-1.261-.176-.616.586.029-1.789-.586 1.174-1.291.176.91.938-.206 1.262 1.144-.586 1.145.615-.205-1.291.937-.909z"/><path fill="#E12145" d="M276.301 181.369l.938-.908-1.877.41.939.498zm-.94.676l1.145.615-1.145-1.789v1.174zm-.937-.676l-.206 1.262 1.144-1.76-.938.498zm.937-.498l-.557-.615-1.262.176 1.819.439z"/></svg>