<svg xmlns="http://www.w3.org/2000/svg" width="300" height="300" viewBox="0 0 300 300"><path fill="#FFF" d="M231.238 61.719c-11.422-10.932-26.897-17.661-43.958-17.661-28.021 0-51.792 18.13-60.264 43.294.2.155.412.288.608.447 8.095 6.53 12.854 15.689 14.094 25.374-2.825-7.385-7.54-14.116-14.091-19.396-7.972-6.428-17.456-9.742-27.053-10.147-26.693.416-48.501 20.821-51.166 46.909 7.597 1.031 14.473 4.191 19.889 8.879-6.012-3.139-12.863-4.988-20.141-5.198-.003.124-.015.247-.019.371a41.067 41.067 0 0 0-3.116-.13c-3.513 0-6.925.443-10.182 1.276l-.117.029c-.618.165-1.233.336-1.844.525-.098.03-.194.064-.291.095-16.56 5.268-28.56 20.763-28.56 39.068 0 22.641 18.354 40.994 40.994 40.994 3.064 0 6.043-.346 8.914-.98 9.241 9.887 21.601 16.814 35.511 19.232 124.09-48.782 139.453-160.493 140.792-172.981z"/><path fill="#F1F3FA" d="M110.098 235.053a52.036 52.036 0 0 0 28.592 8.515 52.044 52.044 0 0 0 27.672-7.924 57.651 57.651 0 0 0 31.087 9.056c22.586 0 42.14-12.931 51.699-31.783 26.125-.305 47.211-21.566 47.211-47.76 0-25.867-20.563-46.92-46.231-47.736.493-3.186.748-6.446.748-9.768 0-18.064-7.544-34.355-19.638-45.933-1.339 12.488-16.702 124.199-140.791 172.982 3.557.62 7.214.957 10.951.957a64.499 64.499 0 0 0 8.7-.606z"/></svg>