<svg xmlns="http://www.w3.org/2000/svg" xmlns:xlink="http://www.w3.org/1999/xlink" width="300" height="300" viewBox="0 0 300 300"><symbol id="a" viewBox="-5.2 -5.6 10.4 11.199"><path fill="#FFF" d="M-5.2 5.6V-5.6H5.2V5.6H-5.2z"/><path fill="#F5D76C" d="M.3.4h4v4.3h-4V.4zm-.9-.8h-3.7v-4.3h3.7v4.3zm.9 0v-4.3h4v4.3h-4zm-.9 5.1h-3.7V.4h3.7v4.3z"/></symbol><g fill="#FFF"><path d="M100.848 31.407c.042-4.223-3.351-7.688-7.576-7.725-4.226-.044-7.683 3.348-7.726 7.578-.044 4.223 3.351 7.683 7.577 7.726 4.225.035 7.683-3.353 7.725-7.579z"/><path d="M104.658 18.327c.06-6.087-4.827-11.075-10.918-11.133-6.086-.058-11.072 4.828-11.129 10.916-.059 6.088 4.827 11.071 10.913 11.129 6.09.061 11.071-4.824 11.134-10.912z"/><path d="M118.419 12.509c.057-6.086-4.828-11.072-10.918-11.13-6.085-.061-11.068 4.827-11.128 10.916-.063 6.087 4.825 11.074 10.911 11.132 6.09.058 11.076-4.83 11.135-10.918z"/><path d="M137.017-13.855c.115-11.869-9.405-21.581-21.274-21.695-11.86-.11-21.567 9.405-21.683 21.269-.116 11.861 9.403 21.573 21.268 21.686 11.86.119 21.571-9.404 21.689-21.26zm-27.696 52.027a3.714 3.714 0 0 0-3.682-3.763 3.717 3.717 0 0 0-3.755 3.684 3.716 3.716 0 0 0 3.686 3.757 3.712 3.712 0 0 0 3.751-3.678zM93.109 5.858a2.69 2.69 0 0 0-2.66-2.714 2.69 2.69 0 0 0-2.715 2.659 2.694 2.694 0 0 0 2.664 2.716 2.686 2.686 0 0 0 2.711-2.661z"/></g><path fill="#F1627A" d="M154.91 47.052l-86.73 86.375-.355.355h.355v150.354h172.393v-150.71L154.91 47.052z"/><path fill="#E12346" d="M116.877 42.076H80.621v12.085h6.042v-.355h23.815v.355h6.398l.001-12.085z"/><path fill="#F1627A" d="M86.664 53.806v45.498h23.815V53.806H86.664z"/><path fill="#FFF" d="M240.218 146.223c-3.198 0-6.397-1.422-8.886-3.91l-76.777-77.488-77.844 77.488c-4.977 4.976-13.152 4.976-18.128 0-4.977-4.977-4.977-13.152 0-18.128l86.73-86.375c2.488-2.488 5.687-3.555 8.886-3.555s6.754 1.422 8.887 3.91l85.663 86.374c4.976 4.977 4.976 13.152 0 18.128-2.133 2.134-5.332 3.556-8.531 3.556z"/><path fill="#E12346" d="M137.137 225.133h33.413v59.004h-33.413v-59.004z"/><path fill="#F596AC" d="M171.973 285.914h-36.257v-62.559h36.611v62.559h-.354zm-33.058-3.198h30.213v-56.161h-30.213v56.161z"/><use xlink:href="#a" width="10.4" height="11.199" x="-5.2" y="-5.6" transform="matrix(3.5543 0 0 -3.5543 101.17 243.7)" overflow="visible"/><path fill="#FFF" d="M59.294 298h73.578c-5.687-16.706-31.635-29.502-62.915-29.502-7.465 0-13.507.355-19.905 1.777L59.294 298zm119.431-9.598c-6.041-6.397-18.127-10.663-31.99-10.663-13.862 0-25.948 4.266-31.99 10.663h63.98z"/><path fill="#BFD763" d="M153.844 258.189c-9.597 0-17.062-7.82-17.062-17.063s7.82-17.063 17.062-17.063 17.063 7.82 17.063 17.063-7.466 17.063-17.063 17.063zm0-26.658c-5.332 0-9.242 4.266-9.242 9.24 0 5.332 4.265 9.242 9.242 9.242 5.332 0 9.242-4.266 9.242-9.242.355-4.974-3.91-9.24-9.242-9.24z"/><circle fill="#FFF" cx="153.844" cy="227.621" r="1.777"/><circle fill="#FFF" cx="167.352" cy="241.128" r="1.776"/><circle fill="#FFF" cx="140.692" cy="241.128" r="1.776"/><circle fill="#FFF" cx="163.441" cy="250.369" r="1.777"/><circle fill="#FFF" cx="144.602" cy="231.531" r="1.777"/><circle fill="#FFF" cx="144.602" cy="250.369" r="1.777"/><circle fill="#FFF" cx="163.441" cy="231.531" r="1.777"/><path fill="#7D6A82" d="M158.82 249.303l-3.555 2.488h-2.488v.355l-3.555-2.845v8.177l3.555-2.488v.355h2.488v-.355l3.555 2.488v-8.175z"/><use xlink:href="#a" width="10.4" height="11.199" x="-5.2" y="-5.6" transform="matrix(3.5543 0 0 -3.5543 101.17 176.257)" overflow="visible"/><use xlink:href="#a" width="10.4" height="11.199" x="-5.2" y="-5.6" transform="matrix(3.5543 0 0 -3.5543 153.865 176.342)" overflow="visible"/><use xlink:href="#a" width="10.4" height="11.199" x="-5.2" y="-5.6" transform="matrix(3.5543 0 0 -3.5543 203.518 176.342)" overflow="visible"/><use xlink:href="#a" width="10.4" height="11.199" x="-5.2" y="-5.6" transform="matrix(3.5543 0 0 -3.5543 203.518 243.7)" overflow="visible"/><use xlink:href="#a" width="10.4" height="11.199" x="-5.2" y="-5.6" transform="matrix(3.5543 0 0 -3.5543 153.996 111.593)" overflow="visible"/><path fill="#E12346" d="M131.095 130.228h45.497v11.73h-45.497v-11.73zm-68.602 71.799h183.413v11.729H62.493v-11.729z"/></svg>