<?xml version="1.0" encoding="utf-8"?>
<!-- Generator: Adobe Illustrator 16.0.0, SVG Export Plug-In . SVG Version: 6.00 Build 0)  -->
<!DOCTYPE svg PUBLIC "-//W3C//DTD SVG 1.1//EN" "http://www.w3.org/Graphics/SVG/1.1/DTD/svg11.dtd">
<svg version="1.1" id="Capa_1" xmlns="http://www.w3.org/2000/svg" xmlns:xlink="http://www.w3.org/1999/xlink" x="0px" y="0px"
	 width="300px" height="300px" viewBox="0 0 300 300" enable-background="new 0 0 300 300" xml:space="preserve">
<symbol  id="housea" viewBox="-5.2 -5.6 10.4 11.199">
	<path fill="#FFFFFF" d="M-5.2,5.6V-5.6H5.2V5.6H-5.2z"/>
	<path fill="#F5D76C" d="M0.3,0.4h4v4.3h-4V0.4z M-0.6-0.4h-3.7v-4.3h3.7V-0.4z M0.3-0.4v-4.3h4v4.3H0.3z M-0.6,4.7h-3.7V0.4h3.7
		V4.7z"/>
</symbol>
<g>
	<g>
		<path fill="#FFFFFF" d="M100.848,31.029c0.043-4.223-3.351-7.688-7.576-7.725c-4.226-0.044-7.683,3.348-7.726,7.578
			c-0.044,4.223,3.351,7.683,7.577,7.726C97.348,38.643,100.807,35.254,100.848,31.029z"/>
		<path fill="#FFFFFF" d="M104.658,17.949c0.06-6.087-4.827-11.075-10.918-11.133c-6.086-0.058-11.072,4.828-11.129,10.916
			c-0.06,6.088,4.826,11.071,10.912,11.129C99.613,28.921,104.596,24.037,104.658,17.949z"/>
		<path fill="#FFFFFF" d="M118.419,12.13c0.058-6.086-4.828-11.072-10.918-11.13c-6.085-0.061-11.067,4.827-11.128,10.916
			c-0.063,6.087,4.825,11.074,10.911,11.132C113.374,23.106,118.359,18.219,118.419,12.13z"/>
		<path fill="#FFFFFF" d="M109.32,37.793c0.025-2.059-1.625-3.747-3.682-3.763c-2.055-0.023-3.738,1.633-3.755,3.684
			c-0.022,2.057,1.63,3.741,3.687,3.757C107.624,41.493,109.305,39.843,109.32,37.793z"/>
		<path fill="#FFFFFF" d="M93.109,5.479c0.014-1.483-1.176-2.697-2.66-2.714c-1.483-0.013-2.7,1.176-2.715,2.659
			c-0.012,1.485,1.179,2.7,2.664,2.716C91.882,8.153,93.094,6.965,93.109,5.479z"/>
	</g>
	<g>
		<path fill="#CBBB9D" d="M154.91,46.673l-86.73,86.375l-0.354,0.355h0.354v150.354h172.394v-150.71L154.91,46.673z"/>
		<path fill="#786855" d="M116.877,41.698H80.621v12.085h6.042v-0.355h23.815v0.355h6.397L116.877,41.698L116.877,41.698z"/>
		<path fill="#CBBB9D" d="M86.664,53.428v45.498h23.814V53.428H86.664z"/>
		<path fill="#FFFFFF" d="M240.218,145.845c-3.198,0-6.397-1.422-8.886-3.91l-76.777-77.488l-77.844,77.488
			c-4.977,4.976-13.152,4.976-18.128,0c-4.978-4.977-4.978-13.152,0-18.128l86.729-86.375c2.488-2.488,5.688-3.555,8.887-3.555
			s6.754,1.422,8.887,3.91l85.663,86.374c4.976,4.977,4.976,13.152,0,18.128C246.616,144.422,243.417,145.845,240.218,145.845
			L240.218,145.845z"/>
		<path fill="#7C4D25" d="M137.137,224.754h33.413v59.004h-33.413V224.754z"/>
		<path fill="#B07F48" d="M171.973,285.535h-36.257v-62.559h36.611v62.559H171.973z M138.915,282.338h30.213v-56.162h-30.213
			V282.338z"/>
		
			<use xlink:href="#housea"  width="10.4" height="11.199" x="-5.2" y="-5.6" transform="matrix(3.5542 0 0 -3.5542 101.1699 243.3223)" overflow="visible"/>
		<path fill="#FFFFFF" d="M59.294,297.621h73.578c-5.687-16.705-31.636-29.502-62.915-29.502c-7.465,0-13.507,0.355-19.904,1.777
			L59.294,297.621z M178.725,288.023c-6.041-6.396-18.127-10.662-31.99-10.662c-13.861,0-25.947,4.266-31.989,10.662H178.725z"/>
		<path fill="#41A62A" d="M153.844,257.811c-9.597,0-17.062-7.82-17.062-17.063c0-9.244,7.819-17.064,17.062-17.064
			s17.063,7.82,17.063,17.064C170.907,249.99,163.441,257.811,153.844,257.811z M153.844,231.152c-5.332,0-9.242,4.266-9.242,9.24
			c0,5.332,4.266,9.242,9.242,9.242c5.332,0,9.242-4.266,9.242-9.242C163.441,235.418,159.176,231.152,153.844,231.152z"/>
		<circle fill="#E2001A" cx="153.844" cy="227.242" r="1.777"/>
		<circle fill="#E2001A" cx="167.352" cy="240.749" r="1.776"/>
		<circle fill="#E2001A" cx="140.691" cy="240.749" r="1.776"/>
		<circle fill="#E2001A" cx="163.441" cy="249.99" r="1.777"/>
		<circle fill="#E2001A" cx="144.602" cy="231.152" r="1.777"/>
		<circle fill="#E2001A" cx="144.602" cy="249.99" r="1.777"/>
		<circle fill="#E2001A" cx="163.441" cy="231.152" r="1.777"/>
		<path fill="#00632E" d="M158.82,248.924l-3.555,2.488h-2.488v0.355l-3.555-2.846v8.178l3.555-2.488v0.355h2.488v-0.355
			l3.555,2.488V248.924z"/>
		
			<use xlink:href="#housea"  width="10.4" height="11.199" x="-5.2" y="-5.6" transform="matrix(3.5542 0 0 -3.5542 101.1699 175.8809)" overflow="visible"/>
		
			<use xlink:href="#housea"  width="10.4" height="11.199" x="-5.2" y="-5.6" transform="matrix(3.5542 0 0 -3.5542 153.8652 175.9648)" overflow="visible"/>
		
			<use xlink:href="#housea"  width="10.4" height="11.199" x="-5.2" y="-5.6" transform="matrix(3.5542 0 0 -3.5542 203.5176 175.9648)" overflow="visible"/>
		
			<use xlink:href="#housea"  width="10.4" height="11.199" x="-5.2" y="-5.6" transform="matrix(3.5542 0 0 -3.5542 203.5176 243.3223)" overflow="visible"/>
		
			<use xlink:href="#housea"  width="10.4" height="11.199" x="-5.2" y="-5.6" transform="matrix(3.5542 0 0 -3.5542 153.9961 111.2168)" overflow="visible"/>
		<path fill="#786855" d="M131.096,129.85h45.496v11.73h-45.496V129.85z M62.493,201.648h183.413v11.729H62.493V201.648z"/>
	</g>
</g>
</svg>
