<?xml version="1.0" encoding="utf-8"?>
<!-- Generator: Adobe Illustrator 16.0.0, SVG Export Plug-In . SVG Version: 6.00 Build 0)  -->
<!DOCTYPE svg PUBLIC "-//W3C//DTD SVG 1.1//EN" "http://www.w3.org/Graphics/SVG/1.1/DTD/svg11.dtd">
<svg version="1.1" id="Capa_1" xmlns="http://www.w3.org/2000/svg" xmlns:xlink="http://www.w3.org/1999/xlink" x="0px" y="0px"
	 width="300px" height="300px" viewBox="0 0 300 300" enable-background="new 0 0 300 300" xml:space="preserve">
<symbol  id="housea" viewBox="-5.2 -5.6 10.4 11.199">
	<path fill="#FFFFFF" d="M-5.2,5.6V-5.6H5.2V5.6H-5.2z"/>
	<path fill="#F5D76C" d="M0.3,0.4h4v4.3h-4V0.4z M-0.6-0.4h-3.7v-4.3h3.7V-0.4z M0.3-0.4v-4.3h4v4.3H0.3z M-0.6,4.7h-3.7V0.4h3.7
		V4.7z"/>
</symbol>
<g>
	<g>
		<path fill="#FFFFFF" d="M100.848,31.029c0.043-4.223-3.351-7.688-7.576-7.725c-4.226-0.044-7.683,3.348-7.726,7.578
			c-0.044,4.223,3.351,7.683,7.577,7.726C97.348,38.643,100.807,35.254,100.848,31.029z"/>
		<path fill="#FFFFFF" d="M104.658,17.949c0.06-6.087-4.827-11.075-10.918-11.133c-6.086-0.058-11.072,4.828-11.129,10.916
			c-0.06,6.088,4.826,11.071,10.912,11.129C99.613,28.921,104.596,24.037,104.658,17.949z"/>
		<path fill="#FFFFFF" d="M118.419,12.13c0.058-6.086-4.828-11.072-10.918-11.13c-6.085-0.061-11.067,4.827-11.128,10.916
			c-0.063,6.087,4.825,11.074,10.911,11.132C113.374,23.106,118.359,18.219,118.419,12.13z"/>
		<path fill="#FFFFFF" d="M109.32,37.793c0.025-2.059-1.625-3.747-3.682-3.763c-2.055-0.023-3.738,1.633-3.755,3.684
			c-0.022,2.057,1.63,3.741,3.687,3.757C107.624,41.493,109.305,39.843,109.32,37.793z"/>
		<path fill="#FFFFFF" d="M93.109,5.479c0.014-1.483-1.176-2.697-2.66-2.714c-1.483-0.013-2.7,1.176-2.715,2.659
			c-0.012,1.485,1.179,2.7,2.664,2.716C91.882,8.153,93.094,6.965,93.109,5.479z"/>
	</g>
	<g>
		<path fill="#CBBB9D" d="M154.91,46.673l-86.73,86.375l-0.354,0.355h0.354v150.354h172.394v-150.71L154.91,46.673z"/>
		<path fill="#786855" d="M116.877,41.698H80.621v12.085h6.042v-0.355h23.815v0.355h6.397L116.877,41.698L116.877,41.698z"/>
		<path fill="#CBBB9D" d="M86.664,53.428v45.498h23.814V53.428H86.664z"/>
		<path fill="#FFFFFF" d="M240.218,145.845c-3.198,0-6.397-1.422-8.886-3.91l-76.777-77.488l-77.844,77.488
			c-4.977,4.976-13.152,4.976-18.128,0c-4.978-4.977-4.978-13.152,0-18.128l86.729-86.375c2.488-2.488,5.688-3.555,8.887-3.555
			s6.754,1.422,8.887,3.91l85.663,86.374c4.976,4.977,4.976,13.152,0,18.128C246.616,144.422,243.417,145.845,240.218,145.845
			L240.218,145.845z"/>
		<path fill="#7C4D25" d="M137.637,222.754h33.413v59.004h-33.413V222.754z"/>
		<path fill="#B07F48" d="M171.973,285.535h-36.257v-62.559h36.611v62.559H171.973z M138.915,282.338h30.213v-56.162h-30.213
			V282.338z"/>
		
			<use xlink:href="#housea"  width="10.4" height="11.199" x="-5.2" y="-5.6" transform="matrix(3.5541 0 0 -3.5541 101.1699 243.3242)" overflow="visible"/>
		<path fill="#41A62A" d="M153.844,257.811c-9.597,0-17.062-7.819-17.062-17.063c0-9.244,7.819-17.064,17.062-17.064
			c9.243,0,17.063,7.82,17.063,17.064C170.907,249.99,163.441,257.811,153.844,257.811z M153.844,231.152
			c-5.332,0-9.242,4.266-9.242,9.24c0,5.332,4.266,9.241,9.242,9.241c5.332,0,9.242-4.266,9.242-9.241
			C163.441,235.418,159.176,231.152,153.844,231.152z"/>
		<circle fill="#E2001A" cx="153.844" cy="227.242" r="1.777"/>
		<circle fill="#E2001A" cx="167.352" cy="240.749" r="1.776"/>
		<circle fill="#E2001A" cx="140.691" cy="240.749" r="1.776"/>
		<circle fill="#E2001A" cx="163.441" cy="249.99" r="1.777"/>
		<circle fill="#E2001A" cx="144.602" cy="231.152" r="1.777"/>
		<circle fill="#E2001A" cx="144.602" cy="249.99" r="1.777"/>
		<circle fill="#E2001A" cx="163.441" cy="231.152" r="1.777"/>
		<path fill="#00632E" d="M158.82,248.924l-3.555,2.488h-2.488v0.355l-3.555-2.847v8.179l3.555-2.488v0.354h2.488v-0.354
			l3.555,2.488V248.924z"/>
		
			<use xlink:href="#housea"  width="10.4" height="11.199" x="-5.2" y="-5.6" transform="matrix(3.5541 0 0 -3.5541 101.1699 175.8828)" overflow="visible"/>
		
			<use xlink:href="#housea"  width="10.4" height="11.199" x="-5.2" y="-5.6" transform="matrix(3.5541 0 0 -3.5541 153.8652 175.9668)" overflow="visible"/>
		
			<use xlink:href="#housea"  width="10.4" height="11.199" x="-5.2" y="-5.6" transform="matrix(3.5541 0 0 -3.5541 203.5176 175.9668)" overflow="visible"/>
		
			<use xlink:href="#housea"  width="10.4" height="11.199" x="-5.2" y="-5.6" transform="matrix(3.5541 0 0 -3.5541 203.5176 243.3242)" overflow="visible"/>
		
			<use xlink:href="#housea"  width="10.4" height="11.199" x="-5.2" y="-5.6" transform="matrix(3.5541 0 0 -3.5541 153.9961 111.2188)" overflow="visible"/>
		<path fill="#786855" d="M131.096,129.85h45.496v11.73h-45.496V129.85z M62.493,201.648h183.413v11.729H62.493V201.648z"/>
	</g>
	<g>
		<path fill="#41281B" d="M183.794,216.891c0,1.279-1.071,2.32-2.394,2.32h-59.046c-1.322,0-2.394-1.041-2.394-2.32v-15.859
			c0-1.281,1.072-2.32,2.394-2.32H181.4c1.322,0,2.394,1.039,2.394,2.32V216.891z"/>
		<g>
			<g>
				<path fill="#00C86B" d="M146.865,208.521h-0.026c-0.621,0-1.109,0.185-1.523,0.58c0.001-0.071,0.001-0.127-0.001-0.181
					c-0.006-0.317-0.064-0.329-0.422-0.341l-0.068-0.002c-0.096,0-0.164,0.021-0.209,0.067c-0.064,0.064-0.07,0.161-0.069,0.272
					c0.003,1.058,0.003,2.116,0.003,3.173c0,0.744,0,1.49,0.001,2.234c0,0.06-0.001,0.11-0.002,0.152
					c-0.003,0.137-0.005,0.212,0.045,0.265c0.052,0.053,0.128,0.054,0.28,0.056c0.041,0.001,0.089,0.002,0.145,0.003l0.025,0.001
					c0.098,0,0.165-0.022,0.211-0.069c0.063-0.064,0.07-0.161,0.069-0.247c-0.007-0.438-0.006-0.882-0.005-1.312l0.002-0.415
					c0-0.029,0.002-0.058,0.004-0.091c0.362,0.322,0.777,0.493,1.262,0.523c0.072,0.006,0.143,0.008,0.213,0.008l0,0
					c0.705,0,1.253-0.237,1.676-0.726c0.516-0.595,0.559-1.301,0.539-1.849C148.971,209.436,148.047,208.531,146.865,208.521z
					 M148.074,211.592c-0.224,0.543-0.729,0.881-1.318,0.881l-0.026-0.001c-0.592-0.009-1.147-0.396-1.321-0.917
					c-0.055-0.164-0.072-0.339-0.092-0.523c-0.01-0.085-0.018-0.169-0.03-0.25c-0.053-0.591,0.194-1.028,0.754-1.338
					c0.239-0.133,0.481-0.199,0.721-0.199c0.278,0,0.554,0.09,0.817,0.271C148.181,209.926,148.395,210.819,148.074,211.592z"/>
				<path fill="#00C86B" d="M180.943,210.352c-0.025-1.144-0.727-1.828-1.879-1.829c-0.533,0-0.964,0.161-1.345,0.505
					c-0.002-0.06-0.002-0.105,0.002-0.149c0.01-0.102-0.008-0.176-0.056-0.228c-0.05-0.056-0.128-0.078-0.235-0.068
					c-0.047,0.004-0.096,0.008-0.141,0c-0.124-0.02-0.206,0-0.261,0.056c-0.069,0.068-0.077,0.18-0.076,0.279
					c0.007,1.322,0.007,2.637-0.001,3.904c-0.001,0.122,0.022,0.203,0.075,0.257c0.056,0.056,0.137,0.075,0.26,0.058
					c0.023-0.003,0.048-0.004,0.07-0.001c0.035,0.006,0.067,0.008,0.098,0.008c0.085,0,0.148-0.022,0.195-0.069
					c0.057-0.058,0.082-0.149,0.08-0.287c-0.008-0.339-0.006-0.684-0.005-1.017c0.003-0.418,0.005-0.849-0.009-1.273
					c-0.012-0.374,0.127-0.663,0.439-0.909c0.25-0.198,0.574-0.313,0.888-0.313c0.523,0,0.914,0.306,1.048,0.817
					c0.04,0.152,0.061,0.318,0.063,0.493c0.005,0.444,0.004,0.888,0.003,1.333c0,0.236,0,0.473,0,0.709c0,0.059,0,0.109-0.001,0.154
					c-0.004,0.153-0.006,0.237,0.052,0.295c0.059,0.061,0.152,0.061,0.34,0.061h0.148l0,0c0.085,0,0.146-0.021,0.188-0.062
					c0.059-0.058,0.065-0.142,0.064-0.209c-0.001-0.317-0.001-0.634,0.001-0.951C180.952,211.402,180.954,210.872,180.943,210.352z"
					/>
				<path fill="#00C86B" d="M170.513,207.989c0.133,0.015,0.22,0.024,0.288,0.024l0,0c0.273,0,0.274-0.162,0.276-0.515v-0.069
					c-0.001-0.082,0-0.152,0.001-0.213c0.002-0.198,0.002-0.29-0.057-0.35c-0.052-0.052-0.131-0.057-0.236-0.057l-0.146,0.001
					c-0.03,0-0.063,0-0.106-0.001c-0.078,0-0.138,0.021-0.178,0.062c-0.041,0.042-0.061,0.1-0.06,0.178c0,0.078,0,0.155-0.001,0.232
					c-0.001,0.16-0.003,0.325,0.01,0.489C170.311,207.859,170.424,207.979,170.513,207.989z"/>
				<path fill="#00C86B" d="M143.766,208.635c-0.051-0.052-0.123-0.072-0.233-0.062c-0.054,0.007-0.11,0.008-0.165,0
					c-0.115-0.013-0.192,0.008-0.246,0.062c-0.066,0.068-0.072,0.175-0.071,0.249c0.004,0.314,0.002,0.628,0.001,0.941
					c-0.003,0.45-0.006,0.914,0.01,1.372c0.016,0.517-0.225,0.87-0.757,1.113c-0.194,0.089-0.392,0.135-0.582,0.135
					c-0.47,0-0.845-0.271-1.005-0.729c-0.059-0.165-0.092-0.348-0.094-0.526c-0.01-0.536-0.009-1.082-0.008-1.61v-0.522
					c0-0.367-0.001-0.49-0.344-0.49c-0.045,0-0.098,0.002-0.159,0.003l-0.016,0.001c-0.181,0.006-0.265,0.091-0.263,0.269
					c0.002,0.307,0.002,0.613,0.002,0.921c-0.001,0.582-0.001,1.183,0.016,1.773c0.021,0.786,0.534,1.426,1.275,1.593
					c0.213,0.048,0.418,0.071,0.607,0.071c0.509,0,0.945-0.167,1.33-0.511v0.082c0.002,0.33,0.033,0.36,0.365,0.36l0.069-0.001
					c0.012,0,0.022,0,0.034,0.001c0.021,0.003,0.04,0.004,0.058,0.004c0.075,0,0.134-0.021,0.175-0.063
					c0.051-0.051,0.074-0.126,0.073-0.244c-0.005-1.398-0.005-2.69,0-3.95C143.839,208.805,143.832,208.701,143.766,208.635z"/>
				<path fill="#00C86B" d="M151.958,208.521h-0.026c-0.622,0-1.11,0.185-1.523,0.58c0-0.071,0-0.127-0.001-0.181
					c-0.006-0.314-0.054-0.329-0.423-0.341l-0.068-0.002c-0.095,0-0.163,0.021-0.209,0.067c-0.064,0.064-0.069,0.161-0.068,0.272
					c0.002,1.019,0.002,2.037,0.002,3.056c0,0.784,0,1.567,0.002,2.352c0,0.06-0.002,0.11-0.002,0.152
					c-0.004,0.137-0.006,0.211,0.045,0.263c0.051,0.055,0.127,0.056,0.279,0.058c0.042,0.001,0.09,0.002,0.146,0.003l0.024,0.001
					c0.099,0,0.166-0.022,0.212-0.069c0.063-0.064,0.07-0.161,0.069-0.247c-0.007-0.438-0.006-0.882-0.005-1.312l0.001-0.415
					c0-0.029,0.002-0.058,0.004-0.091c0.363,0.322,0.778,0.493,1.263,0.523c0.071,0.006,0.143,0.008,0.212,0.008l0,0
					c0.704,0,1.254-0.237,1.676-0.726c0.516-0.595,0.56-1.301,0.54-1.849C154.063,209.436,153.139,208.531,151.958,208.521z
					 M153.168,211.592c-0.225,0.543-0.729,0.881-1.319,0.881l-0.027-0.001c-0.591-0.009-1.146-0.396-1.321-0.917
					c-0.054-0.164-0.072-0.339-0.092-0.523c-0.009-0.085-0.018-0.169-0.03-0.25c-0.053-0.591,0.194-1.028,0.755-1.338
					c0.238-0.133,0.48-0.199,0.72-0.199c0.278,0,0.554,0.09,0.818,0.271C153.273,209.926,153.486,210.819,153.168,211.592z"/>
				<path fill="#00C86B" d="M156.463,207.936c0.062,0.061,0.156,0.061,0.328,0.061h0.019c0.04,0,0.085,0,0.135,0.001h0.008
					c0.079,0,0.138-0.02,0.179-0.061s0.06-0.1,0.06-0.178l-0.003-0.108c-0.002-0.17-0.004-0.345,0.007-0.515
					c0.006-0.115-0.016-0.193-0.067-0.248c-0.052-0.056-0.131-0.081-0.246-0.081l-0.043,0.001c-0.409,0.008-0.438,0.038-0.433,0.462
					c0.001,0.037,0.001,0.076,0.001,0.084v0.032l0,0c0,0.079,0,0.147-0.001,0.204C156.401,207.778,156.401,207.873,156.463,207.936z
					 M156.81,207.93L156.81,207.93L156.81,207.93L156.81,207.93z M156.952,207.93L156.952,207.93L156.952,207.93L156.952,207.93z"/>
				<path fill="#00C86B" d="M174.05,208.522c-1.4,0.003-2.338,0.949-2.336,2.353c0.004,1.393,0.947,2.327,2.35,2.327h0.019
					c1.361-0.008,2.31-0.972,2.308-2.343C176.388,209.484,175.429,208.522,174.05,208.522z M174.052,209.188v0.066
					c0.854,0,1.55,0.729,1.551,1.625c0.001,0.876-0.699,1.59-1.563,1.591c-0.39,0-0.766-0.162-1.058-0.454
					c-0.309-0.309-0.484-0.731-0.484-1.16c0.001-0.882,0.696-1.6,1.552-1.602L174.052,209.188L174.052,209.188z"/>
				<path fill="#00C86B" d="M165.392,208.607c-0.45-0.146-0.945-0.156-1.476-0.026c-0.497,0.12-0.877,0.379-1.127,0.768
					c-0.045,0.068-0.182,0.278,0.051,0.44c0.154,0.108,0.256,0.153,0.346,0.153c0.115,0,0.188-0.076,0.231-0.135
					c0.337-0.438,0.804-0.615,1.435-0.546c0.267,0.03,0.499,0.159,0.658,0.366c0.15,0.194,0.218,0.437,0.193,0.688
					c-0.11,0.008-0.222,0.016-0.334,0.023c-0.295,0.02-0.601,0.04-0.902,0.072c-0.552,0.056-0.956,0.173-1.308,0.38
					c-0.438,0.256-0.635,0.661-0.587,1.202c0.041,0.482,0.293,0.824,0.745,1.015c0.258,0.107,0.534,0.16,0.85,0.16
					c0.181,0,0.377-0.017,0.6-0.054c0.36-0.058,0.678-0.218,0.968-0.487c0.004,0.023,0.006,0.044,0.008,0.064
					c0.026,0.326,0.034,0.424,0.351,0.424c0.032,0,0.069,0,0.111-0.001c0.004,0,0.01,0.001,0.015,0.001
					c0.011,0.002,0.022,0.003,0.031,0.003c0.027,0,0.05-0.008,0.066-0.024c0.015-0.015,0.031-0.029,0.05-0.045
					c0.064-0.055,0.132-0.11,0.132-0.187c0.006-0.83,0.01-1.81-0.008-2.784C166.479,209.378,166.068,208.828,165.392,208.607z
					 M165.292,211.039c0.076,0,0.154,0.002,0.234,0.004c0.062,0.001,0.126,0.002,0.19,0.003c0.037,0.494-0.146,0.876-0.547,1.138
					c-0.491,0.318-0.976,0.375-1.446,0.168c-0.22-0.098-0.335-0.258-0.344-0.475c-0.01-0.227,0.102-0.399,0.338-0.527
					c0.415-0.224,0.902-0.266,1.293-0.3C165.093,211.043,165.182,211.039,165.292,211.039z"/>
				<path fill="#00C86B" d="M171.077,211.417c0.001-0.189,0.001-0.38,0.001-0.57v-1.817c0-0.407-0.026-0.437-0.405-0.449
					l-0.066-0.002c-0.07,0-0.17,0.008-0.237,0.075c-0.07,0.07-0.078,0.182-0.077,0.271c0.006,0.933,0.006,1.881,0.004,2.798v0.95
					c0,0.436,0.031,0.466,0.463,0.47h0.03c0.073,0,0.164-0.008,0.225-0.069c0.048-0.049,0.068-0.12,0.068-0.229
					C171.075,212.368,171.076,211.885,171.077,211.417z M170.789,213.075L170.789,213.075L170.789,213.075L170.789,213.075z"/>
				<path fill="#00C86B" d="M169.152,212.28c-0.117,0.099-0.269,0.155-0.415,0.155c-0.264,0-0.441-0.175-0.486-0.479l-0.004-0.03
					c-0.01-0.063-0.02-0.123-0.02-0.182c-0.003-0.771-0.004-1.541-0.004-2.312c0-0.041,0.005-0.081,0.012-0.125
					c0-0.004,0-0.008,0.001-0.013c0.099,0,0.196-0.001,0.293-0.002c0.113-0.001,0.225-0.002,0.336-0.002
					c0.174,0,0.316,0.003,0.448,0.009c0.139,0.008,0.225-0.017,0.284-0.078c0.071-0.076,0.075-0.188,0.069-0.289l-0.001-0.026
					c-0.018-0.302-0.04-0.346-0.35-0.346h-0.386h-0.693c-0.004-0.008-0.009-0.016-0.01-0.019c-0.003-0.179-0.006-0.358-0.005-0.537
					l0.002-0.085c0.002-0.328-0.016-0.37-0.334-0.376c-0.038-0.001-0.083-0.001-0.134-0.003l-0.028-0.001
					c-0.101,0-0.17,0.022-0.217,0.071c-0.063,0.066-0.066,0.166-0.062,0.245c0.009,0.172,0.007,0.344,0.005,0.524
					c-0.001,0.06-0.002,0.118-0.002,0.18c-0.036,0-0.07,0.001-0.104,0.001c-0.115,0.001-0.221,0.002-0.325-0.003
					c-0.118-0.006-0.201,0.019-0.253,0.076c-0.047,0.053-0.065,0.128-0.053,0.23c0.005,0.053,0.005,0.108,0,0.166
					c-0.008,0.086,0.008,0.151,0.05,0.197c0.042,0.047,0.104,0.069,0.194,0.069l0.024-0.001c0.116-0.005,0.232-0.003,0.356-0.002
					c0.036,0,0.072,0,0.11,0v0.977c0,0.542-0.001,1.083,0.001,1.625c0.004,0.763,0.383,1.183,1.127,1.25
					c0.081,0.007,0.153,0.01,0.223,0.01c0.371,0,0.64-0.106,0.847-0.339l0.008-0.011c0.096-0.107,0.242-0.271,0.081-0.465
					C169.59,212.159,169.331,212.133,169.152,212.28z"/>
				<path fill="#00C86B" d="M157.193,211.395l0.001-2.395c0-0.188,0-0.28-0.054-0.345c-0.061-0.072-0.168-0.072-0.316-0.072h-0.072
					c-0.128-0.018-0.216,0.005-0.273,0.063c-0.057,0.058-0.081,0.142-0.078,0.269c0.009,0.38,0.008,0.766,0.006,1.14
					c0,0.157-0.002,0.315-0.002,0.474l0.001,0.623c0.001,0.554,0.001,1.107-0.004,1.663c0,0.076,0.007,0.185,0.076,0.253
					c0.053,0.055,0.129,0.075,0.242,0.063c0.046-0.005,0.094-0.005,0.141,0.001c0.025,0.003,0.049,0.005,0.071,0.005
					c0.083,0,0.145-0.022,0.19-0.068c0.053-0.054,0.076-0.135,0.074-0.256C157.19,212.34,157.192,211.858,157.193,211.395z"/>
				<path fill="#00C86B" d="M155.169,206.811h-0.023c-0.32,0.001-0.36,0.041-0.36,0.354l0.002,3.544
					c0.001,0.685,0.002,1.392-0.005,2.087c-0.001,0.095,0.008,0.199,0.076,0.269c0.051,0.051,0.123,0.074,0.229,0.074l0.073-0.002
					c0.367-0.013,0.414-0.027,0.414-0.342c0.001-0.733,0.001-1.468,0.001-2.202l0.001-3.384c0-0.185,0-0.277-0.063-0.338
					C155.451,206.811,155.357,206.811,155.169,206.811z"/>
				<path fill="#00C86B" d="M162.024,211.705c-0.142-0.088-0.248-0.143-0.346-0.143c-0.122,0-0.201,0.081-0.286,0.204
					c-0.296,0.431-0.695,0.657-1.187,0.676c-0.531,0.02-1.016-0.21-1.323-0.624c-0.308-0.413-0.395-0.945-0.24-1.46
					c0.189-0.627,0.601-0.998,1.225-1.1c0.654-0.105,1.172,0.121,1.53,0.675c0.063,0.099,0.139,0.188,0.26,0.188
					c0.096,0,0.203-0.056,0.355-0.15c0.092-0.057,0.144-0.121,0.159-0.196c0.022-0.105-0.036-0.207-0.095-0.292
					c-0.448-0.647-1.089-0.978-1.957-1.012h-0.008l-0.006,0.001c-0.079,0.014-0.158,0.023-0.237,0.035
					c-0.172,0.023-0.35,0.047-0.519,0.098c-1.188,0.36-1.794,1.499-1.509,2.833c0.222,1.036,1.03,1.686,2.166,1.736
					c0.049,0.002,0.098,0.003,0.146,0.003l0,0c0.815,0,1.459-0.323,1.915-0.96c0.068-0.098,0.135-0.201,0.112-0.316
					C162.166,211.826,162.112,211.76,162.024,211.705z"/>
			</g>
			<path fill-rule="evenodd" clip-rule="evenodd" fill="#00C86B" d="M124.099,212.84c0-0.05,0-0.082,0-0.114
				c0-1.545-0.001-3.09,0-4.636c0.001-1.421,0.006-2.842,0.008-4.264c0-0.057,0.015-0.091,0.066-0.121
				c1.286-0.747,2.57-1.496,3.855-2.245c0.019-0.01,0.037-0.019,0.068-0.035c0,0.038,0,0.066,0,0.094
				c-0.006,2.98-0.012,5.96-0.016,8.94c0,0.047-0.01,0.074-0.055,0.1c-0.273,0.154-0.543,0.313-0.813,0.473
				c-0.337,0.197-0.673,0.396-1.01,0.592c-0.309,0.179-0.619,0.353-0.927,0.531c-0.361,0.209-0.721,0.419-1.082,0.629
				C124.167,212.801,124.138,212.817,124.099,212.84z M132.565,215.066c1.185-0.68,2.37-1.361,3.556-2.038
				c0.058-0.034,0.072-0.071,0.072-0.134c-0.002-1.313,0-2.627-0.001-3.941c-0.001-1.717-0.004-3.434-0.006-5.15
				c0-0.027,0-0.056,0-0.096c-0.043,0.023-0.071,0.039-0.099,0.055c-1.173,0.68-2.345,1.358-3.52,2.037
				c-0.063,0.036-0.086,0.075-0.086,0.148c0.002,3.021,0.002,6.04,0.002,9.061c0,0.029,0,0.059,0,0.102
				C132.52,215.091,132.543,215.079,132.565,215.066z M124.442,213.197c0.347,0.202,0.693,0.407,1.042,0.606
				c0.76,0.436,1.523,0.87,2.284,1.306c0.767,0.438,1.531,0.88,2.297,1.322c0.047,0.027,0.081,0.029,0.129,0.001
				c0.59-0.342,1.182-0.682,1.773-1.021c0.047-0.026,0.067-0.056,0.066-0.112c-0.002-0.672-0.002-1.343,0-2.016
				c0-0.056-0.018-0.084-0.066-0.111c-0.678-0.393-1.355-0.785-2.033-1.18c-0.557-0.322-1.113-0.646-1.668-0.974
				c-0.061-0.035-0.104-0.038-0.166-0.002c-0.721,0.422-1.443,0.84-2.165,1.26c-0.508,0.295-1.016,0.592-1.534,0.893
				C124.42,213.183,124.431,213.19,124.442,213.197z M130.5,211.799c0.514,0.297,1.017,0.59,1.529,0.888c0-0.598,0-1.179,0-1.777
				C131.514,211.209,131.012,211.5,130.5,211.799z"/>
		</g>
	</g>
	<path fill="#FFFFFF" d="M174.053,286.306c-2.791-6.559-17.243-11.806-34.494-11.806c-17.247,0-31.697,4.985-34.491,11.806H174.053z
		"/>
	<path fill="#FFFFFF" d="M122.303,289.806C120.311,279.914,109.996,272,97.685,272c-12.31,0-22.623,7.52-24.617,17.806H122.303z"/>
</g>
</svg>
