<svg xmlns="http://www.w3.org/2000/svg" width="300" height="300" viewBox="0 0 300 300"><path fill="#FFF" d="M57.978 230.849a53.073 53.073 0 0 0 21.768-4.646c.455.383.944.724 1.416 1.086 119.341-43.71 137.795-147.376 140.158-165.82a61.58 61.58 0 0 0-27.195-6.296c-25.465 0-47.288 15.417-56.767 37.406a36.373 36.373 0 0 1 4.509 4.307 43.469 43.469 0 0 0-5.065-3.063c-.006.012-.012.023-.016.036-.292-.169-.598-.32-.895-.484a43.029 43.029 0 0 0-14.688-4.171c-16.993-1.668-32.654 6.734-41.099 20.354 1.216-3.698 3.016-7.1 5.25-10.146a37.988 37.988 0 0 0-18.35-4.708c-19.864 0-36.179 15.153-38.035 34.528 5.66-2.02 11.569-2.825 17.318-2.386-6.653 1.046-13.224 3.465-19.285 7.274-13.528 9.675-22.365 25.49-22.365 43.388-.002 29.46 23.881 53.341 53.341 53.341z"/><path fill="#F1F3FA" d="M81.161 227.288c6.83 5.211 15.332 8.336 24.586 8.336a40.39 40.39 0 0 0 24.548-8.266c7.354 7.4 17.538 11.982 28.796 11.982 11.171 0 21.281-4.51 28.626-11.812 8.539 5.14 18.535 8.099 29.228 8.099 24.146 0 44.76-15.076 52.977-36.324 14.983-5.974 25.579-20.606 25.579-37.72 0-22.119-17.685-40.093-39.684-40.584.083-1.321.143-2.65.143-3.992 0-24.391-14.128-45.475-34.641-55.54-2.363 18.445-20.817 122.111-140.158 165.821z"/></svg>