<svg xmlns="http://www.w3.org/2000/svg" viewBox="0 0 132.3 6.9"><circle opacity=".2" fill="#fff" cx="62" cy="4" r="1.6"/><circle opacity=".2" fill="#fff" cx="57.1" cy="5.3" r="1.6"/><circle opacity=".2" fill="#fff" cx="52.2" cy="4" r="1.6"/><circle opacity=".2" fill="#fff" cx="45.3" cy="4" r="1.6"/><circle opacity=".2" fill="#fff" cx="40.4" cy="5.3" r="1.6"/><circle opacity=".2" fill="#fff" cx="35.5" cy="4" r="1.6"/><circle opacity=".2" fill="#fff" cx="28.7" cy="4" r="1.6"/><circle opacity=".2" fill="#fff" cx="23.7" cy="5.3" r="1.6"/><circle opacity=".2" fill="#fff" cx="18.8" cy="4" r="1.6"/><circle opacity=".2" fill="#fff" cx="12" cy="4" r="1.6"/><path d="M13.6 0l-.2.3c-.8.8-1.8 1.5-2.8 1.9-1.2.4-2.3.7-3.5.7-1.2 0-2.4-.2-3.5-.7C2.5 1.8 1.6 1.1.8.3.7.2.6.1.6 0H0l.6.7c.8.8 1.8 1.5 2.9 2 1.1.5 2.3.7 3.6.7 1.2 0 2.4-.2 3.6-.7 1.1-.5 2.1-1.1 2.9-2l.6-.7h-.6zm16.7 0l-.2.3c-.8.8-1.8 1.5-2.8 1.9-1.1.5-2.3.7-3.5.7-1.2 0-2.4-.2-3.5-.7-1.1-.4-2-1.1-2.8-1.9l-.2-.3h-.6l.6.7c.8.8 1.8 1.5 2.9 2 1.1.5 2.3.7 3.6.7 1.2 0 2.4-.2 3.6-.7 1.1-.5 2.1-1.1 2.9-2l.6-.7h-.6zm33.3 0l-.2.3c-.8.8-1.8 1.5-2.8 1.9-1.1.5-2.3.7-3.5.7-1.2 0-2.4-.2-3.5-.7-1.1-.4-2-1.1-2.8-1.9l-.2-.3H50l.6.7c.8.8 1.8 1.5 2.9 2 1.1.5 2.3.7 3.6.7 1.2 0 2.4-.2 3.6-.7 1.1-.5 2.1-1.1 2.9-2l.6-.7h-.6zM46.9 0l-.2.3c-.8.8-1.8 1.5-2.8 1.9-1.1.5-2.3.7-3.5.7-1.2 0-2.4-.2-3.5-.7-1.1-.4-2-1.1-2.8-1.9l-.2-.3h-.6l.6.7c.8.8 1.8 1.5 2.9 2 1.1.5 2.3.7 3.6.7 1.2 0 2.4-.2 3.6-.7 1.1-.5 2.1-1.1 2.9-2l.6-.7h-.6z" fill="#BFD763"/><path fill="#F9D422" d="M57.8 5.1v.4l-.1.3c-.1.1-.1.2-.2.2s-.2.1-.2.1-.3-.1-.4-.1c-.1 0-.1-.1-.2-.2s-.1-.2-.1-.3v-.8l.1-.3c.1-.1.1-.2.2-.2s.2-.1.2-.1.2 0 .2.1c.1 0 .1.1.2.2s.1.2.1.3c.2.1.2.3.2.4z"/><path fill="#BFD763" d="M57.8 4.7h-1.3l.3-1.3h.7zm-.9-1.6h.5v.6h-.5z"/><path fill="#fff" d="M52.2 4.4c-.1.1-.2.2-.3.2-.1.1-.2.1-.3.1h-.3c-.1 0-.1 0-.2-.1 0 0-.1-.1-.1-.2v-.3l.1-.3.2-.3c.1-.1.2-.2.3-.2.1-.1.2-.1.3-.1h.3c.1 0 .1 0 .2.1 0 0 .1.1.1.2v.3l-.1.3c0 .1-.1.2-.2.3z"/><path fill="#BFD763" d="M52.5 4.1l-.7-.7 1-.7.4.4zm.564-1.564l.283.283-.424.424-.283-.283z"/><path fill="#EE2775" d="M62.6 3.4c.1.1.2.2.2.3l.2.3v.3c0 .1 0 .2-.1.2s-.1.1-.2.1h-.3l-.3-.1-.3-.2c-.1-.1-.2-.2-.2-.3-.1-.1-.1-.2-.1-.3v-.3c0-.1 0-.2.1-.2 0-.2.1-.2.1-.2h.3l.3.1.3.3z"/><path fill="#BFD763" d="M62.3 3.1l-.7.8-.8-1.1.5-.4zm-1.573-.588l.283-.283.424.424-.283.283z"/><path fill="#EE2775" d="M40.9 5.5v.4s-.1.2-.1.3c0 .1-.1.2-.2.2l-.2.1s-.1 0-.2-.1l-.2-.2c0-.1 0-.2-.1-.3v-.8c.1-.1.1-.2.1-.3 0-.1.1-.2.2-.2s.1-.1.2-.1.1 0 .2.1c.1 0 .1.1.2.2l.1.3v.4z"/><path fill="#BFD763" d="M40.9 5.1h-1l.2-1.3h.6zm-.7-1.7h.4V4h-.4z"/><path fill="#F9D422" d="M36 4.2c-.1.1-.2.2-.3.2-.1.1-.2.1-.3.1h-.3s-.2 0-.2-.1c-.1-.1-.1-.1-.1-.2v-.3l.1-.3.2-.3c.1-.1.2-.2.3-.2.2 0 .3-.1.4-.1h.2c.1 0 .2 0 .2.1s.1.1.1.2v.3l-.1.3s-.2.2-.2.3z"/><path fill="#BFD763" d="M36.2 3.9l-.8-.8 1.1-.7.5.4zm.592-1.649l.283.283-.424.424-.283-.283z"/><path fill="#5AC4BE" d="M45.6 3.6c.1.1.2.2.2.3s.1.2.1.3v.3c0 .1 0 .1-.1.2 0 0-.1.1-.2.1h-.3l-.3-.1-.3-.2c-.1-.1-.2-.2-.2-.3-.1-.1-.1-.2-.1-.3v-.3s0-.1.1-.2c0 0 .1-.1.2-.1h.3l.3.1c.1 0 .2.1.3.2z"/><path fill="#BFD763" d="M45.3 3.3l-.7.8-.8-1.1.5-.4zm-1.574-.575l.283-.283.424.424-.283.283z"/><path fill="#5AC4BE" d="M24.4 5.3v.4l-.1.3s-.2.2-.3.2l-.2.1s-.2 0-.2-.1c-.1 0-.1-.1-.2-.2s-.1-.2-.1-.3v-.8l.1-.3c.1-.1.1-.2.2-.2l.2-.1s.2 0 .2.1c.1 0 .1.1.2.2s.1.2.1.3c0 .2.1.3.1.4z"/><path fill="#BFD763" d="M24.4 4.9h-1.2l.3-1.2h.6zm-.8-1.6h.5v.6h-.5z"/><path fill="#EE2775" d="M19 4.2c-.1.1-.2.2-.3.2s-.2.1-.3.2c-.1 0-.2.1-.2 0-.1 0-.1 0-.2-.1 0 0-.1-.1-.1-.2v-.2c0-.1.1-.2.2-.3l.2-.3s.2-.2.3-.2l.3-.2c.1 0 .2-.1.2 0 .1 0 .1 0 .2.1s.1.1.1.2v.2c0 .1-.1.2-.2.3s-.1.2-.2.3z"/><path fill="#BFD763" d="M19.3 3.9l-.6-.6 1-.8.4.4zm.657-1.519l.212.212-.424.424-.212-.212z"/><path fill="#fff" d="M28.9 3.4c.1.1.2.2.2.3s.1.2.1.3v.3c0 .1 0 .1-.1.2 0 0-.1.1-.2.1h-.3s-.2-.1-.3-.1-.2-.1-.3-.2c.1-.3 0-.4 0-.5s-.1-.2-.1-.3v-.3c0-.1 0-.1.1-.2h.4l.3.1c0 .1.1.2.2.3z"/><path fill="#BFD763" d="M28.6 3.2l-.7.7-.7-1.1.4-.4zm-1.573-.659l.283-.283.424.424-.283.283z"/><circle opacity=".2" fill="#fff" cx="7.1" cy="5.3" r="1.6"/><circle opacity=".2" fill="#fff" cx="2.2" cy="4" r="1.6"/><path fill="#fff" d="M7.7 5.3v.4l-.1.3c0 .1-.1.2-.2.2l-.2.1s-.1 0-.2-.1c0 0-.1-.1-.1-.2s-.1-.2-.1-.3v-.8l.1-.3.2-.2.2-.1s.1 0 .2.1c.1 0 .1.1.2.2l.1.3c-.1.2-.1.3-.1.4z"/><path fill="#BFD763" d="M7.7 4.9h-.9L7 3.7h.5zm-.6-1.6h.4v.6h-.4z"/><path fill="#5AC4BE" d="M2.4 4.2c0 .1-.1.1-.2.2s-.2.2-.3.2c-.1 0-.2.1-.2.1-.1 0-.1 0-.2-.1s-.1-.1-.1-.2v-.3l.1-.3.2-.3.3-.3s.1 0 .2-.1l.3-.1c.1 0 .1 0 .2.1.1 0 .1.1.1.2v.3l-.1.3c-.1 0-.2.1-.3.3z"/><path fill="#BFD763" d="M2.7 3.9l-.8-.6.9-.9.5.3zm.375-1.771l.318.243-.364.477-.318-.243z"/><path fill="#F9D422" d="M12.3 3.5c.1.1.2.2.2.3.1.1.1.2.1.3v.3s0 .2-.1.2c-.1.1-.1.1-.2.1H12l-.3-.1-.3-.2c-.1-.1-.2-.2-.2-.3-.1-.1-.1-.2-.1-.3v-.3c0-.1 0-.2.1-.2.1-.1.1-.1.2-.1h.3s.2.1.3.1c.1 0 .2.1.3.2z"/><path fill="#BFD763" d="M12.1 3.2l-.8.8-.8-1.1.5-.5zm-1.667-.567l.283-.283.424.424-.283.283z"/><circle opacity=".2" fill="#fff" cx="130.1" cy="4" r="1.6"/><circle opacity=".2" fill="#fff" cx="125.2" cy="5.3" r="1.6"/><circle opacity=".2" fill="#fff" cx="120.3" cy="4" r="1.6"/><circle opacity=".2" fill="#fff" cx="113.4" cy="4" r="1.6"/><circle opacity=".2" fill="#fff" cx="108.5" cy="5.3" r="1.6"/><circle opacity=".2" fill="#fff" cx="103.6" cy="4" r="1.6"/><circle opacity=".2" fill="#fff" cx="96.8" cy="4" r="1.6"/><circle opacity=".2" fill="#fff" cx="91.8" cy="5.3" r="1.6"/><circle opacity=".2" fill="#fff" cx="86.9" cy="4" r="1.6"/><circle opacity=".2" fill="#fff" cx="80.1" cy="4" r="1.6"/><path d="M98.4 0l-.2.3c-.8.8-1.8 1.5-2.8 1.9-1.1.5-2.3.7-3.5.7-1.2 0-2.4-.2-3.5-.7-1.1-.4-2-1.1-2.8-1.9l-.2-.3h-.6l.6.7c.8.8 1.8 1.5 2.9 2 1.1.5 2.3.7 3.6.7 1.2 0 2.4-.2 3.6-.7 1.1-.5 2.1-1.1 2.9-2L99 0h-.6zM81.7 0l-.2.3c-.8.8-1.8 1.5-2.8 1.9-1.1.5-2.3.7-3.5.7-1.2 0-2.4-.2-3.5-.7-1.1-.4-2-1.1-2.8-1.9l-.2-.3h-.6l.6.7c.8.8 1.8 1.5 2.9 2 1.1.5 2.3.7 3.6.7 1.2 0 2.4-.2 3.6-.7 1.1-.5 2.1-1.1 2.9-2l.6-.7h-.6zm50 0l-.2.3c-.8.8-1.8 1.5-2.8 1.9-1.1.5-2.3.7-3.5.7s-2.4-.2-3.5-.7c-1.1-.4-2-1.1-2.8-1.9l-.2-.3h-.6l.6.7c.8.8 1.8 1.5 2.9 2 1.1.5 2.3.7 3.6.7 1.2 0 2.4-.2 3.6-.7 1.1-.5 2.1-1.1 2.9-2l.6-.7h-.6zM115 0l-.2.3c-.8.8-1.8 1.4-2.8 1.9-1.1.5-2.3.7-3.5.7-1.2 0-2.4-.2-3.5-.7-1.1-.4-2-1.1-2.8-1.9L102 0h-.6l.6.7c.8.8 1.8 1.5 2.9 2 1.1.5 2.3.7 3.6.7 1.2 0 2.4-.2 3.6-.7 1.1-.5 2.1-1.1 2.9-2l.6-.7h-.6z" fill="#BFD763"/><path fill="#F9D422" d="M126.1 5.1v.4l-.1.3s-.1.2-.2.2l-.2.1c-.1 0-.2 0-.2-.1l-.2-.2s-.1-.2-.1-.3v-.8l.1-.3s.1-.2.2-.2.2-.1.2-.1c.1 0 .2 0 .2.1.1 0 .1.1.2.2s.1.2.1.3v.4z"/><path fill="#BFD763" d="M126.1 4.7h-1.3l.3-1.3h.7zm-.9-1.6h.5v.6h-.5z"/><path fill="#fff" d="M120.8 4.2c-.1.1-.2.2-.3.2s-.2.1-.3.1h-.3l-.2-.1c-.1-.1-.1-.1-.1-.2v-.3s.1-.2.1-.3.1-.2.2-.3c.1-.1.2-.2.3-.2.1-.1.2-.1.3-.1h.3c.1 0 .2.1.2.1s.1.1.1.2v.3l-.1.3s-.1.2-.2.3z"/><path fill="#BFD763" d="M121.1 4l-.9-.9 1.1-.7.5.5zm.524-1.757l.354.354-.424.424-.354-.354z"/><path fill="#EE2775" d="M130.6 3.3c.1.1.2.2.2.3.1.1.1.2.1.3v.3l-.1.2s-.1.1-.2.1h-.3s-.2-.1-.3-.1l-.3-.2c-.1-.1-.2-.2-.2-.3-.1-.1-.1-.2-.1-.3v-.3c0-.1.1-.2.1-.2s.1-.1.2-.1h.3s.2.1.3.1l.3.2z"/><path fill="#BFD763" d="M130.4 3.1l-1 .9-.7-1.1.6-.6zm-1.868-.474l.354-.354.424.424-.354.354z"/><path fill="#EE2775" d="M109.2 5.5v.4l-.1.3c-.1.1-.1.2-.2.2s-.1.1-.2.1-.2 0-.2-.1l-.2-.2c-.1-.1-.1-.2-.1-.3v-.8l.1-.3c.1-.1.1-.2.2-.2s.1-.1.2-.1.2 0 .2.1l.2.2c.1.1.1.2.1.3-.1.1 0 .3 0 .4z"/><path fill="#BFD763" d="M109.2 5.1H108l.2-1.3h.7zm-.8-1.7h.5V4h-.5z"/><path fill="#F9D422" d="M104.2 4.2c-.1.1-.2.2-.3.2-.1.1-.2.1-.3.1h-.3c-.1 0-.2 0-.2-.1-.1 0-.1-.1-.1-.2v-.3l.1-.3.2-.3c.1-.1.2-.2.3-.2.1-.1.2-.1.3-.1h.3s.2 0 .2.1c.1.1.1.1.1.2v.3l-.1.3c-.1.1-.2.2-.2.3z"/><path fill="#BFD763" d="M104.4 3.9l-.8-.8 1.1-.7.5.4zm.585-1.637l.354.354-.424.424-.354-.354z"/><path fill="#5AC4BE" d="M113.8 3.4c.1.1.2.2.2.3.1.1.1.2.1.3v.3c0 .1 0 .2-.1.2s-.1.1-.2.1h-.3l-.3-.1-.3-.2s-.2-.2-.2-.3c-.1-.1-.1-.2-.1-.3v-.3c0-.1 0-.2.1-.2.1-.1.1-.1.2-.1h.3l.3.1c.1 0 .2.1.3.2z"/><path fill="#BFD763" d="M113.5 3.2l-.8.7-.7-1 .4-.5zm-1.694-.633l.283-.283.424.424-.283.283z"/><path fill="#5AC4BE" d="M92.4 5.3v.4l-.1.3s-.1.2-.2.2l-.2.1s-.2 0-.2-.1c-.1 0-.1-.1-.2-.2s-.1-.2-.1-.3v-.8l.1-.3s.1-.2.2-.2l.2-.1s.2 0 .2.1c.1 0 .1.1.2.2s.1.2.1.3v.4z"/><path fill="#BFD763" d="M92.4 5h-1.1l.2-1.3h.7zm-.8-1.7h.5v.6h-.5z"/><path fill="#EE2775" d="M87.4 4.4c-.1.1-.2.2-.3.2s-.2.1-.3.1h-.3s-.2 0-.2-.1c-.1-.1-.1-.1-.1-.2v-.3l.1-.3.2-.3c.1-.1.2-.2.3-.2.1-.1.2-.1.3-.1h.3c.1 0 .2 0 .2.1.1.1.1.1.1.2v.3l-.1.3s-.1.2-.2.3z"/><path fill="#BFD763" d="M87.6 4.1l-.8-.8 1.1-.7.5.4zm.589-1.658l.354.354-.424.424-.354-.354z"/><path fill="#fff" d="M97.2 3.5c.1.1.2.2.2.3.1.1.1.2.1.3v.3c0 .1-.1.2-.1.2s-.1.1-.2.1h-.3s-.2-.1-.3-.1l-.3-.2s-.2-.2-.2-.3-.1-.2-.1-.3v-.3c0-.1.1-.2.1-.2.1-.1.1-.1.2-.1h.3s.2.1.3.1l.3.2z"/><path fill="#BFD763" d="M96.9 3.3l-.8.8-.8-1 .5-.6zm-1.672-.553l.354-.354.424.424-.354.354z"/><circle opacity=".2" fill="#fff" cx="75.2" cy="5.3" r="1.6"/><circle opacity=".2" fill="#fff" cx="70.2" cy="4" r="1.6"/><path fill="#fff" d="M75.7 5.3v.4l-.1.3s-.1.2-.2.2l-.2.1s-.1 0-.2-.1c-.1 0-.1-.1-.2-.2s-.1-.2-.1-.3v-.8l.1-.3s.1-.2.2-.2l.2-.1s.1 0 .2.1c.1 0 .1.1.2.2s.1.2.1.3v.4z"/><path fill="#BFD763" d="M75.7 5h-1l.2-1.3h.6zM75 3.3h.4v.6H75z"/><path fill="#5AC4BE" d="M70.8 4.2c-.1.1-.2.2-.3.2-.1.1-.2.1-.3.1h-.3c-.1 0-.2 0-.2-.1s-.1-.1-.1-.2v-.3s.1-.2.1-.3l.2-.3c.1-.1.2-.2.3-.2.2 0 .3-.1.4-.1h.3s.2 0 .2.1c.1.1.1.1.1.2v.3l-.1.3-.3.3z"/><path fill="#BFD763" d="M71.1 3.9l-.8-.8 1-.7.5.4zm.507-1.688l.354.354-.424.424-.354-.354z"/><path fill="#F9D422" d="M80.3 3.5c.1.1.2.2.2.3s.1.2.1.3v.3c0 .1 0 .1-.1.2 0 0-.1.1-.2.1H80l-.3-.1-.3-.2v-.5c-.1-.1-.1-.2-.1-.3v-.3c0-.1 0-.1.1-.2 0 0 .1-.1.2-.1h.3l.3.1s0 .3.1.4z"/><path fill="#BFD763" d="M80.1 3.2l-.8.7-.7-1 .4-.5zm-1.695-.632l.283-.283.424.424-.283.283z"/></svg>