<?xml version="1.0" encoding="utf-8"?>
<!-- Generator: Adobe Illustrator 16.0.0, SVG Export Plug-In . SVG Version: 6.00 Build 0)  -->
<!DOCTYPE svg PUBLIC "-//W3C//DTD SVG 1.1//EN" "http://www.w3.org/Graphics/SVG/1.1/DTD/svg11.dtd">
<svg version="1.1" id="Capa_1" xmlns="http://www.w3.org/2000/svg" xmlns:xlink="http://www.w3.org/1999/xlink" x="0px" y="0px"
	 width="300px" height="300px" viewBox="0 0 300 300" enable-background="new 0 0 300 300" xml:space="preserve">
<g>
	<circle opacity="0.2" fill="#FFFFFF" enable-background="new    " cx="65.08" cy="136.247" r="3.628"/>
	<circle opacity="0.2" fill="#FFFFFF" enable-background="new    " cx="53.742" cy="139.195" r="3.628"/>
	<circle opacity="0.2" fill="#FFFFFF" enable-background="new    " cx="42.63" cy="136.247" r="3.628"/>
	<circle opacity="0.2" fill="#FFFFFF" enable-background="new    " cx="27.211" cy="136.247" r="3.628"/>
	<path fill="#BFD763" d="M30.839,127.177l-0.454,0.68c-1.814,1.814-4.082,3.401-6.349,4.309c-2.721,0.907-5.215,1.587-7.937,1.587
		c-2.721,0-5.442-0.454-7.937-1.587c-2.494-0.907-4.535-2.494-6.349-4.309c-0.227-0.227-0.454-0.453-0.454-0.68H0l1.36,1.587
		c1.814,1.814,4.082,3.401,6.576,4.535s5.215,1.587,8.163,1.587c2.721,0,5.442-0.454,8.164-1.587
		c2.494-1.134,4.762-2.494,6.576-4.535l1.361-1.587H30.839z"/>
	<path fill="#BFD763" d="M68.708,127.177l-0.454,0.68c-1.814,1.814-4.082,3.401-6.349,4.309c-2.494,1.134-5.215,1.587-7.937,1.587
		s-5.442-0.454-7.937-1.587c-2.494-0.907-4.535-2.494-6.349-4.309l-0.454-0.68h-1.36l1.36,1.587
		c1.814,1.814,4.082,3.401,6.576,4.535c2.494,1.134,5.215,1.587,8.163,1.587c2.721,0,5.442-0.454,8.163-1.587
		c2.495-1.134,4.762-2.494,6.576-4.535l1.36-1.587H68.708z"/>
	<path fill="#5AC4BE" d="M55.329,139.195v0.906l-0.227,0.681c0,0-0.454,0.454-0.68,0.454l-0.454,0.227c0,0-0.454,0-0.454-0.227
		c-0.227,0-0.227-0.227-0.454-0.454c-0.227-0.227-0.227-0.454-0.227-0.681v-1.813l0.227-0.681c0.227-0.227,0.227-0.453,0.454-0.453
		l0.454-0.227c0,0,0.454,0,0.454,0.227c0.227,0,0.227,0.227,0.454,0.453c0.227,0.227,0.227,0.453,0.227,0.681
		C55.102,138.742,55.329,138.969,55.329,139.195z"/>
	<path fill="#BFD763" d="M55.329,138.288h-2.721l0.68-2.722h1.36L55.329,138.288z M53.515,134.66h1.134v1.361h-1.134V134.66z"/>
	<path fill="#EE2775" d="M43.084,136.701c-0.227,0.227-0.454,0.453-0.68,0.453c-0.227,0-0.454,0.227-0.681,0.453
		c-0.227,0-0.453,0.227-0.453,0c-0.227,0-0.227,0-0.454-0.227c0,0-0.227-0.227-0.227-0.453v-0.453c0-0.228,0.227-0.454,0.454-0.682
		l0.454-0.68c0,0,0.454-0.454,0.68-0.454l0.68-0.453c0.227,0,0.454-0.227,0.454,0c0.227,0,0.227,0,0.454,0.227
		s0.227,0.227,0.227,0.454v0.454c0,0.226-0.227,0.453-0.453,0.68C43.311,136.247,43.311,136.475,43.084,136.701z"/>
	<path fill="#BFD763" d="M43.764,136.021l-1.36-1.361l2.268-1.814l0.907,0.907L43.764,136.021z M45.254,132.576l0.481,0.48
		l-0.961,0.961l-0.481-0.48L45.254,132.576z"/>
	<path fill="#FFFFFF" d="M65.533,134.887c0.227,0.227,0.454,0.454,0.454,0.68c0,0.227,0.227,0.454,0.227,0.681v0.681
		c0,0.227,0,0.227-0.227,0.453c0,0-0.227,0.227-0.454,0.227h-0.68c0,0-0.454-0.227-0.68-0.227s-0.454-0.227-0.68-0.453
		c0.227-0.681,0-0.907,0-1.135c0-0.227-0.227-0.453-0.227-0.68v-0.68c0-0.227,0-0.227,0.227-0.454h0.907l0.681,0.227
		C65.08,134.433,65.306,134.66,65.533,134.887z"/>
	<path fill="#BFD763" d="M64.853,134.433l-1.587,1.587l-1.587-2.495l0.907-0.907L64.853,134.433z M61.286,132.939l0.642-0.642
		l0.961,0.961l-0.642,0.642L61.286,132.939z"/>
	<circle opacity="0.2" fill="#FFFFFF" enable-background="new    " cx="16.1" cy="139.195" r="3.628"/>
	<circle opacity="0.2" fill="#FFFFFF" enable-background="new    " cx="4.989" cy="136.247" r="3.628"/>
	<path fill="#FFFFFF" d="M17.46,139.195v0.906l-0.227,0.681c0,0.228-0.227,0.454-0.453,0.454l-0.454,0.227c0,0-0.227,0-0.454-0.227
		c0,0-0.227-0.227-0.227-0.454c0-0.227-0.227-0.454-0.227-0.681v-1.813l0.227-0.681l0.453-0.453l0.454-0.227
		c0,0,0.227,0,0.454,0.227c0.227,0,0.227,0.227,0.454,0.453l0.227,0.681C17.46,138.742,17.46,138.969,17.46,139.195z"/>
	<path fill="#BFD763" d="M17.46,138.288h-2.041l0.454-2.722h1.134L17.46,138.288z M16.1,134.66h0.907v1.361H16.1V134.66z"/>
	<path fill="#5AC4BE" d="M5.442,136.701c0,0.227-0.227,0.227-0.454,0.453c-0.227,0.227-0.454,0.453-0.68,0.453
		c-0.227,0-0.454,0.227-0.454,0.227c-0.227,0-0.227,0-0.454-0.227s-0.227-0.227-0.227-0.453v-0.68l0.227-0.682l0.454-0.68l0.68-0.68
		c0,0,0.227,0,0.454-0.227l0.68-0.227c0.227,0,0.227,0,0.454,0.227c0.227,0,0.227,0.227,0.227,0.453v0.681l-0.227,0.68
		C5.896,136.021,5.669,136.247,5.442,136.701z"/>
	<path fill="#BFD763" d="M6.123,136.021l-1.814-1.361l2.041-2.041l1.134,0.68L6.123,136.021z M6.973,132.004l0.721,0.551
		l-0.825,1.082l-0.721-0.551L6.973,132.004z"/>
	<path fill="#F9D422" d="M27.891,135.113c0.227,0.227,0.454,0.453,0.454,0.68c0.227,0.228,0.227,0.454,0.227,0.682v0.68
		c0,0,0,0.453-0.227,0.453c-0.227,0.227-0.227,0.227-0.454,0.227h-0.68l-0.68-0.227l-0.68-0.453
		c-0.227-0.227-0.454-0.453-0.454-0.68c-0.227-0.228-0.227-0.454-0.227-0.682v-0.68c0-0.227,0-0.454,0.227-0.454
		c0.227-0.227,0.227-0.227,0.454-0.227h0.68c0,0,0.453,0.227,0.68,0.227C27.438,134.66,27.665,134.887,27.891,135.113z"/>
	<path fill="#BFD763" d="M27.438,134.433l-1.814,1.814l-1.814-2.494l1.134-1.134L27.438,134.433z M23.658,133.147l0.642-0.642
		l0.961,0.961l-0.642,0.642L23.658,133.147z"/>
</g>
<g>
	<circle opacity="0.2" fill="#FFFFFF" enable-background="new    " cx="295.012" cy="136.247" r="3.628"/>
	<circle opacity="0.2" fill="#FFFFFF" enable-background="new    " cx="283.9" cy="139.195" r="3.628"/>
	<circle opacity="0.2" fill="#FFFFFF" enable-background="new    " cx="272.789" cy="136.247" r="3.628"/>
	<circle opacity="0.2" fill="#FFFFFF" enable-background="new    " cx="257.143" cy="136.247" r="3.628"/>
	<circle opacity="0.2" fill="#FFFFFF" enable-background="new    " cx="246.031" cy="139.195" r="3.628"/>
	<circle opacity="0.2" fill="#FFFFFF" enable-background="new    " cx="234.92" cy="136.247" r="3.628"/>
	<path fill="#BFD763" d="M298.64,127.177l-0.454,0.68c-1.813,1.814-4.081,3.401-6.349,4.309c-2.495,1.134-5.216,1.587-7.937,1.587
		s-5.442-0.454-7.937-1.587c-2.495-0.907-4.535-2.494-6.35-4.309l-0.453-0.68h-1.36l1.36,1.587c1.813,1.814,4.081,3.401,6.575,4.535
		c2.495,1.134,5.216,1.587,8.164,1.587c2.721,0,5.441-0.454,8.163-1.587c2.494-1.134,4.762-2.494,6.576-4.535l1.36-1.587H298.64z"/>
	<path fill="#BFD763" d="M260.771,127.177l-0.454,0.68c-1.813,1.814-4.081,3.175-6.349,4.309c-2.494,1.134-5.216,1.587-7.938,1.587
		c-2.721,0-5.441-0.454-7.936-1.587c-2.494-0.907-4.535-2.494-6.35-4.309l-0.453-0.68h-1.361l1.361,1.587
		c1.813,1.814,4.081,3.401,6.576,4.535c2.494,1.134,5.215,1.587,8.162,1.587c2.722,0,5.443-0.454,8.164-1.587
		c2.494-1.134,4.762-2.494,6.576-4.535l1.359-1.587H260.771z"/>
	<path fill="#F9D422" d="M285.941,138.742v0.906l-0.227,0.68c0,0-0.228,0.454-0.454,0.454l-0.454,0.228
		c-0.227,0-0.453,0-0.453-0.228l-0.453-0.454c0,0-0.227-0.453-0.227-0.68v-1.814l0.227-0.68c0,0,0.227-0.453,0.453-0.453
		s0.453-0.227,0.453-0.227c0.228,0,0.454,0,0.454,0.227c0.227,0,0.227,0.227,0.454,0.453c0.227,0.227,0.227,0.453,0.227,0.68
		V138.742z"/>
	<path fill="#BFD763" d="M285.941,137.834h-2.948l0.681-2.947h1.587L285.941,137.834z M283.9,134.207h1.134v1.36H283.9V134.207z"/>
	<path fill="#FFFFFF" d="M273.923,136.701c-0.227,0.227-0.454,0.453-0.681,0.453s-0.453,0.227-0.68,0.227h-0.681l-0.453-0.227
		c-0.228-0.227-0.228-0.227-0.228-0.453v-0.681c0,0,0.228-0.454,0.228-0.68c0-0.227,0.227-0.454,0.453-0.681
		c0.228-0.227,0.454-0.453,0.681-0.453c0.227-0.227,0.453-0.227,0.68-0.227h0.681c0.227,0,0.454,0.227,0.454,0.227
		s0.227,0.227,0.227,0.453v0.681l-0.227,0.68C274.377,136.021,274.149,136.475,273.923,136.701z"/>
	<path fill="#BFD763" d="M274.604,136.247l-2.041-2.041l2.494-1.587l1.134,1.134L274.604,136.247z M275.791,132.263l0.803,0.803
		l-0.961,0.961l-0.803-0.803L275.791,132.263z"/>
	<path fill="#EE2775" d="M296.145,134.66c0.228,0.227,0.454,0.454,0.454,0.681c0.227,0.226,0.227,0.453,0.227,0.68v0.681
		l-0.227,0.453c0,0-0.227,0.227-0.454,0.227h-0.68c0,0-0.453-0.227-0.68-0.227l-0.681-0.453c-0.228-0.227-0.454-0.454-0.454-0.681
		c-0.227-0.228-0.227-0.454-0.227-0.68v-0.681c0-0.227,0.227-0.453,0.227-0.453s0.227-0.227,0.454-0.227h0.681
		c0,0,0.453,0.227,0.68,0.227L296.145,134.66z"/>
	<path fill="#BFD763" d="M295.691,134.207l-2.268,2.041l-1.587-2.494l1.36-1.361L295.691,134.207z M291.455,133.131l0.803-0.803
		l0.962,0.961l-0.803,0.803L291.455,133.131z"/>
	<path fill="#EE2775" d="M247.619,139.648v0.907l-0.227,0.681c-0.227,0.227-0.227,0.453-0.453,0.453
		c-0.228,0-0.228,0.227-0.454,0.227c-0.228,0-0.454,0-0.454-0.227l-0.453-0.453c-0.227-0.227-0.227-0.454-0.227-0.681v-1.813
		l0.227-0.682c0.227-0.227,0.227-0.453,0.453-0.453s0.227-0.227,0.454-0.227c0.227,0,0.454,0,0.454,0.227l0.453,0.453
		c0.227,0.228,0.227,0.454,0.227,0.682C247.393,138.969,247.619,139.422,247.619,139.648z"/>
	<path fill="#BFD763" d="M247.619,138.742h-2.721l0.453-2.949h1.588L247.619,138.742z M245.805,134.887h1.135v1.36h-1.135V134.887z"
		/>
	<path fill="#F9D422" d="M236.281,136.701c-0.227,0.227-0.453,0.453-0.68,0.453c-0.228,0.227-0.454,0.227-0.682,0.227h-0.68
		c-0.227,0-0.453,0-0.453-0.227c-0.227,0-0.227-0.227-0.227-0.453v-0.681l0.227-0.68l0.453-0.681
		c0.227-0.227,0.453-0.453,0.68-0.453c0.228-0.227,0.454-0.227,0.682-0.227h0.68c0,0,0.453,0,0.453,0.227
		c0.227,0.227,0.227,0.227,0.227,0.453v0.681l-0.227,0.68C236.508,136.247,236.281,136.475,236.281,136.701z"/>
	<path fill="#BFD763" d="M236.734,136.021l-1.814-1.814l2.495-1.587l1.134,0.907L236.734,136.021z M238.061,132.309l0.803,0.803
		l-0.961,0.961l-0.803-0.803L238.061,132.309z"/>
	<path fill="#5AC4BE" d="M258.05,134.887c0.228,0.227,0.454,0.454,0.454,0.68c0.227,0.227,0.227,0.454,0.227,0.681v0.681
		c0,0.227,0,0.453-0.227,0.453s-0.227,0.227-0.454,0.227h-0.681l-0.68-0.227l-0.681-0.453c0,0-0.453-0.453-0.453-0.681
		c-0.228-0.227-0.228-0.454-0.228-0.681v-0.68c0-0.227,0-0.454,0.228-0.454c0.227-0.227,0.227-0.227,0.453-0.227h0.681l0.68,0.227
		C257.596,134.433,257.823,134.66,258.05,134.887z"/>
	<path fill="#BFD763" d="M257.369,134.433l-1.813,1.587l-1.587-2.268l0.906-1.134L257.369,134.433z M253.528,132.998l0.642-0.642
		l0.961,0.961l-0.641,0.642L253.528,132.998z"/>
</g>
<g>
	<circle opacity="0.2" fill="#FFFFFF" enable-background="new    " cx="140.589" cy="151.247" r="3.628"/>
	<circle opacity="0.2" fill="#FFFFFF" enable-background="new    " cx="129.479" cy="154.195" r="3.628"/>
	<circle opacity="0.2" fill="#FFFFFF" enable-background="new    " cx="118.367" cy="151.247" r="3.628"/>
	<circle opacity="0.2" fill="#FFFFFF" enable-background="new    " cx="102.721" cy="151.247" r="3.628"/>
	<circle opacity="0.2" fill="#FFFFFF" enable-background="new    " cx="91.61" cy="154.195" r="3.628"/>
	<circle opacity="0.2" fill="#FFFFFF" enable-background="new    " cx="80.499" cy="151.247" r="3.628"/>
	<path fill="#BFD763" d="M144.218,142.177l-0.454,0.68c-1.814,1.814-4.082,3.401-6.349,4.309c-2.495,1.134-5.215,1.587-7.937,1.587
		s-5.442-0.454-7.937-1.587c-2.494-0.907-4.535-2.494-6.349-4.309l-0.454-0.68h-1.36l1.36,1.587
		c1.814,1.814,4.082,3.401,6.576,4.535c2.494,1.134,5.215,1.587,8.163,1.587c2.721,0,5.442-0.454,8.163-1.587
		c2.495-1.134,4.762-2.494,6.576-4.535l1.36-1.587H144.218z"/>
	<path fill="#BFD763" d="M106.349,142.177l-0.454,0.68c-1.814,1.814-4.082,3.401-6.349,4.309c-2.494,1.134-5.215,1.587-7.937,1.587
		s-5.442-0.454-7.937-1.587c-2.494-0.907-4.535-2.494-6.349-4.309l-0.454-0.68h-1.36l1.36,1.587
		c1.814,1.814,4.082,3.401,6.576,4.535c2.494,1.134,5.215,1.587,8.163,1.587c2.721,0,5.442-0.454,8.164-1.587
		c2.494-1.134,4.762-2.494,6.576-4.535l1.361-1.587H106.349z"/>
	<path fill="#F9D422" d="M131.066,153.742v0.906l-0.227,0.68c-0.227,0.228-0.227,0.454-0.454,0.454
		c-0.227,0-0.453,0.228-0.453,0.228s-0.681-0.228-0.907-0.228s-0.227-0.227-0.454-0.454c-0.227-0.227-0.227-0.453-0.227-0.68v-1.814
		l0.227-0.68c0.227-0.227,0.227-0.453,0.454-0.453s0.454-0.227,0.454-0.227s0.454,0,0.454,0.227c0.227,0,0.227,0.227,0.453,0.453
		c0.227,0.227,0.227,0.453,0.227,0.68C131.066,153.061,131.066,153.515,131.066,153.742z"/>
	<path fill="#BFD763" d="M131.066,152.834h-2.948l0.681-2.947h1.587L131.066,152.834z M129.025,149.207h1.134v1.36h-1.134V149.207z"
		/>
	<path fill="#FFFFFF" d="M118.367,152.154c-0.227,0.227-0.453,0.453-0.68,0.453c-0.227,0.227-0.454,0.227-0.68,0.227h-0.68
		c-0.227,0-0.227,0-0.454-0.227c0,0-0.227-0.227-0.227-0.453v-0.68l0.227-0.682l0.454-0.68c0.227-0.227,0.454-0.454,0.68-0.454
		c0.227-0.227,0.454-0.227,0.68-0.227h0.68c0.227,0,0.227,0,0.454,0.227c0,0,0.227,0.227,0.227,0.454v0.68l-0.227,0.682
		C118.821,151.701,118.594,151.928,118.367,152.154z"/>
	<path fill="#BFD763" d="M119.048,151.475l-1.587-1.588l2.268-1.587l0.907,0.907L119.048,151.475z M120.327,147.927l0.642,0.642
		l-0.961,0.961l-0.642-0.642L120.327,147.927z"/>
	<path fill="#EE2775" d="M141.95,149.887c0.227,0.227,0.454,0.454,0.454,0.68l0.453,0.681v0.681c0,0.227,0,0.453-0.227,0.453
		s-0.227,0.227-0.454,0.227h-0.68l-0.68-0.227l-0.68-0.453c-0.227-0.227-0.454-0.453-0.454-0.681
		c-0.227-0.227-0.227-0.454-0.227-0.681v-0.68c0-0.227,0-0.454,0.227-0.454c0-0.454,0.227-0.454,0.227-0.454h0.68l0.681,0.227
		L141.95,149.887z"/>
	<path fill="#BFD763" d="M141.27,149.207l-1.587,1.814l-1.814-2.495l1.134-0.907L141.27,149.207z M137.703,147.873l0.642-0.642
		l0.961,0.961l-0.642,0.642L137.703,147.873z"/>
	<path fill="#EE2775" d="M92.744,154.648v0.907c0,0-0.227,0.454-0.227,0.681s-0.227,0.453-0.454,0.453l-0.454,0.227
		c0,0-0.227,0-0.454-0.227l-0.453-0.453c0-0.227,0-0.454-0.227-0.681v-1.813c0.227-0.228,0.227-0.454,0.227-0.682
		c0-0.227,0.227-0.453,0.453-0.453c0.227,0,0.227-0.227,0.454-0.227c0.227,0,0.227,0,0.454,0.227c0.227,0,0.227,0.227,0.454,0.453
		l0.227,0.682V154.648z"/>
	<path fill="#BFD763" d="M92.744,153.742h-2.268l0.454-2.949h1.36L92.744,153.742z M91.156,149.887h0.907v1.36h-0.907V149.887z"/>
	<path fill="#F9D422" d="M81.633,151.701c-0.227,0.227-0.454,0.453-0.681,0.453c-0.227,0.227-0.453,0.227-0.68,0.227h-0.68
		c0,0-0.454,0-0.454-0.227c-0.227-0.227-0.227-0.227-0.227-0.453v-0.681l0.227-0.68l0.454-0.681c0.227-0.227,0.454-0.453,0.68-0.453
		c0.454,0,0.68-0.227,0.907-0.227h0.454c0.227,0,0.453,0,0.453,0.227c0,0.227,0.227,0.227,0.227,0.453v0.681l-0.227,0.68
		C82.086,151.021,81.633,151.475,81.633,151.701z"/>
	<path fill="#BFD763" d="M82.086,151.021l-1.814-1.814l2.495-1.587l1.134,0.907L82.086,151.021z M83.429,147.281l0.642,0.642
		l-0.961,0.961l-0.642-0.642L83.429,147.281z"/>
	<path fill="#5AC4BE" d="M103.401,150.34c0.227,0.226,0.454,0.453,0.454,0.68c0,0.227,0.227,0.454,0.227,0.681v0.68
		c0,0.227,0,0.227-0.227,0.453c0,0-0.227,0.227-0.454,0.227h-0.68l-0.68-0.227l-0.681-0.453c-0.227-0.227-0.453-0.453-0.453-0.68
		c-0.227-0.227-0.227-0.454-0.227-0.681v-0.68c0,0,0-0.227,0.227-0.454c0,0,0.227-0.227,0.453-0.227h0.681l0.68,0.227
		C102.948,149.887,103.175,150.113,103.401,150.34z"/>
	<path fill="#BFD763" d="M102.721,149.66l-1.587,1.815l-1.814-2.495l1.134-0.907L102.721,149.66z M99.152,148.356l0.642-0.642
		l0.961,0.961l-0.642,0.642L99.152,148.356z"/>
	<circle opacity="0.2" fill="#FFFFFF" enable-background="new    " cx="219.501" cy="151.247" r="3.628"/>
	<circle opacity="0.2" fill="#FFFFFF" enable-background="new    " cx="208.163" cy="154.195" r="3.628"/>
	<circle opacity="0.2" fill="#FFFFFF" enable-background="new    " cx="197.053" cy="151.247" r="3.628"/>
	<circle opacity="0.2" fill="#FFFFFF" enable-background="new    " cx="181.633" cy="151.247" r="3.628"/>
	<path fill="#BFD763" d="M223.129,142.177l-0.453,0.68c-1.814,1.814-4.082,3.401-6.35,4.309c-2.494,1.134-5.215,1.587-7.936,1.587
		c-2.722,0-5.443-0.454-7.938-1.587c-2.494-0.907-4.535-2.494-6.349-4.309l-0.454-0.68h-1.36l1.36,1.587
		c1.814,1.814,4.082,3.401,6.576,4.535s5.216,1.587,8.164,1.587c2.721,0,5.441-0.454,8.162-1.587
		c2.495-1.134,4.763-2.494,6.576-4.535l1.361-1.587H223.129z"/>
	<path fill="#BFD763" d="M185.261,142.177l-0.454,0.68c-1.813,1.814-4.081,3.401-6.349,4.309c-2.494,1.134-5.216,1.587-7.937,1.587
		s-5.442-0.454-7.937-1.587c-2.494-0.907-4.535-2.494-6.349-4.309l-0.454-0.68h-1.36l1.36,1.587
		c1.813,1.814,4.081,3.401,6.576,4.535c2.494,1.134,5.216,1.587,8.163,1.587c2.721,0,5.442-0.454,8.163-1.587
		c2.495-1.134,4.763-2.494,6.576-4.535l1.36-1.587H185.261z"/>
	<path fill="#5AC4BE" d="M209.523,154.195v0.906l-0.227,0.681c0,0-0.227,0.454-0.453,0.454l-0.453,0.227c0,0-0.454,0-0.454-0.227
		c-0.227,0-0.227-0.227-0.454-0.454c-0.227-0.227-0.227-0.454-0.227-0.681v-1.813l0.227-0.681c0,0,0.228-0.453,0.454-0.453
		l0.454-0.227c0,0,0.453,0,0.453,0.227c0.227,0,0.227,0.227,0.453,0.453s0.227,0.453,0.227,0.681V154.195z"/>
	<path fill="#BFD763" d="M209.523,153.515h-2.494l0.453-2.948h1.588L209.523,153.515z M207.71,149.66h1.134v1.361h-1.134V149.66z"/>
	<path fill="#EE2775" d="M198.186,152.154c-0.227,0.227-0.453,0.453-0.68,0.453s-0.453,0.227-0.681,0.227h-0.681
		c0,0-0.453,0-0.453-0.227c-0.227-0.227-0.227-0.227-0.227-0.453v-0.68l0.227-0.682l0.453-0.68c0.228-0.227,0.454-0.454,0.681-0.454
		c0.228-0.227,0.454-0.227,0.681-0.227h0.68c0.227,0,0.454,0,0.454,0.227c0.227,0.227,0.227,0.227,0.227,0.454v0.68l-0.227,0.682
		C198.64,151.475,198.412,151.928,198.186,152.154z"/>
	<path fill="#BFD763" d="M198.64,151.475l-1.814-1.815l2.495-1.587l1.133,0.907L198.64,151.475z M199.975,147.714l0.803,0.803
		l-0.961,0.961l-0.803-0.803L199.975,147.714z"/>
	<path fill="#FFFFFF" d="M220.408,150.113c0.227,0.227,0.453,0.453,0.453,0.68c0.227,0.228,0.227,0.454,0.227,0.682v0.68
		c0,0.227-0.227,0.453-0.227,0.453s-0.227,0.227-0.453,0.227h-0.68c0,0-0.454-0.227-0.682-0.227l-0.68-0.453
		c0,0-0.453-0.453-0.453-0.68c0-0.228-0.227-0.454-0.227-0.682v-0.68c0-0.227,0.227-0.454,0.227-0.454
		c0.227-0.227,0.227-0.227,0.453-0.227h0.68c0,0,0.454,0.227,0.682,0.227L220.408,150.113z"/>
	<path fill="#BFD763" d="M219.729,149.66l-1.814,1.815l-1.814-2.268l1.134-1.361L219.729,149.66z M215.937,148.406l0.803-0.803
		l0.962,0.961l-0.803,0.803L215.937,148.406z"/>
	<circle opacity="0.2" fill="#FFFFFF" enable-background="new    " cx="170.521" cy="154.195" r="3.628"/>
	<circle opacity="0.2" fill="#FFFFFF" enable-background="new    " cx="159.184" cy="151.247" r="3.628"/>
	<path fill="#FFFFFF" d="M171.655,154.195v0.906l-0.227,0.681c0,0-0.228,0.454-0.454,0.454l-0.453,0.227c0,0-0.227,0-0.453-0.227
		c-0.227,0-0.227-0.227-0.453-0.454c-0.228-0.227-0.228-0.454-0.228-0.681v-1.813l0.228-0.681c0,0,0.227-0.453,0.453-0.453
		l0.453-0.227c0,0,0.227,0,0.453,0.227c0.227,0,0.227,0.227,0.454,0.453c0.227,0.227,0.227,0.453,0.227,0.681V154.195z"/>
	<path fill="#BFD763" d="M171.655,153.515h-2.268l0.454-2.948h1.359L171.655,153.515z M170.068,149.66h0.906v1.361h-0.906V149.66z"
		/>
	<path fill="#5AC4BE" d="M160.545,151.701c-0.228,0.227-0.454,0.453-0.682,0.453c-0.227,0.227-0.453,0.227-0.68,0.227h-0.68
		c-0.227,0-0.454,0-0.454-0.227s-0.227-0.227-0.227-0.453v-0.681c0,0,0.227-0.454,0.227-0.68l0.454-0.681
		c0.227-0.227,0.453-0.453,0.68-0.453c0.453,0,0.68-0.227,0.907-0.227h0.681c0,0,0.453,0,0.453,0.227
		c0.227,0.227,0.227,0.227,0.227,0.453v0.681l-0.227,0.68L160.545,151.701L160.545,151.701z"/>
	<path fill="#BFD763" d="M161.225,151.021l-1.814-1.814l2.268-1.587l1.134,0.907L161.225,151.021z M162.374,147.193l0.803,0.803
		l-0.962,0.961l-0.803-0.803L162.374,147.193z"/>
	<path fill="#F9D422" d="M182.086,150.113c0.227,0.227,0.453,0.453,0.453,0.68c0,0.228,0.228,0.454,0.228,0.682v0.68
		c0,0.227,0,0.227-0.228,0.453c0,0-0.227,0.227-0.453,0.227h-0.68l-0.681-0.227l-0.681-0.453v-1.134
		c-0.227-0.228-0.227-0.454-0.227-0.68v-0.681c0-0.227,0-0.227,0.227-0.453c0,0,0.227-0.227,0.454-0.227h0.681l0.68,0.227
		C181.859,149.207,181.859,149.887,182.086,150.113L182.086,150.113z"/>
	<path fill="#BFD763" d="M181.633,149.433l-1.814,1.587l-1.587-2.268l0.907-1.134L181.633,149.433z M177.789,148l0.642-0.642
		l0.962,0.961l-0.643,0.642L177.789,148z"/>
</g>
</svg>
