<?xml version="1.0" encoding="utf-8"?>
<!-- Generator: Adobe Illustrator 16.0.0, SVG Export Plug-In . SVG Version: 6.00 Build 0)  -->
<!DOCTYPE svg PUBLIC "-//W3C//DTD SVG 1.1//EN" "http://www.w3.org/Graphics/SVG/1.1/DTD/svg11.dtd">
<svg version="1.1" id="Capa_1" xmlns="http://www.w3.org/2000/svg" xmlns:xlink="http://www.w3.org/1999/xlink" x="0px" y="0px"
	 width="300px" height="300px" viewBox="0 0 300 300" enable-background="new 0 0 300 300" xml:space="preserve">
<g>
	<g>
	</g>
	<g>
		<path fill="#464B4C" d="M186.912,138.578c-1.405-1.933-18.693-0.393-26.578-8.954c-7.885-8.563-6.996-21.838-6.996-21.838
			s-4.654,0.734-5.8,0.173c0,0,0.422,15.137,9.988,24.726C164.734,139.913,191.147,144.4,186.912,138.578z"/>
	</g>
	<g>
		<g>
			<g>
				<rect x="106.83" y="107.565" fill-rule="evenodd" clip-rule="evenodd" fill="#FFFFFF" width="58.713" height="115.146"/>
			</g>
			<g>
				<g>
					<path fill-rule="evenodd" clip-rule="evenodd" fill="#FFFFFF" d="M160.424,102.614h-49.331c-3.51,0-6.389,2.907-6.389,6.417
						v108.589c0,3.513,2.879,6.391,6.389,6.391h49.331c3.538,0,6.418-2.878,6.418-6.391V109.03
						C166.842,105.521,163.962,102.614,160.424,102.614z M129.922,108.756h14.772c0.437,0,0.791,0.424,0.791,0.948
						c0,0.523-0.354,0.948-0.791,0.948h-14.772c-0.438,0-0.792-0.425-0.792-0.948C129.13,109.18,129.484,108.756,129.922,108.756z
						 M125.022,108.203c0.872,0,1.58,0.708,1.58,1.58s-0.708,1.58-1.58,1.58c-0.874,0-1.58-0.708-1.58-1.58
						S124.148,108.203,125.022,108.203z M136.005,221.584c-2.837,0-5.137-2.299-5.137-5.136s2.3-5.135,5.137-5.135
						c2.836,0,5.135,2.298,5.135,5.135S138.841,221.584,136.005,221.584z M163.715,208.771H107.83v-92.977h55.885V208.771z"/>
				</g>
				<g>
					<g>
						<defs>
							<path id="SVGID_1_" d="M160.424,102.614h-49.331c-3.51,0-6.389,2.907-6.389,6.417v108.589c0,3.513,2.879,6.391,6.389,6.391
								h49.331c3.538,0,6.418-2.878,6.418-6.391V109.03C166.842,105.521,163.962,102.614,160.424,102.614z M129.922,108.756h14.772
								c0.437,0,0.791,0.424,0.791,0.948c0,0.523-0.354,0.948-0.791,0.948h-14.772c-0.438,0-0.792-0.425-0.792-0.948
								C129.13,109.18,129.484,108.756,129.922,108.756z M125.022,108.203c0.872,0,1.58,0.708,1.58,1.58s-0.708,1.58-1.58,1.58
								c-0.874,0-1.58-0.708-1.58-1.58S124.148,108.203,125.022,108.203z M136.005,221.584c-2.837,0-5.137-2.299-5.137-5.136
								s2.3-5.135,5.137-5.135c2.836,0,5.135,2.298,5.135,5.135S138.841,221.584,136.005,221.584z M163.715,208.771H107.83v-92.977
								h55.885V208.771z"/>
						</defs>
						<clipPath id="SVGID_2_">
							<use xlink:href="#SVGID_1_"  overflow="visible"/>
						</clipPath>
						<rect x="107.829" y="115.794" clip-path="url(#SVGID_2_)" fill="#161214" width="55.886" height="92.976"/>
						<path clip-path="url(#SVGID_2_)" fill="#161214" d="M163.929,163.312v34.095v4.542h0.692c-0.62,0.464-1.25,0.911-1.891,1.345
							c-2.565,1.734-5.307,3.227-8.19,4.446c-1.442,0.61-2.921,1.151-4.43,1.62v-0.378h-28.675v0.378
							c-1.51-0.469-2.988-1.01-4.43-1.62c-2.884-1.22-5.626-2.712-8.19-4.446c-0.642-0.434-1.271-0.881-1.891-1.345h0.692v-77.274
							h-0.692c0.619-0.462,1.249-0.911,1.891-1.345c2.564-1.733,5.306-3.225,8.19-4.445c5.768-2.44,12.11-3.789,18.767-3.789
							c6.658,0,13,1.349,18.769,3.789c2.884,1.22,5.625,2.712,8.19,4.445c0.641,0.434,1.271,0.882,1.891,1.345h-0.692V163.312z"/>
						<path clip-path="url(#SVGID_2_)" fill="#161214" d="M163.929,163.312v30.646v1.434h0.983
							c-0.513,0.467-1.036,0.922-1.571,1.362c-1.07,0.884-2.185,1.716-3.337,2.495c-2.307,1.558-4.77,2.899-7.362,3.995
							c-5.185,2.193-10.886,3.406-16.87,3.406c-5.983,0-11.683-1.213-16.869-3.406c-2.593-1.096-5.055-2.438-7.361-3.995
							c-1.153-0.779-2.266-1.611-3.336-2.495c-0.535-0.44-1.06-0.896-1.573-1.362h0.984v-64.161h-0.984
							c0.513-0.465,1.038-0.92,1.573-1.361c1.07-0.884,2.184-1.717,3.336-2.496c2.306-1.558,4.769-2.899,7.361-3.996
							c5.186-2.193,10.886-3.406,16.869-3.406c5.984,0,11.685,1.213,16.87,3.406c2.593,1.096,5.056,2.438,7.362,3.996
							c1.152,0.779,2.267,1.611,3.337,2.496c0.535,0.441,1.059,0.896,1.571,1.361h-0.983V163.312z"/>
						<path clip-path="url(#SVGID_2_)" fill="#161214" d="M163.929,163.312v14.972v10.89h0.313
							c-0.413,0.455-0.838,0.901-1.272,1.336c-6.961,6.961-16.576,11.265-27.198,11.265c-10.621,0-20.236-4.304-27.196-11.265
							c-0.435-0.435-0.859-0.881-1.273-1.336h0.314V137.45h-0.314c0.415-0.456,0.838-0.901,1.273-1.335
							c6.96-6.96,16.575-11.266,27.196-11.266c10.622,0,20.237,4.305,27.198,11.266c0.435,0.435,0.859,0.88,1.272,1.335h-0.313
							V163.312z"/>
						<path clip-path="url(#SVGID_2_)" fill="#161214" d="M163.929,163.312v12.876v2.892h0.932
							c-0.511,0.938-1.063,1.848-1.658,2.729c-1.188,1.759-2.543,3.398-4.04,4.896c-5.985,5.985-14.255,9.689-23.391,9.689
							c-9.134,0-17.404-3.704-23.39-9.689c-1.496-1.497-2.851-3.137-4.039-4.896c-0.595-0.881-1.148-1.791-1.657-2.729h0.931
							v-31.535h-0.931c0.509-0.938,1.062-1.848,1.657-2.729c1.188-1.759,2.543-3.398,4.039-4.895
							c5.986-5.986,14.256-9.689,23.39-9.689c9.135,0,17.405,3.703,23.391,9.689c1.497,1.497,2.852,3.136,4.04,4.895
							c0.595,0.881,1.147,1.791,1.658,2.729h-0.932V163.312z"/>
						<rect x="130.869" y="211.313" clip-path="url(#SVGID_2_)" fill="#161214" width="10.271" height="10.271"/>
						<path clip-path="url(#SVGID_2_)" fill="#161214" d="M141.353,211.1v0.041h0.56c-0.402,0.051-0.805,0.097-1.21,0.139
							c-1.622,0.165-3.266,0.248-4.931,0.248c-1.664,0-3.308-0.083-4.929-0.248c-0.406-0.042-0.81-0.088-1.211-0.139h1.024V211.1
							H141.353z"/>
						<path clip-path="url(#SVGID_2_)" fill="#161214" d="M141.353,211.1h-5.581H141.353z"/>
						<path clip-path="url(#SVGID_2_)" fill="#161214" d="M141.353,211.1h-5.581H141.353z"/>
						<path clip-path="url(#SVGID_2_)" fill="#161214" d="M141.353,211.1h-5.581H141.353z"/>
						<rect x="123.442" y="108.203" clip-path="url(#SVGID_2_)" fill="#161214" width="3.16" height="3.16"/>
						<path clip-path="url(#SVGID_2_)" fill="#161214" d="M126.815,111.576h-3.586H126.815z"/>
						<path clip-path="url(#SVGID_2_)" fill="#161214" d="M126.815,111.576h-3.586H126.815z"/>
						<path clip-path="url(#SVGID_2_)" fill="#161214" d="M126.815,111.576h-3.586H126.815z"/>
						<path clip-path="url(#SVGID_2_)" fill="#161214" d="M126.815,111.576h-3.586H126.815z"/>
						<rect x="129.13" y="108.755" clip-path="url(#SVGID_2_)" fill="#161214" width="16.355" height="1.896"/>
						<path clip-path="url(#SVGID_2_)" fill="#161214" d="M145.698,110.865h-9.927H145.698z"/>
						<path clip-path="url(#SVGID_2_)" fill="#161214" d="M145.698,110.865h-9.927H145.698z"/>
						<path clip-path="url(#SVGID_2_)" fill="#161214" d="M145.698,110.865h-9.927H145.698z"/>
						<path clip-path="url(#SVGID_2_)" fill="#161214" d="M145.698,110.865h-9.927H145.698z"/>
						<rect x="104.704" y="102.614" clip-path="url(#SVGID_2_)" fill="#161214" width="62.138" height="121.396"/>
						<path clip-path="url(#SVGID_2_)" fill="#161214" d="M167.053,163.312v34.095v1.597h1.138c-0.57,0.518-1.154,1.023-1.747,1.516
							c-1.192,0.982-2.431,1.908-3.713,2.774c-2.565,1.734-5.307,3.227-8.19,4.446c-5.768,2.44-12.111,3.788-18.769,3.788
							c-6.657,0-12.999-1.348-18.767-3.788c-2.884-1.22-5.626-2.712-8.19-4.446c-1.283-0.866-2.521-1.792-3.712-2.774
							c-0.595-0.492-1.178-0.998-1.75-1.516h1.139v-71.382h-1.139c0.572-0.519,1.154-1.024,1.75-1.516
							c1.191-0.982,2.43-1.909,3.712-2.775c2.564-1.733,5.306-3.225,8.19-4.445c5.768-2.44,12.11-3.789,18.767-3.789
							c6.658,0,13,1.349,18.769,3.789c2.884,1.22,5.625,2.712,8.19,4.445c1.282,0.867,2.521,1.793,3.713,2.775
							c0.593,0.492,1.177,0.998,1.747,1.516h-1.138V163.312z"/>
						<path clip-path="url(#SVGID_2_)" fill="#161214" d="M167.053,163.312v16.87v12.271h0.8c-0.466,0.512-0.945,1.016-1.436,1.506
							c-7.843,7.842-18.677,12.692-30.646,12.692c-11.966,0-22.803-4.851-30.644-12.692c-0.49-0.49-0.969-0.994-1.436-1.506h0.799
							v-58.28h-0.799c0.466-0.513,0.945-1.015,1.436-1.505c7.841-7.843,18.678-12.694,30.644-12.694
							c11.968,0,22.803,4.851,30.646,12.694c0.49,0.49,0.97,0.992,1.436,1.505h-0.8V163.312z"/>
						<path clip-path="url(#SVGID_2_)" fill="#161214" d="M167.053,163.312v14.972v6.533h0.612
							c-1.381,2.047-2.956,3.952-4.695,5.692c-6.961,6.961-16.576,11.265-27.198,11.265c-10.621,0-20.236-4.304-27.196-11.265
							c-1.74-1.74-3.314-3.646-4.696-5.692h0.612v-43.009h-0.612c1.382-2.046,2.956-3.952,4.696-5.692
							c6.96-6.96,16.575-11.266,27.196-11.266c10.622,0,20.237,4.305,27.198,11.266c1.739,1.74,3.314,3.646,4.695,5.692h-0.612
							V163.312z"/>
						<path clip-path="url(#SVGID_2_)" fill="#161214" d="M167.053,163.312v6.667h1.127c-0.439,2.153-1.089,4.23-1.928,6.209
							c-1.675,3.958-4.096,7.522-7.09,10.516c-5.985,5.985-14.255,9.689-23.391,9.689c-9.134,0-17.404-3.704-23.39-9.689
							c-2.993-2.993-5.416-6.558-7.089-10.516c-0.837-1.979-1.487-4.056-1.927-6.209h1.126v-13.333h-1.126
							c0.44-2.154,1.09-4.23,1.927-6.21c1.674-3.958,4.096-7.521,7.089-10.515c5.986-5.986,14.256-9.689,23.39-9.689
							c9.135,0,17.405,3.703,23.391,9.689c2.994,2.993,5.415,6.557,7.09,10.515c0.839,1.979,1.488,4.056,1.928,6.21h-1.127V163.312z
							"/>
					</g>
					<path fill="#1A171B" d="M160.424,224.063h-49.331c-3.553,0-6.442-2.89-6.442-6.443V109.03c0-3.567,2.89-6.47,6.442-6.47h49.331
						c3.568,0,6.471,2.902,6.471,6.47v108.589C166.895,221.173,163.992,224.063,160.424,224.063z M111.093,102.667
						c-3.494,0-6.336,2.855-6.336,6.364v108.589c0,3.494,2.842,6.337,6.336,6.337h49.331c3.508,0,6.363-2.843,6.363-6.337V109.03
						c0-3.509-2.855-6.364-6.363-6.364H111.093z M136.005,221.639c-2.861,0-5.19-2.329-5.19-5.19s2.329-5.188,5.19-5.188
						c2.86,0,5.188,2.327,5.188,5.188S138.866,221.639,136.005,221.639z M136.005,211.365c-2.803,0-5.083,2.281-5.083,5.083
						c0,2.803,2.28,5.084,5.083,5.084c2.802,0,5.081-2.281,5.081-5.084C141.086,213.646,138.808,211.365,136.005,211.365z
						 M163.77,208.822h-55.994V115.74h55.994V208.822z M107.883,208.716h55.779v-92.869h-55.779V208.716z M125.022,111.417
						c-0.901,0-1.634-0.732-1.634-1.633c0-0.9,0.733-1.633,1.634-1.633c0.9,0,1.633,0.733,1.633,1.633
						C126.655,110.684,125.922,111.417,125.022,111.417z M125.022,108.256c-0.842,0-1.528,0.685-1.528,1.527
						s0.686,1.527,1.528,1.527c0.842,0,1.527-0.685,1.527-1.527S125.864,108.256,125.022,108.256z M144.694,110.706h-14.772
						c-0.466,0-0.845-0.45-0.845-1.002c0-0.552,0.379-1.001,0.845-1.001h14.772c0.465,0,0.844,0.449,0.844,1.001
						C145.538,110.256,145.159,110.706,144.694,110.706z M129.922,108.81c-0.407,0-0.738,0.401-0.738,0.895
						c0,0.494,0.332,0.896,0.738,0.896h14.772c0.406,0,0.737-0.402,0.737-0.896c0-0.493-0.331-0.895-0.737-0.895H129.922z"/>
				</g>
			</g>
		</g>
		<g>
			<g>
				<rect x="109.482" y="122.383" fill="#C9CEDF" width="52.441" height="10.51"/>
			</g>
			<g>
				<g>
					<rect x="111.712" y="124.612" fill="#8C91A5" width="6.012" height="1.392"/>
				</g>
				<g>
					<rect x="111.712" y="126.905" fill="#8C91A5" width="6.012" height="1.392"/>
				</g>
				<g>
					<rect x="111.712" y="129.198" fill="#8C91A5" width="6.012" height="1.392"/>
				</g>
			</g>
			<g>
				<path fill="#8C91A5" d="M152.137,127.091v1.217l1.171,0.125c0.073,0.234,0.173,0.462,0.298,0.686l-0.75,0.914l0.851,0.851
					l0.913-0.742c0.213,0.121,0.441,0.216,0.688,0.29l0.124,1.17h1.218l0.124-1.17c0.234-0.073,0.464-0.169,0.688-0.29l0.912,0.742
					l0.851-0.851l-0.748-0.914c0.124-0.224,0.223-0.452,0.296-0.686l1.17-0.125v-1.217l-1.17-0.125
					c-0.073-0.245-0.172-0.473-0.296-0.686l0.748-0.914l-0.851-0.85l-0.912,0.749c-0.224-0.125-0.453-0.224-0.688-0.296
					l-0.124-1.171h-1.218l-0.124,1.171c-0.246,0.073-0.475,0.172-0.688,0.296l-0.913-0.749l-0.851,0.85l0.75,0.914
					c-0.125,0.213-0.225,0.441-0.298,0.686L152.137,127.091z M154.908,127.7c0-0.313,0.109-0.577,0.328-0.795
					c0.218-0.22,0.485-0.328,0.803-0.328c0.318,0,0.586,0.108,0.805,0.328c0.218,0.218,0.327,0.482,0.327,0.795
					s-0.109,0.581-0.327,0.804c-0.219,0.224-0.486,0.333-0.805,0.328c-0.317-0.005-0.585-0.114-0.803-0.328
					C155.018,128.29,154.908,128.022,154.908,127.7z"/>
			</g>
			<g>
				<path fill="#686E85" d="M132.764,130.245h-0.833c-0.094,0-0.169-0.022-0.228-0.066c-0.059-0.044-0.102-0.101-0.131-0.17
					l-0.351-0.991h-2.066l-0.351,0.991c-0.024,0.06-0.066,0.114-0.125,0.163c-0.06,0.048-0.135,0.073-0.226,0.073h-0.84l2.027-5.189
					h1.098L132.764,130.245z M130.962,128.275l-0.563-1.588c-0.033-0.083-0.068-0.181-0.104-0.293
					c-0.038-0.112-0.073-0.234-0.106-0.365c-0.034,0.134-0.068,0.257-0.105,0.37c-0.037,0.113-0.072,0.212-0.105,0.295l-0.559,1.581
					H130.962z"/>
				<path fill="#686E85" d="M134.034,127.041c0.074-0.081,0.152-0.155,0.236-0.224c0.083-0.067,0.173-0.126,0.268-0.175
					c0.096-0.049,0.198-0.087,0.308-0.115c0.108-0.027,0.228-0.041,0.357-0.041c0.198,0,0.38,0.042,0.545,0.127
					c0.166,0.084,0.308,0.207,0.427,0.368c0.12,0.161,0.212,0.358,0.28,0.592c0.066,0.234,0.1,0.5,0.1,0.801
					c0,0.277-0.039,0.532-0.113,0.768c-0.075,0.235-0.182,0.438-0.32,0.609c-0.138,0.172-0.304,0.306-0.499,0.403
					c-0.194,0.097-0.411,0.145-0.649,0.145c-0.2,0-0.37-0.029-0.509-0.089c-0.14-0.059-0.265-0.14-0.374-0.243v1.47h-0.987v-4.878
					h0.608c0.124,0,0.207,0.057,0.247,0.171L134.034,127.041z M134.091,129.272c0.093,0.108,0.193,0.183,0.302,0.226
					c0.109,0.043,0.225,0.064,0.349,0.064c0.119,0,0.228-0.023,0.326-0.068c0.097-0.045,0.182-0.116,0.251-0.212
					c0.07-0.097,0.125-0.22,0.163-0.371c0.038-0.15,0.057-0.329,0.057-0.537c0-0.205-0.016-0.379-0.048-0.522
					c-0.033-0.143-0.078-0.259-0.137-0.347c-0.058-0.088-0.129-0.152-0.212-0.191c-0.083-0.04-0.177-0.059-0.279-0.059
					c-0.174,0-0.321,0.034-0.438,0.102c-0.118,0.068-0.23,0.167-0.334,0.298V129.272z"/>
				<path fill="#686E85" d="M138.118,127.041c0.074-0.081,0.152-0.155,0.236-0.224c0.083-0.067,0.172-0.126,0.268-0.175
					c0.096-0.049,0.198-0.087,0.307-0.115c0.11-0.027,0.229-0.041,0.358-0.041c0.197,0,0.38,0.042,0.545,0.127
					c0.166,0.084,0.308,0.207,0.427,0.368c0.12,0.161,0.212,0.358,0.28,0.592c0.066,0.234,0.1,0.5,0.1,0.801
					c0,0.277-0.038,0.532-0.113,0.768c-0.075,0.235-0.182,0.438-0.319,0.609c-0.138,0.172-0.305,0.306-0.5,0.403
					c-0.194,0.097-0.411,0.145-0.649,0.145c-0.2,0-0.371-0.029-0.509-0.089c-0.14-0.059-0.265-0.14-0.375-0.243v1.47h-0.987v-4.878
					h0.608c0.125,0,0.206,0.057,0.247,0.171L138.118,127.041z M138.175,129.272c0.094,0.108,0.194,0.183,0.302,0.226
					c0.109,0.043,0.226,0.064,0.349,0.064c0.119,0,0.228-0.023,0.326-0.068c0.097-0.045,0.182-0.116,0.251-0.212
					c0.07-0.097,0.125-0.22,0.163-0.371c0.037-0.15,0.057-0.329,0.057-0.537c0-0.205-0.016-0.379-0.049-0.522
					c-0.032-0.143-0.077-0.259-0.135-0.347c-0.059-0.088-0.13-0.152-0.213-0.191c-0.083-0.04-0.177-0.059-0.279-0.059
					c-0.174,0-0.32,0.034-0.438,0.102c-0.119,0.068-0.23,0.167-0.335,0.298V129.272z"/>
			</g>
		</g>
		<g>
			<g>
				<path fill="#C9CEDF" d="M161.799,149.445h-52.25v-14.353h52.25V149.445z M110.187,148.807h50.973V135.73h-50.973V148.807z"/>
			</g>
			<g>
				<circle fill="#FFFFFF" cx="136.2" cy="149.255" r="8.118"/>
				<path fill="#C9CEDF" d="M136.2,157.692c-4.652,0-8.437-3.784-8.437-8.438c0-4.652,3.784-8.438,8.437-8.438
					s8.437,3.785,8.437,8.438C144.637,153.908,140.853,157.692,136.2,157.692z M136.2,141.456c-4.3,0-7.798,3.499-7.798,7.799
					c0,4.301,3.498,7.799,7.798,7.799c4.301,0,7.799-3.498,7.799-7.799C143.999,144.955,140.501,141.456,136.2,141.456z"/>
			</g>
		</g>
		<g>
			<g>
				<path fill="#3B3F4C" d="M156.27,119.759v0.252h-1.093v-0.252h0.399v-1.151c0-0.045,0.002-0.092,0.005-0.14l-0.284,0.238
					c-0.016,0.013-0.031,0.021-0.049,0.023c-0.016,0.004-0.031,0.004-0.045,0.001c-0.014-0.002-0.026-0.007-0.037-0.014
					c-0.012-0.007-0.02-0.015-0.024-0.022l-0.106-0.146l0.602-0.512h0.276v1.723H156.27z"/>
				<path fill="#3B3F4C" d="M157.152,118.755l-0.068,0.085c0.038-0.02,0.079-0.034,0.123-0.045c0.045-0.01,0.092-0.016,0.143-0.016
					c0.074,0,0.147,0.013,0.218,0.037s0.133,0.062,0.187,0.111c0.053,0.049,0.098,0.111,0.13,0.185
					c0.032,0.073,0.049,0.16,0.049,0.258c0,0.092-0.017,0.178-0.051,0.259c-0.032,0.081-0.081,0.15-0.142,0.21
					c-0.062,0.06-0.135,0.107-0.221,0.142s-0.182,0.052-0.284,0.052c-0.106,0-0.2-0.017-0.284-0.05s-0.156-0.081-0.215-0.141
					c-0.059-0.061-0.104-0.133-0.135-0.219c-0.031-0.085-0.047-0.18-0.047-0.283c0-0.093,0.018-0.188,0.056-0.287
					c0.038-0.098,0.097-0.199,0.176-0.304l0.471-0.632c0.017-0.022,0.04-0.041,0.072-0.056c0.03-0.015,0.067-0.023,0.108-0.023
					h0.301L157.152,118.755z M157.229,119.758c0.054,0,0.104-0.009,0.148-0.027c0.045-0.019,0.083-0.043,0.115-0.077
					c0.032-0.033,0.058-0.071,0.076-0.115c0.018-0.044,0.027-0.092,0.027-0.144c0-0.056-0.009-0.107-0.026-0.152
					s-0.042-0.083-0.073-0.114c-0.032-0.032-0.07-0.055-0.115-0.072c-0.045-0.016-0.094-0.024-0.147-0.024s-0.103,0.009-0.146,0.028
					c-0.043,0.018-0.081,0.043-0.111,0.075c-0.031,0.032-0.056,0.071-0.073,0.115c-0.017,0.043-0.025,0.092-0.025,0.143
					c0,0.054,0.007,0.104,0.022,0.15c0.016,0.044,0.037,0.083,0.066,0.115s0.066,0.056,0.109,0.075
					C157.12,119.749,157.171,119.758,157.229,119.758z"/>
				<path fill="#3B3F4C" d="M158.167,118.853c0-0.028,0.006-0.055,0.017-0.081c0.01-0.025,0.025-0.047,0.043-0.065
					c0.018-0.018,0.04-0.033,0.064-0.043c0.027-0.011,0.053-0.016,0.083-0.016c0.028,0,0.056,0.005,0.081,0.016
					c0.024,0.011,0.047,0.025,0.064,0.043c0.02,0.019,0.034,0.04,0.045,0.065s0.016,0.053,0.016,0.081
					c0,0.029-0.005,0.057-0.016,0.082s-0.025,0.047-0.045,0.064c-0.018,0.019-0.04,0.033-0.064,0.043
					c-0.025,0.01-0.053,0.016-0.081,0.016c-0.03,0-0.056-0.006-0.083-0.016c-0.024-0.01-0.047-0.024-0.064-0.043
					c-0.018-0.018-0.033-0.04-0.043-0.064C158.173,118.91,158.167,118.882,158.167,118.853z M158.167,119.826
					c0-0.028,0.006-0.055,0.017-0.081c0.01-0.025,0.025-0.047,0.043-0.065c0.018-0.018,0.04-0.033,0.064-0.043
					c0.027-0.011,0.053-0.017,0.083-0.017c0.028,0,0.056,0.006,0.081,0.017c0.024,0.011,0.047,0.026,0.064,0.043
					c0.02,0.019,0.034,0.04,0.045,0.065c0.011,0.026,0.016,0.053,0.016,0.081c0,0.029-0.005,0.057-0.016,0.082
					s-0.025,0.046-0.045,0.064c-0.018,0.018-0.04,0.033-0.064,0.043c-0.025,0.011-0.053,0.016-0.081,0.016
					c-0.03,0-0.056-0.005-0.083-0.016c-0.024-0.01-0.047-0.025-0.064-0.043s-0.033-0.04-0.043-0.064
					C158.173,119.883,158.167,119.855,158.167,119.826z"/>
				<path fill="#3B3F4C" d="M160.139,119.759v0.252h-1.092v-0.252h0.4v-1.151c0-0.045,0-0.092,0.003-0.14l-0.284,0.238
					c-0.018,0.013-0.031,0.021-0.049,0.023c-0.015,0.004-0.029,0.004-0.045,0.001c-0.013-0.002-0.025-0.007-0.037-0.014
					c-0.012-0.007-0.02-0.015-0.024-0.022l-0.106-0.146l0.602-0.512h0.277v1.723H160.139z"/>
				<path fill="#3B3F4C" d="M161.723,119.759v0.252h-1.094v-0.252h0.4v-1.151c0-0.045,0.002-0.092,0.004-0.14l-0.284,0.238
					c-0.015,0.013-0.032,0.021-0.047,0.023c-0.017,0.004-0.032,0.004-0.047,0.001c-0.013-0.002-0.026-0.007-0.037-0.014
					c-0.009-0.007-0.019-0.015-0.024-0.022l-0.106-0.146l0.603-0.512h0.277v1.723H161.723z"/>
			</g>
			<g>
				<g>
					<path fill-rule="evenodd" clip-rule="evenodd" fill="#3B3F4C" d="M152.889,118.95c0.004,0.004,0.008,0.007,0.014,0.009
						c0.005,0.002,0.01,0.003,0.016,0.003s0.011-0.001,0.016-0.003c0.006-0.002,0.01-0.005,0.013-0.009
						c0.004-0.004,0.007-0.01,0.009-0.018c0.002-0.007,0.002-0.015,0.002-0.025c0-0.012,0-0.021-0.002-0.028
						c-0.002-0.007-0.005-0.013-0.009-0.017c-0.003-0.005-0.007-0.009-0.013-0.011c-0.005-0.001-0.01-0.002-0.016-0.002
						s-0.011,0.001-0.016,0.002c-0.006,0.002-0.01,0.006-0.014,0.011c-0.002,0.004-0.006,0.01-0.008,0.017
						c-0.002,0.007-0.002,0.016-0.002,0.028c0,0.01,0,0.019,0.002,0.025C152.883,118.94,152.887,118.946,152.889,118.95z"/>
				</g>
				<g>
					<path fill-rule="evenodd" clip-rule="evenodd" fill="#3B3F4C" d="M152.693,118.893c-0.008-0.011-0.016-0.02-0.025-0.024
						c-0.01-0.005-0.02-0.007-0.029-0.007s-0.02,0.002-0.029,0.007c-0.01,0.004-0.017,0.013-0.023,0.024
						c-0.008,0.011-0.014,0.026-0.018,0.046s-0.006,0.044-0.006,0.073c0,0.03,0.002,0.054,0.006,0.074
						c0.004,0.019,0.01,0.034,0.018,0.045c0.007,0.012,0.014,0.02,0.023,0.024s0.02,0.007,0.029,0.007s0.02-0.003,0.029-0.007
						s0.018-0.013,0.025-0.024c0.007-0.011,0.012-0.026,0.017-0.045c0.005-0.02,0.007-0.044,0.007-0.074
						c0-0.029-0.002-0.053-0.007-0.073S152.7,118.904,152.693,118.893z"/>
				</g>
				<g>
					<path fill-rule="evenodd" clip-rule="evenodd" fill="#3B3F4C" d="M152.366,118.893c-0.007-0.011-0.016-0.02-0.024-0.024
						c-0.01-0.005-0.02-0.007-0.029-0.007s-0.02,0.002-0.028,0.007c-0.009,0.004-0.019,0.013-0.024,0.024
						c-0.008,0.011-0.014,0.026-0.018,0.046s-0.007,0.044-0.007,0.073c0,0.03,0.003,0.054,0.007,0.074
						c0.004,0.019,0.01,0.034,0.018,0.045c0.006,0.012,0.016,0.02,0.024,0.024s0.019,0.007,0.028,0.007s0.02-0.003,0.029-0.007
						c0.009-0.004,0.018-0.013,0.024-0.024c0.008-0.011,0.013-0.026,0.019-0.045c0.004-0.02,0.006-0.044,0.006-0.074
						c0-0.029-0.002-0.053-0.006-0.073C152.379,118.919,152.374,118.904,152.366,118.893z"/>
				</g>
				<g>
					<path fill-rule="evenodd" clip-rule="evenodd" fill="#3B3F4C" d="M153.177,119.074c-0.004-0.004-0.009-0.008-0.013-0.01
						c-0.006-0.001-0.012-0.002-0.017-0.002s-0.011,0.001-0.016,0.002c-0.005,0.002-0.009,0.005-0.013,0.01
						s-0.006,0.011-0.009,0.018c-0.001,0.007-0.002,0.017-0.002,0.027s0.001,0.02,0.002,0.026c0.003,0.007,0.005,0.013,0.009,0.017
						c0.004,0.004,0.008,0.008,0.013,0.01c0.005,0.001,0.011,0.002,0.016,0.002s0.011-0.001,0.017-0.002
						c0.004-0.002,0.009-0.005,0.013-0.01c0.003-0.004,0.005-0.01,0.009-0.017c0.002-0.007,0.002-0.016,0.002-0.026
						s0-0.02-0.002-0.027C153.182,119.085,153.18,119.079,153.177,119.074z"/>
				</g>
				<g>
					<path fill-rule="evenodd" clip-rule="evenodd" fill="#3B3F4C" d="M153.035,117.75v-0.273h-0.959v0.273h-0.41v2.531h1.778
						v-2.531H153.035z M152.115,119.215h-0.225v-0.052h0.082v-0.237c0-0.009,0.001-0.019,0.001-0.029l-0.058,0.049
						c-0.006,0.003-0.008,0.004-0.011,0.005c-0.004,0.001-0.007,0.001-0.009,0c-0.004-0.001-0.006-0.001-0.008-0.003
						c-0.003-0.002-0.004-0.003-0.006-0.005l-0.021-0.03l0.125-0.105h0.056v0.355h0.073V119.215z M152.451,119.104
						c-0.008,0.026-0.019,0.048-0.031,0.064c-0.014,0.018-0.029,0.029-0.048,0.039c-0.019,0.008-0.038,0.012-0.06,0.012
						s-0.041-0.004-0.059-0.012c-0.019-0.009-0.033-0.021-0.047-0.039c-0.014-0.017-0.023-0.039-0.031-0.064
						c-0.008-0.026-0.012-0.057-0.012-0.093c0-0.035,0.004-0.066,0.012-0.092c0.008-0.026,0.018-0.047,0.031-0.065
						c0.014-0.016,0.028-0.029,0.047-0.037c0.018-0.009,0.037-0.013,0.059-0.013s0.041,0.003,0.06,0.013
						c0.019,0.008,0.034,0.021,0.048,0.037c0.013,0.018,0.023,0.039,0.031,0.065c0.007,0.026,0.012,0.057,0.012,0.092
						C152.463,119.047,152.458,119.078,152.451,119.104z M152.777,119.104c-0.009,0.026-0.02,0.048-0.031,0.064
						c-0.014,0.018-0.029,0.029-0.049,0.039c-0.018,0.008-0.037,0.012-0.059,0.012c-0.021,0-0.04-0.004-0.059-0.012
						c-0.018-0.009-0.034-0.021-0.047-0.039c-0.014-0.017-0.023-0.039-0.032-0.064c-0.007-0.026-0.011-0.057-0.011-0.093
						c0-0.035,0.004-0.066,0.011-0.092c0.009-0.026,0.019-0.047,0.032-0.065c0.013-0.016,0.029-0.029,0.047-0.037
						c0.019-0.009,0.038-0.013,0.059-0.013c0.021,0,0.041,0.003,0.059,0.013c0.02,0.008,0.035,0.021,0.049,0.037
						c0.012,0.018,0.022,0.039,0.031,0.065c0.008,0.026,0.012,0.057,0.012,0.092C152.789,119.047,152.785,119.078,152.777,119.104z
						 M152.824,118.907c0-0.016,0.002-0.031,0.008-0.043c0.004-0.013,0.01-0.024,0.018-0.032c0.01-0.009,0.02-0.015,0.03-0.021
						c0.011-0.004,0.023-0.007,0.038-0.007c0.014,0,0.025,0.002,0.037,0.007c0.012,0.005,0.021,0.012,0.029,0.021
						c0.009,0.008,0.016,0.02,0.02,0.032c0.006,0.013,0.008,0.027,0.008,0.043c0,0.015-0.002,0.029-0.008,0.042
						c-0.005,0.012-0.012,0.022-0.021,0.031c-0.008,0.008-0.018,0.016-0.029,0.02c-0.012,0.005-0.023,0.007-0.035,0.007
						c-0.015,0-0.027-0.002-0.038-0.007c-0.011-0.004-0.021-0.012-0.03-0.02c-0.008-0.009-0.014-0.019-0.018-0.031
						C152.826,118.936,152.824,118.922,152.824,118.907z M152.91,119.211c-0.004,0.002-0.008,0.003-0.014,0.003h-0.051l0.301-0.396
						c0.003-0.002,0.006-0.004,0.009-0.007s0.009-0.004,0.014-0.004h0.052l-0.303,0.396
						C152.916,119.208,152.912,119.209,152.91,119.211z M153.234,119.161c-0.006,0.013-0.012,0.023-0.021,0.032
						c-0.008,0.009-0.019,0.016-0.029,0.021c-0.012,0.005-0.023,0.007-0.036,0.007c-0.014,0-0.026-0.002-0.037-0.007
						c-0.013-0.005-0.021-0.012-0.03-0.021c-0.008-0.008-0.015-0.019-0.02-0.032c-0.004-0.012-0.008-0.026-0.008-0.042
						c0-0.016,0.004-0.03,0.008-0.042c0.005-0.013,0.012-0.024,0.02-0.032c0.009-0.009,0.018-0.016,0.03-0.021
						c0.011-0.005,0.023-0.007,0.037-0.007c0.013,0,0.025,0.002,0.038,0.007c0.011,0.005,0.021,0.011,0.029,0.021
						c0.008,0.008,0.014,0.019,0.02,0.032c0.005,0.013,0.007,0.027,0.007,0.042C153.241,119.134,153.238,119.148,153.234,119.161z"
						/>
				</g>
				<g>
					<path fill-rule="evenodd" clip-rule="evenodd" fill="#3B3F4C" d="M143.262,118.182c0.582,0.71,1.151,1.406,1.739,2.124
						c0.6-0.737,1.162-1.429,1.723-2.119C145.862,117.373,144.254,117.364,143.262,118.182z"/>
				</g>
				<g>
					<path fill-rule="evenodd" clip-rule="evenodd" fill="#3B3F4C" d="M149.835,120.306c0-0.908,0-1.783,0-2.558
						c-0.835,0.835-1.708,1.705-2.563,2.558C148.091,120.306,148.957,120.306,149.835,120.306z"/>
				</g>
			</g>
		</g>
		<g>
			<path fill="#3B3F4C" d="M111.413,118.401c0,0.123-0.021,0.237-0.062,0.341c-0.041,0.105-0.097,0.196-0.171,0.272
				c-0.075,0.077-0.164,0.137-0.269,0.18c-0.104,0.043-0.221,0.064-0.348,0.064c-0.126,0-0.241-0.021-0.346-0.064
				c-0.104-0.043-0.193-0.103-0.268-0.18c-0.075-0.076-0.133-0.167-0.173-0.272c-0.041-0.104-0.062-0.218-0.062-0.341
				c0-0.123,0.021-0.237,0.062-0.342c0.04-0.104,0.098-0.195,0.173-0.271c0.075-0.077,0.164-0.137,0.268-0.179
				c0.105-0.043,0.22-0.064,0.346-0.064c0.085,0,0.166,0.01,0.241,0.029c0.075,0.02,0.144,0.048,0.207,0.084
				c0.063,0.036,0.119,0.079,0.168,0.131c0.051,0.051,0.093,0.108,0.127,0.172s0.061,0.133,0.08,0.207
				C111.403,118.241,111.413,118.319,111.413,118.401z M111.094,118.401c0-0.092-0.012-0.174-0.038-0.248
				c-0.024-0.073-0.06-0.135-0.104-0.186c-0.047-0.051-0.102-0.09-0.167-0.118c-0.065-0.026-0.139-0.04-0.221-0.04
				c-0.081,0-0.155,0.014-0.221,0.04c-0.064,0.028-0.121,0.066-0.167,0.118c-0.046,0.051-0.081,0.113-0.106,0.186
				c-0.024,0.073-0.037,0.156-0.037,0.248c0,0.092,0.012,0.174,0.037,0.248c0.025,0.073,0.061,0.135,0.106,0.186
				c0.046,0.051,0.102,0.09,0.167,0.117c0.065,0.027,0.14,0.041,0.221,0.041c0.083,0,0.156-0.014,0.221-0.041
				s0.121-0.066,0.167-0.117c0.045-0.05,0.08-0.112,0.104-0.186C111.082,118.575,111.094,118.493,111.094,118.401z"/>
			<path fill="#3B3F4C" d="M112.232,117.563c0.112,0,0.209,0.013,0.291,0.039c0.082,0.026,0.149,0.063,0.204,0.11
				c0.052,0.047,0.092,0.104,0.118,0.169c0.026,0.066,0.039,0.138,0.039,0.216c0,0.081-0.014,0.155-0.041,0.223
				c-0.027,0.068-0.067,0.126-0.122,0.174c-0.054,0.049-0.123,0.087-0.203,0.114c-0.082,0.027-0.177,0.041-0.286,0.041H112v0.591
				h-0.312v-1.677H112.232z M112.232,118.405c0.057,0,0.107-0.007,0.149-0.021c0.042-0.014,0.078-0.035,0.106-0.061
				c0.028-0.027,0.05-0.06,0.063-0.097c0.014-0.039,0.021-0.082,0.021-0.128c0-0.045-0.006-0.085-0.021-0.122
				c-0.014-0.037-0.035-0.067-0.063-0.093c-0.028-0.025-0.063-0.045-0.106-0.058c-0.042-0.014-0.092-0.021-0.15-0.021H112v0.602
				H112.232z"/>
			<path fill="#3B3F4C" d="M113.437,117.811v0.465h0.586v0.241h-0.586v0.474h0.745v0.25h-1.058v-1.677h1.058v0.248H113.437z"/>
			<path fill="#3B3F4C" d="M115.766,119.24h-0.282c-0.053,0-0.091-0.021-0.116-0.063l-0.353-0.537
				c-0.013-0.02-0.028-0.034-0.043-0.043c-0.017-0.008-0.039-0.013-0.07-0.013h-0.134v0.656h-0.312v-1.677h0.511
				c0.114,0,0.211,0.012,0.292,0.035c0.082,0.024,0.149,0.057,0.201,0.1c0.053,0.042,0.09,0.093,0.115,0.152
				c0.024,0.059,0.038,0.124,0.038,0.195c0,0.057-0.009,0.11-0.025,0.16c-0.016,0.05-0.04,0.096-0.072,0.137
				c-0.031,0.041-0.07,0.077-0.116,0.107c-0.046,0.032-0.098,0.056-0.157,0.074c0.021,0.012,0.038,0.025,0.056,0.041
				c0.017,0.016,0.032,0.035,0.046,0.056L115.766,119.24z M114.963,118.36c0.059,0,0.11-0.007,0.154-0.022
				c0.044-0.014,0.08-0.034,0.108-0.061c0.028-0.026,0.049-0.057,0.063-0.092c0.013-0.036,0.021-0.075,0.021-0.117
				c0-0.085-0.028-0.151-0.084-0.197c-0.056-0.045-0.142-0.068-0.257-0.068h-0.2v0.557H114.963z"/>
			<path fill="#3B3F4C" d="M117.385,119.24h-0.24c-0.027,0-0.05-0.007-0.066-0.021c-0.017-0.014-0.03-0.031-0.039-0.051
				l-0.125-0.342h-0.695l-0.125,0.342c-0.007,0.018-0.018,0.034-0.037,0.049c-0.017,0.014-0.04,0.022-0.065,0.022h-0.244
				l0.661-1.677h0.318L117.385,119.24z M116.834,118.606l-0.204-0.558c-0.01-0.024-0.021-0.054-0.032-0.088
				c-0.01-0.034-0.021-0.07-0.032-0.11c-0.01,0.04-0.021,0.077-0.032,0.111c-0.011,0.035-0.021,0.065-0.032,0.09l-0.202,0.555
				H116.834z"/>
			<path fill="#3B3F4C" d="M119.048,118.401c0,0.123-0.021,0.236-0.061,0.338c-0.042,0.103-0.099,0.191-0.173,0.266
				c-0.075,0.074-0.164,0.132-0.268,0.172c-0.105,0.042-0.221,0.062-0.348,0.062h-0.639v-1.677h0.639
				c0.127,0,0.243,0.021,0.348,0.062c0.104,0.042,0.193,0.1,0.268,0.173c0.074,0.073,0.131,0.162,0.173,0.265
				C119.028,118.165,119.048,118.278,119.048,118.401z M118.729,118.401c0-0.092-0.012-0.174-0.037-0.248s-0.06-0.135-0.106-0.186
				s-0.102-0.089-0.167-0.117c-0.064-0.027-0.138-0.041-0.22-0.041h-0.327v1.181h0.327c0.082,0,0.155-0.014,0.22-0.041
				c0.066-0.027,0.122-0.066,0.167-0.117c0.046-0.05,0.082-0.112,0.106-0.186S118.729,118.493,118.729,118.401z"/>
			<path fill="#3B3F4C" d="M120.922,118.401c0,0.123-0.02,0.237-0.061,0.341c-0.04,0.105-0.098,0.196-0.172,0.272
				c-0.074,0.077-0.163,0.137-0.268,0.18c-0.105,0.043-0.221,0.064-0.348,0.064s-0.242-0.021-0.347-0.064
				c-0.104-0.043-0.194-0.103-0.269-0.18c-0.074-0.076-0.132-0.167-0.173-0.272c-0.042-0.104-0.062-0.218-0.062-0.341
				c0-0.123,0.021-0.237,0.062-0.342c0.041-0.104,0.099-0.195,0.173-0.271c0.075-0.077,0.165-0.137,0.269-0.179
				c0.105-0.043,0.22-0.064,0.347-0.064c0.084,0,0.165,0.01,0.24,0.029c0.075,0.02,0.144,0.048,0.206,0.084
				c0.063,0.036,0.119,0.079,0.169,0.131c0.049,0.051,0.092,0.108,0.126,0.172c0.035,0.063,0.062,0.133,0.08,0.207
				C120.914,118.241,120.922,118.319,120.922,118.401z M120.604,118.401c0-0.092-0.013-0.174-0.037-0.248
				c-0.025-0.073-0.061-0.135-0.106-0.186c-0.046-0.051-0.101-0.09-0.167-0.118c-0.065-0.026-0.139-0.04-0.221-0.04
				c-0.083,0-0.156,0.014-0.221,0.04c-0.065,0.028-0.121,0.066-0.167,0.118c-0.046,0.051-0.081,0.113-0.106,0.186
				c-0.025,0.073-0.037,0.156-0.037,0.248c0,0.092,0.012,0.174,0.037,0.248c0.025,0.073,0.06,0.135,0.106,0.186
				c0.047,0.051,0.102,0.09,0.167,0.117c0.064,0.027,0.138,0.041,0.221,0.041c0.082,0,0.155-0.014,0.221-0.041
				s0.121-0.066,0.167-0.117c0.045-0.05,0.081-0.112,0.106-0.186C120.591,118.575,120.604,118.493,120.604,118.401z"/>
			<path fill="#3B3F4C" d="M122.507,119.24h-0.283c-0.053,0-0.092-0.021-0.115-0.063l-0.354-0.537
				c-0.013-0.02-0.027-0.034-0.043-0.043c-0.016-0.008-0.039-0.013-0.07-0.013h-0.133v0.656h-0.313v-1.677h0.512
				c0.113,0,0.211,0.012,0.293,0.035c0.082,0.024,0.148,0.057,0.2,0.1c0.053,0.042,0.091,0.093,0.115,0.152
				c0.025,0.059,0.038,0.124,0.038,0.195c0,0.057-0.009,0.11-0.025,0.16c-0.016,0.05-0.041,0.096-0.071,0.137
				c-0.032,0.041-0.071,0.077-0.116,0.107c-0.047,0.032-0.099,0.056-0.157,0.074c0.02,0.012,0.038,0.025,0.055,0.041
				c0.017,0.016,0.033,0.035,0.047,0.056L122.507,119.24z M121.705,118.36c0.058,0,0.109-0.007,0.153-0.022
				c0.044-0.014,0.08-0.034,0.107-0.061c0.028-0.026,0.05-0.057,0.064-0.092c0.014-0.036,0.021-0.075,0.021-0.117
				c0-0.085-0.028-0.151-0.084-0.197c-0.056-0.045-0.141-0.068-0.256-0.068h-0.199v0.557H121.705z"/>
		</g>
		<g>
			<rect x="109.589" y="196.305" fill="#C9CEDF" width="52.442" height="10.51"/>
		</g>
		<g>
			<g>
				<rect x="109.875" y="163.372" fill="#C9CEDF" width="51.956" height="8.056"/>
			</g>
			<g>
				<rect x="131.717" y="174.834" fill="#C9CEDF" width="30.113" height="8.055"/>
			</g>
			<g>
				<rect x="109.875" y="152.377" fill="#C9CEDF" width="11.342" height="8.056"/>
			</g>
			<g>
				<rect x="109.947" y="185.451" fill="#C9CEDF" width="51.958" height="8.056"/>
			</g>
		</g>
		<g>
			<path fill="#8C91A5" d="M118.913,203.089c0,0.089-0.018,0.204-0.053,0.347c-0.036,0.142-0.071,0.254-0.107,0.337
				c-0.064,0.165-0.266,0.343-0.603,0.531c-0.307,0.166-0.611,0.249-0.914,0.249c-0.094,0-0.183-0.006-0.266-0.017
				c-0.083-0.014-0.178-0.034-0.283-0.063c-0.107-0.029-0.185-0.053-0.231-0.07c-0.046-0.019-0.138-0.051-0.275-0.099
				c-0.136-0.047-0.219-0.077-0.248-0.088c-0.32-0.118-0.606-0.258-0.861-0.417c-0.425-0.261-0.862-0.616-1.313-1.065
				s-0.805-0.887-1.065-1.312c-0.159-0.255-0.294-0.541-0.407-0.86c-0.012-0.029-0.042-0.112-0.089-0.249
				c-0.048-0.135-0.083-0.227-0.107-0.274c-0.024-0.048-0.047-0.124-0.071-0.231c-0.024-0.106-0.044-0.2-0.062-0.283
				c-0.018-0.083-0.024-0.169-0.018-0.257c0-0.308,0.085-0.615,0.257-0.923c0.183-0.337,0.357-0.538,0.523-0.604
				c0.083-0.034,0.195-0.07,0.337-0.105c0.142-0.036,0.257-0.055,0.346-0.055c0.047,0,0.082,0.008,0.106,0.019
				c0.059,0.018,0.148,0.145,0.266,0.382c0.036,0.059,0.083,0.148,0.143,0.266c0.059,0.118,0.118,0.222,0.178,0.311
				c0.059,0.089,0.108,0.179,0.149,0.267c0.013,0.011,0.042,0.053,0.089,0.123c0.048,0.071,0.083,0.131,0.107,0.178
				c0.024,0.048,0.036,0.096,0.036,0.143c0,0.065-0.047,0.147-0.143,0.249c-0.094,0.1-0.197,0.188-0.31,0.266
				c-0.113,0.076-0.213,0.165-0.302,0.266c-0.088,0.101-0.136,0.175-0.141,0.223c0,0.027,0.008,0.067,0.026,0.114
				c0.018,0.047,0.03,0.08,0.036,0.097c0.006,0.019,0.03,0.061,0.071,0.126c0.041,0.064,0.062,0.093,0.062,0.088
				c0.249,0.455,0.535,0.846,0.86,1.171c0.326,0.326,0.713,0.612,1.163,0.86c0.006,0,0.036,0.018,0.088,0.053
				c0.054,0.036,0.095,0.061,0.125,0.071c0.03,0.012,0.063,0.026,0.097,0.045c0.036,0.017,0.074,0.022,0.116,0.017
				c0.059,0,0.133-0.044,0.221-0.133c0.089-0.089,0.178-0.191,0.267-0.311c0.089-0.118,0.181-0.222,0.275-0.311
				c0.094-0.088,0.177-0.136,0.248-0.142c0.042,0,0.086,0.013,0.133,0.035c0.048,0.024,0.107,0.06,0.178,0.106
				c0.071,0.048,0.113,0.077,0.124,0.089c0.083,0.048,0.171,0.099,0.266,0.15c0.094,0.055,0.198,0.112,0.311,0.178
				s0.204,0.115,0.275,0.151c0.23,0.113,0.354,0.198,0.373,0.257C118.907,203.006,118.913,203.041,118.913,203.089z"/>
		</g>
		<g>
			<path fill="#8C91A5" d="M158.41,198.683c0.244,0,0.449,0.082,0.615,0.249c0.167,0.166,0.249,0.37,0.249,0.613v3.889
				c0,0.237-0.082,0.442-0.249,0.613c-0.166,0.173-0.371,0.255-0.615,0.25h-6.063c-0.243,0-0.449-0.083-0.615-0.25
				c-0.166-0.164-0.249-0.37-0.249-0.613v-3.889c0-0.243,0.083-0.447,0.249-0.613c0.166-0.167,0.372-0.249,0.615-0.249H158.41
				L158.41,198.683z M154.914,202.453l-0.682-0.598l-1.578,1.578h5.441l-1.579-1.578l-0.671,0.598
				c-0.135,0.11-0.289,0.166-0.466,0.166C155.202,202.619,155.047,202.563,154.914,202.453z M152.348,203.134l1.553-1.569
				l-1.553-1.354V203.134z M156.85,201.564l1.561,1.562v-2.916L156.85,201.564z M158.41,199.545h-6.063v0.092l2.84,2.492
				c0.051,0.04,0.115,0.059,0.192,0.059s0.138-0.019,0.183-0.059l2.848-2.492V199.545z"/>
		</g>
		<g>
			<path fill="#8C91A5" d="M140.444,199.097c0.104,0.064,0.155,0.162,0.155,0.291v5.658c0,0.129-0.051,0.226-0.155,0.291
				c-0.052,0.039-0.103,0.058-0.155,0.058c-0.051,0-0.109-0.019-0.174-0.058l-2.093-1.318l-2.093,1.318
				c-0.115,0.063-0.226,0.063-0.329,0l-2.112-1.318l-2.093,1.318c-0.103,0.063-0.212,0.063-0.328,0
				c-0.104-0.065-0.155-0.162-0.155-0.291v-5.658c0-0.129,0.051-0.227,0.155-0.291l2.267-1.413c0.116-0.065,0.226-0.065,0.33,0
				l2.092,1.317l2.112-1.317c0.104-0.065,0.207-0.065,0.311,0L140.444,199.097z M133.178,203.456v-4.901l-1.628,1.007v4.903
				L133.178,203.456z M135.445,204.465v-4.903l-1.628-1.007v4.901L135.445,204.465z M137.712,203.456v-4.901l-1.647,1.007v4.903
				L137.712,203.456z M139.959,204.465v-4.903l-1.627-1.007v4.901L139.959,204.465z"/>
		</g>
		<g opacity="0.1">
			<polyline fill="#1A171B" points="116.754,115.858 163.715,115.794 163.715,208.771 			"/>
		</g>
	</g>
	<g>
		<g>
			<g>
				<path fill="#281D12" d="M191.142,219.539c0,0-2.543,1.308-4.246,1.45c-1.701,0.143-3.19,0.143-3.403,1.489
					c-0.214,1.348,0,2.41,0,2.41s6.594,0.285,9.288-0.354c0,0,3.617,0.568,3.973-0.141c0.354-0.71,0-4.854,0-4.854
					S192.449,218.939,191.142,219.539z"/>
			</g>
			<g>
				<path fill="#464B4C" d="M191.928,169.862c0,0,0.421,39.284-1.348,49.638c0,0,2.13,1.26,6.65,1.489c0,0,2.357-42.05,2.218-45.596
					c-0.143-3.546,0.583-5.106,0.007-6.95C198.879,166.601,191.928,169.862,191.928,169.862z"/>
			</g>
		</g>
		<g>
			<g>
				<path fill="#281D12" d="M211.432,220.423c0,0,2.623,1.193,3.546,1.134c0.92-0.061,2.977-0.272,3.19,0.366
					c0.213,0.639,0,2.836,0,2.836s-9.007,0.485-10.637-0.012c0,0-2.27,0.427-2.837-0.142c-0.566-0.568,0-4.468,0-4.468
					S210.438,220.352,211.432,220.423z"/>
			</g>
			<g>
				<path fill="#464B4C" d="M193.67,170.429c0,0,4.309,2.979,6.061,5.674c1.751,2.694,4.45,42.901,4.358,44.887
					c0,0,3.514,1.123,6.988-0.78c0,0-1.937-47.53-1.925-55.746C209.152,164.463,196.16,166.174,193.67,170.429z"/>
			</g>
		</g>
		<g>
			<g>
				<path fill="#9E9E9E" d="M185.805,136.704c0,0,5.159-3.309,6.246-3.963l1.147,1.58l-3.896,4.239l-3.683-0.829L185.805,136.704z"
					/>
			</g>
			<g>
				<path fill="#464B4C" d="M192.58,134.08c0,0,3.498-0.921,4.527-1.34c1.74-0.708,3.469,2.475,5.215,6.02
					c2.999,6.094,6.665,19.025,8.508,28.48c0,0-7.335,3.756-11.813,3.503l-1.442-1.705c0,0,0.2,1.225,0.507,2.08
					c0,0-4.508,1.76-7.067,0.909c0,0-3.365-23.273-6.752-33.74C184.263,138.288,190.168,135.359,192.58,134.08z"/>
			</g>
			<g>
				<path fill="#FFDCB8" d="M185.527,133.902c0,0,2.207,3.607,2.109,4.459c3.722,5.77,3.272-2.165,3.272-2.165
					s-1.561-3.132-2.486-4.469C187.496,130.39,185.527,133.902,185.527,133.902z"/>
			</g>
			<g>
				<path fill="#E5E5E5" d="M188.948,136.343l0.646,4.052l-2.146-3.469l-1.504,1.961c0,0,3.905,11.329,6.802,15.565
					c0,0,0.098-16.032,0.829-19.198L188.948,136.343z"/>
			</g>
			<g>
				<path fill="#141414" d="M191.015,139.89c0,0-2.072,0.13-2.959,1.251l0.64,1.827l1.646-0.417L191.015,139.89z"/>
			</g>
			<g>
				<path fill="#141414" d="M192.874,146.485l-2.533-3.935l-1.646,0.417c0,0,0.915,5.636,1.092,7.159l2.968,5.152L192.874,146.485z"
					/>
			</g>
			<g>
				<path fill="#676B6B" d="M192.532,133.309c0,0,3.179,1.769,5.111,3.058c0,0-1.426,2.462-3.605,4.726c0,0,4.267,3.217,4.44,3.626
					c0,0-4.363,6.9-5.724,10.561c0.019-3.498,0.36-17.03,0.729-20.129L192.532,133.309z"/>
			</g>
			<g>
				<path fill="#676B6B" d="M185.661,137.965c0,0-0.345,2.985-1.215,4.976c0,0,1.44,1.03,2.571,1.447c0,0-0.966,3.467-1.151,5.226
					c0,0,4.14,2.419,6.889,5.666C192.755,155.279,185.868,139.974,185.661,137.965z"/>
			</g>
			<g>
				<path fill="#232728" d="M193.003,155.904c0,0,2.39,9.406,4.104,12.416C197.107,168.32,193.903,157.791,193.003,155.904z"/>
			</g>
			<g>
				
					<ellipse transform="matrix(-0.9519 0.3064 -0.3064 -0.9519 430.6163 262.5467)" fill="#232728" cx="194.704" cy="165.068" rx="0.744" ry="0.834"/>
			</g>
			<g>
				
					<ellipse transform="matrix(-0.9517 0.3072 -0.3072 -0.9517 424.5584 252.0499)" fill="#232728" cx="192.444" cy="159.436" rx="0.746" ry="0.833"/>
			</g>
			<g>
				<path fill="#FFFFFF" d="M187.447,136.926l0.334,3.89c0,0-2.025-1.771-2.319-2.497l0.343-1.615L187.447,136.926z"/>
			</g>
			<g>
				<path fill="#FFFFFF" d="M192.051,132.74l-3.103,3.603l2.269,2.679c0,0,2.586-3.861,2.552-4.251L192.051,132.74z"/>
			</g>
			<g>
				<path fill="#232728" d="M191.875,172.212c0,0,3.49-0.194,6.207-1.094l-0.507-2.08c0,0,0.87,1.442,1.785,1.713
					c0,0,5.894-1.144,9.98-2.979c0,0-4.253,2.274-10.086,3.775l-1.034-1.17c0,0,0.335,0.852,0.258,1.225
					C198.479,171.603,194.761,172.663,191.875,172.212z"/>
			</g>
		</g>
		<g>
			<g>
				<path fill="#725C2B" d="M167.729,117.425c0,0-0.104,6.411,5.996,8.625C179.826,128.264,170.067,114.57,167.729,117.425z"/>
			</g>
			<g>
				<path fill="#FFDCB8" d="M169.205,118.206c0,0,4.839,12.26,8.969,16.344s13.187-2.557,13.756-5.768
					c0.568-3.211-3.146-10.519-3.146-10.519s-4.877-9.255-8.9-9.299C175.861,108.92,167.944,113.088,169.205,118.206z"/>
			</g>
			<g>
				<path fill="#725C2B" d="M189.732,120.795l-1.315,0.241c0,0-6.65-6.858-6.147-9.465c0,0-1.255,2.528-2.106,2.666
					c-0.85,0.139-0.794-1.832-0.794-1.832s-2.715,4.122-3.798,4.312c-1.086,0.19-0.365-2.318-0.365-2.318s-4.816,6.51-6.054,6
					c-1.238-0.51,0.053-2.193,0.053-2.193s-10.039,2.71-6.604-6.808c0,0,1.029-1.108,3.54,0.297c0,0,1.033-4.597,2.929-5.988
					c1.813-1.331,3.162,2.298,3.162,2.298s6.842-6.5,12.519-3.393c0,0-1.551-2.596-1.42-3.114c0.131-0.519,2.367-0.814,3.668,1.983
					c0,0,1.671-2.864,3.216-0.953c1.548,1.911-0.013,3.381-0.013,3.381s6.448,6.95,2.146,13.869L189.732,120.795z"/>
			</g>
			<g>
				<path fill="#FFDCB8" d="M189.231,120.888c0,0,0.284-3.079,2.604-3.443c2.318-0.364,4.878,7.037-0.283,7.841
					C189.375,125.624,189.231,120.888,189.231,120.888z"/>
			</g>
			<g>
				<path fill="#CB8F5E" d="M176.411,121.959c0,0,2.002,1.68,2.063,2.548c0.06,0.868-2.407,0.939-2.066,1.671
					c0.343,0.731,0.913,1.096,2.478,0.196c0,0-2.028,1.567-2.688,0.757c-1.06-1.3-0.353-2.045,1.188-2.384
					C178.474,124.507,177.308,123.066,176.411,121.959z"/>
			</g>
			<g>
				<g>
					<path fill="#DA9089" d="M188.047,125.747c0.095,2.043-0.249,4.552-2.15,6.006c-0.631,0.482-1.293,0.709-1.955,0.762
						C183.744,129.539,186.46,126.978,188.047,125.747z"/>
				</g>
				<g>
					<path fill="#753427" d="M177.671,129.082c3.17-3.178,9.854-6.607,9.854-6.607s0.438,1.451,0.522,3.272
						c-1.587,1.231-4.303,3.792-4.105,6.768C180.819,132.767,177.671,129.082,177.671,129.082z"/>
				</g>
			</g>
			<g>
				<path fill="#493918" d="M181.301,116.562c0,0-2.222,0.01-3.484,1.307C177.816,117.869,178.846,115.249,181.301,116.562z"/>
			</g>
			<g>
				<path fill="#493918" d="M173.698,120.225c0,0-2.085,0.772-2.238,1.811C171.46,122.036,171.583,119.527,173.698,120.225z"/>
			</g>
			<g>
				<path fill="#190F08" d="M179.561,121.367c0,0-0.102-1.505,0.969-2.116c1.069-0.612,1.962-0.476,2.875,0.339
					C183.404,119.59,180.913,118.869,179.561,121.367z"/>
			</g>
			<g>
				<path fill="#190F08" d="M173.503,125.303c0,0-0.093-1.505,0.902-2.117c0.993-0.611,1.822-0.475,2.67,0.339
					C177.075,123.525,174.761,122.804,173.503,125.303z"/>
			</g>
		</g>
		<g>
			<g>
				<g>
					<path fill="#FFDCB8" d="M159.76,157.785c0,0-5.445-5.649-6.828-6.712c-1.383-1.064-2.128,2.006,1.489,4.831
						c0,0-1.963,0.38-2.631,0.911c-0.667,0.532-1.624,3.724-0.986,4.681c0.638,0.958,3.403,1.702,3.724,1.277l0.318-0.66
						c0,0,3.551,1.437,4.914,0.782C161.121,162.24,159.76,157.785,159.76,157.785z"/>
				</g>
				<g>
					<path fill="#FFDCB8" d="M159.76,157.785c0,0-0.872-1.915-1.403-2.506c-0.532-0.59-1.915,0.625-1.915,0.625L159.76,157.785z"/>
				</g>
			</g>
			<g>
				<path fill="#464B4C" d="M197.547,132.74c-2.184-0.968-4.397,17.892-14.773,23.164c-10.376,5.273-23.014,1.881-23.014,1.881
					s-0.553,4.68-1.403,5.632c0,0,14.784,2.631,26.604-3.98C193.87,154.452,204.575,135.855,197.547,132.74z"/>
			</g>
		</g>
	</g>
	<g>
		<g>
			<path fill="#FFDCB8" d="M153.193,101.356c0,0-0.532-1.064-1.525-1.064s-1.135,0.993-1.135,2.127c0,1.135,0.281,3.234,1.402,3.436
				C153.057,106.055,153.37,104.476,153.193,101.356z"/>
		</g>
		<g>
			<path fill="#FFDCB8" d="M154.646,99.761c-0.99,0.077-1.568,0.871-1.453,3.404c0.114,2.533,0.836,2.629,1.33,2.69
				C156.064,106.044,156.945,99.582,154.646,99.761z"/>
		</g>
		<g>
			<path fill="#FFDCB8" d="M157.555,100.646c-1.42,0.002-1.488,1.165-1.745,2.521c-0.257,1.357,0.157,2.79,1.163,2.687
				c1.006-0.102,1.252-1.93,1.432-2.781C158.619,102.064,158.726,100.645,157.555,100.646z"/>
		</g>
	</g>
</g>
</svg>
