<svg xmlns="http://www.w3.org/2000/svg" xmlns:xlink="http://www.w3.org/1999/xlink" viewBox="0 0 2050.2 1163.8"><path fill="#fff" d="M896.8 170h-120c-11 0-20-9-20-20s9-20 20-20h120c11 0 20 9 20 20s-9 20-20 20z"/><path fill="#EEE0B7" d="M856.8 246h-4c-5.5 0-10-4.5-10-10v-30h24v30c0 5.5-4.5 10-10 10zm-36 0h-4c-5.5 0-10-4.5-10-10v-30h24v30c0 5.5-4.5 10-10 10z"/><circle cx="836.8" cy="90" r="50" fill="none"/><path fill="#EEE0B7" d="M780.8 151.4V143h-5.6v2.5h2.8v.3h-8.4v2.5h8.4v.3h-11.2v2.8h2.8v-.3h8.4v.3h-8.4v2.5h8.4v.3h-5.6v2.8h8.4v-2.8z"/><path fill="#B2A58E" d="M775.2 145.5h2.8v.3h-2.8zm-5.6 2.8h8.4v.3h-8.4zm0 2.8h8.4v.3h-8.4zm8.4 2.8h-8.4v.3h8.4z"/><linearGradient id="a" gradientUnits="userSpaceOnUse" x1="816.19" y1="150" x2="780.815" y2="150"><stop offset="0" stop-color="#fff"/><stop offset="1" stop-color="#E2F7F6"/></linearGradient><path fill="url(#a)" d="M780.8 143v14h35.4v-14z"/><path fill="#EEE0B7" d="M904 148.6h-8.4v-.3h8.4v-2.5h-8.4v-.3h2.8V143h-5.6v14h8.4v-2.8h-5.6v-.3h8.4v-2.5h-8.4v-.3h8.4v.3h2.8v-2.8z"/><path fill="#B2A58E" d="M895.6 145.5h2.8v.3h-2.8zm0 2.8h8.4v.3h-8.4zm0 2.8h8.4v.3h-8.4zm0 3.1h8.4v-.3h-8.4z"/><linearGradient id="b" gradientUnits="userSpaceOnUse" x1="857.44" y1="150" x2="892.815" y2="150"><stop offset="0" stop-color="#fff"/><stop offset="1" stop-color="#E2F7F6"/></linearGradient><path fill="url(#b)" d="M892.8 151.4V143h-35.4v14h35.4v-2.8z"/><path fill="#fff" d="M766.8 240l70-150 70 150z"/><circle fill="#F7E008" cx="883.3" cy="109.2" r="10"/><circle fill="#F7E008" cx="790.3" cy="109.2" r="10"/><circle fill="#EEE0B7" cx="836.8" cy="90" r="50"/><path fill="#B2A58E" d="M823.3 96c0-.4.1-.8.2-1.2.2-.4.4-.7.6-1 .3-.3.6-.5 1-.6.4-.2.8-.2 1.2-.2s.8.1 1.2.2c.4.2.7.4 1 .6.3.3.5.6.6 1 .2.4.2.8.2 1.2v2h1v-2c0-.5-.1-1.1-.3-1.6-.2-.5-.5-.9-.9-1.3s-.8-.7-1.3-.9c-.5-.2-1-.3-1.6-.3s-1.1.1-1.6.3c-.5.2-.9.5-1.3.9s-.7.8-.9 1.3c-.2.5-.3 1-.3 1.6v2h1v-2zm21 0c0-.4.1-.8.2-1.2.2-.4.4-.7.6-1 .3-.3.6-.5 1-.6.4-.2.8-.2 1.2-.2s.8.1 1.2.2c.4.2.7.4 1 .6.3.3.5.6.6 1 .2.4.2.8.2 1.2v2h1v-2c0-.5-.1-1.1-.3-1.6-.2-.5-.5-.9-.9-1.3s-.8-.7-1.3-.9c-.5-.2-1-.3-1.6-.3s-1.1.1-1.6.3c-.5.2-.9.5-1.3.9s-.7.8-.9 1.3c-.2.5-.3 1-.3 1.6v2h1v-2zm-3.5 6h-8l4-12z"/><circle fill="#FF6179" cx="836.3" cy="108" r="4"/><circle fill="#FF99AD" cx="853.3" cy="108" r="6"/><circle fill="#FF99AD" cx="820.3" cy="108" r="6"/><path fill="#fff" d="M836.3 104c-2.2 0-4 1.8-4 4h8c0-2.2-1.8-4-4-4z"/><path fill="#F7E008" d="M787.8 80h98c-4.6-22.8-24.8-40-49-40s-44.3 17.2-49 40z"/><path fill="#fff" d="M836.8 5c16.6 0 30 4.5 30 10s-13.4 10-30 10-30-4.5-30-10 13.4-10 30-10m0-5c-17.4 0-35 4.6-35 15s17.6 15 35 15 35-4.6 35-15-17.6-15-35-15z"/><path fill="#215A6D" d="M410.2 794.8h160v230h-160zm160.3 0c0 11-2.2 21.6-6.3 31.1-4 9.6-9.9 18.2-17.1 25.4s-15.9 13.1-25.4 17.1c-9.6 4-20.1 6.3-31.1 6.3s-21.6-2.2-31.1-6.3c-9.6-4-18.2-9.9-25.4-17.1S421 835.4 417 825.9c-4-9.6-6.3-20.1-6.3-31.1s2.2-21.6 6.3-31.1c4-9.6 9.9-18.2 17.1-25.4s15.9-13.1 25.4-17.1c9.6-4 20.1-6.3 31.1-6.3s21.6 2.2 31.1 6.3c9.6 4 18.2 9.9 25.4 17.1s13.1 15.9 17.1 25.4c4.1 9.5 6.3 20.1 6.3 31.1z"/><path fill="#CAD7B2" d="M455.9 797.8h5.6v2.8h-5.6zm0 2.8h11.2v2.8h-11.2zm0 5.6h11.2v2.8h-11.2zm0 2.8h8.4v2.8h-8.4zm0-5.6h14v2.8h-14z"/><path fill="#838689" d="M458.7 800.3h2.8v.3h-2.8zm0 2.8h8.4v.3h-8.4zm0 2.8h8.4v.3h-8.4zm0 2.8h8.4v.3h-8.4z"/><linearGradient id="c" gradientUnits="userSpaceOnUse" x1="455.875" y1="804.815" x2="420.5" y2="804.815"><stop offset="0" stop-color="#3CA2A2"/><stop offset="1" stop-color="#215A6D"/></linearGradient><path fill="url(#c)" d="M420.5 797.8h35.4v14h-35.4z"/><path fill="#CAD7B2" d="M519.5 797.8h5.6v2.8h-5.6zm-5.6 2.8h11.2v2.8h-11.2zm0 5.6h11.2v2.8h-11.2zm2.8 2.8h8.4v2.8h-8.4zm-5.6-5.6h14v2.8h-14z"/><path fill="#838689" d="M519.5 800.3h2.8v.3h-2.8zm-5.6 2.8h8.4v.3h-8.4zm0 2.8h8.4v.3h-8.4zm0 2.8h8.4v.3h-8.4z"/><linearGradient id="d" gradientUnits="userSpaceOnUse" x1="525.125" y1="804.815" x2="560.5" y2="804.815"><stop offset="0" stop-color="#3CA2A2"/><stop offset="1" stop-color="#215A6D"/></linearGradient><path fill="url(#d)" d="M525.1 797.8h35.4v14h-35.4z"/><g fill="#fff"><circle cx="490.8" cy="794.3" r="2.8"/><ellipse cx="496.7" cy="793" rx="4.3" ry="2.8"/><ellipse cx="485.5" cy="793" rx="4.3" ry="2.8"/><path d="M482.3 799h17.5v13.3h-17.5zm-1.2-4.5h20v5.9h-20z"/></g><circle fill="#215A6D" cx="490.5" cy="714.8" r="60"/><circle fill="#CAD7B2" cx="490.5" cy="729.8" r="40"/><path fill="#fff" d="M490.5 749.8c-18.6 0-34.3-12.7-38.7-30-.8 3.2-1.3 6.5-1.3 10 0 22.1 17.9 40 40 40s40-17.9 40-40c0-3.5-.4-6.8-1.3-10-4.4 17.3-20.1 30-38.7 30z"/><path fill="#838689" d="M494.5 726.8h-8l4-12z"/><path fill="#fff" d="M502.5 674.8l-4-8-2 4-6-12-6 12-2-4-4 8h-4v7.7h32v-7.7z"/><circle fill="#FF6179" cx="490.5" cy="732.8" r="4"/><path fill="#fff" d="M490.5 728.8c-2.2 0-4 1.8-4 4h8c0-2.2-1.8-4-4-4z"/><g fill="#FF99AD"><circle cx="474" cy="732.8" r="6"/><circle cx="507" cy="732.8" r="6"/></g><path d="M498 720.8c0-.4.1-.8.2-1.2.2-.4.4-.7.6-1 .3-.3.6-.5 1-.6.4-.2.8-.2 1.2-.2s.8.1 1.2.2c.4.2.7.4 1 .6.3.3.5.6.6 1 .2.4.2.8.2 1.2v2h1v-2c0-.5-.1-1.1-.3-1.6-.2-.5-.5-.9-.9-1.3s-.8-.7-1.3-.9c-.5-.2-1-.3-1.6-.3s-1.1.1-1.6.3c-.5.2-.9.5-1.3.9s-.7.8-.9 1.3c-.2.5-.3 1-.3 1.6v2h1v-2zm-21 0c0-.4.1-.8.2-1.2.2-.4.4-.7.6-1 .3-.3.6-.5 1-.6.4-.2.8-.2 1.2-.2s.8.1 1.2.2c.4.2.7.4 1 .6.3.3.5.6.6 1 .2.4.2.8.2 1.2v2h1v-2c0-.5-.1-1.1-.3-1.6-.2-.5-.5-.9-.9-1.3s-.8-.7-1.3-.9c-.5-.2-1-.3-1.6-.3s-1.1.1-1.6.3c-.5.2-.9.5-1.3.9s-.7.8-.9 1.3c-.2.5-.3 1-.3 1.6v2h1v-2z" fill="#838689"/><path fill="#BBB749" d="M220.2 844.8h160v180h-160zm160.3 0c0 11-2.2 21.6-6.3 31.1-4 9.6-9.9 18.2-17.1 25.4s-15.9 13.1-25.4 17.1-20.1 6.3-31.1 6.3-21.6-2.2-31.1-6.3c-9.6-4-18.2-9.9-25.4-17.1S231 885.4 227 875.9c-4-9.6-6.3-20.1-6.3-31.1s2.2-21.6 6.3-31.1c4-9.6 9.9-18.2 17.1-25.4s15.9-13.1 25.4-17.1c9.6-4 20.1-6.3 31.1-6.3s21.6 2.2 31.1 6.3 18.2 9.9 25.4 17.1 13.1 15.9 17.1 25.4c4.1 9.5 6.3 20.1 6.3 31.1z"/><path fill="#EEE0B7" d="M265.9 847.8h5.6v2.8h-5.6zm0 2.8h11.2v2.8h-11.2zm0 5.6h11.2v2.8h-11.2zm0 2.8h8.4v2.8h-8.4zm0-5.6h14v2.8h-14z"/><path fill="#B2A58E" d="M268.7 850.3h2.8v.3h-2.8zm0 2.8h8.4v.3h-8.4zm0 2.8h8.4v.3h-8.4zm0 2.8h8.4v.3h-8.4z"/><linearGradient id="e" gradientUnits="userSpaceOnUse" x1="265.875" y1="854.815" x2="230.5" y2="854.815"><stop offset="0" stop-color="#E0FBAC"/><stop offset="1" stop-color="#BBB749"/></linearGradient><path fill="url(#e)" d="M230.5 847.8h35.4v14h-35.4z"/><path fill="#EEE0B7" d="M329.5 847.8h5.6v2.8h-5.6zm-5.6 2.8h11.2v2.8h-11.2zm0 5.6h11.2v2.8h-11.2zm2.8 2.8h8.4v2.8h-8.4zm-5.6-5.6h14v2.8h-14z"/><path fill="#B2A58E" d="M329.5 850.3h2.8v.3h-2.8zm-5.6 2.8h8.4v.3h-8.4zm0 2.8h8.4v.3h-8.4zm0 2.8h8.4v.3h-8.4z"/><linearGradient id="f" gradientUnits="userSpaceOnUse" x1="335.125" y1="854.815" x2="370.5" y2="854.815"><stop offset="0" stop-color="#E0FBAC"/><stop offset="1" stop-color="#BBB749"/></linearGradient><path fill="url(#f)" d="M335.1 847.8h35.4v14h-35.4z"/><g fill="#fff"><circle cx="300.8" cy="844.3" r="2.8"/><ellipse cx="306.7" cy="843" rx="4.3" ry="2.8"/><ellipse cx="295.5" cy="843" rx="4.3" ry="2.8"/><path d="M292.3 849h17.5v13.3h-17.5zm-1.2-4.5h20v5.9h-20z"/></g><circle fill="#BBB749" cx="300.5" cy="764.8" r="60"/><circle fill="#EEE0B7" cx="300.5" cy="779.8" r="40"/><path fill="#fff" d="M300.5 799.8c-18.6 0-34.3-12.7-38.7-30-.8 3.2-1.3 6.5-1.3 10 0 22.1 17.9 40 40 40s40-17.9 40-40c0-3.5-.4-6.8-1.3-10-4.4 17.3-20.1 30-38.7 30z"/><path fill="#B2A58E" d="M304.5 776.8h-8l4-12z"/><path fill="#fff" d="M312.5 724.8l-4-8-2 4-6-12-6 12-2-4-4 8h-4v7.7h32v-7.7z"/><path d="M308 770.8c0-.4.1-.8.2-1.2.2-.4.4-.7.6-1 .3-.3.6-.5 1-.6.4-.2.8-.2 1.2-.2s.8.1 1.2.2c.4.2.7.4 1 .6.3.3.5.6.6 1 .2.4.2.8.2 1.2v2h1v-2c0-.5-.1-1.1-.3-1.6-.2-.5-.5-.9-.9-1.3s-.8-.7-1.3-.9c-.5-.2-1-.3-1.6-.3s-1.1.1-1.6.3c-.5.2-.9.5-1.3.9s-.7.8-.9 1.3c-.2.5-.3 1-.3 1.6v2h1v-2zm-21 0c0-.4.1-.8.2-1.2.2-.4.4-.7.6-1 .3-.3.6-.5 1-.6.4-.2.8-.2 1.2-.2s.8.1 1.2.2c.4.2.7.4 1 .6.3.3.5.6.6 1 .2.4.2.8.2 1.2v2h1v-2c0-.5-.1-1.1-.3-1.6-.2-.5-.5-.9-.9-1.3s-.8-.7-1.3-.9c-.5-.2-1-.3-1.6-.3s-1.1.1-1.6.3c-.5.2-.9.5-1.3.9s-.7.8-.9 1.3c-.2.5-.3 1-.3 1.6v2h1v-2z" fill="#B2A58E"/><circle fill="#FF6179" cx="300.5" cy="782.8" r="4"/><path fill="#fff" d="M300.5 778.8c-2.2 0-4 1.8-4 4h8c0-2.2-1.8-4-4-4z"/><g fill="#FF99AD"><circle cx="284" cy="782.8" r="6"/><circle cx="317" cy="782.8" r="6"/></g><path fill="#DE4126" d="M30.2 894.8h160v130h-160zm160.3 0c0 11-2.2 21.6-6.3 31.1-4 9.6-9.9 18.2-17.1 25.4s-15.9 13.1-25.4 17.1c-9.6 4-20.1 6.3-31.1 6.3s-21.6-2.2-31.1-6.3-18.2-9.9-25.4-17.1-13.3-15.8-17.3-25.3c-4-9.6-6.3-20.1-6.3-31.1s2.2-21.6 6.3-31.1c4-9.6 9.9-18.2 17.1-25.4s15.9-13.1 25.4-17.1 20.1-6.3 31.1-6.3 21.6 2.2 31.1 6.3c9.6 4 18.2 9.9 25.4 17.1s13.1 15.9 17.1 25.4c4.3 9.4 6.5 20 6.5 31z"/><path fill="#C68D4E" d="M75.9 897.8h5.6v2.8h-5.6zm0 2.8h11.2v2.8H75.9zm0 5.6h11.2v2.8H75.9zm0 2.8h8.4v2.8h-8.4zm0-5.6h14v2.8h-14z"/><path fill="#996B3D" d="M78.7 900.3h2.8v.3h-2.8zm0 2.8h8.4v.3h-8.4zm0 2.8h8.4v.3h-8.4zm0 2.8h8.4v.3h-8.4z"/><linearGradient id="g" gradientUnits="userSpaceOnUse" x1="75.875" y1="904.815" x2="40.5" y2="904.815"><stop offset="0" stop-color="#FF6179"/><stop offset="1" stop-color="#DE4126"/></linearGradient><path fill="url(#g)" d="M40.5 897.8h35.4v14H40.5z"/><path fill="#C68D4E" d="M139.5 897.8h5.6v2.8h-5.6zm-5.6 2.8h11.2v2.8h-11.2zm0 5.6h11.2v2.8h-11.2zm2.8 2.8h8.4v2.8h-8.4zm-5.6-5.6h14v2.8h-14z"/><path fill="#996B3D" d="M139.5 900.3h2.8v.3h-2.8zm-5.6 2.8h8.4v.3h-8.4zm0 2.8h8.4v.3h-8.4zm0 2.8h8.4v.3h-8.4z"/><linearGradient id="h" gradientUnits="userSpaceOnUse" x1="145.125" y1="904.815" x2="180.5" y2="904.815"><stop offset="0" stop-color="#FF6179"/><stop offset="1" stop-color="#DE4126"/></linearGradient><path fill="url(#h)" d="M145.1 897.8h35.4v14h-35.4z"/><g fill="#fff"><circle cx="110.8" cy="894.3" r="2.8"/><ellipse cx="116.7" cy="893" rx="4.3" ry="2.8"/><ellipse cx="105.5" cy="893" rx="4.3" ry="2.8"/><path d="M102.3 899h17.5v13.3h-17.5zm-1.2-4.5h20v5.9h-20z"/></g><circle fill="#DE4126" cx="110.5" cy="814.8" r="60"/><circle fill="#C68D4E" cx="110.5" cy="829.8" r="40"/><path fill="#996B3D" d="M114.5 826.8h-8l4-12z"/><path fill="#fff" d="M122.5 774.8l-4-8-2 4-6-12-6 12-2-4-4 8h-4v7.7h32v-7.7z"/><circle fill="#FF6179" cx="110.5" cy="832.8" r="4"/><path fill="#fff" d="M110.5 828.8c-2.2 0-4 1.8-4 4h8c0-2.2-1.8-4-4-4z"/><g fill="#FF99AD"><circle cx="94" cy="832.8" r="6"/><circle cx="127" cy="832.8" r="6"/></g><path fill="#fff" d="M110.5 849.8c-18.6 0-34.3-12.7-38.7-30-.8 3.2-1.3 6.5-1.3 10 0 22.1 17.9 40 40 40s40-17.9 40-40c0-3.5-.4-6.8-1.3-10-4.4 17.3-20.1 30-38.7 30z"/><path d="M118 820.8c0-.4.1-.8.2-1.2.2-.4.4-.7.6-1 .3-.3.6-.5 1-.6.4-.2.8-.2 1.2-.2s.8.1 1.2.2c.4.2.7.4 1 .6.3.3.5.6.6 1 .2.4.2.8.2 1.2v2h1v-2c0-.5-.1-1.1-.3-1.6-.2-.5-.5-.9-.9-1.3s-.8-.7-1.3-.9c-.5-.2-1-.3-1.6-.3s-1.1.1-1.6.3c-.5.2-.9.5-1.3.9s-.7.8-.9 1.3c-.2.5-.3 1-.3 1.6v2h1v-2zm-21 0c0-.4.1-.8.2-1.2.2-.4.4-.7.6-1 .3-.3.6-.5 1-.6.4-.2.8-.2 1.2-.2s.8.1 1.2.2c.4.2.7.4 1 .6.3.3.5.6.6 1 .2.4.2.8.2 1.2v2h1v-2c0-.5-.1-1.1-.3-1.6-.2-.5-.5-.9-.9-1.3s-.8-.7-1.3-.9c-.5-.2-1-.3-1.6-.3s-1.1.1-1.6.3c-.5.2-.9.5-1.3.9s-.7.8-.9 1.3c-.2.5-.3 1-.3 1.6v2h1v-2z" fill="#996B3D"/><path fill="#EEE0B7" d="M1843.2 1019.8h-4c-5.5 0-10-4.5-10-10v-30h24v30c0 5.5-4.4 10-10 10zm-36 0h-4c-5.5 0-10-4.5-10-10v-30h24v30c0 5.5-4.4 10-10 10z"/><path fill="#fff" d="M1753.2 1013.8l70-150 70 150z"/><circle fill="#EEE0B7" cx="1823.2" cy="863.8" r="50"/><path fill="#B2A58E" d="M1827.2 875.8h-8l4-12z"/><circle fill="#FF6179" cx="1822.8" cy="881.8" r="4"/><path fill="#fff" d="M1822.8 877.8c-2.2 0-4 1.8-4 4h8c0-2.2-1.8-4-4-4z"/><path fill="#B2A58E" d="M1830.8 869.8c0-.4.1-.8.2-1.2.2-.4.4-.7.6-1 .3-.3.6-.5 1-.6.4-.2.8-.2 1.2-.2.4 0 .8.1 1.2.2.4.2.7.4 1 .6.3.3.5.6.6 1 .2.4.2.8.2 1.2v2h1v-2c0-.5-.1-1.1-.3-1.6-.2-.5-.5-.9-.9-1.3s-.8-.7-1.3-.9-1-.3-1.6-.3c-.6 0-1.1.1-1.6.3-.5.2-.9.5-1.3.9s-.7.8-.9 1.3c-.2.5-.3 1-.3 1.6v2h1v-2zm-21 0c0-.4.1-.8.2-1.2.2-.4.4-.7.6-1 .3-.3.6-.5 1-.6.4-.2.8-.2 1.2-.2.4 0 .8.1 1.2.2.4.2.7.4 1 .6.3.3.5.6.6 1 .2.4.2.8.2 1.2v2h1v-2c0-.5-.1-1.1-.3-1.6-.2-.5-.5-.9-.9-1.3s-.8-.7-1.3-.9-1-.3-1.6-.3c-.6 0-1.1.1-1.6.3-.5.2-.9.5-1.3.9s-.7.8-.9 1.3c-.2.5-.3 1-.3 1.6v2h1v-2z"/><circle fill="#FF99AD" cx="1806.8" cy="881.8" r="6"/><circle fill="#FF99AD" cx="1839.8" cy="881.8" r="6"/><circle cx="1823.2" cy="863.8" r="50" fill="none"/><path fill="#EEE0B7" d="M1761.6 916.8h5.6v2.8h-5.6zm-5.5 2.8h11.2v2.8h-11.2zm0 5.6h11.2v2.8h-11.2zm2.8 2.8h8.4v2.8h-8.4zm-5.7-5.6h14v2.8h-14z"/><path fill="#B2A58E" d="M1761.7 919.3h2.8v.3h-2.8zm-5.6 2.8h8.4v.3h-8.4zm0 2.8h8.4v.3h-8.4zm0 2.8h8.4v.3h-8.4z"/><path fill="#fff" d="M1767.2 916.8h35.4v14h-35.4z"/><path fill="#EEE0B7" d="M1879.2 916.8h5.6v2.8h-5.6zm.1 2.8h11.2v2.8h-11.2zm0 5.6h11.2v2.8h-11.2zm-.1 2.8h8.4v2.8h-8.4zm0-5.6h14v2.8h-14z"/><path fill="#B2A58E" d="M1882 919.3h2.8v.3h-2.8zm.1 2.8h8.4v.3h-8.4zm0 2.8h8.4v.3h-8.4zm0 2.8h8.4v.3h-8.4z"/><path fill="#fff" d="M1843.9 916.8h35.4v14h-35.4z"/><path fill="#B2A58E" d="M1774.3 853.8h98c-4.6-22.8-24.8-40-49-40s-44.4 17.2-49 40zm-264.4 166c-1.1 0-2-.9-2-2v-8c0-1.1.9-2 2-2s2 .9 2 2v8c0 1.1-.9 2-2 2zm8.1 0c-1.1 0-2-.9-2-2v-8c0-1.1.9-2 2-2s2 .9 2 2v8c0 1.1-.9 2-2 2zm10-4c-1.1 0-2-.9-2-2v-8c0-1.1.9-2 2-2s2 .9 2 2v8c0 1.1-.9 2-2 2zm-28.1 0c-1.1 0-2-.9-2-2v-8c0-1.1.9-2 2-2s2 .9 2 2v8c0 1.1-.9 2-2 2z"/><path fill="#EEE0B7" d="M1648.2 1019.8h-4c-5.5 0-10-4.5-10-10v-30h24v30c0 5.5-4.4 10-10 10zm-36 0h-4c-5.5 0-10-4.5-10-10v-30h24v30c0 5.5-4.4 10-10 10z"/><path fill="#fff" d="M1558.2 1013.8l70-150 70 150z"/><circle fill="#EEE0B7" cx="1628.2" cy="863.8" r="50"/><path fill="#B2A58E" d="M1632.2 875.8h-8l4-12z"/><circle fill="#FF6179" cx="1627.8" cy="881.8" r="4"/><path fill="#fff" d="M1627.8 877.8c-2.2 0-4 1.8-4 4h8c0-2.2-1.8-4-4-4z"/><path fill="#B2A58E" d="M1635.8 869.8c0-.4.1-.8.2-1.2.2-.4.4-.7.6-1 .3-.3.6-.5 1-.6.4-.2.8-.2 1.2-.2.4 0 .8.1 1.2.2.4.2.7.4 1 .6.3.3.5.6.6 1 .2.4.2.8.2 1.2v2h1v-2c0-.5-.1-1.1-.3-1.6-.2-.5-.5-.9-.9-1.3s-.8-.7-1.3-.9-1-.3-1.6-.3c-.6 0-1.1.1-1.6.3-.5.2-.9.5-1.3.9s-.7.8-.9 1.3c-.2.5-.3 1-.3 1.6v2h1v-2zm-21 0c0-.4.1-.8.2-1.2.2-.4.4-.7.6-1 .3-.3.6-.5 1-.6.4-.2.8-.2 1.2-.2.4 0 .8.1 1.2.2.4.2.7.4 1 .6.3.3.5.6.6 1 .2.4.2.8.2 1.2v2h1v-2c0-.5-.1-1.1-.3-1.6-.2-.5-.5-.9-.9-1.3s-.8-.7-1.3-.9-1-.3-1.6-.3c-.6 0-1.1.1-1.6.3-.5.2-.9.5-1.3.9s-.7.8-.9 1.3c-.2.5-.3 1-.3 1.6v2h1v-2z"/><circle fill="#FF99AD" cx="1611.8" cy="881.8" r="6"/><circle fill="#FF99AD" cx="1644.8" cy="881.8" r="6"/><circle cx="1628.2" cy="863.8" r="50" fill="none"/><path fill="#EEE0B7" d="M1566.6 916.8h5.6v2.8h-5.6zm-5.5 2.8h11.2v2.8h-11.2zm0 5.6h11.2v2.8h-11.2zm2.8 2.8h8.4v2.8h-8.4zm-5.7-5.6h14v2.8h-14z"/><path fill="#B2A58E" d="M1566.7 919.3h2.8v.3h-2.8zm-5.6 2.8h8.4v.3h-8.4zm0 2.8h8.4v.3h-8.4zm0 2.8h8.4v.3h-8.4z"/><path fill="#fff" d="M1572.2 916.8h35.4v14h-35.4z"/><path fill="#EEE0B7" d="M1684.2 916.8h5.6v2.8h-5.6zm0 2.8h11.2v2.8h-11.2zm0 5.6h11.2v2.8h-11.2zm0 2.8h8.4v2.8h-8.4zm0-5.6h14v2.8h-14z"/><path fill="#B2A58E" d="M1687 919.3h2.8v.3h-2.8zm.1 2.8h8.4v.3h-8.4zm0 2.8h8.4v.3h-8.4zm0 2.8h8.4v.3h-8.4z"/><path fill="#fff" d="M1648.9 916.8h35.4v14h-35.4z"/><path fill="#B2A58E" d="M1579.3 853.8h98c-4.6-22.8-24.8-40-49-40s-44.4 17.2-49 40z"/><path stroke="#B2A58E" stroke-width="2" stroke-linecap="round" stroke-miterlimit="10" d="M1691.2 977.1l.1-80.3-.1-1.3c0-9.2 7.5-16.7 16.7-16.7 7.4 0 13.3 6 13.3 13.3 0 5.9-4.8 10.7-10.7 10.7-4.7 0-8.5-3.8-8.5-8.5 0-3.8 3.1-6.8 6.8-6.8 3 0 5.5 2.4 5.5 5.5 0 2.4-2 4.4-4.4 4.4-1.9 0-3.5-1.6-3.5-3.5 0-1.5 1.3-2.8 2.8-2.8 1.2 0 2.2 1 2.2 2.2" fill="none"/><path fill="#fff" d="M1505.9 1013.8l-13.9-8-8.1-13.9v-16.1l8.1-13.9 13.9-8.1h16.1l13.9 8.1 8 13.9v16.1l-8 13.9-13.9 8z"/><path fill="#B2A58E" d="M1508.6 983.8l-9.3-5.3-5.4-9.3v-10.7l5.4-9.3 9.3-5.4h10.7l9.3 5.4 5.3 9.3v10.7l-5.3 9.3-9.3 5.3z"/><circle fill="#fff" cx="1508.4" cy="961.8" r="2"/><circle fill="#B2A58E" cx="1508.4" cy="961.8" r="1"/><circle fill="#fff" cx="1519.4" cy="961.8" r="2"/><circle fill="#B2A58E" cx="1519.4" cy="961.8" r="1"/><path d="M1490.4 948.8l-10 5 10 5 10-5zm47 0l-10 5 10 5 10-5z" fill="#B2A58E"/><path fill="#031634" d="M2050.2 969.8v-10h-480v10h20v40H1450v-525H600v525H460v-40h20v-20H.2v20H20v40H0v50h2050.2v-50h-20v-40h20zM80 1009.8H40v-40h40v40zm60 0h-40v-40h40v40zm60 0h-40v-40h40v40zm60 0h-40v-40h40v40zm60 0h-40v-40h40v40zm60 0h-40v-40h40v40zm60 0h-40v-40h40v40zm1210.2 0h-40v-40h40v40zm60 0h-40v-40h40v40zm60 0h-40v-40h40v40zm60 0h-40v-40h40v40zm60 0h-40v-40h40v40zm60 0h-40v-40h40v40zm60 0h-40v-40h40v40z"/><path fill="#FFAA2E" d="M1025 533.8c-140.8 0-255 114.2-255 255v200h510v-200c0-140.8-114.2-255-255-255z"/><path fill="#033649" d="M523.8 504.8l117.7-235.3h764.7l117.6 235.3z"/><path fill="#FFAA2E" d="M1023.8 331.7c-28.2 0-51 22.8-51 51v40h102v-40c0-28.2-22.8-51-51-51z"/><path fill="#036564" d="M972.8 422.7c0 28.2 22.8 51 51 51s51-22.8 51-51h-102z"/><path fill="#EEE0B7" d="M1243.8 246h-4c-5.5 0-10-4.5-10-10v-30h24v30c0 5.5-4.4 10-10 10zm-36 0h-4c-5.5 0-10-4.5-10-10v-30h24v30c0 5.5-4.4 10-10 10z"/><circle cx="1223.8" cy="90" r="50" fill="none"/><path fill="#EEE0B7" d="M1162.2 143h5.6v2.8h-5.6zm-5.6 2.8h11.2v2.8h-11.2zm0 5.6h11.2v2.8h-11.2zm2.8 2.8h8.4v2.8h-8.4zm-5.6-5.6h14v2.8h-14z"/><path fill="#B2A58E" d="M1162.2 145.5h2.8v.3h-2.8zm-5.6 2.8h8.4v.3h-8.4zm0 2.8h8.4v.3h-8.4zm0 2.8h8.4v.3h-8.4z"/><linearGradient id="i" gradientUnits="userSpaceOnUse" x1="1203.209" y1="160" x2="1167.834" y2="160"><stop offset="0" stop-color="#fff"/><stop offset="1" stop-color="#E2F7F6"/></linearGradient><path fill="url(#i)" d="M1203.2 157l-35.4 20v-34h35.4z"/><path fill="#EEE0B7" d="M1279.8 143h5.6v2.8h-5.6zm0 2.8h11.2v2.8h-11.2zm0 5.6h11.2v2.8h-11.2zm0 2.8h8.4v2.8h-8.4zm0-5.6h14v2.8h-14z"/><path fill="#B2A58E" d="M1282.6 145.5h2.8v.3h-2.8zm0 2.8h8.4v.3h-8.4zm0 2.8h8.4v.3h-8.4zm0 2.8h8.4v.3h-8.4z"/><linearGradient id="j" gradientUnits="userSpaceOnUse" x1="1244.459" y1="160" x2="1279.834" y2="160"><stop offset="0" stop-color="#fff"/><stop offset="1" stop-color="#E2F7F6"/></linearGradient><path fill="url(#j)" d="M1244.5 157l35.3 20v-34h-35.3z"/><path fill="#fff" d="M1153.8 240l70-150 70 150z"/><circle fill="#EEE0B7" cx="1223.8" cy="90" r="50"/><path fill="#B2A58E" d="M1210.3 96c0-.4.1-.8.2-1.2.2-.4.4-.7.6-1 .3-.3.6-.5 1-.6.4-.2.8-.2 1.2-.2.4 0 .8.1 1.2.2.4.2.7.4 1 .6.3.3.5.6.6 1 .2.4.2.8.2 1.2v2h1v-2c0-.5-.1-1.1-.3-1.6-.2-.5-.5-.9-.9-1.3s-.8-.7-1.3-.9-1-.3-1.6-.3c-.6 0-1.1.1-1.6.3-.5.2-.9.5-1.3.9s-.7.8-.9 1.3c-.2.5-.3 1-.3 1.6v2h1v-2z"/><defs><circle id="k" cx="1223.8" cy="90" r="50"/></defs><clipPath id="l"><use xlink:href="#k" overflow="visible"/></clipPath><path clip-path="url(#l)" fill="#ccc" d="M1173.8 34.3h100V80h-100zm57.5 85.9V110c0-4.4-3.6-8-8-8s-8 3.6-8 8v10.2c-4.8 2.8-8 7.9-8 13.8v13c0 8.8 7.2 16 16 16s16-7.2 16-16v-13c0-5.9-3.2-11-8-13.8z"/><path fill="#B2A58E" d="M1231.3 96c0-.4.1-.8.2-1.2.2-.4.4-.7.6-1 .3-.3.6-.5 1-.6.4-.2.8-.2 1.2-.2.4 0 .8.1 1.2.2.4.2.7.4 1 .6.3.3.5.6.6 1 .2.4.2.8.2 1.2v2h1v-2c0-.5-.1-1.1-.3-1.6-.2-.5-.5-.9-.9-1.3s-.8-.7-1.3-.9-1-.3-1.6-.3c-.6 0-1.1.1-1.6.3-.5.2-.9.5-1.3.9s-.7.8-.9 1.3c-.2.5-.3 1-.3 1.6v2h1v-2zm-3.5 6h-8l4-12z"/><circle fill="#FF99AD" cx="1240.3" cy="108" r="6"/><circle fill="#FF99AD" cx="1207.3" cy="108" r="6"/><circle fill="#FF6179" cx="1223.3" cy="108" r="4"/><path fill="#fff" d="M1223.3 104c-2.2 0-4 1.8-4 4h8c0-2.2-1.8-4-4-4zm.5-99c16.6 0 30 4.5 30 10s-13.4 10-30 10-30-4.5-30-10 13.5-10 30-10m0-5c-17.4 0-35 4.6-35 15s17.6 15 35 15 35-4.6 35-15-17.5-15-35-15z"/><path fill="#CDB380" d="M1387.5 1163.8h-730l-130-104h980z"/><path fill="#B2A58E" d="M994.5 887.6h1.4v.1h-1.4zm-2.8 1.4h4.2v.1h-4.2zm0 1.4h4.2v.1h-4.2zm4.1 1.4h-4.1v.1h4.1z"/><path fill="#EEE0B7" d="M1058.8 889.1h-4.2v-.1h4.2v-1.3h-4.2v-.1h1.4v-1.3h-15.8v-6.5c6.1-4.6 10-11.8 10-20 0-13.8-11.2-25-25-25s-25 11.2-25 25c0 8.2 3.9 15.4 10 20v6.5h-15.8v1.3h1.4v.1h-4.2v1.3h4.2v.1h-5.6v1.4h1.4v-.1h4.2v.1h-4.2v1.3h4.2v.1H993v1.4h17.2v6.5h30v-6.5h17.2v-1.4h-2.8v-.1h4.2v-1.3h-4.2v-.1h4.2v.1h1.4v-1.4h-1.4z"/><path fill="#B2A58E" d="M1054.7 887.6h1.4v.1h-1.4zm0 1.4h4.2v.1h-4.2zm0 1.4h4.2v.1h-4.2zm0 1.5h4.1v-.1h-4.1z"/><path fill="#EEE0B7" d="M1028.2 931.8c0 3.3 2.7 6 6 6s6-2.7 6-6v-12h-12v12zm-18 0c0 3.3 2.7 6 6 6s6-2.7 6-6v-12h-12v12z"/><path fill="#fff" d="M1010.2 917.8v2h30v-20h-30z"/><path fill="#B2A58E" d="M1027.2 865.8h-4l2-6zm1.8-3c0-.2 0-.4.1-.6l.3-.5c.1-.1.3-.2.5-.3.2-.1.4-.1.6-.1.2 0 .4 0 .6.1l.5.3c.1.1.2.3.3.5.1.2.1.4.1.6v1h.5v-1c0-.3-.1-.5-.2-.8s-.2-.5-.4-.6c-.2-.2-.4-.3-.6-.4s-.5-.2-.8-.2c-.3 0-.5.1-.8.2-.2.1-.5.2-.6.4-.2.2-.3.4-.4.6s-.2.5-.2.8v1h.5v-1zm-10.5 0c0-.2 0-.4.1-.6l.3-.5c.1-.1.3-.2.5-.3.2-.1.4-.1.6-.1.2 0 .4 0 .6.1l.5.3c.1.1.2.3.3.5.1.2.1.4.1.6v1h.5v-1c0-.3-.1-.5-.2-.8s-.2-.5-.4-.6c-.2-.2-.4-.3-.6-.4s-.5-.2-.8-.2c-.3 0-.5.1-.8.2-.2.1-.5.2-.6.4-.2.2-.3.4-.4.6s-.2.5-.2.8v1h.5v-1z"/><circle fill="#FF99AD" cx="1017" cy="868.8" r="3"/><circle fill="#FF99AD" cx="1033.5" cy="868.8" r="3"/><circle cx="1025.2" cy="859.8" r="25" fill="none"/><circle fill="#f90" cx="1025" cy="869.3" r="2.5"/><path fill="#FFB966" d="M1026 868.5v1.2c.3.3.5.7.5 1.1 0 .8-.7 1.5-1.5 1.5s-1.5-.7-1.5-1.5c0-.4.2-.8.5-1.1v-1.2c-.9.4-1.5 1.3-1.5 2.3 0 1.4 1.1 2.5 2.5 2.5s2.5-1.1 2.5-2.5c0-1-.6-1.9-1.5-2.3z"/><path fill="#031634" d="M1060.2 929.8h-70l30 30-30 30h10l25-25 25 25h10l-30-30z"/><path fill="#F7E008" d="M1055.2 929.8h-60v-4l3.8 1 3.7-1 3.8 1 3.7-1 3.8 1 3.7-1 3.8 1 3.7-1 3.8 1 3.7-1 3.8 1 3.7-1 3.8 1 3.7-1 3.8 1 3.7-1v3.8z"/><path fill="#BFA47C" d="M1250.4 1156.1l-66-53h132zm-460.3 0l-65.3-53h132zm235.1 0l-66-53h132z"/><path fill="#542437" d="M900.2 859.8c0-11-2.2-21.6-6.3-31.1-4-9.6-9.9-18.2-17.1-25.4-7.2-7.2-15.9-13.1-25.4-17.1s-20.1-6.3-31.1-6.3-21.6 2.2-31.1 6.3c-9.6 4-18.2 9.9-25.4 17.1s-13.1 15.9-17.1 25.4c-4 9.6-6.3 20.1-6.3 31.1h-.4v130h160v-124c.1-1.9.2-4 .2-6z"/><path fill="#EEE0B7" d="M796.8 868.4h-8.4v-.3h8.4v-2.5h-8.4v-.3h2.8v-2.5h-5.6v14h8.4V874h-5.6v-.3h8.4v-2.5h-8.4v-.3h8.4v.3h2.8v-2.8z"/><path fill="#B2A58E" d="M788.4 865.3h2.8v.3h-2.8zm0 2.8h8.4v.3h-8.4zm0 2.8h8.4v.3h-8.4zm0 3.1h8.4v-.3h-8.4z"/><linearGradient id="m" gradientUnits="userSpaceOnUse" x1="785.625" y1="869.815" x2="750.25" y2="869.815"><stop offset="0" stop-color="#C02942"/><stop offset="1" stop-color="#542437"/></linearGradient><path fill="url(#m)" d="M750.2 862.8h35.4v14h-35.4z"/><path fill="#EEE0B7" d="M849.3 862.8v2.5h2.8v.3h-8.4v2.5h8.4v.3h-11.2v2.8h2.8v-.3h8.4v.3h-8.4v2.5h8.4v.3h-5.6v2.8h8.4v-14z"/><path fill="#B2A58E" d="M849.3 865.3h2.8v.3h-2.8zm-5.6 2.8h8.4v.3h-8.4zm0 2.8h8.4v.3h-8.4zm8.4 2.8h-8.4v.3h8.4z"/><linearGradient id="n" gradientUnits="userSpaceOnUse" x1="854.875" y1="869.815" x2="890.25" y2="869.815"><stop offset="0" stop-color="#C02942"/><stop offset="1" stop-color="#542437"/></linearGradient><path fill="url(#n)" d="M854.9 862.8h35.4v14h-35.4z"/><circle fill="#EEE0B7" cx="820.2" cy="779.8" r="60"/><path fill="#B2A58E" d="M824.2 791.8h-8l4-12z"/><circle fill="#FF6179" cx="820.2" cy="797.8" r="4"/><path fill="#fff" d="M820.2 793.8c-2.2 0-4 1.8-4 4h8c0-2.2-1.7-4-4-4z"/><g fill="#FF99AD"><circle cx="803.8" cy="797.8" r="6"/><circle cx="836.8" cy="797.8" r="6"/></g><path d="M827.7 785.8c0-.4.1-.8.2-1.2.2-.4.4-.7.6-1 .3-.3.6-.5 1-.6.4-.2.8-.2 1.2-.2s.8.1 1.2.2c.4.2.7.4 1 .6.3.3.5.6.6 1 .2.4.2.8.2 1.2v2h1v-2c0-.5-.1-1.1-.3-1.6-.2-.5-.5-.9-.9-1.3s-.8-.7-1.3-.9c-.5-.2-1-.3-1.6-.3s-1.1.1-1.6.3c-.5.2-.9.5-1.3.9s-.7.8-.9 1.3c-.2.5-.3 1-.3 1.6v2h1v-2zm-21 0c0-.4.1-.8.2-1.2.2-.4.4-.7.6-1 .3-.3.6-.5 1-.6.4-.2.8-.2 1.2-.2s.8.1 1.2.2c.4.2.7.4 1 .6.3.3.5.6.6 1 .2.4.2.8.2 1.2v2h1v-2c0-.5-.1-1.1-.3-1.6-.2-.5-.5-.9-.9-1.3s-.8-.7-1.3-.9c-.5-.2-1-.3-1.6-.3s-1.1.1-1.6.3c-.5.2-.9.5-1.3.9s-.7.8-.9 1.3c-.2.5-.3 1-.3 1.6v2h1v-2z" fill="#B2A58E"/><path fill="#B2A58E" d="M820.2 809.8c-28 0-51.4-19.1-58.1-45-1.2 4.8-1.9 9.8-1.9 15 0 33.1 26.9 60 60 60s60-26.9 60-60c0-5.2-.7-10.2-1.9-15-6.6 25.9-30.1 45-58.1 45z"/><circle cx="820.2" cy="769.8" r="50" fill="none"/><defs><circle id="o" cx="820.2" cy="779.8" r="60"/></defs><clipPath id="p"><use xlink:href="#o" overflow="visible"/></clipPath><g clip-path="url(#p)"><path fill="#B2A58E" d="M816.2 791.8h8l-4-12z"/><path fill="#FF6179" d="M818 794.5c.4-.3.9-.5 1.4-.6-.5.1-1 .3-1.4.6zm2.2 7.3c2.2 0 4-1.8 4-4h-8c0 2.2 1.8 4 4 4zm-3.6-5.5c.2-.5.5-.9.9-1.3-.4.3-.7.8-.9 1.3z"/><path fill="#fff" d="M820.2 793.8c-.3 0-.5 0-.8.1-.5.1-1 .3-1.4.6-.2.1-.4.3-.6.5-.4.4-.7.8-.9 1.3s-.3 1-.3 1.6h8c0-2.3-1.7-4.1-4-4.1z"/><circle fill="#FF99AD" cx="803.8" cy="797.8" r="6"/><circle fill="#FF99AD" cx="836.8" cy="797.8" r="6"/><path fill="#B2A58E" d="M832.9 783.7c.3.3.5.6.6 1 .2.4.2.8.2 1.2v2h1v-2c0-.5-.1-1.1-.3-1.6-.2-.5-.5-.9-.9-1.3s-.8-.7-1.3-.9c-.5-.2-1-.3-1.6-.3-.5 0-1.1.1-1.6.3-.5.2-.9.5-1.3.9s-.7.8-.9 1.3c-.2.5-.3 1-.3 1.6v2h1v-2c0-.4.1-.8.2-1.2.2-.4.4-.7.6-1 .3-.3.6-.5 1-.6.4-.2.8-.2 1.2-.2.4 0 .8.1 1.2.2.6.1.9.3 1.2.6zm-20.3-.7c-.4-.4-.8-.7-1.3-.9-.5-.2-1-.3-1.6-.3s-1.1.1-1.6.3c-.5.2-.9.5-1.3.9s-.7.8-.9 1.3c-.2.5-.3 1-.3 1.6v2h1v-2c0-.4.1-.8.2-1.2.2-.4.4-.7.6-1 .3-.3.6-.5 1-.6.4-.2.8-.2 1.2-.2s.8.1 1.2.2c.4.2.7.4 1 .6.3.3.5.6.6 1 .2.4.2.8.2 1.2v2h1v-2c0-.5-.1-1.1-.3-1.6-.1-.5-.4-.9-.7-1.3zm27.6-59.8c-6.3-2.2-13-3.4-20-3.4-23.6 0-44.1 13.7-53.9 33.6l73.9-9.2v-21z"/></g><g clip-path="url(#p)"><path fill="#B2A58E" d="M816.2 791.8h8l-4-12z"/><path fill="#FF6179" d="M816.6 796.3c.2-.5.5-.9.9-1.3-.4.3-.7.8-.9 1.3zm3.6 5.5c2.2 0 4-1.8 4-4h-8c0 2.2 1.8 4 4 4zm-2.2-7.3c.4-.3.9-.5 1.4-.6-.5.1-1 .3-1.4.6z"/><path fill="#fff" d="M820.2 793.8c-.3 0-.5 0-.8.1-.5.1-1 .3-1.4.6-.2.1-.4.3-.6.5-.4.4-.7.8-.9 1.3s-.3 1-.3 1.6h8c0-2.3-1.7-4.1-4-4.1z"/><circle fill="#FF99AD" cx="803.8" cy="797.8" r="6"/><circle fill="#FF99AD" cx="836.8" cy="797.8" r="6"/><path fill="#B2A58E" d="M832.9 783.7c.3.3.5.6.6 1 .2.4.2.8.2 1.2v2h1v-2c0-.5-.1-1.1-.3-1.6-.2-.5-.5-.9-.9-1.3s-.8-.7-1.3-.9c-.5-.2-1-.3-1.6-.3-.5 0-1.1.1-1.6.3-.5.2-.9.5-1.3.9s-.7.8-.9 1.3c-.2.5-.3 1-.3 1.6v2h1v-2c0-.4.1-.8.2-1.2.2-.4.4-.7.6-1 .3-.3.6-.5 1-.6.4-.2.8-.2 1.2-.2.4 0 .8.1 1.2.2.6.1.9.3 1.2.6zm-20.3-.7c-.4-.4-.8-.7-1.3-.9-.5-.2-1-.3-1.6-.3s-1.1.1-1.6.3c-.5.2-.9.5-1.3.9s-.7.8-.9 1.3c-.2.5-.3 1-.3 1.6v2h1v-2c0-.4.1-.8.2-1.2.2-.4.4-.7.6-1 .3-.3.6-.5 1-.6.4-.2.8-.2 1.2-.2s.8.1 1.2.2c.4.2.7.4 1 .6.3.3.5.6.6 1 .2.4.2.8.2 1.2v2h1v-2c0-.5-.1-1.1-.3-1.6-.1-.5-.4-.9-.7-1.3zm29.6-59v20.2l31.1 7.8c-6.6-12.7-17.6-22.7-31.1-28z"/></g><path fill="#3CA2A2" d="M1300.5 859.8c0-11-2.2-21.6-6.3-31.1-4-9.6-9.9-18.2-17.1-25.4-7.2-7.2-15.9-13.1-25.4-17.1s-20.1-6.3-31.1-6.3-21.6 2.2-31.1 6.3-18.2 9.9-25.4 17.1c-7.2 7.2-13.1 15.9-17.1 25.4-4 9.6-6.3 20.1-6.3 31.1h-.2v130h160v-124c-.1-1.9 0-4 0-6z"/><path fill="#EEE0B7" d="M1197.1 868.4h-8.4v-.3h8.4v-2.5h-8.4v-.3h2.8v-2.5h-5.6v14h8.4V874h-5.6v-.3h8.4v-2.5h-8.4v-.3h8.4v.3h2.8v-2.8z"/><path fill="#B2A58E" d="M1188.7 865.3h2.8v.3h-2.8zm0 2.8h8.4v.3h-8.4zm0 2.8h8.4v.3h-8.4zm0 3.1h8.4v-.3h-8.4z"/><linearGradient id="q" gradientUnits="userSpaceOnUse" x1="1150.5" y1="869.815" x2="1185.875" y2="869.815"><stop offset="0" stop-color="#3CA2A2"/><stop offset="1" stop-color="#66C9B6"/></linearGradient><path fill="url(#q)" d="M1150.5 862.8h35.4v14h-35.4z"/><path fill="#EEE0B7" d="M1249.5 862.8v2.5h2.8v.3h-8.4v2.5h8.4v.3h-11.2v2.8h2.8v-.3h8.4v.3h-8.4v2.5h8.4v.3h-5.6v2.8h8.4v-14z"/><path fill="#B2A58E" d="M1249.5 865.3h2.8v.3h-2.8zm-5.6 2.8h8.4v.3h-8.4zm0 2.8h8.4v.3h-8.4zm8.4 2.8h-8.4v.3h8.4z"/><linearGradient id="r" gradientUnits="userSpaceOnUse" x1="1290.5" y1="869.815" x2="1255.125" y2="869.815"><stop offset="0" stop-color="#3CA2A2"/><stop offset="1" stop-color="#66C9B6"/></linearGradient><path fill="url(#r)" d="M1255.1 862.8h35.4v14h-35.4z"/><circle fill="#fff" cx="1220.5" cy="779.8" r="60"/><circle fill="#EEE0B7" cx="1220.5" cy="794.8" r="40"/><path fill="#B2A58E" d="M1224.5 791.8h-8l4-12z"/><circle fill="#FF6179" cx="1220.5" cy="797.8" r="4"/><path fill="#fff" d="M1220.5 793.8c-2.2 0-4 1.8-4 4h8c0-2.2-1.8-4-4-4z"/><g fill="#FF99AD"><circle cx="1204" cy="797.8" r="6"/><circle cx="1237" cy="797.8" r="6"/></g><path d="M1228 785.8c0-.4.1-.8.2-1.2.2-.4.4-.7.6-1 .3-.3.6-.5 1-.6.4-.2.8-.2 1.2-.2.4 0 .8.1 1.2.2.4.2.7.4 1 .6.3.3.5.6.6 1 .2.4.2.8.2 1.2v2h1v-2c0-.5-.1-1.1-.3-1.6-.2-.5-.5-.9-.9-1.3s-.8-.7-1.3-.9c-.5-.2-1-.3-1.6-.3-.5 0-1.1.1-1.6.3s-.9.5-1.3.9-.7.8-.9 1.3c-.2.5-.3 1-.3 1.6v2h1v-2zm-21 0c0-.4.1-.8.2-1.2.2-.4.4-.7.6-1 .3-.3.6-.5 1-.6.4-.2.8-.2 1.2-.2.4 0 .8.1 1.2.2.4.2.7.4 1 .6.3.3.5.6.6 1 .2.4.2.8.2 1.2v2h1v-2c0-.5-.1-1.1-.3-1.6-.2-.5-.5-.9-.9-1.3s-.8-.7-1.3-.9c-.5-.2-1-.3-1.6-.3-.5 0-1.1.1-1.6.3s-.9.5-1.3.9-.7.8-.9 1.3c-.2.5-.3 1-.3 1.6v2h1v-2z" fill="#B2A58E"/><path fill="#E97F02" d="M1184.4 1052.8h130.2v7.2h-130.2z"/><path fill="#490A3D" d="M1312 1022.1c-1.8 0-3.3-1.5-3.3-3.3v-9.8c0-1.8-1.5-3.3-3.3-3.3H1198c-1.8 0-3.3 1.5-3.3 3.3v9.8c0 1.8-1.5 3.3-3.3 3.3h-7.9c-1.8 0-3.3 1.5-3.3 3.3v26c0 1.8 1.5 3.3 3.3 3.3h131.9c1.8 0 3.3-1.5 3.3-3.3v-26c0-1.8-1.5-3.3-3.3-3.3h-3.4zm8.4 80.1c0 2.2-1.8 4-4 4H1186c-2.2 0-4-1.8-4-4v-40.8c0-2.2 1.8-4 4-4h130.4c2.2 0 4 1.8 4 4v40.8z"/><path fill="#E6AC27" d="M1252 1061.7h-3.4c-2.2 0-4-1.8-4-4v-3.4c0-2.2 1.8-4 4-4h3.4c2.2 0 4 1.8 4 4v3.4c0 2.2-1.8 4-4 4z"/><circle fill="#031634" cx="1250.3" cy="1056" r="2.8"/><circle fill="#E6AC27" cx="1203.6" cy="1013.8" r="2"/><circle fill="#E6AC27" cx="1211.7" cy="1013.8" r="2"/><circle fill="#E6AC27" cx="1219.9" cy="1013.8" r="2"/><circle fill="#E6AC27" cx="1228" cy="1013.8" r="2"/><circle fill="#E6AC27" cx="1236.1" cy="1013.8" r="2"/><circle fill="#E6AC27" cx="1244.3" cy="1013.8" r="2"/><circle fill="#E6AC27" cx="1252.4" cy="1013.8" r="2"/><circle fill="#E6AC27" cx="1260.5" cy="1013.8" r="2"/><circle fill="#E6AC27" cx="1268.7" cy="1013.8" r="2"/><circle fill="#E6AC27" cx="1276.8" cy="1013.8" r="2"/><circle fill="#E6AC27" cx="1285" cy="1013.8" r="2"/><circle fill="#E6AC27" cx="1293.1" cy="1013.8" r="2"/><circle fill="#E6AC27" cx="1301.2" cy="1013.8" r="2"/><g fill="#E6AC27"><circle cx="1190.4" cy="1065.1" r="2"/><circle cx="1190.4" cy="1073.2" r="2"/><circle cx="1190.4" cy="1081.4" r="2"/><circle cx="1190.4" cy="1089.5" r="2"/><circle cx="1190.4" cy="1098.5" r="2"/><circle cx="1198.6" cy="1098.5" r="2"/><circle cx="1206.7" cy="1098.5" r="2"/><circle cx="1214.9" cy="1098.5" r="2"/><circle cx="1223" cy="1098.5" r="2"/><circle cx="1231.1" cy="1098.5" r="2"/><circle cx="1239.3" cy="1098.5" r="2"/><circle cx="1247.4" cy="1098.5" r="2"/><circle cx="1255.6" cy="1098.5" r="2"/><circle cx="1263.7" cy="1098.5" r="2"/><circle cx="1271.8" cy="1098.5" r="2"/><circle cx="1279.4" cy="1098.5" r="2"/><circle cx="1287.5" cy="1098.5" r="2"/><circle cx="1295.7" cy="1098.5" r="2"/><circle cx="1303.8" cy="1098.5" r="2"/><circle cx="1311.9" cy="1098.5" r="2"/><circle cx="1311.9" cy="1090.3" r="2"/><circle cx="1311.9" cy="1082.2" r="2"/><circle cx="1311.9" cy="1074.1" r="2"/><circle cx="1311.9" cy="1065.9" r="2"/></g><path fill="#8A9B0F" d="M1250.4 1025.9l2.5 5.4 5.6.8-4.1 4.2 1 5.9-5-2.8-5.1 2.8 1-5.9-4.1-4.2 5.7-.8z"/><path fill="#E97F02" d="M959.3 1052.8h130.2v7.2H959.3z"/><path fill="#490A3D" d="M1086.8 1022.1c-1.8 0-3.3-1.5-3.3-3.3v-9.8c0-1.8-1.5-3.3-3.3-3.3H972.9c-1.8 0-3.3 1.5-3.3 3.3v9.8c0 1.8-1.5 3.3-3.3 3.3h-7.9c-1.8 0-3.3 1.5-3.3 3.3v26c0 1.8 1.5 3.3 3.3 3.3h131.9c1.8 0 3.3-1.5 3.3-3.3v-26c0-1.8-1.5-3.3-3.3-3.3h-3.5zm8.4 80.1c0 2.2-1.8 4-4 4H960.9c-2.2 0-4-1.8-4-4v-40.8c0-2.2 1.8-4 4-4h130.4c2.2 0 4 1.8 4 4v40.8z"/><path fill="#E6AC27" d="M1026.9 1061.7h-3.4c-2.2 0-4-1.8-4-4v-3.4c0-2.2 1.8-4 4-4h3.4c2.2 0 4 1.8 4 4v3.4c0 2.2-1.8 4-4 4z"/><circle fill="#031634" cx="1025.2" cy="1056" r="2.8"/><circle fill="#E6AC27" cx="978.4" cy="1013.8" r="2"/><circle fill="#E6AC27" cx="986.6" cy="1013.8" r="2"/><circle fill="#E6AC27" cx="994.7" cy="1013.8" r="2"/><circle fill="#E6AC27" cx="1002.9" cy="1013.8" r="2"/><circle fill="#E6AC27" cx="1011" cy="1013.8" r="2"/><circle fill="#E6AC27" cx="1019.1" cy="1013.8" r="2"/><circle fill="#E6AC27" cx="1027.3" cy="1013.8" r="2"/><circle fill="#E6AC27" cx="1035.4" cy="1013.8" r="2"/><circle fill="#E6AC27" cx="1043.6" cy="1013.8" r="2"/><circle fill="#E6AC27" cx="1051.7" cy="1013.8" r="2"/><circle fill="#E6AC27" cx="1059.8" cy="1013.8" r="2"/><circle fill="#E6AC27" cx="1068" cy="1013.8" r="2"/><circle fill="#E6AC27" cx="1076.1" cy="1013.8" r="2"/><g fill="#E6AC27"><circle cx="965.3" cy="1065.1" r="2"/><circle cx="965.3" cy="1073.2" r="2"/><circle cx="965.3" cy="1081.4" r="2"/><circle cx="965.3" cy="1089.5" r="2"/><circle cx="965.3" cy="1098.5" r="2"/><circle cx="973.5" cy="1098.5" r="2"/><circle cx="981.6" cy="1098.5" r="2"/><circle cx="989.7" cy="1098.5" r="2"/><circle cx="997.9" cy="1098.5" r="2"/><circle cx="1006" cy="1098.5" r="2"/><circle cx="1014.2" cy="1098.5" r="2"/><circle cx="1022.3" cy="1098.5" r="2"/><circle cx="1030.4" cy="1098.5" r="2"/><circle cx="1038.6" cy="1098.5" r="2"/><circle cx="1046.7" cy="1098.5" r="2"/><circle cx="1054.2" cy="1098.5" r="2"/><circle cx="1062.4" cy="1098.5" r="2"/><circle cx="1070.5" cy="1098.5" r="2"/><circle cx="1078.7" cy="1098.5" r="2"/><circle cx="1086.8" cy="1098.5" r="2"/><circle cx="1086.8" cy="1090.3" r="2"/><circle cx="1086.8" cy="1082.2" r="2"/><circle cx="1086.8" cy="1074.1" r="2"/><circle cx="1086.8" cy="1065.9" r="2"/></g><path fill="#8A9B0F" d="M1023.8 1035.5c-2.6-2.6-3.2-6.4-1.7-9.6-.9.4-1.8 1-2.5 1.7-3.3 3.3-3.3 8.7 0 12.1 3.3 3.3 8.7 3.3 12.1 0 .7-.7 1.3-1.6 1.7-2.5-3.2 1.4-7 .8-9.6-1.7z"/><path fill="#E97F02" d="M724.2 1052.8h130.2v7.2H724.2z"/><path fill="#490A3D" d="M851.7 1022.1c-1.8 0-3.3-1.5-3.3-3.3v-9.8c0-1.8-1.5-3.3-3.3-3.3H737.8c-1.8 0-3.3 1.5-3.3 3.3v9.8c0 1.8-1.5 3.3-3.3 3.3h-7.9c-1.8 0-3.3 1.5-3.3 3.3v26c0 1.8 1.5 3.3 3.3 3.3h131.9c1.8 0 3.3-1.5 3.3-3.3v-26c0-1.8-1.5-3.3-3.3-3.3h-3.5zm8.4 80.1c0 2.2-1.8 4-4 4H725.8c-2.2 0-4-1.8-4-4v-40.8c0-2.2 1.8-4 4-4h130.4c2.2 0 4 1.8 4 4v40.8z"/><path fill="#E6AC27" d="M791.8 1061.7h-3.4c-2.2 0-4-1.8-4-4v-3.4c0-2.2 1.8-4 4-4h3.4c2.2 0 4 1.8 4 4v3.4c0 2.2-1.8 4-4 4z"/><circle fill="#031634" cx="790.1" cy="1056" r="2.8"/><circle fill="#E6AC27" cx="743.3" cy="1013.8" r="2"/><circle fill="#E6AC27" cx="751.5" cy="1013.8" r="2"/><circle fill="#E6AC27" cx="759.6" cy="1013.8" r="2"/><circle fill="#E6AC27" cx="767.7" cy="1013.8" r="2"/><circle fill="#E6AC27" cx="775.9" cy="1013.8" r="2"/><circle fill="#E6AC27" cx="784" cy="1013.8" r="2"/><circle fill="#E6AC27" cx="792.2" cy="1013.8" r="2"/><circle fill="#E6AC27" cx="800.3" cy="1013.8" r="2"/><circle fill="#E6AC27" cx="808.4" cy="1013.8" r="2"/><circle fill="#E6AC27" cx="816.6" cy="1013.8" r="2"/><circle fill="#E6AC27" cx="824.7" cy="1013.8" r="2"/><circle fill="#E6AC27" cx="832.9" cy="1013.8" r="2"/><circle fill="#E6AC27" cx="841" cy="1013.8" r="2"/><g fill="#E6AC27"><circle cx="730.2" cy="1065.1" r="2"/><circle cx="730.2" cy="1073.2" r="2"/><circle cx="730.2" cy="1081.4" r="2"/><circle cx="730.2" cy="1089.5" r="2"/><circle cx="730.2" cy="1098.5" r="2"/><circle cx="738.3" cy="1098.5" r="2"/><circle cx="746.5" cy="1098.5" r="2"/><circle cx="754.6" cy="1098.5" r="2"/><circle cx="762.8" cy="1098.5" r="2"/><circle cx="770.9" cy="1098.5" r="2"/><circle cx="779" cy="1098.5" r="2"/><circle cx="787.2" cy="1098.5" r="2"/><circle cx="795.3" cy="1098.5" r="2"/><circle cx="803.5" cy="1098.5" r="2"/><circle cx="811.6" cy="1098.5" r="2"/><circle cx="819.1" cy="1098.5" r="2"/><circle cx="827.3" cy="1098.5" r="2"/><circle cx="835.4" cy="1098.5" r="2"/><circle cx="843.5" cy="1098.5" r="2"/><circle cx="851.7" cy="1098.5" r="2"/><circle cx="851.7" cy="1090.3" r="2"/><circle cx="851.7" cy="1082.2" r="2"/><circle cx="851.7" cy="1074.1" r="2"/><circle cx="851.7" cy="1065.9" r="2"/></g><path fill="#8A9B0F" d="M782 1042.2l8.1-16.3 8.2 16.3z"/><path fill="#031634" d="M1044.1 422.6h27.2c0-5.6-2.3-10.5-5.7-13.6.8-1.8 1.2-3.8 1.2-6.1 0-2.7-.7-5.1-1.7-7.1l1.7-7.1-6.4 2.7c-.8-.3-1.7-.5-2.6-.5-.9 0-1.8.2-2.6.5l-6.4-2.7 1.7 7.1c-1.1 2-1.7 4.5-1.7 7.1 0 2.2.4 4.3 1.2 6.1-3.6 3.1-5.9 8-5.9 13.6z"/><path d="M1055.5 400.4c0 .5-.4.8-.8.8s-.8-.4-.8-.8h-.8c0 .9.8 1.7 1.7 1.7s1.7-.8 1.7-1.7h-1zm6 0c0 .5-.4.8-.8.8s-.8-.4-.8-.8h-.8c0 .9.8 1.7 1.7 1.7s1.7-.8 1.7-1.7h-1z" fill="#F6D86B"/></svg>