<svg xmlns="http://www.w3.org/2000/svg" width="300" height="300" viewBox="0 0 300 300"><path fill="#B2A58E" d="M220.939 214.076a.293.293 0 0 1-.293-.292v-1.171c0-.16.132-.293.293-.293s.293.133.293.293v1.171a.293.293 0 0 1-.293.292zm1.186 0a.293.293 0 0 1-.293-.292v-1.171c0-.16.132-.293.293-.293.16 0 .293.133.293.293v1.171a.294.294 0 0 1-.293.292zm1.463-.585a.294.294 0 0 1-.293-.292v-1.171c0-.161.132-.293.293-.293s.293.132.293.293v1.171c0 .16-.132.292-.293.292zm-4.111 0a.294.294 0 0 1-.293-.292v-1.171c0-.161.132-.293.293-.293.16 0 .293.132.293.293v1.171c0 .16-.133.292-.293.292z"/><path fill="#FFF" d="M220.354 213.199l-2.033-1.171-1.186-2.034v-2.355l1.186-2.034 2.033-1.186h2.356l2.034 1.186 1.17 2.034v2.355l-1.17 2.034-2.034 1.171h-2.356z"/><path fill="#B2A58E" d="M220.749 208.809l-1.36-.775-.791-1.361v-1.564l.791-1.361 1.36-.79h1.565l1.361.79.775 1.361v1.564l-.775 1.361-1.361.775h-1.565z"/><circle fill="#FFF" cx="220.72" cy="205.59" r=".293"/><circle fill="#B2A58E" cx="220.72" cy="205.59" r=".146"/><circle fill="#FFF" cx="222.33" cy="205.59" r=".293"/><circle fill="#B2A58E" cx="222.33" cy="205.59" r=".146"/><path fill="#B2A58E" d="M218.086 203.688l-1.463.731 1.463.731 1.463-.731-1.463-.731zm6.877 0l-1.463.731 1.463.731 1.464-.731-1.464-.731z"/><path fill="#031634" d="M300 206.76v-1.463h-70.236v1.463h2.926v5.854h-20.516v-76.822H87.796v76.822H67.311v-5.854h2.926v-2.926H.029v2.926h2.897v5.854H0v7.316h300v-7.316h-2.927v-5.854H300zm-288.294 5.853H5.853v-5.854h5.853v5.854zm8.78 0h-5.853v-5.854h5.853v5.854zm8.78 0h-5.854v-5.854h5.854v5.854zm8.779 0h-5.853v-5.854h5.853v5.854zm8.78 0h-5.853v-5.854h5.853v5.854zm8.779 0h-5.853v-5.854h5.853v5.854zm8.78 0h-5.853v-5.854h5.853v5.854zm177.085 0h-5.853v-5.854h5.853v5.854zm8.779 0h-5.853v-5.854h5.853v5.854zm8.78 0h-5.853v-5.854h5.853v5.854zm8.781 0h-5.854v-5.854h5.854v5.854zm8.779 0h-5.854v-5.854h5.854v5.854zm8.779 0h-5.854v-5.854h5.854v5.854zm8.779 0h-5.853v-5.854h5.853v5.854z"/><path fill="#FFAA2E" d="M149.985 142.962c-20.603 0-37.313 16.71-37.313 37.313v29.266h74.627v-29.266c0-20.603-16.711-37.313-37.314-37.313z"/><path fill="#033649" d="M76.646 138.718l17.223-34.431h111.896l17.207 34.431H76.646z"/><path fill="#FFAA2E" d="M149.81 113.389a7.456 7.456 0 0 0-7.462 7.462v5.853h14.925v-5.853a7.457 7.457 0 0 0-7.463-7.462z"/><path fill="#036564" d="M142.347 126.705c0 4.126 3.336 7.463 7.462 7.463s7.463-3.336 7.463-7.463h-14.925z"/><path fill="#CDB380" d="M203.029 235.148H96.21L77.188 219.93h143.4l-17.559 15.218z"/><path fill="#B2A58E" d="M145.522 194.732h.205v.015h-.205v-.015zm-.409.206h.614v.014h-.614v-.014zm0 .205h.614v.014h-.614v-.014zm.599.204h-.6v.015h.6v-.015z"/><path fill="#EEE0B7" d="M154.932 194.951h-.615v-.014h.615v-.19h-.615v-.015h.205v-.19h-2.313v-.951a3.659 3.659 0 1 0-4.389 0v.951h-2.312v.19h.205v.015h-.615v.19h.615v.014h-.82v.205h.205v-.014h.615v.014h-.615v.19h.615v.015h-.41v.205h2.517v.951h4.389v-.951h2.518v-.205h-.41v-.015h.615v-.19h-.615v-.014h.615v.014h.205v-.205h-.205z"/><path fill="#B2A58E" d="M154.331 194.732h.205v.015h-.205v-.015zm0 .206h.614v.014h-.614v-.014zm0 .205h.614v.014h-.614v-.014zm0 .218h.601v-.015h-.601v.015z"/><path fill="#EEE0B7" d="M150.454 201.199c0 .483.395.879.878.879a.881.881 0 0 0 .877-.879v-1.756h-1.755v1.756zm-2.634 0c0 .483.395.879.878.879s.878-.396.878-.879v-1.756h-1.756v1.756z"/><path fill="#FFF" d="M147.82 199.151v.292h4.389v-2.926h-4.389v2.634z"/><path fill="#B2A58E" d="M150.307 191.543h-.585l.292-.879.293.879zm.263-.439c0-.029 0-.059.016-.088l.043-.073c.016-.015.045-.029.073-.044.029-.015.059-.015.088-.015s.059 0 .088.015l.073.044c.015.015.029.044.044.073s.015.059.015.088v.146h.073v-.146c0-.044-.015-.073-.029-.117s-.029-.073-.059-.088c-.029-.029-.059-.044-.088-.059s-.073-.029-.117-.029-.073.015-.116.029c-.029.015-.074.029-.088.059a.302.302 0 0 0-.059.088.256.256 0 0 0-.03.117v.146h.073v-.146zm-1.536 0c0-.029 0-.059.015-.088l.044-.073c.015-.015.044-.029.073-.044s.059-.015.088-.015.059 0 .087.015l.073.044c.015.015.029.044.044.073s.015.059.015.088v.146h.073v-.146c0-.044-.015-.073-.029-.117s-.029-.073-.059-.088c-.029-.029-.059-.044-.088-.059s-.073-.029-.117-.029-.073.015-.117.029c-.029.015-.073.029-.088.059-.029.029-.044.059-.059.088s-.029.073-.029.117v.146h.073v-.146h.001z"/><circle fill="#FF99AD" cx="148.815" cy="191.981" r=".438"/><circle fill="#FF99AD" cx="151.229" cy="191.981" r=".438"/><circle fill="none" cx="150.015" cy="190.664" r="3.658"/><circle fill="#F90" cx="149.985" cy="192.054" r=".366"/><path fill="#FFB966" d="M150.132 191.938v.176a.231.231 0 0 1 .073.16c0 .117-.103.22-.22.22s-.219-.103-.219-.22a.23.23 0 0 1 .073-.16v-.176a.37.37 0 0 0-.219.336c0 .205.161.366.366.366s.366-.161.366-.366a.37.37 0 0 0-.22-.336z"/><path fill="#031634" d="M155.137 200.907h-10.244l4.39 4.39-4.39 4.391h1.463l3.658-3.658 3.658 3.658h1.464l-4.391-4.391 4.392-4.39z"/><path fill="#F7E008" d="M154.404 200.907h-8.779v-.585l.556.146.542-.146.556.146.542-.146.556.146.541-.146.556.146.542-.146.556.146.542-.146.556.146.541-.146.557.146.541-.146.557.146.541-.146v.585z"/></svg>