<?xml version="1.0" encoding="utf-8"?>
<!-- Generator: Adobe Illustrator 16.0.0, SVG Export Plug-In . SVG Version: 6.00 Build 0)  -->
<!DOCTYPE svg PUBLIC "-//W3C//DTD SVG 1.1//EN" "http://www.w3.org/Graphics/SVG/1.1/DTD/svg11.dtd">
<svg version="1.1" id="Capa_1" xmlns="http://www.w3.org/2000/svg" xmlns:xlink="http://www.w3.org/1999/xlink" x="0px" y="0px"
	 width="300px" height="300px" viewBox="0 0 300 300" enable-background="new 0 0 300 300" xml:space="preserve">
<g>
	<g>
		<path fill="#DFE3EB" d="M235.737,287.085c0,5.499-38.031,9.956-84.947,9.956c-46.915,0-84.946-4.457-84.946-9.956
			c0-5.5,38.032-9.957,84.946-9.957C197.706,277.128,235.737,281.585,235.737,287.085"/>
		<rect x="117.516" y="245.359" fill="#F2AE94" width="22.857" height="31.512"/>
		<rect x="161.21" y="245.359" fill="#F2AE94" width="22.856" height="31.512"/>
		<path fill="#D99985" d="M128.703,280.959c0.967,0,1.753,0.781,1.753,1.751v4.375h18.382c0-10.986-8.914-19.892-19.893-19.892
			c-10.982,0-19.896,8.905-19.896,19.892h17.902v-4.375C126.951,281.74,127.733,280.959,128.703,280.959"/>
		<path fill="#D99985" d="M172.397,280.959c0.966,0,1.753,0.781,1.753,1.751v4.375h18.383c0-10.986-8.903-19.892-19.898-19.892
			c-10.976,0-19.888,8.905-19.888,19.892h17.899v-4.375C170.646,281.74,171.428,280.959,172.397,280.959"/>
		<path fill="#F2AE94" d="M219.717,203.293c0.002-0.002,0.002-0.004,0.003-0.006c-0.01-0.11-0.029-0.219-0.042-0.329
			c-0.014-0.116-0.029-0.235-0.045-0.355c-0.427-3.757-1.25-7.411-2.441-10.933c-0.033-0.11-0.063-0.215-0.097-0.325
			c-0.003,0.011-0.006,0.019-0.009,0.028c-8.522-24.711-34.959-42.733-66.298-42.733c-36.189,0-65.863,24.027-68.928,54.647
			c-0.177,1.725-0.306,3.466-0.306,5.236c0,33.069,30.992,59.881,69.234,59.881c38.243,0,69.238-26.812,69.238-59.881
			C220.026,207.69,220.022,205.911,219.717,203.293 M162.749,238.636c-3.879,0.508-7.873,0.763-11.961,0.763
			C154.859,239.398,158.853,239.134,162.749,238.636"/>
		<path fill="#FDC19F" d="M40.858,167.731c0,0,6.711-46.102,32.679-46.102h34.688c0,0-11.926,46.102-37.895,46.102H40.858z"/>
		<path fill="#F2AE94" d="M52.798,159.564c0,0,4.33-29.767,21.095-29.767h22.396c0,0-7.703,29.767-24.468,29.767H52.798z"/>
		<path fill="#FDC19F" d="M260.723,167.731c0,0-6.707-46.102-32.677-46.102h-34.694c0,0,11.933,46.102,37.901,46.102H260.723z"/>
		<path fill="#F2AE94" d="M248.785,159.564c0,0-4.333-29.767-21.099-29.767h-22.395c0,0,7.704,29.767,24.469,29.767H248.785z"/>
		<path fill="#FDC19F" d="M209.363,147.791c0.303-1.789,0.515-3.595,0.515-5.442c0-23.935-26.453-43.333-59.09-43.333
			c-32.63,0-59.083,19.399-59.083,43.333c0,1.848,0.206,3.654,0.514,5.442C85.277,155.828,81.2,165.356,81.2,175.61
			c0,28.524,31.159,51.647,69.588,51.647c38.436,0,69.596-23.123,69.596-51.647C220.384,165.356,216.308,155.828,209.363,147.791"/>
		<path fill="#3C3C3B" d="M116.651,155.914c0,3.989-3.228,7.222-7.223,7.222c-3.987,0-7.219-3.232-7.219-7.222
			c0-3.987,3.232-7.222,7.219-7.222C113.423,148.692,116.651,151.927,116.651,155.914"/>
		<path fill="#3C3C3B" d="M199.372,155.914c0,3.989-3.229,7.222-7.219,7.222c-3.995,0-7.222-3.232-7.222-7.222
			c0-3.987,3.227-7.222,7.222-7.222C196.143,148.692,199.372,151.927,199.372,155.914"/>
		<path fill="#FFFFFF" d="M114.412,154.031c0,1.506-1.22,2.727-2.724,2.727c-1.508,0-2.731-1.221-2.731-2.727
			c0-1.508,1.223-2.729,2.731-2.729C113.191,151.303,114.412,152.523,114.412,154.031"/>
		<path fill="#FFFFFF" d="M197.605,154.031c0,1.506-1.222,2.727-2.729,2.727c-1.504,0-2.727-1.221-2.727-2.727
			c0-1.508,1.223-2.729,2.727-2.729C196.384,151.303,197.605,152.523,197.605,154.031"/>
		<path fill="#F2AE94" d="M150.788,217.194c-22.518,0-40.161-11.633-40.161-26.483c0-14.852,17.643-26.482,40.161-26.482
			c22.524,0,40.165,11.631,40.165,26.482C190.953,205.562,173.313,217.194,150.788,217.194"/>
		<path fill="#D99985" d="M137.334,187.209c0,3.143-2.55,5.69-5.691,5.69c-3.144,0-5.689-2.548-5.689-5.69
			c0-3.142,2.545-5.689,5.689-5.689C134.784,181.52,137.334,184.067,137.334,187.209"/>
		<path fill="#D99985" d="M176.506,187.209c0,3.143-2.546,5.69-5.691,5.69c-3.144,0-5.689-2.548-5.689-5.69
			c0-3.142,2.546-5.689,5.689-5.689C173.96,181.52,176.506,184.067,176.506,187.209"/>
	</g>
	<g id="XMLID_9374_">
		<path id="XMLID_9582_" fill="#FCFCFA" d="M187.295,67.513c0.795,0.682,1.108,0.812,0.432-0.123
			c1.608,1.319,2.232,1.57,1.029-0.485c2.678,2.652,3.532,2.997,2.403-1.049c2.996,4.812,4.006,5.23,6.479-0.262
			c-0.071,1.274-0.088,2.313-0.019,3.146c0.068,0.832,0.228,1.45,0.475,1.857c0.286,0.482,0.665,0.745,0.933,0.246
			c0.766,0.718,1.423,0.675,2.047-0.467c1.017,0.81,2.001,0.519,3.23-0.392c-0.977,1.248-1.601,1.821-2.132,0.482
			c-0.174,2.25-0.253,2.594-0.468,0.25c0.546,2.856,0.958,3.034,1.606-0.003c0.608,3.289,1.454,3.366,3.525,0.606
			c-2.047,3.192-2.297,3.499-1.11-0.119c-0.764,4.186-0.093,4.444,2.889,1.231c-2.027,3.698-1.744,3.919,1.337,1.009
			c-2.387,3.363-1.975,3.594,1.483,1.488c-2.306,2.78-1.646,3.208,1.621,2.575c-2.253,1.417-1.895,1.772,0.588,1.642
			c-2.123,0.787-2.064,1.324,0.202,2.02c-2.354,0.68-2.497,1.513-0.495,3.152c-0.816,0.079-1.394,0.251-1.76,0.521
			c-0.371,0.272-0.529,0.649-0.308,0.927c-0.182,0.703,0.018,1.309,0.938,1.616c-1.442,0.43-1.974,0.723-0.825-0.037
			c-1.817,1.739-1.957,2.426,0.619,1.677c-2.992,1.933-3.271,2.429,0.231,1.518c-3.991,2.003-4.208,2.598,0.2,2.986
			c-4.968,1.143-5.305,2.063-1.953,5.865c-0.999-0.51-1.767-0.839-2.297-1.038c-0.608-0.076-0.976-0.03-1.002-0.144
			c-0.381,0.604-0.417,1.043,0.297,0.562c-0.524,1.768-0.292,2.617,1.83,1.687c-2.413,1.099-2.854,0.583-2.097-1.577
			c-1.352,1.816-1.506,1.982-0.316-0.054c-1.287,2.978-1.227,3.748,1.554,1.288c-3.031,2.582-3.251,2.261-1.63-1.116
			c-1.854,3.67-1.861,4.278,1.125,0.929c-3.063,3.798-3.142,3.642-0.801-0.567c-2.381,4.386-2.347,4.729,0.919,0.736
			c-3.182,4.106-3.017,4.738,1.593,1.575c-4.317,4.348-4.216,4.776,1.634,2.748c-5.642,2.946-5.532,3.43,0.825,3.954
			c-6.088,0.796-5.923,1.65-1.243,5.325c-1.471-0.643-2.436-0.977-2.86-1.096c-0.66,0.077-0.782,0.364-0.202,0.688
			c-0.132,0.875,0.435,1.785,1.651,2.86c-1.17-0.508-1.688-0.853-1.27-1.341c-1.035,0.337-1.129,0.529-0.095,0.436
			c-0.907,0.924-0.682,1.563,0.756,2.101c-1.635-0.2-1.925-0.268-0.612-0.559c-1.592,0.699-1.588,1.177,0.167,1.515
			c-2.156,0.198-2.409,0.668-0.514,0.986c-2.339,0.092-2.5,0.196-0.293,0.338c-2.641,0.09-2.916,0.219-0.592,0.514
			c-2.989-0.01-3.377,0.145-1.061,0.818c-3.161-0.36-3.609-0.204-1.789,1.115c-2.799-0.979-3.335-0.802-3.044,1.331
			c-1.435-1.769-2.045-1.577-3.777,0.907c0.444-2.089-0.237-1.886-2.99,0.203c0.662-0.836,0.806-1.201,0.469-1.183
			c-0.345,0.017-1.169,0.415-2.084,1.127c0.136-0.493,0.18-0.677,0.139-0.65c-0.54,0.024-1.168,0.255-0.678,0.693
			c-1.325-0.213-1.534-0.216-0.137-0.041c-2.058-0.056-2.503,0.065-0.323,0.504c-3.069-0.208-3.514-0.096-0.394,0.723
			c-4.024-0.587-4.489-0.467-0.597,1.067c-5.202-1.203-6.065-0.989-2.795,3.283c-5.024-3.84-5.919-3.623-7.655,2.458
			c-0.022-1.408-0.095-2.456-0.249-3.173c-0.171-0.711-0.424-1.093-0.492-1.19c-0.694-0.078-1.203,0.131-0.51,0.654
			c-2.042,0.415-2.885,1.143-1.032,3.155c-2.128-2.181-1.723-2.912,0.769-3.238c-2.333-0.475-2.585-0.551-0.125-0.376
			c-3.559,0.193-4.405,0.632-0.711,2.437c-4.095-1.9-3.98-2.208,0.367-2.146c-4.896-0.167-5.563,0.037-0.521,1.261
			c-6.015-1.016-6.327-1.006-0.361,0.311c-6.774-1.2-7.266-1.1-1.759,2.39c-4.66-2.119-6.655-2.735-9.238-1.455
			c-0.647,0.322-1.326,0.761-1.984,1.327c-0.882,0.563-1.736,1.247-1.537,2.376c-0.201-1.438,0.477-2.269,1.167-2.859
			c0.064-0.575,0.135-0.897,0.104-1.04c-0.424-0.092-0.953,0.003-0.815,0.159c-0.891,0.188-1.612,0.389-1.873,0.638
			c-0.339,0.232-0.218,0.505,0.582,0.835c-0.903-0.36-1.183-0.639-0.803-0.844c-0.009-0.275,0.641-0.483,1.601-0.692
			c-0.704-0.003-1.1-0.01-1.137-0.034c-0.053-0.032,0.253-0.084,0.943-0.173c-1.219,0.198-2.048,0.361-1.632,0.581
			c-0.887,0.01-0.532,0.08,0.614,0.093c-1.37-0.007-2.022-0.038-0.812,0.081c-1.133-0.304-0.397-0.456,1.023-0.702
			c-1.104,0.162-1.908,0.284-1.041,0.576c-1.791-0.152-1.915-0.126-0.075,0.125c-1.332-0.318-0.706-0.41,0.573-0.533
			c-1.615,0.183-2.579,0.333-0.788,0.929c-2.879-0.432-3.002-0.417-0.082,0.153c-2.307-0.674-1.57-0.795,0.517-0.849
			c-2.398,0.104-3.441,0.275-0.749,1.342c-3.965-0.86-4.185-0.825-0.217,0.449c-3.645-1.322-3.098-1.412,0.445-0.927
			c-3.693-0.46-4.543-0.322-0.877,1.75c-5.168-1.827-5.816-1.727-1.671,2.323c-5.437-3.843-6.071-3.74-4.193,2.867
			c-3.352-6.379-4.177-6.247-7.732,0.049c3.231-6.247,3.59-6.309,2.839,0.634c0.735-6.945,0.355-6.892-3.084-0.736
			c0.958-2.962,1.145-4.402,0.475-4.741c-0.336-0.166-0.886-0.057-1.204,0.38c-1.241,0.223-2.247,0.774-1.796,2.434
			c-0.5-1.654,0.428-2.196,1.671-2.402c0.056-0.488,0.434-0.645,0.666-0.558c-0.031,0.036-0.208,0.314-0.406,0.893
			c-0.709,0.441-1.444,1.189-1.689,2.651c0.098-1.443,0.686-2.172,1.454-2.56c-0.114-0.633-0.051-0.919,0.217-0.942
			c-0.628-0.188-1.052-0.106-0.565,0.385c-1.784-0.034-2.656,0.347-1.386,2.004c-1.234-1.785-0.479-2.196,1.28-2.081
			c-0.989-0.517-0.971-0.507,0.013,0.027c-1.686-0.078-2.405,0.369-1.282,2.163c-1.306-1.777-0.763-2.209,1.097-2.034
			c-1.429-0.645-1.545-0.684-0.068-0.13c-2.265-0.323-2.947-0.049-1.039,1.605c-1.92-1.8-1.551-2.068,0.777-1.489
			c-2.496-0.648-3.025-0.458-0.792,1.2c-2.637-1.617-2.508-1.769,0.418-0.896c-3.158-0.94-3.518-0.86-0.505,0.639
			c-3.697-1.431-4.021-1.449-0.474,0.33c-4.315-1.755-4.765-1.72-1.14,1.004c-4.732-2.63-5.386-2.585-3.661,2.02
			c-3.02-4.517-3.655-4.484-5.903,0.426c0.249-1.216,0.398-2.122,0.416-2.749c0.018-0.625-0.103-0.976-0.319-1.044
			c-0.347-0.111-0.795,0.055-0.872,0.682c-1.204,0.167-2.042,0.799-1.985,2.558c-0.106-2.03,0.507-2.763,1.774-2.752
			c-0.854-0.839-1.051-0.935-0.137-0.165c-2.122-0.413-3.133,0.037-2.165,2.755c-1.759-2.711-1.535-3.16,1.285-1.962
			c-2.961-1.79-3.325-1.935-0.235-0.101c-4.196-1.951-4.947-1.923-1.793,1.691c-4.37-3.71-4.951-3.811-2.64,1.308
			c-3.651-5.287-4.407-5.35-7.363,0.239c0.121-1.166,0.155-2.108,0.107-2.85c-0.078-0.763-0.239-1.327-0.046-1.464
			c-0.75-0.686-1.144-0.946-0.408-0.375c-1.779-0.856-2.435-0.881-1.091,0.753c-2.937-1.528-3.879-1.394-2.907,2.024
			c-1.188-3.696-0.753-4.036,2.238-1.916c-2.791-2.626-3.032-2.795-0.194-0.234c-3.792-2.811-4.504-2.889-2.669,1.294
			c-0.668-1.116-1.187-1.962-1.562-2.537c-0.375-0.572-0.603-0.874-0.58-0.799c-0.216-0.12-0.17,0.142,0.014,0.688
			c0.173,0.537,0.484,1.365,0.922,2.483c-0.655-1.206-1.178-2.127-1.489-2.625c-0.588-0.752-0.966-1.089-0.57-0.43
			c-1.099-0.74-1.433-0.496-1.081,0.926c-1.076-0.336-1.469,0.497-1.819,1.889c-0.146-1.296-0.217-2.145,0.567-1.353
			c-1.064-2.184-1.283-2.727,0.107-0.684c-2.02-2.912-2.433-3.23-1.007,0.056c-2.506-3.769-3.171-3.932-3.361,0.61
			c-1.436-4.784-2.399-4.866-5.933-1.121c3.506-4.053,4.127-4.271,3.656,0.531c0.91-5.253,0.726-5.484-1.585-0.923
			c1.305-5.081,0.479-5.365-5.053-3.651c1.286-0.526,2.257-0.934,2.917-1.22c0.655-0.288,0.997-0.46,1.026-0.509
			c0.024-0.057-0.263,0.003-0.868,0.178c-0.605,0.178-1.527,0.465-2.773,0.865c1.153-0.526,1.986-0.935,2.503-1.235
			c0.522-0.352,0.727-0.598,0.639-0.509c-0.126-0.454-0.548-0.582-1.301-0.183c-0.705-0.585-1.741-0.648-3.179-0.428
			c1.658-0.385,2.672-0.488,3.121,0.217c0.533-0.938,0.497-1.068-0.129-0.145c-0.476-1.269-1.541-1.484-3.514-0.807
			c1.824-0.846,2.728-0.8,3.002,0.613c0.603-1.486,0.569-1.602-0.145-0.114c-0.255-1.922-1.196-2.237-3.37-1.055
			c1.943-1.438,2.653-1.381,2.505,0.74c0.821-2.238,0.786-2.417-0.208-0.167c0.267-2.841-0.427-3.262-2.976-1.34
			c2.772-2.092,3.334-2.002,2.314,0.949c1.04-3.325,0.497-3.789-2.705-1.494c3.128-2.595,3.577-2.492,2.08,1.032
			c1.588-3.91,1.236-4.405-2.368-1.622c3.549-3.352,3.843-3.427,1.327,0.647c2.674-4.648,2.537-5.146-1.898-1.978
			c4.385-3.981,4.476-4.302-0.575-1.513c1.274-0.898,2.237-1.603,2.86-2.162c0.623-0.559,0.906-0.974,0.834-1.29
			c-0.065-0.325-0.481-0.551-1.288-0.682c-0.768-0.231-1.924-0.364-3.459-0.506c1.218-0.169,2.189-0.343,2.797-0.255
			c0.893-0.518,1.421-0.77,1.366,0.017c0.703-1.45,0.827-1.853,0.066-0.336c0.64-2.544,0.395-3.169-1.63-1.114
			c1.225-3.592,0.663-4.506-3.357-3.565c4.178-1.178,4.824-0.601,3.113,3.132c2.634-3.107,2.91-3.058,1.323,0.638
			c1.844-4.089,1.823-4.539-0.931-0.878c2.48-5.008,2.232-5.913-3.524-5.227c6.065-0.658,6.383-0.365,2.663,3.761
			c3.956-4.676,3.872-5.516-2.248-6.932c1.527,0.073,2.677,0.11,3.434,0.172c0.801-0.123,1.208-0.219,1.216-0.077
			c0.096-0.541-0.214-0.837-1.067-0.476c-0.47-1.223-1.48-1.785-3.433-1.607c1.965-0.389,2.994-0.037,3.384,1.4
			c1.039-1.127,1.442-1.167,1.375,0.165c0.312-1.875,0.155-2.377-0.805-0.411c0.048-1.163,0.004-2.053-0.287-2.531
			c-0.131-0.695-0.513-0.98-1.196-0.875c-0.58-0.009-1.459,0.375-2.676,1.118c1.215-0.883,2.093-1.403,2.587-1.427
			c0.748-0.28,1.11-0.062,1.08,0.779c0.377,0.342,0.358,1.311,0.225,2.664c0.448-1.133,0.781-1.883,0.826-1.947
			c0.42-0.664,0.559-0.641,0.401,0.16c0.288,0.024,0.276,0.827,0.216,2.018c0.155-1.338,0.259-2.283-0.072-2.134
			c0.425-1.173,0.411-1.246-0.103-0.105c0.352-0.332,0.207,0.552-0.01,1.955c0.104-1.424,0.169-2.548-0.493-2.411
			c0.624-1.775,0.525-2.285-0.979-1.038c1.04-1.628,0.681-1.491-0.618-0.244c0.242-0.308-0.46,0.5-1.375,1.653
			c0.99-1.117,1.751-1.928,1.505-1.572c1.41-1.356,1.812-1.54,0.678,0.245c1.674-1.514,1.817-1.059,1.063,1
			c0.875-0.495,0.855,0.618,0.801,2.061c0.109-1.565,0.183-2.796-0.792-2.154c1.008-2.421,0.974-2.965-0.964-1.003
			c1.711-2.34,1.516-2.176-0.216-0.001c1.145-1.114,0.751-0.221,0.125,1.196c0.626-1.662,1.021-2.802-0.521-1.692
			c2.138-2.622,2.338-2.996-0.213-0.532c2.81-2.439,2.87-2.034,0.963,1.091c1.936-1.526,1.904-0.334,1.566,1.842
			c0.359-2.303,0.41-3.628-1.784-2.124c2.27-3.548,2.294-4.268-1.578-2.232c3.904-3.073,3.915-3.391-0.745-1.607
			c4.664-2.214,4.663-2.328-0.27-0.808c4.936-1.731,4.938-1.829-0.197-0.779c5.14-1.454,5.146-1.758-0.246-2.167
			c5.409-0.613,5.421-1.332,0.906-4.564c4.548,1.176,4.57-0.162,2.984-4.229c1.59,3.878,1.572,5.026-2.478,3.187
			c4.023,3.31,4.019,3.629-0.705,1.531c4.723,1.896,4.729,1.376,1.183-2.326c3.577,1.818,3.599,0.456,2.637-3.023
			c0.963,3.226,0.946,4.337-2.06,2.217c2.985,3.535,2.985,3.841-0.726,1.039c3.711,2.635,3.724,2.171,1.08-1.471
			c2.677,1.96,2.7,0.747,2.043-2.124c0.665,2.634,0.648,3.613-1.558,1.583c2.189,3.295,2.188,3.586-0.621,0.71
			c2.818,2.801,2.829,2.435,0.779-0.873c2.091,1.939,2.124,0.939,1.558-1.551c0.564,2.741,0.573,3.734-1.453,1.493
			c2.158,3.187,2.279,3.133,0.463-0.309c0.733,0.789,1.251,1.205,1.588,1.289c0.373,0.092,0.573-0.139,0.498-0.691
			c0.255-0.459,0.239-1.238,0.175-2.233c0.248,1.359,0.385,2.227-0.029,2.323c0.243,0.275-0.067-0.22-0.71-1.584
			c0.523,1.15,0.901,1.917,0.667,2.18c0.705,0.472,0.808,0.445,0.136-0.142c0.608-0.286,0.447-1.128,0.147-2.397
			c0.529,1.029,0.919,1.63,0.256,1.546c1.275,0.55,1.497,0.411,0.353-0.571c1.494,0.065,1.621-0.714,1.005-2.277
			c0.78,1.573,0.836,2.328-0.773,2.012c1.732,1.129,1.795,1.185,0.02,0.074c1.915,0.461,1.987-0.246,0.992-2.146
			c1.253,1.898,1.436,2.606-0.703,1.827c2.552,1.441,2.78,1.395,0.34-0.449c0.996,0.361,1.693,0.521,2.051,0.471
			c0.505-0.057,0.672-0.327,0.309-0.824c0.232-0.495-0.064-1.221-0.563-2.186c0.603,1.053,1.013,1.832,0.712,2.316
			c0.643,0.48,0.576,0.668-0.107,0.575c-0.026-0.133-0.671-0.551-1.647-1.278c1.133,0.748,1.931,1.176,1.854,1.308
			c1.078,0.06,1.281-0.175,0.214-0.772c0.953-0.591,0.633-1.537-0.132-2.927c0.93,1.336,1.406,2.235,0.274,2.705
			c1.571,0.542,1.523,0.656-0.051,0.386c0.883-0.3,0.234-0.99-0.792-2.102c0.908,0.84,1.581,1.438,0.812,1.772
			c1.773,0.387,2.103,0.503,0.253,0.402c2.195-0.165,2.208-0.551,0.079-1.434c1.889-0.399,1.626-1.296,0.339-2.83
			c1.497,1.447,1.965,2.26-0.142,2.389c2.816,0.943,3.057,1.199,0.073,0.934c3.263,0.204,3.3-0.118,0.196-1.408
			c2.983,0.043,2.827-0.878,0.874-3.115c2.2,2.195,2.602,3.079-0.61,2.706c3.889,1.522,4.162,1.785,0.027,1.045
			c4.611,0.652,4.811,0.304,0.679-2.11c4.497,1.1,4.667,0.141,2.44-3.922c2.643,3.904,2.885,4.711-1.201,2.233
			c4.626,3.547,4.924,3.809,0.206,0.732c5.413,3.132,5.808,2.918,3.194-2.72c3.538,4.804,4.072,4.182,5.206-1.966
			c-0.766,6.589-0.664,7.131,1.385,1.342c-1.309,5.917-0.676,5.509,3.461,0.603c-3.367,4.642-3.233,4.786,1.006,1.03
			c-3.798,3.766-3.486,3.632,0.71,0.375c-3.624,3.124-3.38,3.045,0.427,0.341c-3.807,2.704-3.712,2.691,0.178,0.148
			c-3.547,2.486-3.304,2.446,0.423,0.346c-3.088,1.998-2.696,1.934,0.525,0.423c-2.308,1.363-1.786,1.277,0.565,0.392
			c-1.183,0.695-0.535,0.593,0.719,0.261c0.143,0.102,0.897-0.019,1.707-0.15c15.289-2.475,48.454-7.853,60.705-9.837
			c0.733-0.117,1.395-0.227,1.971-0.32c0.573-0.094,1.065-0.175,1.16-0.474c0.702,0.171,1.014,0.12,0.638-0.423
			C187.861,68.152,187.97,68.134,187.295,67.513z"/>
		<g id="XMLID_9396_">
			<g>
				<path id="XMLID_748_" fill="#C6D3D3" d="M95.733,126.524c-0.036,0.097-0.079,0.205-0.124,0.316
					c-0.027-0.007-0.048-0.015-0.072-0.022c-0.012-0.049-0.026-0.091-0.041-0.134c0.052-0.102,0.095-0.198,0.138-0.283
					C95.671,126.435,95.701,126.488,95.733,126.524z"/>
				<path id="XMLID_747_" fill="#C6D3D3" d="M115.315,135.554c0.141,0.132,0.29,0.27,0.45,0.422
					c-0.649-0.463-1.168-0.794-1.589-1.014c0.144,0.019,0.302,0.055,0.476,0.111C114.86,135.224,115.082,135.383,115.315,135.554z"
					/>
				<path id="XMLID_746_" fill="#C6D3D3" d="M142.993,134.751L142.993,134.751c0.186,0.055,0.384,0.111,0.597,0.176
					C143.373,134.859,143.175,134.805,142.993,134.751z"/>
				<path id="XMLID_745_" fill="#C6D3D3" d="M142.823,134.701c-0.001,0.003-0.002,0-0.003,0c-0.239-0.067-0.45-0.122-0.632-0.167
					c0.004,0,0.005-0.003,0.007-0.003C142.38,134.579,142.593,134.636,142.823,134.701z"/>
				<path id="XMLID_715_" fill="#C6D3D3" d="M114.89,135.159c0.132,0.123,0.272,0.254,0.425,0.396
					c0.082,0.063,0.163,0.124,0.256,0.188c-0.234-0.209-0.438-0.396-0.625-0.566c0.42,0.162,0.915,0.393,1.488,0.691
					c-1.333-1.623-0.698-1.607,1.061-0.77c0.123,0.108,0.269,0.237,0.439,0.392c-0.192,0.137-0.032,0.701,0.046,1.464
					c0.048,0.742,0.014,1.685-0.107,2.85c2.956-5.589,3.711-5.526,7.363-0.239c-2.312-5.119-1.73-5.018,2.64-1.308
					c-2.849-3.268-2.505-3.597,0.687-2.194c0.032-0.032,0.073-0.062,0.113-0.089c-1.611-0.968-1.488-0.933,0.033-0.027
					c0.421-0.263,1.126-0.253,2.037-0.077c0.057,0.053,0.109,0.103,0.175,0.168c-0.556-0.006-0.989,0.136-1.289,0.465
					c0.09,0.054,0.177,0.105,0.273,0.164c-0.106-0.049-0.203-0.084-0.301-0.123c-0.359,0.424-0.518,1.145-0.458,2.247
					c-0.057-1.759,0.781-2.39,1.985-2.558c0.077-0.626,0.525-0.793,0.872-0.682c0.216,0.068,0.336,0.418,0.319,1.044
					c-0.018,0.626-0.167,1.533-0.416,2.749c2.248-4.91,2.883-4.943,5.903-0.426c-1.725-4.604-1.069-4.653,3.661-2.02
					c-3.625-2.724-3.176-2.759,1.14-1.004c-3.259-1.631-3.241-1.748-0.349-0.644c0.039,0.025,0.083,0.052,0.124,0.076
					c-0.014-0.014-0.022-0.027-0.036-0.044c0.01,0.005,0.019,0.008,0.029,0.012c0.021,0.022,0.046,0.046,0.067,0.07
					c0.021,0.014,0.042,0.031,0.062,0.043c0.002,0.012,0.007,0.027,0.014,0.039c0.031,0.034,0.065,0.072,0.097,0.108
					c-0.007-0.03-0.013-0.057-0.016-0.088c0.008,0.003,0.014,0.008,0.021,0.012c0.01,0.039,0.026,0.081,0.04,0.118
					c0.015,0.018,0.03,0.032,0.047,0.049c-0.012-0.045-0.024-0.088-0.03-0.134c0.145,0.093,0.302,0.191,0.471,0.294
					c-0.021,0.071-0.037,0.146-0.05,0.227c0.014,0.009,0.025,0.019,0.038,0.035c0.122-0.777,0.759-1.15,1.546-1.34
					c-0.745,0.149-1.34,0.451-1.534,1.076c-0.18-0.136-0.338-0.255-0.482-0.372c-0.003-0.013-0.006-0.022-0.01-0.031
					c0.141,0.052,0.278,0.106,0.426,0.162c-0.153-0.078-0.293-0.146-0.429-0.215c-0.011-0.197,0.04-0.354,0.141-0.479
					c0.056-0.043,0.12-0.086,0.197-0.121c-0.015-0.004-0.027-0.007-0.041-0.011l0,0c0.013,0.004,0.026,0.007,0.042,0.012
					c0.151-0.067,0.343-0.116,0.566-0.147c-0.149,0.003-0.283,0.008-0.4,0.027c0.121-0.047,0.261-0.075,0.42-0.1
					c-0.062-0.013-0.11-0.02-0.169-0.034c-0.251,0.038-0.452,0.1-0.588,0.203c0.01,0.002,0.022,0.007,0.033,0.012
					c-0.005-0.001,0,0,0,0c-0.015-0.004-0.023-0.006-0.036-0.012c-0.019,0.013-0.033,0.028-0.049,0.041
					c-0.206,0.106-0.303,0.278-0.285,0.524c-0.026-0.014-0.048-0.027-0.073-0.038c-0.097-0.083-0.184-0.158-0.257-0.231
					c-0.113-0.215-0.096-0.365,0.031-0.463c-0.074-0.018-0.143-0.034-0.208-0.046c-0.057,0.095-0.012,0.252,0.136,0.465
					c-0.239-0.233-0.361-0.402-0.356-0.516c-0.55-0.099-0.606,0.003-0.17,0.342c-0.827-0.475-0.743-0.575,0.176-0.356
					c0.036-0.187,0.458-0.182,1.212-0.031c0.25,0.004,0.544,0.029,0.892,0.069c-0.159,0.004-0.299,0.017-0.428,0.035
					c0.049,0.011,0.103,0.021,0.15,0.035c0.123-0.018,0.257-0.024,0.404-0.026c0.04,0.019,0.082,0.036,0.129,0.057
					c0.142-0.004,0.29-0.006,0.446-0.003c-0.487-0.492-0.063-0.573,0.565-0.385c-0.197,0.017-0.281,0.177-0.267,0.512
					c0.008-0.001,0.018-0.003,0.03-0.006c-0.002,0.003-0.002,0.007-0.004,0.01c-0.008,0.001-0.017,0.004-0.028,0.003
					c0.006,0.121,0.022,0.26,0.052,0.423c-0.768,0.388-1.356,1.117-1.454,2.56c0.245-1.462,0.98-2.21,1.689-2.651
					c0.122-0.356,0.232-0.586,0.306-0.729c0.265-0.119,0.554-0.119,0.763-0.018c0.67,0.339,0.483,1.779-0.475,4.741
					c1.772-3.17,2.733-4.716,3.145-4.528c-0.405-0.033-1.302,1.54-2.899,4.63c1.295-2.299,2.23-3.771,3.056-4.412
					c0.196,0.583,0.08,2.243-0.217,5.046c0.31-2.851,0.428-4.517,0.239-5.066c1.431-1.075,2.538,0.355,4.654,4.383
					c-1.878-6.607-1.243-6.71,4.193-2.867c-4.146-4.049-3.497-4.15,1.671-2.323c-1.728-0.975-2.438-1.521-2.337-1.774
					c-0.137-0.069-0.114-0.09,0.058-0.076c0.053-0.036,0.131-0.063,0.236-0.083c0.001,0.037,0.041,0.079,0.13,0.139
					c0.5,0.085,1.351,0.263,2.562,0.523c-0.683-0.269-1.126-0.48-1.368-0.65c0.45,0.035,0.98,0.095,1.597,0.172
					c-0.648-0.091-1.194-0.162-1.636-0.207c-0.083-0.063-0.141-0.124-0.165-0.173c-0.432-0.093-0.433-0.114-0.014-0.062
					c-0.003-0.121,0.179-0.208,0.508-0.271c-0.22,0.08-0.12,0.203,0.386,0.395c0.287,0.042,0.62,0.092,1.007,0.15
					c-0.785-0.262-1.041-0.437-0.948-0.568c-0.061-0.011-0.099-0.017-0.124-0.024c0.049-0.008,0.106-0.012,0.159-0.017
					c0.004,0.001,0.009-0.001,0.017,0.001l0.003-0.004c0.117-0.01,0.248-0.022,0.387-0.032c0.019,0.021,0.06,0.044,0.122,0.068
					c0.072,0.007,0.154,0.015,0.239,0.021c0.046,0.025,0.103,0.046,0.171,0.073c0.211-0.002,0.506,0.003,0.86,0.006
					c-0.1,0.071-0.162,0.143-0.156,0.225c-0.38,0.206-0.101,0.484,0.803,0.844c-0.8-0.331-0.921-0.604-0.582-0.835
					c0.261-0.249,0.982-0.45,1.873-0.638c-0.138-0.156,0.392-0.251,0.815-0.159c0.03,0.143-0.04,0.465-0.104,1.04
					c-0.69,0.59-1.368,1.42-1.167,2.859c-0.199-1.129,0.655-1.813,1.537-2.376c0.658-0.566,1.337-1.005,1.984-1.327
					c2.583-1.28,4.578-0.665,9.238,1.455c-5.201-3.295-5.041-3.569,0.701-2.579c0.106,0.057,0.215,0.11,0.333,0.171
					c0.152,0.451,0.578,1.023,1.307,1.771c-0.62-0.673-0.936-1.199-1.008-1.625c0.287,0.143,0.595,0.288,0.94,0.447
					c-0.362-0.179-0.668-0.336-0.944-0.49c-0.012-0.055-0.012-0.112-0.01-0.165c0.148,0.029,0.283,0.05,0.439,0.081
					c-0.155-0.034-0.291-0.065-0.438-0.1c0.004-0.117,0.032-0.231,0.08-0.33c0.233,0.037,0.464,0.075,0.719,0.119
					c-0.248-0.06-0.468-0.118-0.687-0.169c0.263-0.453,0.965-0.726,1.939-0.922c-0.693-0.522-0.185-0.732,0.51-0.654
					c0.068,0.098,0.321,0.479,0.492,1.19c0.154,0.718,0.227,1.765,0.249,3.173c1.736-6.08,2.631-6.297,7.655-2.458
					c-3.271-4.271-2.407-4.485,2.795-3.283c-3.893-1.534-3.428-1.654,0.597-1.067c-3.12-0.818-2.676-0.931,0.394-0.723
					c-2.127-0.429-1.751-0.554,0.177-0.507c0.088,0.015,0.179,0.031,0.283,0.044c-0.49-0.438,0.138-0.668,0.678-0.693
					c0.041-0.027-0.003,0.157-0.139,0.65c0.915-0.713,1.739-1.11,2.084-1.127c0.337-0.018,0.193,0.346-0.469,1.183
					c2.753-2.089,3.435-2.292,2.99-0.203c1.732-2.484,2.343-2.676,3.777-0.907c-0.291-2.133,0.245-2.31,3.044-1.331
					c-1.82-1.318-1.372-1.475,1.789-1.115c-2.316-0.673-1.929-0.828,1.061-0.818c-2.324-0.295-2.049-0.424,0.592-0.514
					c-2.207-0.143-2.046-0.247,0.293-0.338c-1.896-0.318-1.643-0.788,0.514-0.986c-1.438-0.278-1.701-0.648-0.869-1.16
					c0.203,0.064,0.641,0.123,1.314,0.205c-0.371-0.141-0.659-0.285-0.872-0.441c0.084-0.039,0.168-0.078,0.26-0.118
					c-0.116,0.024-0.216,0.047-0.31,0.07c-0.535-0.432-0.481-0.943,0.149-1.597c0.116,0.284,0.597,0.55,1.381,0.891
					c-1.217-1.075-1.783-1.985-1.651-2.86c-0.58-0.324-0.458-0.611,0.202-0.688c0.425,0.12,1.39,0.454,2.86,1.096
					c-4.68-3.674-4.845-4.528,1.243-5.325c-6.357-0.524-6.467-1.008-0.825-3.954c-5.85,2.029-5.951,1.6-1.634-2.748
					c-4.238,2.909-4.714,2.601-2.285-0.661c-0.059,0.041-0.119,0.089-0.171,0.126c-1.351,1.61-1.88,2.091-1.687,1.484
					c0.037,0.119,0.394-0.235,1.104-1.071c0.146-0.096,0.314-0.214,0.507-0.358c-0.167,0.114-0.306,0.201-0.432,0.262
					c0.135-0.158,0.282-0.334,0.439-0.524c0.055,0.032,0.115,0.054,0.185,0.067c-0.036,0.043-0.072,0.084-0.107,0.126
					c0.05-0.038,0.102-0.076,0.151-0.114c0.005-0.002,0.008,0.001,0.01-0.001c0.004-0.004,0.008-0.009,0.012-0.017
					c0.081-0.061,0.169-0.13,0.253-0.205c-0.025-0.009-0.052-0.021-0.072-0.033c0.155-0.21,0.323-0.425,0.5-0.657
					c-0.188,0.229-0.362,0.442-0.53,0.642c-0.059-0.033-0.1-0.074-0.142-0.125c0.171-0.212,0.356-0.438,0.554-0.685
					c-0.209,0.236-0.399,0.445-0.579,0.642c-0.212-0.334-0.134-0.959,0.113-1.798c-0.118,0.078-0.202,0.125-0.283,0.157
					c-0.093,0.275-0.167,0.52-0.224,0.738c-0.354,0.643-0.65,1.189-0.88,1.621c-0.009-0.278,0.122-0.756,0.377-1.419
					c0.175-0.224,0.405-0.537,0.699-0.929c-0.371,0.136-0.297-0.239,0.014-0.729c0.026,0.113,0.394,0.067,1.002,0.144
					c0.53,0.199,1.298,0.528,2.297,1.038c-3.352-3.802-3.015-4.722,1.953-5.865c-4.408-0.389-4.191-0.983-0.2-2.986
					c-3.503,0.911-3.224,0.415-0.231-1.518c-2.35,0.682-2.436,0.171-1.057-1.244c0.231-0.066,0.67-0.219,1.263-0.396
					c-0.92-0.307-1.119-0.913-0.938-1.616c-0.222-0.278-0.063-0.655,0.308-0.927c0.366-0.27,0.943-0.442,1.76-0.521
					c-2.002-1.639-1.858-2.472,0.495-3.152c-2.267-0.695-2.325-1.232-0.202-2.02c-2.482,0.13-2.841-0.226-0.588-1.642
					c-3.268,0.633-3.927,0.205-1.621-2.575c-3.458,2.106-3.87,1.875-1.483-1.488c-3.081,2.911-3.364,2.689-1.337-1.009
					c-2.313,2.492-3.229,2.882-3.171,0.989c0.3-0.403,0.757-1.112,1.393-2.101c-0.523,0.699-0.968,1.214-1.352,1.544
					c0.045-0.463,0.126-1.012,0.241-1.664c-0.279,0.856-0.475,1.484-0.591,1.914c-0.862,0.52-1.367-0.154-1.762-2.103
					c0.272-0.217,0.58-0.574,0.931-1.027c-0.714,0.529-1.344,0.839-1.95,0.854c0.257,0.426,0.535,0.481,0.865,0.277
					c-0.472,2.063-0.819,2.313-1.204,0.976c0.039-0.241,0.084-0.661,0.127-1.255c-0.147-0.016-0.295-0.051-0.437-0.105
					c-0.001-0.004-0.004-0.01-0.001-0.014c-0.003,0.004,0,0.01-0.002,0.013c-0.21-0.078-0.419-0.183-0.629-0.354
					c-0.624,1.142-1.281,1.185-2.047,0.467c-0.268,0.5-0.646,0.237-0.933-0.246c-0.247-0.407-0.404-1.023-0.475-1.857
					c-0.069-0.833-0.053-1.872,0.019-3.146c-2.474,5.492-3.483,5.074-6.479,0.262c1.129,4.046,0.274,3.701-2.403,1.049
					c1.203,2.056,0.579,1.805-1.029,0.485c0.677,0.935,0.363,0.805-0.432,0.123c0.675,0.621,0.566,0.639-0.229,0.162
					c0.376,0.543,0.064,0.595-0.638,0.423c-0.095,0.299-0.587,0.38-1.16,0.474c-0.576,0.093-1.237,0.203-1.971,0.32
					c-9.101,1.472-29.732,4.818-46.013,7.457c-0.299,2.023-0.179,4.078,0.494,6.037l-3.095,6.126
					c12.452,6.463,26.571,9.682,40.6,9.265c-10.193,6.662-21.86,11.05-33.92,12.755c-4.029,0.566-8.595,1.104-11.05,4.35
					c-2.217,2.936-1.921,7.164-3.96,10.223c-1.993,2.986-5.829,4.222-9.417,4.329c-11.55,0.335-22.205-10.438-21.73-21.982
					c0.136-3.379,1.069-6.846,0.055-10.072c-0.602-1.906-1.773-3.438-3.266-4.707c-0.689,0.205-1.701,0.364-3.05,0.516
					c5.392,0.409,5.385,0.713,0.246,2.167c5.134-1.05,5.132-0.953,0.197,0.779c4.933-1.52,4.934-1.406,0.27,0.808
					c4.66-1.784,4.649-1.465,0.745,1.607c2.749-1.442,3.524-1.496,2.942-0.139c-0.096,0.014-0.229,0.084-0.408,0.203
					c-0.236,0.334-0.72,0.943-1.429,1.818c0.576-0.531,0.886-0.744,0.863-0.539c-0.085,0.055-0.19,0.135-0.311,0.242
					c0.101-0.046,0.184-0.063,0.25-0.066c-0.085,0.192-0.264,0.505-0.547,0.946c0.068-0.056,0.125-0.101,0.185-0.148
					c0.038-0.044,0.07-0.089,0.104-0.131c0.069-0.045,0.136-0.086,0.205-0.125c0.09-0.157,0.159-0.287,0.217-0.396
					c0.005-0.011,0.014-0.017,0.022-0.031c0.02,0.048,0.024,0.112,0.021,0.184c-0.032,0.045-0.064,0.09-0.1,0.138
					c0.034-0.019,0.062-0.036,0.095-0.055c0,0.009,0.001,0.015,0,0.021c0.02-0.015,0.041-0.021,0.063-0.031
					c0.006-0.012,0.008-0.02,0.014-0.028c0.063-0.035,0.124-0.066,0.178-0.09c0.737-0.655,0.991-0.657,0.888-0.101
					c0.367,0.239,0.341,1.033,0.186,2.138c0.067,0.428,0.025,1.082-0.024,1.8c0.022-0.594,0.038-1.124-0.013-1.518
					c-0.016,0.084-0.028,0.173-0.04,0.265c0.012-0.092,0.024-0.181,0.038-0.268c-0.039-0.293-0.113-0.503-0.251-0.597
					c-0.037,0.113-0.089,0.254-0.152,0.423c-0.031-0.033-0.077-0.027-0.153,0.045c0.096-0.218,0.172-0.376,0.232-0.504
					c-0.114-0.04-0.267-0.022-0.462,0.092c0.011-0.041,0.023-0.073,0.035-0.109c0.222-0.139,0.383-0.184,0.508-0.142
					c0.099-0.197,0.115-0.186,0.045,0.023c0.131,0.069,0.202,0.241,0.241,0.485c0.146-1.085,0.158-1.829-0.231-1.955
					c-0.079,0.302-0.227,0.714-0.439,1.234c0.207-0.609,0.308-1.032,0.265-1.253c-0.1,0.009-0.215,0.038-0.354,0.104
					c0.067,0.244-0.064,0.782-0.342,1.569c0.161-0.036,0.278,0.011,0.361,0.117c-0.074,0.071-0.173,0.201-0.3,0.401
					c-0.036,0.049-0.245,0.52-0.548,1.256c0.005,0.202,0.003,0.418-0.002,0.644c-0.165,0.144-0.354,0.324-0.579,0.566
					c-0.39-1.438-1.418-1.79-3.384-1.4c1.953-0.177,2.962,0.385,3.433,1.607c0.853-0.361,1.163-0.064,1.067,0.476
					c-0.007-0.142-0.415-0.045-1.216,0.077c-0.757-0.062-1.907-0.099-3.434-0.172c4.288,0.993,5.603,1.707,4.65,3.655
					c0.125-0.817-1.076-0.878-3.866-0.605c2.317-0.203,3.47-0.009,3.746,0.829c-0.245,0.444-0.585,0.944-1.038,1.525
					c-0.346-0.66-1.573-0.552-3.889,0.103c2.083-0.486,3.227-0.474,3.69,0.152c-0.31,0.393-0.652,0.811-1.046,1.274
					c0.41-0.454,0.765-0.859,1.076-1.231c0.124,0.197,0.197,0.441,0.209,0.743c0.087-0.419,0.086-0.738-0.013-0.976
					c0.532-0.643,0.878-1.137,1.04-1.517c0.189,0.767-0.282,2.033-1.215,3.956c-0.014,0.019-0.029,0.031-0.041,0.047
					c-0.006,0.031-0.019,0.063-0.026,0.094c-0.056,0.118-0.111,0.226-0.168,0.351c0.039-0.056,0.074-0.098,0.111-0.149
					c-0.074,0.259-0.159,0.527-0.259,0.822c0.848-0.858,1.379-1.242,1.666-1.221c0.599-1.538,0.515-1.829-0.34-0.972
					c1.281-1.569,1.311-1.202,0.384,0.973c0.357,0.079,0.28,0.9-0.08,2.334c0.76-1.516,0.637-1.113-0.066,0.336
					c0.055-0.787-0.473-0.535-1.366-0.017c-0.608-0.088-1.58,0.086-2.797,0.255c1.536,0.142,2.691,0.275,3.459,0.506
					c0.807,0.13,1.222,0.356,1.288,0.682c0.072,0.316-0.211,0.731-0.834,1.29c-0.624,0.559-1.586,1.264-2.86,2.162
					c5.051-2.789,4.96-2.468,0.575,1.513c3.083-2.201,4.086-2.627,3.514-1.125c-0.183-0.097-1.146,0.756-2.942,2.455
					c1.232-0.951,2.071-1.507,2.6-1.689c-0.125,0.253-0.265,0.523-0.432,0.836c-0.464,0.299-1.079,0.782-1.879,1.444
					c0.678-0.483,1.227-0.837,1.677-1.074c-0.193,0.349-0.403,0.715-0.639,1.131c0.272-0.438,0.505-0.826,0.712-1.169
					c0.539-0.276,0.912-0.365,1.146-0.262c0.043-0.512-0.248-0.543-0.914-0.131c0.184-0.32,0.341-0.595,0.451-0.813
					c0.508-0.127,0.639,0.189,0.475,0.946c0.221,0.109,0.303,0.397,0.264,0.873c-0.017-0.279-0.139-0.406-0.376-0.388
					c0.033-0.122,0.061-0.226,0.081-0.323c-0.027,0.104-0.06,0.21-0.093,0.329c-0.43,0.042-1.208,0.529-2.392,1.428
					c1.083-0.815,1.824-1.205,2.309-1.172c-0.11,0.338-0.253,0.728-0.424,1.166c-0.333,0.164-0.731,0.426-1.207,0.774
					c0.413-0.221,0.774-0.389,1.099-0.504c-0.032,0.075-0.055,0.146-0.092,0.224c0.037-0.079,0.065-0.146,0.096-0.223
					c0.292-0.105,0.553-0.164,0.782-0.179c-0.063,0.244-0.138,0.51-0.23,0.798c-0.332,0.096-0.71,0.243-1.142,0.44
					c0.724-0.245,1.32-0.372,1.818-0.375c-0.013,0.13-0.019,0.256-0.034,0.393c0.058-0.137,0.12-0.264,0.171-0.382
					c0.016-0.004,0.034,0.003,0.054,0.003c-0.001-0.041-0.001-0.082-0.002-0.116c0.009-0.021,0.019-0.043,0.029-0.065
					c-0.01,0-0.025,0.002-0.033,0.001c-0.016-0.277-0.058-0.492-0.125-0.652c0.135,0.041,0.258,0.106,0.368,0.2
					c0.396-0.84,0.428-0.768,0.12,0.125c0.145,0.174,0.262,0.396,0.344,0.681c0.135,0.068,0.246,0.156,0.354,0.262
					c0.444-0.896,0.47-0.814,0.099,0.124c0.138,0.167,0.257,0.357,0.349,0.597c-0.125-0.131-0.286-0.224-0.473-0.281
					c-0.014,0.034-0.026,0.063-0.037,0.099c-0.009-0.045-0.028-0.076-0.035-0.121c-0.032-0.008-0.062-0.016-0.096-0.026
					c0.023-0.043,0.037-0.071,0.056-0.108c-0.049-0.172-0.111-0.314-0.183-0.432c0.046,0.165,0.082,0.342,0.108,0.539
					c-0.548-0.091-1.316,0.036-2.329,0.269c1.438-0.22,2.474-0.158,3.179,0.428c0.753-0.399,1.175-0.271,1.301,0.183
					c0.088-0.089-0.116,0.157-0.639,0.509c-0.518,0.3-1.351,0.709-2.503,1.235c1.246-0.4,2.167-0.69,2.773-0.865
					c0.605-0.175,0.893-0.235,0.868-0.178c-0.03,0.049-0.372,0.221-1.026,0.509c-0.661,0.286-1.632,0.694-2.917,1.22
					c4.541-1.405,5.904-1.458,5.532,1.365c-0.588,0.468-1.417,1.368-2.55,2.677c1.018-1.077,1.82-1.828,2.486-2.25
					c-0.091,0.53-0.231,1.144-0.416,1.859c0.479-0.946,0.863-1.673,1.171-2.206c0.152-0.039,0.304-0.058,0.448-0.039
					c-0.051-0.17-0.121-0.297-0.212-0.359c0.604-0.966,0.782-0.813,0.639,0.504c0.678,0.396,1.204,1.571,1.816,3.612
					c0.19-4.542,0.855-4.379,3.361-0.61c-1.234-2.846-1.088-2.984,0.285-1.082c-0.507-0.657-0.208,0.022,0.579,1.634
					c0.288-0.454,0.677-0.652,1.289-0.461c-0.352-1.421-0.019-1.666,1.081-0.926c-0.396-0.659-0.017-0.324,0.57,0.43
					c0.312,0.498,0.834,1.419,1.489,2.625c-0.438-1.118-0.749-1.946-0.922-2.483c-0.185-0.547-0.23-0.808-0.014-0.688
					c-0.023-0.075,0.205,0.227,0.58,0.799c0.375,0.575,0.894,1.421,1.562,2.537c-1.674-3.821-1.219-4.079,1.75-1.963
					C114.729,135.101,114.812,135.129,114.89,135.159z M93.97,125.086c0.158-0.012,0.303,0.003,0.431,0.037
					c0.007,0.196,0.007,0.416-0.007,0.658c-0.201,0.001-0.423,0.031-0.681,0.104C93.816,125.589,93.9,125.321,93.97,125.086z
					 M94.146,124.084c-0.026,0.208-0.07,0.444-0.132,0.712c-0.193-0.02-0.438,0.045-0.739,0.194c0.184-0.453,0.332-0.844,0.433-1.16
					C93.893,123.849,94.038,123.933,94.146,124.084z M94.16,124.107c0.139,0.204,0.215,0.513,0.237,0.941
					c-0.086-0.143-0.203-0.224-0.355-0.246C94.114,124.52,94.153,124.29,94.16,124.107z M96.213,127.273
					c-0.037-0.058-0.081-0.098-0.127-0.143C96.71,126.209,96.749,126.346,96.213,127.273z M93.168,99.38
					c0.135-0.151,0.087-0.057-0.165,0.31C93.059,99.579,93.112,99.478,93.168,99.38z M93.203,102.73
					c0.017-0.084,0.031-0.156,0.037-0.222c0.018,0.077,0.033,0.166,0.04,0.258C93.258,102.747,93.233,102.734,93.203,102.73z
					 M93.419,104.748c0.033-0.688,0.05-1.246,0.002-1.598c0.027-0.235,0.041-0.417,0.031-0.541
					C93.654,102.707,93.553,103.578,93.419,104.748z M93.048,105.201c0.045-0.894-0.124-1.158-0.552-0.907
					C93.228,102.942,93.333,103.507,93.048,105.201z M207.083,100.884c-0.261,0.278-0.484,0.502-0.676,0.686
					c-0.184,0.036-0.278-0.046-0.296-0.232c0.227-0.453,0.523-1.01,0.872-1.659C206.836,100.292,206.856,100.696,207.083,100.884z
					 M205.74,102.094c0.045-0.1,0.095-0.202,0.155-0.321c0.053,0.054,0.143,0.059,0.278,0.011
					C205.982,101.954,205.841,102.053,205.74,102.094z M205.693,102.112c-0.306,0.071-0.07-0.617,0.58-1.984
					c0.022-0.026,0.049-0.057,0.077-0.091c-0.419,0.948-0.595,1.512-0.475,1.706C205.801,101.883,205.742,102.004,205.693,102.112z
					 M208.204,114.806c-0.137,0.158-0.163,0.299-0.111,0.434C207.078,115.332,207.175,115.143,208.204,114.806z M191.232,124.352
					C191.071,124.329,191.079,124.327,191.232,124.352L191.232,124.352z M176.688,129.593c-0.379-0.098-0.723-0.188-1.01-0.272
					c-0.234-0.314-0.08-0.529,0.405-0.682c-0.907,0.058-1.254,0.203-1.04,0.489c-1.318-0.445-0.77-0.585,1.327-0.561
					c0.285-0.067,0.631-0.116,1.058-0.159c0.313,0.072,0.768,0.169,1.363,0.289C177.569,128.857,176.853,129.113,176.688,129.593z
					 M176.67,130.012c-0.055-0.013-0.115-0.027-0.171-0.04c-0.247-0.149-0.443-0.289-0.589-0.415
					c0.236,0.043,0.488,0.079,0.756,0.125C176.644,129.785,176.646,129.892,176.67,130.012z M176.6,130.035
					c0.025,0.007,0.053,0.009,0.078,0.012c0.002,0.013,0.008,0.031,0.012,0.044C176.657,130.07,176.632,130.053,176.6,130.035z
					 M175.48,129.489c0.189,0.121,0.437,0.264,0.738,0.424C172.324,129.042,172.173,128.949,175.48,129.489z M161.886,130.865
					c-0.502,0.087-0.915,0.162-1.197,0.234c-0.028,0.007-0.055,0.012-0.083,0.014C160.828,131.022,161.316,130.949,161.886,130.865z
					 M160.573,131.127c0.019-0.001,0.032-0.004,0.047-0.008c-0.027,0.013-0.055,0.02-0.083,0.03
					C160.55,131.142,160.563,131.135,160.573,131.127z M160.576,131.421c0.084,0.005,0.173,0.014,0.269,0.02
					c-0.04-0.013-0.078-0.026-0.107-0.037c0.079-0.006,0.178-0.011,0.322-0.011c-0.082-0.043-0.107-0.085-0.091-0.125
					c0.004-0.003,0.013-0.005,0.021-0.001c-0.008-0.004-0.017-0.002-0.021-0.002c0.026-0.099,0.317-0.19,0.78-0.283l-0.001,0.004
					c0.037,0.024,0.433,0.031,1.137,0.034c-0.675,0.15-1.188,0.292-1.439,0.465C160.845,131.469,160.523,131.443,160.576,131.421z
					 M159.702,131.327c0.098-0.05,0.253-0.094,0.461-0.134c-0.104,0.033-0.151,0.067-0.123,0.111
					C159.914,131.308,159.803,131.316,159.702,131.327z M159.501,131.352c-0.02,0-0.033,0.001-0.052,0.005
					C159.445,131.352,159.463,131.352,159.501,131.352z M144.464,134.481c-0.015-0.002-0.032-0.003-0.047-0.005
					C143.5,133.976,143.496,133.975,144.464,134.481z M142.59,135.316c-0.002,0-0.002,0-0.004-0.001c0-0.008,0-0.012,0-0.016
					C142.587,135.303,142.59,135.308,142.59,135.316z M142.602,135.386l0.001-0.005l0,0
					C142.603,135.38,142.603,135.38,142.602,135.386z M142.238,135.138c-0.013-0.022-0.022-0.037-0.035-0.054
					c0.014,0.02,0.03,0.037,0.05,0.06C142.248,135.143,142.243,135.138,142.238,135.138z M130.482,135.616
					C130.069,135.259,130.112,135.275,130.482,135.616L130.482,135.616z M117.338,134.968
					C117.053,134.744,117.097,134.768,117.338,134.968L117.338,134.968z"/>
				<path id="XMLID_714_" fill="#C6D3D3" d="M142.836,134.39c0.044-0.001,0.092,0.002,0.141,0.002
					c0.144,0.029,0.293,0.065,0.464,0.104c-0.008-0.001-0.02,0-0.03,0.002C143.199,134.45,143.006,134.414,142.836,134.39z"/>
				<path id="XMLID_713_" fill="#C6D3D3" d="M95.314,126.252c-0.024-0.041-0.045-0.092-0.072-0.126
					c0.012,0.005,0.029,0.007,0.039,0.013C95.292,126.178,95.305,126.216,95.314,126.252z"/>
				<path id="XMLID_712_" fill="#C6D3D3" d="M95.242,126.126c-0.147-0.071-0.31-0.116-0.492-0.139
					c0.017-0.051,0.037-0.103,0.056-0.149C94.975,125.895,95.125,125.981,95.242,126.126z"/>
				<path id="XMLID_711_" fill="#C6D3D3" d="M141.979,134.487c-0.078-0.02-0.15-0.035-0.22-0.05c0-0.004,0.007-0.01,0.006-0.014
					c0.066,0.014,0.147,0.032,0.218,0.052C141.981,134.478,141.982,134.483,141.979,134.487z"/>
				<path id="XMLID_710_" fill="#C6D3D3" d="M94.607,125.784c0.078-0.17,0.149-0.325,0.21-0.451c0.041,0.04,0.081,0.083,0.12,0.125
					c-0.038,0.114-0.087,0.239-0.13,0.38C94.741,125.818,94.678,125.79,94.607,125.784z"/>
				<path id="XMLID_709_" fill="#C6D3D3" d="M88.923,108.674c-0.373,0.034-0.767,0.074-1.199,0.122
					C88.16,108.745,88.553,108.708,88.923,108.674z"/>
				<path id="XMLID_708_" fill="#C6D3D3" d="M202.173,70.466c0.06,0.146,0.121,0.271,0.182,0.373
					c-0.068,0.002-0.142,0.003-0.212-0.003C202.153,70.716,202.161,70.595,202.173,70.466z"/>
				<polygon id="XMLID_707_" fill="#C6D3D3" points="207.384,101.005 207.384,101.008 207.384,101.005 				"/>
				<path id="XMLID_706_" fill="#C6D3D3" d="M92.935,98.614c-0.375,0.242-0.934,0.69-1.703,1.358
					C92.89,98.369,93.382,97.971,92.935,98.614z"/>
				<path id="XMLID_705_" fill="#C6D3D3" d="M208.463,100.112c-0.3,0.265-0.566,0.486-0.805,0.679c-0.001,0-0.007-0.004-0.01-0.008
					C207.898,100.585,208.161,100.366,208.463,100.112z"/>
				<path id="XMLID_704_" fill="#C6D3D3" d="M209.322,100.456c-0.917,0.42-1.55,0.602-1.938,0.549
					c0.089-0.065,0.179-0.135,0.274-0.214C207.982,100.904,208.516,100.81,209.322,100.456z"/>
				<path id="XMLID_703_" fill="#C6D3D3" d="M143.185,136.562c-0.024-0.033-0.042-0.061-0.065-0.091c0-0.004,0-0.009,0.001-0.013
					C143.142,136.497,143.159,136.524,143.185,136.562z"/>
				<path id="XMLID_702_" fill="#C6D3D3" d="M88.084,102.502c1.215-0.883,2.093-1.403,2.587-1.427
					c0.097-0.037,0.184-0.064,0.267-0.082c-0.093,0.105-0.205,0.241-0.336,0.403C90.025,101.45,89.197,101.822,88.084,102.502z"/>
				<path id="XMLID_701_" fill="#C6D3D3" d="M128.619,138.63c-1.397-2.156-1.54-2.874-0.127-2.485
					C128.151,136.563,128.157,137.337,128.619,138.63z"/>
				<path id="XMLID_700_" fill="#C6D3D3" d="M143.186,136.112c-0.016-0.014-0.033-0.026-0.048-0.042l0,0
					C143.153,136.086,143.17,136.098,143.186,136.112z"/>
				<path id="XMLID_699_" fill="#C6D3D3" d="M207.226,98.878c-0.004,0.013-0.008,0.031-0.017,0.047
					c-0.011,0.002-0.018,0.005-0.027,0.01C207.196,98.916,207.211,98.9,207.226,98.878z"/>
				<path id="XMLID_698_" fill="#C6D3D3" d="M106.737,136.633c-0.143-1.268-0.21-2.099,0.512-1.402
					C107.042,135.572,106.883,136.049,106.737,136.633z"/>
				<path id="XMLID_697_" fill="#C6D3D3" d="M107.25,135.231c0.005-0.01,0.015-0.017,0.018-0.026
					c0.012,0.026,0.023,0.05,0.037,0.075C107.284,135.26,107.271,135.246,107.25,135.231z"/>
				<path id="XMLID_696_" fill="#C6D3D3" d="M94.563,126.509c0.016-0.205,0.019-0.38,0.018-0.545c0.06,0.006,0.117,0.012,0.17,0.023
					C94.694,126.148,94.632,126.318,94.563,126.509z"/>
				<path id="XMLID_695_" fill="#C6D3D3" d="M101.227,131.651c-0.071,0.69-0.23,1.696-0.461,3.023
					c0.159-1.606,0.19-2.64,0.034-3.167C100.95,131.521,101.093,131.569,101.227,131.651z"/>
				<path id="XMLID_694_" fill="#C6D3D3" d="M89.769,102.424c0.312-0.396,0.598-0.746,0.833-1.028
					c0.033-0.005,0.069-0.007,0.101-0.007C90.442,101.668,90.122,102.029,89.769,102.424z"/>
				<path id="XMLID_693_" fill="#C6D3D3" d="M93.864,123.246c0.007-0.06,0.014-0.114,0.02-0.163c0.003-0.001,0.006,0,0.013,0.001
					C93.887,123.139,93.875,123.19,93.864,123.246z"/>
				<path id="XMLID_692_" fill="#C6D3D3" d="M90.855,114.263c0.421-0.918,0.696-1.642,0.816-2.195
					c0.014,0.399-0.07,0.906-0.229,1.51C91.263,113.79,91.071,114.009,90.855,114.263z"/>
				<path id="XMLID_691_" fill="#C6D3D3" d="M92.178,114.901c0.239-0.564,0.435-1.031,0.587-1.426
					c0.016,0.001,0.029-0.002,0.043,0.001C92.632,113.889,92.421,114.359,92.178,114.901z"/>
				<path id="XMLID_690_" fill="#C6D3D3" d="M114.176,134.963c-1.087-0.168-1.297,0.641-0.649,2.929
					C112.592,134.994,112.667,134.169,114.176,134.963z"/>
				<path id="XMLID_689_" fill="#C6D3D3" d="M142.521,135.449c0.003,0.014,0.005,0.027,0.012,0.043
					c-0.054-0.056-0.106-0.112-0.147-0.164c0.02,0.014,0.04,0.026,0.06,0.038C142.47,135.396,142.492,135.425,142.521,135.449z"/>
				<path id="XMLID_688_" fill="#C6D3D3" d="M92.57,100.576c-0.03,0.021-0.06,0.042-0.087,0.064c-0.019,0.08-0.04,0.167-0.065,0.259
					c-0.074,0.049-0.143,0.102-0.222,0.164c0.078-0.128,0.148-0.248,0.22-0.367c-0.141,0.116-0.293,0.246-0.464,0.4
					c0.104-0.164,0.19-0.303,0.27-0.437c0.059-0.043,0.114-0.083,0.163-0.114c-0.1,0.142-0.209,0.289-0.326,0.455
					c0.156-0.16,0.296-0.297,0.431-0.428c0.004,0,0.005-0.003,0.005-0.006c0,0,0,0.003-0.001,0.004
					c0.022-0.019,0.035-0.036,0.06-0.055c-0.01-0.003-0.014-0.005-0.022-0.008c0.012-0.026,0.026-0.045,0.042-0.069
					c0.045-0.029,0.091-0.047,0.13-0.064c0.023-0.02,0.04-0.037,0.062-0.054c0.419-0.199,0.703-0.22,0.888-0.101
					c-0.013,0.052-0.025,0.114-0.042,0.18c-0.051-0.017-0.108-0.022-0.175-0.019c-0.033-0.213-0.199-0.236-0.516-0.048
					c0.081,0.008,0.136,0.057,0.162,0.152c-0.158,0.068-0.338,0.179-0.554,0.327C92.56,100.712,92.574,100.628,92.57,100.576z"/>
				<path id="XMLID_687_" fill="#C6D3D3" d="M92.254,103.827c-0.086,0.211-0.174,0.441-0.278,0.691
					c0.096-0.948,0.129-1.703,0.011-2.19C92.167,102.663,92.239,103.177,92.254,103.827z"/>
				<path id="XMLID_686_" fill="#C6D3D3" d="M159.658,131.354c0.119,0.006,0.295,0.017,0.512,0.032
					c0.063,0.029,0.152,0.058,0.261,0.093c0.047-0.004,0.095-0.002,0.149,0.001c0.078,0.026,0.17,0.052,0.282,0.086
					c-0.059-0.005-0.108-0.012-0.161-0.017c0.022,0.006,0.041,0.01,0.065,0.017c-0.099-0.014-0.188-0.027-0.275-0.039
					c-0.162-0.017-0.243-0.026-0.26-0.041c-0.286-0.039-0.491-0.068-0.625-0.093C159.622,131.384,159.638,131.366,159.658,131.354z"
					/>
				<path id="XMLID_685_" fill="#C6D3D3" d="M142.923,136.186c0.05,0.102,0.112,0.211,0.177,0.323
					c-0.002-0.025-0.003-0.048-0.004-0.071c0.007,0.01,0.017,0.023,0.022,0.033c0.003,0.025,0.005,0.053,0.005,0.078
					c0.026,0.042,0.043,0.079,0.071,0.123c-0.026-0.036-0.045-0.067-0.068-0.1c0.014,0.161,0.044,0.332,0.097,0.52
					c-0.063-0.2-0.102-0.385-0.121-0.552c-0.306-0.432-0.495-0.777-0.571-1.047c0.033,0.033,0.064,0.072,0.104,0.109
					C142.686,135.769,142.782,135.964,142.923,136.186z"/>
				<path id="XMLID_684_" fill="#C6D3D3" d="M92.422,100.525c0.03-0.021,0.06-0.038,0.088-0.055c-0.001,0.011,0,0.019-0.004,0.031
					C92.482,100.499,92.455,100.508,92.422,100.525z"/>
				<path id="XMLID_683_" fill="#C6D3D3" d="M92.221,100.66c-0.006,0.006-0.016,0.01-0.024,0.014
					c0.01-0.007,0.018-0.008,0.025-0.017C92.222,100.656,92.222,100.657,92.221,100.66z"/>
				<path id="XMLID_682_" fill="#C6D3D3" d="M92.222,100.656c0.008-0.016,0.016-0.033,0.033-0.047
					c0.051-0.041,0.108-0.074,0.16-0.105c-0.007,0.012-0.014,0.024-0.021,0.038C92.345,100.564,92.288,100.604,92.222,100.656z"/>
				<path id="XMLID_681_" fill="#C6D3D3" d="M91.987,102.327c-0.01-0.021-0.019-0.043-0.031-0.067
					c-0.012-0.054-0.024-0.097-0.039-0.146C91.946,102.177,91.968,102.248,91.987,102.327z"/>
				<path id="XMLID_680_" fill="#C6D3D3" d="M129.607,136.536c0.004-0.001,0.004-0.001,0.006-0.004
					c0.021,0.012,0.035,0.022,0.056,0.035C129.646,136.553,129.628,136.548,129.607,136.536z"/>
				<path id="XMLID_679_" fill="#C6D3D3" d="M129.604,136.545c-0.443-0.182-0.813-0.317-1.112-0.4
					c0.022-0.026,0.044-0.054,0.071-0.081c0.319,0.14,0.665,0.296,1.044,0.472C129.607,136.536,129.605,136.541,129.604,136.545z"/>
				<path id="XMLID_678_" fill="#C6D3D3" d="M91.917,102.114c-0.045-0.105-0.095-0.198-0.166-0.26
					c0.002-0.048-0.002-0.084-0.002-0.131C91.822,101.83,91.879,101.958,91.917,102.114z"/>
				<path id="XMLID_677_" fill="#C6D3D3" d="M128.675,135.975c0.01-0.012,0.019-0.021,0.033-0.027
					c0.265,0.158,0.576,0.346,0.923,0.556c-0.003,0.008-0.012,0.02-0.018,0.028C129.254,136.319,128.939,136.132,128.675,135.975z"
					/>
				<path id="XMLID_676_" fill="#C6D3D3" d="M92.058,100.134c-0.211,0.18-0.469,0.419-0.784,0.718
					c0.105-0.15,0.019-0.083-0.174,0.117c-0.049,0.007-0.105,0.01-0.161,0.025c0.221-0.261,0.316-0.367,0.205-0.223
					c0.132-0.128,0.25-0.239,0.362-0.339c-0.021,0.022-0.04,0.045-0.06,0.072C91.703,100.317,91.898,100.204,92.058,100.134z"/>
				<path id="XMLID_675_" fill="#C6D3D3" d="M207.138,101.188c0.029-0.02,0.059-0.047,0.085-0.068
					c-0.001,0.004-0.004,0.01-0.01,0.014C207.185,101.154,207.159,101.171,207.138,101.188z"/>
				<path id="XMLID_674_" fill="#C6D3D3" d="M91.75,101.723c-0.199-0.295-0.522-0.41-0.989-0.338
					c-0.018-0.001-0.041,0.002-0.057,0.005c0.161-0.172,0.292-0.316,0.396-0.42C91.521,100.925,91.738,101.162,91.75,101.723z"/>
				<path id="XMLID_673_" fill="#C6D3D3" d="M176.083,128.64c0.087-0.027,0.181-0.05,0.287-0.072
					c0.55,0.006,1.193,0.021,1.952,0.045C177.371,128.599,176.632,128.605,176.083,128.64z"/>
				<path id="XMLID_672_" fill="#C6D3D3" d="M142.823,135.968c-0.065-0.118-0.108-0.224-0.148-0.327
					c0.016,0.013,0.032,0.03,0.044,0.044C142.746,135.773,142.778,135.868,142.823,135.968z"/>
				<path id="XMLID_671_" fill="#C6D3D3" d="M142.636,135.602c-0.008-0.018-0.015-0.032-0.018-0.044
					c0.015,0.012,0.032,0.032,0.045,0.042c0.005,0.017,0.008,0.028,0.013,0.042C142.66,135.629,142.647,135.614,142.636,135.602z"/>
				<path id="XMLID_670_" fill="#C6D3D3" d="M93.476,102.005c0.029-0.062,0.057-0.121,0.08-0.159
					c0.017,0.005,0.032,0.013,0.045,0.023c-0.009,0.046-0.029,0.102-0.053,0.171C93.526,102.026,93.502,102.012,93.476,102.005z"/>
				<path id="XMLID_669_" fill="#C6D3D3" d="M144.867,134.692c-0.059,0.012-0.125,0.027-0.183,0.038
					c0.061-0.015,0.121-0.035,0.185-0.045C144.868,134.689,144.868,134.689,144.867,134.692z"/>
				<path id="XMLID_668_" fill="#C6D3D3" d="M158.654,131.689c0.2,0.027,0.499,0.065,0.894,0.123
					c0.227,0.087,0.525,0.186,0.925,0.303c-0.873-0.172-1.474-0.291-1.805-0.364C158.654,131.729,158.654,131.709,158.654,131.689z"
					/>
				<path id="XMLID_667_" fill="#C6D3D3" d="M93.801,102.64l-0.001-0.003c0.015-0.093,0.032-0.192,0.042-0.283
					c-0.002,0.002-0.003,0.004-0.003,0.004C93.828,102.45,93.812,102.544,93.801,102.64z"/>
				<path id="XMLID_666_" fill="#C6D3D3" d="M143.097,136.421c-0.002,0.006,0,0.011,0,0.016c-0.065-0.088-0.122-0.172-0.173-0.252
					c-0.038-0.074-0.071-0.15-0.1-0.218C142.894,136.111,142.989,136.26,143.097,136.421z"/>
				<path id="XMLID_665_" fill="#C6D3D3" d="M143.906,134.611c0.021,0.005,0.038,0.009,0.057,0.012
					c-0.024-0.003-0.038-0.008-0.062-0.012c-0.122-0.006-0.232-0.009-0.341-0.007c0.071-0.01,0.142-0.016,0.219-0.025
					c-0.068-0.012-0.139-0.031-0.199-0.047c0,0,0.005,0.002,0.012-0.001c0.063,0.017,0.126,0.032,0.191,0.049
					c0.108-0.01,0.223-0.015,0.342-0.019c0.057,0.028,0.104,0.046,0.167,0.076C144.154,134.625,144.03,134.617,143.906,134.611z"/>
				<path id="XMLID_664_" fill="#C6D3D3" d="M142.194,134.53c-0.074-0.021-0.141-0.039-0.211-0.055
					c0.092-0.13,0.38-0.156,0.853-0.085C142.531,134.394,142.318,134.442,142.194,134.53z"/>
				<path id="XMLID_663_" fill="#C6D3D3" d="M92.531,100.508c-0.013,0.017-0.024,0.041-0.037,0.059
					c0.005-0.024,0.009-0.045,0.012-0.066C92.516,100.499,92.521,100.5,92.531,100.508z"/>
				<path id="XMLID_662_" fill="#C6D3D3" d="M142.719,135.685c-0.004-0.012-0.007-0.026-0.01-0.036
					c0.118,0.119,0.248,0.246,0.391,0.387c0,0,0,0-0.002,0.005C142.958,135.912,142.832,135.792,142.719,135.685z"/>
				<path id="XMLID_661_" fill="#C6D3D3" d="M92.422,100.525c-0.014,0.005-0.023,0.014-0.038,0.021
					c0.001-0.003,0.005-0.004,0.01-0.004C92.4,100.535,92.414,100.527,92.422,100.525z"/>
				<path id="XMLID_660_" fill="#C6D3D3" d="M143.099,136.04c0.015,0.011,0.026,0.019,0.04,0.03
					c-0.022,0.121-0.024,0.249-0.018,0.387c-0.008-0.009-0.016-0.022-0.023-0.036C143.086,136.283,143.085,136.155,143.099,136.04z"
					/>
				<path id="XMLID_659_" fill="#C6D3D3" d="M91.841,101c0.037-0.048,0.068-0.086,0.104-0.134c0.093-0.07,0.175-0.136,0.251-0.193
					C92.102,100.754,91.98,100.86,91.841,101z"/>
				<path id="XMLID_658_" fill="#C6D3D3" d="M91.966,102.196c0.186-0.494,0.349-0.941,0.451-1.297
					c0.033-0.03,0.077-0.062,0.111-0.088C92.444,101.117,92.223,101.613,91.966,102.196z"/>
				<path id="XMLID_657_" fill="#C6D3D3" d="M157.313,132.031c0.089,0.009,0.205,0.027,0.366,0.055
					c0.287,0.185,1.044,0.5,2.345,0.972c-1.586-0.511-2.495-0.818-2.769-0.951C157.267,132.075,157.287,132.052,157.313,132.031z"/>
			</g>
		</g>
		<path id="XMLID_9395_" fill="#FF202B" d="M197.584,79.117c0,0-35.245,24.014-90.83,11.958l10.667-33.722
			c0,0-17.938-21.238-19.898-33.331l0.165-4.366c0,0,62.271,6.487,69.521,10.647C174.459,34.468,197.584,79.117,197.584,79.117z"/>
		<path id="XMLID_9393_" fill="#9B141A" d="M122.828,93.667c-0.017,0-0.022-0.002-0.036-0.001
			c-5.133-0.548-10.484-1.383-16.038-2.59l10.667-33.722c0,0-7.498-8.88-13.331-18.422c-0.033-0.057-0.066-0.117-0.103-0.177
			c-0.066-0.108-0.132-0.217-0.199-0.323c-0.16-0.273-0.322-0.541-0.48-0.812c-0.068-0.114-0.141-0.231-0.201-0.343
			c-0.17-0.286-0.332-0.567-0.494-0.851c-0.051-0.094-0.106-0.187-0.158-0.28c-0.428-0.762-0.843-1.522-1.238-2.274
			c-0.038-0.078-0.072-0.146-0.11-0.224c-0.157-0.301-0.311-0.601-0.457-0.902c-0.05-0.096-0.098-0.191-0.143-0.286
			c-0.14-0.294-0.281-0.582-0.417-0.872c-0.037-0.083-0.078-0.166-0.115-0.248c-0.346-0.751-0.664-1.487-0.951-2.212
			c-0.007-0.006-0.008-0.014-0.011-0.024c-0.716-1.801-1.235-3.518-1.49-5.081l0.165-4.366c0,0,20.294,2.116,39.06,4.703
			c-5.494,0.041-10.992,0.087-16.491,0.129c-0.849,0.009-1.726,0.024-2.493,0.387c-1.148,0.543-1.803,1.748-2.45,2.839
			c-1.883,3.18-4.351,6.007-7.202,8.358c3.947,4.765,8.109,9.342,12.49,13.71c1.148,1.145,2.362,2.306,3.889,2.848
			c2.737,0.974,5.717-0.249,8.36-1.454c-2.778,1.701-5.611,3.448-7.707,5.947c-2.098,2.494-3.363,5.919-2.488,9.058
			c0.975,3.495,6.71,6.995,5.979,10.621c-0.37,1.829-2.337,3.32-1.907,5.134c0.192,0.8,0.82,1.415,1.473,1.908
			c2.803,2.112,6.484,2.812,9.979,2.525c3.496-0.284,6.854-1.477,10.091-2.832c5.695-2.396,10.839-5.473,16.033-8.753
			c3.014-1.907,8.961-2.455,10.33-6.299c0.767-2.158-0.339-4.625-2.062-6.137c-1.724-1.514-3.954-2.285-6.112-3.06
			c-8.383-3.011-16.748-6.675-23.327-12.688c6.826,4.021,15.331,5.075,22.929,2.849c2.065-0.603,4.266-1.642,5.015-3.656
			c0.981-2.615-0.978-5.359-2.902-7.384c-3.502-3.673-7.361-7.003-11.503-9.941c-0.651-0.459-1.315-0.91-1.994-1.336
			c6.174,1.111,10.842,2.202,12.53,3.171c7.25,4.164,30.375,48.813,30.375,48.813s-28.068,19.109-73.606,14.669
			C123.598,93.752,123.21,93.708,122.828,93.667z"/>
		<path id="XMLID_9391_" fill="#FCFCFA" d="M200.324,74.942c-0.247,0.545-0.275,0.569-0.076,0.035
			c-0.316,0.615-0.397,0.675-0.237,0.104c-0.385,0.73-0.526,0.823-0.405,0.167c-0.46,0.882-0.663,1.013-0.591,0.228
			c-0.517,1.074-0.771,1.23-0.803,0.296c-0.529,1.283-0.837,1.469-1.052,0.391c-0.46,1.481-0.82,1.689-1.345,0.54
			c-0.257,1.595-0.675,1.822-1.626,0.742c0.059,1.564-0.41,1.815-1.803,0.98c0.192,0.676,0.16,1.079-0.128,1.257
			c-0.294,0.178-0.842,0.131-1.436-0.406c0.038,0.808,0.036,1.129,0.348,0.653c-0.872,0.845-1.425,0.894-1.232-0.609
			c-0.799,1.783-0.853,2.017,0.268,0.348c-1.657,2.017-2.141,2.136-1.193-0.558c-1.609,2.983-1.785,3.159-0.25-0.004
			c-2.103,3.481-2.494,3.625-1.321-0.438c-1.886,4.356-2.21,4.509-1.466-0.293c-1.443,5.097-1.817,5.245-2.259-0.108
			c-0.497,5.716-1.066,5.932-4.069,0.994c0.46,1.343,0.765,2.364,0.898,3.084c0.131,0.727,0.085,1.154-0.147,1.292
			c-0.258,0.179-0.704,0.071-1.303-0.414c-0.739-0.217-1.633-0.814-2.773-1.623c0.835,0.917,1.43,1.615,1.97,1.656
			c0.137,0.983,0.232,1.305,0.544,0.559c-0.61,1.062-1.008,1.058-1.171-0.357c-1.116,1.136-2.004,0.859-3.054-0.719
			c1,1.845,1.65,2.306,2.502,0.745c-0.342,2.17-0.482,2.319-0.299,0.045c-1.165,2.332-2.006,2.245-3.249-0.39
			c1.154,2.926,1.523,3.203,1.813,0.28c-0.606,3.253-1.289,3.313-2.735,0.036c0.755,3.475,0.745,3.621,0.129,0.086
			c0.23,3.776-0.15,3.873-1.591,0.345c0.723,3.724,0.386,3.82-1.567,0.573c1.244,3.439,0.869,3.535-1.499,0.798
			c1.316,3.005,0.624,3.169-2.117,1.651c0.665,0.923,0.815,1.426,0.552,1.625c-0.269,0.203-0.956,0.104-1.955-0.185
			c0.275,0.447,0.231,0.703,0.114,0.755c-0.367,0.25-0.811,0.297-0.82-0.136c-0.739,0.581-1.045,0.681-0.521-0.083
			c-1.217,0.938-1.596,1.005-0.755-0.315c-1.596,1.457-1.968,1.521-0.869-0.405c-1.769,1.985-2.066,1.979-0.909-0.45
			c-1.914,2.549-2.367,2.677-1.428-0.447c-1.481,2.955-1.566,2.665-0.551-0.484c-1.46,3.004-1.989,3.354-1.984-0.028
			c-0.768,3.661-1.005,3.587-1.105-0.13c-0.054,3.044,0.025,2.44,0.336-0.539c-0.842,3.045-1.452,3.714-2.776,0.833
			c0.387,3.488,0.061,3.425-1.271,0.261c0.906,2.203,0.802,1.313,0.459-1.035c-0.068,2.054-0.417,2.857-1.905,1.474
			c0.837,2.458,0.53,2.732-1.294,0.973c1.198,1.781,0.88,1.526-0.453-0.084c0.635,0.567,0.251-0.222-0.237-1.337
			c0.076,1.52,0.005,2.503-1.035,2.382c0.605,1.215,0.242,1.331-0.842,0.702c-0.015,0.076-0.745-0.591-1.709-1.604
			c0.391,1.054,0.556,1.761,0.465,2.164c-0.008,0.441-0.271,0.576-0.744,0.483c-0.47-0.096-1.143-0.416-2.012-0.907
			c0.854,1.574-0.028,1.617-1.459,1.322c-0.357,0.361-1.26,0.388-2.172,0.407c-0.844,0.02-1.697,0.028-1.637-0.449
			c-1.778,0.482-2.647,0.476-1.289-1.19c-3.109,1.645-3.993,1.625-2.263-1.841c-3.512,3.414-4.414,3.377-4.418-1.726
			c-1.811,5.021-2.728,4.97-5.381,0.435c0.805,4.417-0.13,4.348-3.386,1.749c0.686,1.224,0.795,1.815,0.458,1.974
			c-0.346,0.162-1.137-0.102-1.385-1.052c-0.706,0.856-0.876,1.031,0.104,0.464c-1.633,0.687-2.12,0.631-0.512-0.621
			c-2.579,1.141-3.065,1.084-0.805-1.005c-3.239,1.97-3.732,1.905-1.214-1.227c-3.803,2.965-4.599,2.854-3.322-2.06
			c-2.88,4.682-3.688,4.558-4.762-0.799c-0.548,5.102-1.368,4.966-4.028,0.949c1.019,3.732,0.194,3.584-2.396,1.346
			c0.926,1.928,0.088,1.764-1.468,0.981c0.714,0.616,0.684,0.99-0.497,0.826c1.069,1.457,0.988,2.371-1.212,2.657
			c2.017,1.862,1.91,3.098-0.607,4.562c2.296,1.12,2.181,2.464,0.989,4.319c0.971,0.725,0.865,1.963,0.773,3.036
			c-0.184,2.151-0.315,3.656-0.315,3.656s1.289-0.108,3.521-0.297c0.747-0.062,1.599-0.135,2.529-0.182
			c0.95-0.11,1.985-0.197,3.088,0.082c1.121-0.468,2.314-0.567,3.648-0.43c1.183-0.351,2.506-0.461,3.883-0.577
			c1.206-0.103,2.453-0.209,3.526-0.057c1.485-0.366,2.795-0.479,3.507,1.207c1.96-1.909,3.32-2.024,5.065,0.335
			c1.006-2.592,2.394-2.708,4.653-1.594c0.532-1.35,1.937-1.47,3.338-1.587c0.648-0.052,1.298-0.109,1.931-0.155
			c0.633-0.043,1.249-0.078,1.835-0.093c1.415-0.189,2.696-0.296,2.074,1.437c3.152-1.945,4.405-2.052,3.887,2.27
			c0.745-1.131,1.377-1.988,1.807-2.376c0.717-0.75,1.227-1.037,1.094-0.085c1.131-0.931,1.62-0.625,1.724,0.973
			c0.951-0.38,1.516,0.537,2.169,1.792c-0.062-1.309-0.04-2.27-0.253-1.424c0.473-2.217,0.712-2.628,0.674-0.285
			c0.771-2.681,1.269-2.609,2.016,0.146c0.538-2.206,1.331-1.726,2.643,0.093c-0.892-2.099-1.133-2.723-0.39-0.534
			c-0.716-2.984-0.452-3.153,1.15-0.493c-0.658-2.672,0.021-2.518,1.973-0.659c-1.342-2.066-1.202-2.321,0.605-0.658
			c-1.185-1.953-0.702-1.989,1.124-0.78c-0.89-1.293-0.433-1.328,0.956-0.671c-0.503-0.732-0.074-0.771,0.817-0.514
			c-0.017-0.33,0.424-0.368,0.874-0.307c0.3-0.017,0.611,0.063,0.802,0.259c1.151-0.525,1.844-0.579,1.678,0.667
			c1.378-1.347,1.895-1.394,1.523,0.534c1.212-1.996,1.539-2.026,1.102,0.282c0.875-2.344,0.99-2.352,0.407,0.084
			c0.583-2.436,0.771-2.523,0.646,0.055c0.82-2.895,1.329-3.121,2.075-0.027c0.529-3.671,1.295-4.017,3.688-0.952
			c-1.087-3.655-0.626-3.863,2.013-1.127c-1.729-3.055-1.283-3.166,1.392-1.049c-1.631-2.586-1.034-2.949,1.567-1.786
			c-1.523-1.203-1.038-0.883,0.233,0.535c-0.363-1.473,0.103-2.164,1.256-2.349c-0.175-0.615,0.336-0.731,0.947-0.517
			c0.556,0.202,1.218,0.726,2.007,1.606c-0.542-3.462,0.07-3.741,2.62-1.367c-1.331-2.927-0.719-3.199,2.004-1.747
			c-1.502-2-0.896-2.278,1.305-1.603c-1.063-1.065-0.528-1.178,0.73-0.803c-0.101-0.9,0.525-1.311,1.172-1.475
			c0.538-0.188,1.09-0.134,1.635,0.223c0.994-1.66,1.966-2.099,3.497-1.404c0.207-1.479,0.973-1.823,2.493-1.441
			c-0.243-0.963,0.264-1.188,1.393-0.954c-0.432-0.55-0.243-0.635,0.458-0.331c-0.701-0.304-0.853-0.754-0.166-1.193
			c-1.187-0.994-1.53-1.977-0.646-3.199c-1.625-0.93-2.028-2.097-1.453-3.936c-1.322-0.311-1.662-1.298-1.483-2.737
			C200.232,75.935,200.077,75.488,200.324,74.942z"/>
		<path id="XMLID_9389_" fill="#FCFCFA" d="M73.607,25.542c2.108-0.043,3.32,0.074,1.746,0.97c2.615-0.225,2.448,0.328-0.04,1.745
			c3.34-0.719,4.354-0.575,1.788,1.333c2.837-0.772,2.08,0.214-0.362,2.249c2.914-1.293,4.137-1.541,2.185,0.654
			c2.82-1.505,2.464-0.565,0.277,2.059c2.339-1.628,2.851-1.574,1.386,0.574c1.422-1.026,0.87,0.041-0.257,1.795
			c2.418-2.218,3.659-3.033,2.098,0.463c1.987-2.444,2.743-3.005,1.667-0.284c1.679-2.218,1.522-1.159,0.504,1.707
			c1.805-3.026,2.74-4.249,2.047-1.027c1.812-3.47,1.984-2.494,1.315,1.614c1.475-3.891,2.107-4.647,1.942-0.745
			c0.968-3.128,1.143-1.601,1.139,1.903c0.566-2.971,0.962-3.963,1.279-1.222c0.41-2.865,0.744-1.99,1.165,1.099
			c0.394-3.73,0.949-2.345,1.726,0.771c0.043-3.402,0.292-5.061,1.949-1.391c-0.482-3.358-0.371-4.413,1.087-1.596
			c-0.558-2.991,0.225-2.116,1.88,0.737c-1.212-3.676-1.55-5.371,0.757-2.538c-1.628-4.046-0.614-3.558,2.575-0.204
			c-2.366-3.968-2.559-5.076,0.883-2.417c-2.112-2.96-0.585-2.151,2.594,0.03c-2.278-2.359-2.907-3.342-0.214-1.977
			c-2.293-2.143-1.267-1.929,1.778-0.502c-3.03-2.555-1.386-2.248,1.8-1.226c-2.833-1.742-4.124-2.774-0.253-2.076
			c-3.033-1.395-3.848-2.036-0.761-1.629c-2.751-1.175-1.604-1.309,1.642-1.051c-3.681-1.043-5.268-1.693-1.671-1.934
			c-4.209-0.951-3.235-1.49,1.295-2.159c-4.572-0.34-5.586-0.808-1.455-2.083c-3.622,0.004-2.102-0.798,1.492-2.164
			c-3.238,0.507-4.405,0.447-1.751-0.995c-3.081,0.632-2.344-0.116,0.549-1.844c-3.87,1.005-2.746-0.235-0.159-2.408
			c-2.872,1.353-4.274,1.788-1.646-0.82c-2.632,1.595-3.507,1.882-1.558-0.195c-2.298,1.452-1.772,0.534,0.17-1.726
			c-2.699,2.16-3.98,2.973-2.161,0.31c-2.899,2.525-2.704,1.575-0.595-1.945c-2.762,3.037-3.615,3.498-2.028-0.012
			c-2.064,2.502-1.688,1.028-0.434-2.21c-1.606,2.531-2.333,3.302-1.629,0.652c-1.457,2.489-1.476,1.563-0.783-1.468
			C96.794,7.698,96.672,6.237,96.941,3c-0.695,1.941-1.199,3.019-1.266,1.292c-0.796,2.438-1.153,2.073-1.305-0.738
			c-0.729,3.292-1.25,4.139-1.784,1.033c-0.532,2.848-1.081,1.742-1.832-1.315c-0.115,3.134-0.434,4.326-1.535,1.643
			c0.06,3.16-0.665,2.446-2.113-0.602c0.393,2.803,0.063,3.268-1.326,1.08c0.245,1.775-0.573,0.892-1.805-0.8
			c0.996,3.334,1.07,4.838-1.87,2.085c1.415,2.793,1.508,3.704-0.724,1.836c1.288,2.335,0.242,1.886-2.097,0.149
			c1.755,2.323,2.21,3.356-0.12,2.073c1.878,2.222,0.966,2.127-1.825,0.723c2.776,2.917,1.293,2.847-2.045,1.857
			c2.808,2.074,3.771,3.23-0.256,2.798c2.823,1.379,3.458,2.053,0.535,1.909c2.448,1.08,1.344,1.35-1.579,1.369
			c2.818,0.801,3.811,1.358,1.162,1.753c2.856,0.633,2.066,1.112-1.024,1.682C78.128,23.483,76.875,24.324,73.607,25.542z"/>
		<path id="XMLID_9387_" fill="#C6D3D3" d="M73.607,25.542c1.867-0.695,3.069-1.267,3.021-1.754
			c6.743,0.683,13.933-1.287,19.209-5.178c2.721-2.009,5.114-4.692,6.291-7.874c0.32-0.097,0.937-0.546,1.909-1.393
			c-1.819,2.663-0.538,1.85,2.161-0.31c-1.942,2.259-2.468,3.177-0.17,1.726c-1.95,2.077-1.075,1.79,1.558,0.195
			c-2.628,2.607-1.226,2.172,1.646,0.82c-2.587,2.173-3.711,3.413,0.159,2.408c-2.892,1.729-3.63,2.477-0.549,1.844
			c-2.654,1.442-1.487,1.502,1.751,0.995c-3.594,1.366-5.114,2.168-1.492,2.164c-4.135,1.274-3.117,1.743,1.457,2.08
			c-4.532,0.672-5.506,1.211-1.297,2.162c-3.597,0.241-2.01,0.891,1.671,1.934c-3.245-0.257-4.393-0.124-1.642,1.051
			c-3.086-0.406-2.272,0.235,0.761,1.629c-3.871-0.699-2.581,0.333,0.253,2.076c-3.186-1.022-4.83-1.329-1.8,1.226
			c-3.045-1.427-4.071-1.641-1.778,0.502c-2.693-1.366-2.064-0.382,0.214,1.977c-3.179-2.181-4.706-2.991-2.594-0.03
			c-3.442-2.659-3.25-1.551-0.883,2.417c-3.189-3.354-4.204-3.842-2.575,0.204c-2.307-2.833-1.969-1.139-0.757,2.538
			c-1.655-2.853-2.438-3.728-1.88-0.737c-1.458-2.817-1.57-1.762-1.087,1.596c-1.657-3.67-1.906-2.012-1.949,1.391
			c-0.777-3.116-1.333-4.501-1.726-0.771c-0.421-3.089-0.755-3.963-1.165-1.099c-0.317-2.741-0.713-1.749-1.279,1.222
			c0.003-3.504-0.171-5.031-1.139-1.903c0.165-3.903-0.467-3.146-1.942,0.745c0.668-4.108,0.496-5.084-1.315-1.614
			c0.693-3.221-0.242-1.999-2.047,1.027c1.018-2.866,1.175-3.925-0.504-1.707c1.076-2.722,0.32-2.16-1.667,0.284
			c1.562-3.496,0.321-2.681-2.098-0.463c1.127-1.754,1.679-2.821,0.257-1.795c1.464-2.148,0.953-2.202-1.386-0.574
			c2.187-2.625,2.543-3.564-0.277-2.059c1.952-2.195,0.729-1.947-2.185-0.654c2.442-2.034,3.2-3.021,0.362-2.249
			c2.566-1.909,1.552-2.052-1.788-1.333c2.487-1.417,2.654-1.97,0.04-1.745C76.927,25.615,75.716,25.499,73.607,25.542z"/>
		<g id="XMLID_9375_">
			<g>
				<path id="XMLID_44_" fill="#C6D3D3" d="M174.243,103.538c0.529-3.671,1.295-4.017,3.688-0.952
					c-1.087-3.655-0.626-3.863,2.013-1.127c-1.729-3.055-1.283-3.166,1.392-1.049c-1.535-2.437-1.093-2.898,1.14-1.969
					c0.184,0.192,0.406,0.433,0.661,0.718c-0.363-1.473,0.103-2.164,1.256-2.349c-0.175-0.615,0.336-0.731,0.947-0.517
					c0.556,0.202,1.218,0.726,2.007,1.606c-0.542-3.462,0.07-3.741,2.62-1.367c-1.331-2.927-0.719-3.199,2.004-1.747
					c-1.502-2-0.896-2.278,1.305-1.603c-1.063-1.065-0.528-1.178,0.73-0.803c-0.101-0.9,0.525-1.311,1.172-1.475
					c0.538-0.188,1.09-0.134,1.635,0.223c0.994-1.66,1.966-2.099,3.497-1.404c0.207-1.479,0.973-1.823,2.493-1.441
					c-0.243-0.963,0.264-1.188,1.393-0.954c-0.432-0.55-0.243-0.635,0.458-0.331c-0.701-0.304-0.853-0.754-0.166-1.193
					c-1.187-0.994-1.53-1.977-0.646-3.199c-1.625-0.93-2.028-2.097-1.453-3.936c-1.322-0.311-1.662-1.298-1.483-2.737
					c-0.672,0.003-0.827-0.443-0.58-0.989c-0.247,0.545-0.275,0.569-0.076,0.035c-0.316,0.615-0.397,0.675-0.237,0.104
					c-0.385,0.73-0.526,0.823-0.405,0.167c-0.46,0.882-0.663,1.013-0.591,0.228c-0.517,1.074-0.771,1.23-0.803,0.296
					c-0.529,1.283-0.837,1.469-1.052,0.391c-0.46,1.481-0.82,1.689-1.345,0.54c-0.257,1.595-0.675,1.822-1.626,0.742
					c0.059,1.564-0.41,1.815-1.803,0.98c0.192,0.676,0.16,1.079-0.128,1.257c-0.294,0.178-0.842,0.131-1.436-0.406
					c0.025,0.499,0.032,0.81,0.109,0.864c-0.55,0.468-0.932,0.527-1.01-0.05c0.084-0.125,0.175-0.26,0.283-0.422
					c-0.102,0.122-0.2,0.239-0.291,0.351c-0.017-0.186-0.014-0.405,0.023-0.699c-0.279,0.623-0.466,1.052-0.544,1.283
					c-0.979,1.025-1.152,0.691-0.382-1.493c-1.609,2.983-1.785,3.159-0.25-0.004c-2.103,3.481-2.494,3.625-1.321-0.438
					c-1.886,4.356-2.21,4.509-1.466-0.293c-1.443,5.097-1.817,5.245-2.259-0.108c-0.497,5.716-1.066,5.932-4.069,0.994
					c0.46,1.343,0.765,2.364,0.898,3.084c0.131,0.727,0.085,1.154-0.147,1.292c-0.258,0.179-0.704,0.071-1.303-0.414
					c-0.739-0.217-1.633-0.814-2.773-1.623c0.835,0.917,1.43,1.615,1.97,1.656c0.09,0.62,0.159,0.976,0.279,0.965
					c-0.46,0.613-0.768,0.433-0.906-0.764c-0.221,0.223-0.427,0.373-0.628,0.486c-0.259,1.549-0.367,1.667-0.263,0.127
					c-0.024,0.009-0.045,0.008-0.07,0.017c0.027-0.029,0.05-0.053,0.074-0.085c0.008-0.146,0.021-0.302,0.036-0.474
					c-0.117,0.228-0.229,0.432-0.338,0.615c-0.379,0.032-0.746-0.137-1.122-0.493c0.006-0.075,0.014-0.146,0.024-0.232
					c-0.015,0.077-0.03,0.141-0.042,0.216c-0.238-0.228-0.478-0.523-0.726-0.896c0.245,0.451,0.473,0.82,0.68,1.103
					c-0.104,0.52-0.217,0.944-0.336,1.263c-0.431-0.225-0.874-0.87-1.39-1.965c0.575,1.462,0.953,2.26,1.229,2.331
					c-0.47,0.875-1.058,0.353-1.962-1.6c-0.02-0.111-0.037-0.211-0.06-0.329c0.005,0.082,0.01,0.151,0.012,0.228
					c-0.046-0.104-0.095-0.204-0.141-0.314c0.058,0.283,0.116,0.536,0.166,0.777c0.138,3.078-0.28,2.951-1.628-0.346
					c0.723,3.724,0.386,3.82-1.567,0.573c1.244,3.439,0.869,3.535-1.499,0.798c1.316,3.005,0.624,3.169-2.117,1.651
					c0.665,0.923,0.815,1.426,0.552,1.625c-0.269,0.203-0.956,0.104-1.955-0.185c0.275,0.447,0.231,0.703,0.114,0.755
					c-0.367,0.25-0.811,0.297-0.82-0.136c-0.739,0.581-1.045,0.681-0.521-0.083c-1.217,0.938-1.596,1.005-0.755-0.315
					c-1.596,1.457-1.968,1.521-0.869-0.405c-1.769,1.985-2.066,1.979-0.909-0.45c-1.91,2.548-2.367,2.677-1.428-0.447
					c-1.481,2.955-1.566,2.665-0.551-0.484c-1.46,3.004-1.989,3.354-1.984-0.028c-0.62,2.948-0.891,3.471-1.027,1.62
					c0.055-0.381,0.14-1.164,0.258-2.288c-0.109,0.394-0.215,0.748-0.321,1.061c-0.004-0.17-0.006-0.337-0.015-0.522
					c-0.006,0.219-0.008,0.416-0.01,0.598c-0.681,2.02-1.292,2.173-2.431-0.303c0.354,3.193,0.109,3.401-0.958,0.987
					c0.556,1.206,0.442,0.266,0.146-1.761c-0.021,0.708-0.082,1.258-0.203,1.632c-0.084-0.185-0.17-0.384-0.256-0.597
					c0.094,0.236,0.178,0.43,0.254,0.596c-0.239,0.71-0.723,0.747-1.7-0.157c0.837,2.458,0.53,2.732-1.294,0.973
					c1.198,1.781,0.88,1.526-0.453-0.084c0.635,0.567,0.251-0.222-0.237-1.337c0.076,1.52,0.005,2.503-1.035,2.382
					c0.605,1.215,0.242,1.331-0.842,0.702c-0.015,0.076-0.745-0.591-1.709-1.604c0.391,1.054,0.556,1.761,0.465,2.164
					c-0.008,0.441-0.271,0.576-0.744,0.483c-0.47-0.096-1.143-0.416-2.012-0.907c0.724,1.336,0.196,1.566-0.852,1.426
					c10.566,4.242,22.009,6.3,33.387,5.958c-2.227,1.455-4.527,2.797-6.887,4.028c0.104,0.162,0.145,0.413,0.094,0.803
					c1.378-1.347,1.895-1.394,1.523,0.534c1.212-1.996,1.539-2.026,1.102,0.282c0.875-2.344,0.99-2.352,0.407,0.084
					c0.583-2.436,0.771-2.523,0.646,0.055C172.988,100.669,173.497,100.444,174.243,103.538z M175.088,85.16
					c0.095-0.258,0.172-0.677,0.242-1.279c0.354,0.449,0.675,0.633,0.994,0.502C175.896,85.033,175.497,85.295,175.088,85.16z"/>
				<path id="XMLID_43_" fill="#C6D3D3" d="M158.814,106.089c0.028,0.068,0.056,0.137,0.085,0.208
					c-0.045-0.066-0.092-0.128-0.138-0.193C158.778,106.101,158.797,106.093,158.814,106.089z"/>
				<path id="XMLID_42_" fill="#C6D3D3" d="M176.774,84.072c0.001-0.024,0.002-0.044,0.004-0.068
					c0.108-0.138,0.218-0.309,0.335-0.52c-0.028,0.166-0.051,0.318-0.076,0.46C176.948,83.995,176.86,84.041,176.774,84.072z"/>
			</g>
		</g>
	</g>
</g>
</svg>
