<?xml version="1.0" encoding="utf-8"?>
<!-- Generator: Adobe Illustrator 16.0.0, SVG Export Plug-In . SVG Version: 6.00 Build 0)  -->
<!DOCTYPE svg PUBLIC "-//W3C//DTD SVG 1.1//EN" "http://www.w3.org/Graphics/SVG/1.1/DTD/svg11.dtd">
<svg version="1.1" id="Capa_1" xmlns="http://www.w3.org/2000/svg" xmlns:xlink="http://www.w3.org/1999/xlink" x="0px" y="0px"
	 width="300px" height="300px" viewBox="0 0 300 300" enable-background="new 0 0 300 300" xml:space="preserve">
<g>
	<g>
		<g>
			<path fill="#7E6033" d="M82.663,194.032c0.033,0.512,0.057,1.021,0.05,1.521c-0.007,0.5,0.002,1.005-0.024,1.5
				c-0.036,0.995-0.113,1.978-0.214,2.955c-0.203,1.952-0.51,3.876-0.89,5.779c-0.377,1.904-0.857,3.78-1.376,5.645
				c-0.27,0.929-0.543,1.857-0.85,2.776c-0.294,0.923-0.622,1.836-0.96,2.746l-1.019,2.742l-1.764-1.386
				c-0.044-0.035-0.296-0.144-0.482-0.204c-0.197-0.078-0.418-0.13-0.63-0.201c-0.437-0.119-0.889-0.228-1.354-0.288
				c-0.463-0.085-0.94-0.129-1.422-0.147c-0.484-0.038-0.972-0.021-1.47-0.008c-0.493,0.039-1.001,0.059-1.504,0.146
				c-0.51,0.062-1.018,0.163-1.533,0.278c-0.525,0.091-1.029,0.262-1.561,0.396c-0.52,0.159-1.039,0.344-1.59,0.503
				c0.179-0.218,0.368-0.426,0.56-0.636c0.194-0.206,0.377-0.436,0.595-0.616c0.436-0.355,0.846-0.786,1.334-1.094l0.724-0.494
				l0.77-0.428c0.258-0.148,0.524-0.279,0.801-0.388c0.275-0.113,0.549-0.239,0.832-0.343c0.57-0.189,1.15-0.368,1.75-0.492
				c0.599-0.119,1.211-0.208,1.833-0.245c0.621-0.042,1.25-0.021,1.886,0.025c0.321,0.031,0.636,0.07,0.963,0.136
				c0.343,0.064,0.611,0.116,1.075,0.271l-2.782,1.356c0.183-0.954,0.377-1.904,0.604-2.846c0.215-0.944,0.462-1.88,0.714-2.814
				c0.523-1.863,1.087-3.715,1.752-5.538c0.663-1.824,1.399-3.628,2.239-5.403c0.421-0.887,0.865-1.768,1.351-2.637
				c0.233-0.437,0.504-0.863,0.757-1.295S82.369,194.452,82.663,194.032z"/>
		</g>
		<g>
			<path fill="#7E6033" d="M75.679,214.432c0,0,0.043-0.01,0.125-0.027c0.095-0.021,0.252-0.064,0.407-0.09
				c0.326-0.064,0.779-0.137,1.324-0.195c0.543-0.061,1.179-0.101,1.861-0.099c0.686,0.013,1.409,0.042,2.137,0.185
				c0.357,0.048,0.722,0.16,1.066,0.252c0.345,0.097,0.681,0.254,0.992,0.375c0.307,0.173,0.597,0.323,0.851,0.501
				c0.244,0.202,0.475,0.373,0.659,0.561c0.166,0.201,0.318,0.386,0.453,0.549c0.126,0.162,0.193,0.339,0.267,0.462
				c0.132,0.254,0.207,0.398,0.207,0.398s-0.13-0.098-0.359-0.268c-0.118-0.077-0.235-0.193-0.407-0.277
				c-0.169-0.077-0.359-0.164-0.566-0.26c-0.211-0.074-0.457-0.115-0.69-0.177c-0.247-0.038-0.516-0.04-0.771-0.06
				c-0.277,0.029-0.542,0.027-0.82,0.08c-0.281,0.06-0.549,0.096-0.828,0.192c-0.545,0.143-1.083,0.383-1.567,0.608
				c-0.486,0.238-0.926,0.488-1.29,0.721c-0.364,0.23-0.656,0.437-0.844,0.583c-0.104,0.074-0.146,0.122-0.189,0.157
				c-0.055,0.043-0.083,0.066-0.083,0.066L75.679,214.432z"/>
		</g>
		<g>
			<path fill="#7E6033" d="M77.402,218.514c0,0-0.15,0.001-0.412,0.002c-0.225-0.007-0.567-0.005-1.018,0.035
				c-0.447,0.016-0.954,0.101-1.518,0.17c-0.286,0.03-0.557,0.108-0.852,0.163c-0.288,0.064-0.595,0.115-0.886,0.196
				c-0.289,0.09-0.578,0.181-0.863,0.27c-0.286,0.094-0.587,0.169-0.835,0.299c-0.263,0.121-0.517,0.237-0.758,0.348
				c-0.235,0.121-0.5,0.201-0.678,0.344c-0.794,0.54-1.324,0.899-1.324,0.899s0.33-0.571,0.824-1.428
				c0.117-0.235,0.313-0.413,0.488-0.647c0.187-0.226,0.383-0.465,0.587-0.712c0.2-0.264,0.447-0.472,0.689-0.708
				c0.249-0.233,0.501-0.472,0.754-0.709c0.26-0.229,0.537-0.429,0.806-0.643c0.272-0.204,0.536-0.433,0.81-0.605
				c0.543-0.357,1.054-0.715,1.52-0.968c0.448-0.27,0.867-0.484,1.179-0.631c0.275-0.135,0.432-0.212,0.432-0.212L77.402,218.514z"
				/>
		</g>
	</g>
	<g>
		<g>
			<path fill="#7E6033" d="M66.616,189.848c0.033,0.512,0.057,1.021,0.05,1.521c-0.007,0.5,0.002,1.005-0.024,1.5
				c-0.036,0.995-0.113,1.979-0.214,2.955c-0.203,1.953-0.51,3.877-0.89,5.78c-0.377,1.904-0.857,3.779-1.376,5.644
				c-0.27,0.93-0.543,1.858-0.85,2.777c-0.294,0.923-0.622,1.836-0.96,2.746l-1.019,2.743l-1.764-1.388
				c-0.044-0.034-0.296-0.143-0.482-0.204c-0.197-0.077-0.418-0.129-0.63-0.2c-0.437-0.119-0.889-0.228-1.354-0.288
				c-0.463-0.085-0.94-0.129-1.422-0.147c-0.484-0.039-0.972-0.021-1.47-0.009c-0.493,0.039-1.001,0.06-1.504,0.147
				c-0.51,0.061-1.018,0.162-1.533,0.278c-0.525,0.09-1.029,0.262-1.561,0.396c-0.52,0.159-1.039,0.344-1.59,0.503
				c0.179-0.218,0.368-0.426,0.56-0.636c0.194-0.206,0.377-0.436,0.595-0.616c0.437-0.355,0.847-0.786,1.335-1.094l0.724-0.494
				l0.771-0.428c0.258-0.148,0.524-0.279,0.801-0.388c0.275-0.114,0.549-0.239,0.832-0.344c0.57-0.188,1.15-0.368,1.75-0.491
				c0.599-0.12,1.211-0.208,1.833-0.246c0.621-0.041,1.25-0.021,1.886,0.026c0.321,0.031,0.637,0.07,0.964,0.136
				c0.343,0.064,0.61,0.117,1.075,0.271l-2.782,1.355c0.183-0.954,0.377-1.904,0.604-2.846c0.215-0.944,0.462-1.88,0.714-2.814
				c0.523-1.863,1.087-3.716,1.752-5.539c0.663-1.824,1.399-3.628,2.239-5.402c0.421-0.888,0.865-1.769,1.351-2.637
				c0.233-0.438,0.504-0.864,0.757-1.296S66.322,190.268,66.616,189.848z"/>
		</g>
		<g>
			<path fill="#7E6033" d="M59.632,210.248c0,0,0.043-0.01,0.125-0.027c0.094-0.021,0.252-0.064,0.407-0.09
				c0.327-0.064,0.78-0.137,1.324-0.195c0.543-0.061,1.179-0.101,1.86-0.099c0.686,0.014,1.409,0.042,2.137,0.186
				c0.357,0.048,0.722,0.16,1.066,0.251c0.346,0.098,0.681,0.255,0.992,0.375c0.307,0.174,0.598,0.324,0.851,0.502
				c0.244,0.202,0.475,0.373,0.659,0.561c0.166,0.201,0.318,0.386,0.453,0.549c0.126,0.162,0.194,0.339,0.267,0.462
				c0.132,0.254,0.207,0.398,0.207,0.398s-0.13-0.098-0.359-0.268c-0.118-0.077-0.235-0.193-0.407-0.277
				c-0.168-0.077-0.359-0.164-0.566-0.26c-0.211-0.074-0.457-0.116-0.69-0.177c-0.247-0.038-0.516-0.04-0.771-0.06
				c-0.278,0.028-0.542,0.027-0.82,0.08c-0.281,0.06-0.549,0.096-0.828,0.191c-0.545,0.144-1.083,0.384-1.567,0.609
				c-0.486,0.237-0.926,0.488-1.291,0.72c-0.364,0.231-0.656,0.437-0.844,0.583c-0.104,0.074-0.146,0.122-0.188,0.158
				c-0.055,0.043-0.084,0.065-0.084,0.065L59.632,210.248z"/>
		</g>
		<g>
			<path fill="#7E6033" d="M61.354,214.33c0,0-0.149,0-0.412,0.001c-0.225-0.006-0.567-0.004-1.018,0.036
				c-0.447,0.016-0.954,0.101-1.518,0.17c-0.286,0.03-0.557,0.108-0.851,0.163c-0.288,0.064-0.596,0.115-0.886,0.196
				c-0.289,0.09-0.578,0.181-0.863,0.27c-0.286,0.094-0.587,0.168-0.835,0.299c-0.263,0.12-0.517,0.236-0.758,0.347
				c-0.235,0.122-0.5,0.201-0.678,0.344c-0.794,0.54-1.324,0.899-1.324,0.899s0.33-0.571,0.824-1.428
				c0.117-0.235,0.313-0.413,0.488-0.646c0.187-0.227,0.383-0.465,0.587-0.712c0.2-0.264,0.447-0.472,0.689-0.708
				c0.249-0.233,0.501-0.472,0.754-0.709c0.26-0.23,0.537-0.429,0.806-0.644c0.273-0.203,0.536-0.432,0.81-0.604
				c0.543-0.357,1.054-0.715,1.52-0.968c0.448-0.27,0.867-0.484,1.178-0.631c0.275-0.135,0.432-0.212,0.432-0.212L61.354,214.33z"/>
		</g>
	</g>
	<polygon fill="#FF8633" points="27.43,129.324 2.614,139.224 28.375,146.406 	"/>
	<path fill="#FFCE33" d="M25.544,127.802c7.549-11.733,24.414-17.772,37.616-14.501c16.069,3.979,25.614,20.421,33.987,33.347
		c7.519,11.606,15.229,24.457,26.643,32.673c2.538,1.825,5.127,3.323,7.767,4.554c11.709,5.455,37.736,5.844,37.736,5.844
		l-8.932,19.746c0,0-26.852-14.003-41.834-15.497c-18.797-1.877-34.685,3.953-53.783,0.179
		c-23.353-4.618-34.191-24.321-40.369-43.022C21.25,141.668,21.524,134.051,25.544,127.802z"/>
	<g>
		<circle fill="#FFFFFF" cx="45.594" cy="133.535" r="6.625"/>
		<circle fill="#522918" cx="45.594" cy="133.535" r="5.266"/>
	</g>
	<path fill="#FFA133" d="M57.841,165.467c5.542,24.063,44.936,26.345,72.142,17.634c-2.097-1.072-4.163-2.318-6.193-3.78
		c-11.414-8.216-19.124-21.066-26.643-32.673c-2.706-4.178-5.537-8.722-8.668-13.095C78.756,136.017,53.032,144.593,57.841,165.467z
		"/>
	<path fill="#EA942F" d="M60.105,162.976c-1.631-7.076,0.25-12.738,3.825-17.228c-4.976,4.83-8.036,11.265-6.089,19.719
		c5.542,24.063,44.936,26.345,72.142,17.634c-0.107-0.056-0.215-0.116-0.321-0.173C102.608,189.754,65.317,185.603,60.105,162.976z"
		/>
	<g>
		<g>
			<path fill="#FFE5A5" d="M89.737,141.434c0,0,0.045,0.007,0.129,0.02c0.079,0.016,0.219,0.025,0.35,0.065
				c0.285,0.065,0.649,0.182,1.027,0.356c0.754,0.35,1.475,0.979,1.924,1.763c0.448,0.784,0.625,1.723,0.539,2.551
				c-0.043,0.415-0.129,0.789-0.22,1.067s-0.173,0.456-0.173,0.456s-0.194-0.019-0.48-0.083c-0.285-0.065-0.651-0.181-1.03-0.355
				c-0.756-0.349-1.474-0.979-1.919-1.765c-0.445-0.786-0.618-1.726-0.535-2.553c0.042-0.414,0.128-0.788,0.217-1.066
				c0.033-0.132,0.096-0.257,0.123-0.333C89.721,141.476,89.737,141.434,89.737,141.434z"/>
		</g>
		<g>
			<path fill="#FFE5A5" d="M78.12,147.278c0,0,0.045,0.007,0.129,0.02c0.079,0.016,0.219,0.025,0.35,0.065
				c0.285,0.065,0.649,0.182,1.027,0.357c0.754,0.35,1.475,0.979,1.924,1.763c0.448,0.784,0.625,1.723,0.539,2.551
				c-0.043,0.415-0.129,0.789-0.22,1.067c-0.09,0.279-0.173,0.456-0.173,0.456s-0.194-0.02-0.48-0.084
				c-0.286-0.064-0.651-0.181-1.03-0.355c-0.756-0.349-1.474-0.979-1.919-1.765c-0.445-0.786-0.619-1.727-0.535-2.554
				c0.042-0.414,0.128-0.788,0.217-1.066c0.033-0.132,0.096-0.257,0.123-0.333C78.104,147.32,78.12,147.278,78.12,147.278z"/>
		</g>
		<g>
			<path fill="#FFE5A5" d="M75.673,154.266c0,0,0.045,0.007,0.129,0.021c0.079,0.016,0.219,0.025,0.35,0.064
				c0.285,0.065,0.649,0.183,1.027,0.356c0.754,0.351,1.475,0.979,1.924,1.764c0.448,0.783,0.625,1.723,0.54,2.551
				c-0.043,0.415-0.13,0.789-0.22,1.067c-0.09,0.279-0.173,0.456-0.173,0.456s-0.194-0.02-0.48-0.084
				c-0.286-0.064-0.651-0.181-1.03-0.355c-0.756-0.349-1.474-0.979-1.92-1.766c-0.445-0.785-0.619-1.727-0.535-2.554
				c0.043-0.414,0.128-0.787,0.217-1.065c0.033-0.133,0.096-0.258,0.123-0.334C75.657,154.308,75.673,154.266,75.673,154.266z"/>
		</g>
		<g>
			<path fill="#FFE5A5" d="M84.394,166.146c0,0,0.045,0.004,0.13,0.012c0.08,0.011,0.22,0.011,0.353,0.042
				c0.289,0.046,0.66,0.139,1.048,0.288c0.776,0.3,1.536,0.881,2.035,1.634c0.499,0.753,0.736,1.678,0.705,2.51
				c-0.016,0.417-0.078,0.796-0.149,1.08s-0.143,0.466-0.143,0.466s-0.195-0.007-0.485-0.052c-0.289-0.046-0.662-0.139-1.051-0.287
				c-0.777-0.299-1.535-0.882-2.031-1.637c-0.496-0.755-0.73-1.682-0.701-2.513c0.016-0.416,0.077-0.795,0.147-1.078
				c0.024-0.134,0.079-0.264,0.101-0.341C84.379,166.189,84.394,166.146,84.394,166.146z"/>
		</g>
		<g>
			<path fill="#FFE5A5" d="M101.682,171.266c0,0,0.045-0.005,0.129-0.014c0.081-0.006,0.218-0.033,0.354-0.029
				c0.292-0.011,0.675,0.008,1.085,0.078c0.819,0.142,1.679,0.562,2.316,1.201c0.637,0.641,1.052,1.502,1.185,2.323
				c0.066,0.412,0.08,0.796,0.065,1.088c-0.015,0.293-0.048,0.485-0.048,0.485s-0.193,0.032-0.485,0.044
				c-0.293,0.012-0.677-0.005-1.087-0.075c-0.821-0.141-1.678-0.563-2.313-1.205c-0.634-0.644-1.047-1.507-1.181-2.327
				c-0.067-0.411-0.082-0.794-0.068-1.086c-0.002-0.137,0.026-0.273,0.032-0.354C101.677,171.311,101.682,171.266,101.682,171.266z"
				/>
		</g>
		<g>
			<path fill="#FFE5A5" d="M93.331,169.316c0,0,0.045,0.004,0.13,0.012c0.08,0.011,0.22,0.011,0.353,0.042
				c0.289,0.046,0.66,0.139,1.049,0.289c0.775,0.3,1.536,0.88,2.035,1.633c0.499,0.753,0.737,1.679,0.706,2.511
				c-0.016,0.417-0.078,0.796-0.149,1.08s-0.143,0.466-0.143,0.466s-0.195-0.007-0.485-0.052c-0.289-0.046-0.662-0.139-1.051-0.288
				c-0.777-0.299-1.535-0.881-2.031-1.636c-0.496-0.756-0.73-1.683-0.701-2.514c0.015-0.416,0.076-0.795,0.146-1.078
				c0.024-0.134,0.079-0.264,0.101-0.341C93.317,169.359,93.331,169.316,93.331,169.316z"/>
		</g>
		<g>
			<path fill="#FFE5A5" d="M101.39,165.077c0,0,0.044-0.008,0.128-0.023c0.08-0.012,0.215-0.049,0.352-0.055
				c0.29-0.033,0.673-0.044,1.088-0.004c0.828,0.08,1.716,0.435,2.399,1.025c0.683,0.591,1.161,1.419,1.355,2.229
				c0.097,0.405,0.139,0.787,0.146,1.08c0.007,0.293-0.012,0.487-0.012,0.487s-0.19,0.046-0.481,0.08
				c-0.291,0.033-0.675,0.045-1.09,0.006c-0.829-0.078-1.715-0.436-2.396-1.029c-0.68-0.595-1.156-1.424-1.352-2.232
				c-0.097-0.405-0.14-0.786-0.148-1.078c-0.013-0.136,0.005-0.274,0.005-0.355C101.388,165.122,101.39,165.077,101.39,165.077z"/>
		</g>
		<g>
			<path fill="#FFE5A5" d="M76.409,164.488c0,0,0.045,0.004,0.13,0.012c0.08,0.011,0.22,0.011,0.353,0.042
				c0.289,0.046,0.66,0.139,1.049,0.288c0.775,0.3,1.536,0.881,2.035,1.633c0.499,0.753,0.736,1.679,0.706,2.511
				c-0.016,0.417-0.078,0.796-0.149,1.08s-0.143,0.466-0.143,0.466s-0.195-0.007-0.485-0.052c-0.289-0.046-0.662-0.139-1.051-0.287
				c-0.777-0.299-1.535-0.881-2.031-1.636c-0.496-0.756-0.73-1.683-0.701-2.514c0.015-0.416,0.076-0.795,0.146-1.078
				c0.024-0.134,0.079-0.264,0.101-0.341C76.395,164.531,76.409,164.488,76.409,164.488z"/>
		</g>
		<g>
			<path fill="#FFE5A5" d="M85.334,158.57c0,0,0.045,0.004,0.13,0.012c0.08,0.011,0.22,0.011,0.353,0.041
				c0.289,0.047,0.66,0.14,1.048,0.289c0.776,0.3,1.536,0.88,2.036,1.633c0.499,0.753,0.736,1.678,0.706,2.51
				c-0.016,0.417-0.078,0.796-0.149,1.08s-0.143,0.466-0.143,0.466s-0.195-0.007-0.485-0.052c-0.289-0.046-0.662-0.138-1.051-0.287
				c-0.777-0.299-1.535-0.881-2.031-1.636c-0.496-0.755-0.73-1.682-0.701-2.513c0.016-0.416,0.076-0.795,0.146-1.078
				c0.024-0.134,0.079-0.264,0.101-0.341C85.32,158.613,85.334,158.57,85.334,158.57z"/>
		</g>
		<g>
			<path fill="#FFE5A5" d="M94.405,153.252c0,0,0.045,0.004,0.13,0.012c0.08,0.011,0.22,0.011,0.353,0.042
				c0.289,0.046,0.66,0.139,1.048,0.288c0.776,0.3,1.536,0.881,2.036,1.634c0.499,0.753,0.736,1.678,0.705,2.51
				c-0.016,0.417-0.078,0.796-0.149,1.08s-0.143,0.466-0.143,0.466s-0.195-0.007-0.485-0.052c-0.289-0.046-0.662-0.139-1.051-0.287
				c-0.777-0.299-1.535-0.882-2.031-1.637c-0.495-0.755-0.73-1.682-0.701-2.513c0.015-0.416,0.076-0.795,0.146-1.078
				c0.024-0.134,0.079-0.264,0.101-0.341C94.391,153.295,94.405,153.252,94.405,153.252z"/>
		</g>
		<g>
			<path fill="#FFE5A5" d="M68.551,154.947c0,0,0.045,0.007,0.129,0.021c0.079,0.016,0.219,0.025,0.35,0.064
				c0.285,0.065,0.649,0.183,1.027,0.356c0.754,0.351,1.475,0.979,1.924,1.764c0.449,0.783,0.625,1.723,0.54,2.551
				c-0.043,0.415-0.13,0.789-0.22,1.067c-0.09,0.279-0.173,0.456-0.173,0.456s-0.194-0.02-0.48-0.084
				c-0.286-0.064-0.651-0.181-1.03-0.355c-0.756-0.349-1.474-0.979-1.92-1.766c-0.445-0.785-0.619-1.727-0.535-2.554
				c0.043-0.414,0.128-0.787,0.217-1.065c0.033-0.133,0.096-0.258,0.123-0.334C68.534,154.989,68.551,154.947,68.551,154.947z"/>
		</g>
		<g>
			<path fill="#FFE5A5" d="M85.204,146.374c0,0,0.045,0.007,0.129,0.02c0.079,0.016,0.219,0.025,0.35,0.065
				c0.285,0.065,0.649,0.182,1.027,0.357c0.754,0.35,1.475,0.979,1.924,1.763c0.448,0.784,0.625,1.723,0.539,2.551
				c-0.043,0.415-0.129,0.789-0.22,1.067c-0.09,0.279-0.173,0.456-0.173,0.456s-0.194-0.02-0.48-0.084
				c-0.286-0.064-0.651-0.181-1.03-0.355c-0.756-0.349-1.474-0.979-1.919-1.765c-0.445-0.786-0.619-1.727-0.535-2.554
				c0.042-0.414,0.128-0.788,0.217-1.066c0.033-0.132,0.096-0.257,0.123-0.333C85.188,146.416,85.204,146.374,85.204,146.374z"/>
		</g>
		<g>
			<path fill="#FFE5A5" d="M93.313,160.396c0,0,0.045,0.004,0.13,0.012c0.08,0.011,0.22,0.011,0.353,0.042
				c0.289,0.046,0.66,0.139,1.049,0.289c0.775,0.3,1.536,0.88,2.035,1.633c0.499,0.753,0.737,1.679,0.706,2.511
				c-0.016,0.417-0.078,0.796-0.149,1.08s-0.143,0.466-0.143,0.466s-0.195-0.007-0.485-0.052c-0.289-0.046-0.662-0.139-1.051-0.288
				c-0.777-0.299-1.535-0.881-2.031-1.636c-0.496-0.756-0.73-1.683-0.701-2.514c0.015-0.416,0.076-0.795,0.146-1.078
				c0.024-0.134,0.079-0.264,0.101-0.341C93.298,160.439,93.313,160.396,93.313,160.396z"/>
		</g>
	</g>
	<path fill="#FFE3A4" d="M49.188,169.045c-7.149-7.68-14.915-7.461-20.136-5.956c6.707,14.464,17.328,27.425,35.692,31.057
		c5.255,1.039,10.265,1.348,15.163,1.292C65.637,189.665,59.136,179.729,49.188,169.045z"/>
	<g>
		<g>
			<path fill="#FFA400" d="M138.424,188.631c0,0,0.452,0.027,1.229,0.094c0.774,0.077,1.876,0.181,3.184,0.357
				c1.305,0.182,2.831,0.362,4.438,0.652c0.807,0.133,1.647,0.232,2.49,0.388c0.847,0.135,1.696,0.327,2.557,0.447
				c0.856,0.147,1.714,0.291,2.554,0.459c0.421,0.077,0.837,0.163,1.247,0.256c0.413,0.072,0.821,0.144,1.223,0.214
				c0.804,0.128,1.577,0.297,2.313,0.449c0.736,0.142,1.43,0.325,2.075,0.431c1.29,0.233,2.368,0.488,3.126,0.68
				c0.757,0.19,1.192,0.329,1.192,0.329s-0.441,0.081-1.217,0.171c-0.775,0.091-1.888,0.201-3.227,0.262
				c-0.672,0.053-1.393,0.032-2.155-0.003c-0.763-0.028-1.569-0.05-2.399-0.12c-0.833-0.053-1.693-0.112-2.555-0.254
				c-0.865-0.114-1.741-0.256-2.617-0.394c-1.75-0.297-3.469-0.738-5.078-1.152c-0.802-0.217-1.566-0.474-2.292-0.704
				c-0.729-0.219-1.407-0.469-2.028-0.715C139.986,189.545,138.424,188.631,138.424,188.631z"/>
		</g>
		<g>
			<path fill="#FFA400" d="M136.724,191.349c0,0,0.444,0.087,1.206,0.254c0.755,0.177,1.834,0.419,3.106,0.758
				c1.27,0.342,2.758,0.709,4.314,1.192c0.786,0.222,1.604,0.426,2.42,0.679c0.821,0.238,1.642,0.521,2.481,0.739
				c0.831,0.245,1.664,0.487,2.477,0.75c0.407,0.132,0.81,0.263,1.208,0.393c0.402,0.117,0.799,0.232,1.188,0.346
				c1.564,0.438,3.001,0.987,4.257,1.353c1.255,0.369,2.298,0.738,3.03,1.009s1.149,0.455,1.149,0.455s-0.446,0.033-1.227,0.04
				c-0.779,0.008-1.896-0.001-3.232-0.084c-0.674-0.021-1.39-0.108-2.142-0.233c-0.754-0.113-1.554-0.225-2.37-0.386
				c-0.82-0.149-1.672-0.292-2.51-0.535c-0.847-0.214-1.7-0.457-2.555-0.695c-1.707-0.485-3.356-1.146-4.906-1.74
				c-0.77-0.312-1.496-0.662-2.188-0.98c-0.695-0.309-1.339-0.636-1.923-0.96C138.149,192.462,136.724,191.349,136.724,191.349z"/>
		</g>
		<g>
			<path fill="#FFA400" d="M134.119,194.18c0,0,0.457,0.1,1.239,0.301c0.78,0.206,1.886,0.509,3.192,0.919
				c1.305,0.412,2.822,0.894,4.417,1.477c0.792,0.307,1.635,0.558,2.465,0.88c0.831,0.318,1.675,0.642,2.519,0.966
				c0.843,0.321,1.688,0.64,2.511,0.978c0.831,0.313,1.62,0.71,2.414,0.999c0.791,0.3,1.541,0.632,2.257,0.939
				c0.72,0.294,1.385,0.628,2.011,0.894c1.256,0.517,2.292,1.008,3.018,1.364c0.725,0.355,1.135,0.589,1.135,0.589
				s-0.464-0.02-1.268-0.105c-0.803-0.086-1.951-0.227-3.315-0.468c-0.684-0.116-1.406-0.294-2.172-0.488
				c-0.766-0.191-1.576-0.386-2.401-0.632c-0.831-0.229-1.673-0.504-2.525-0.8c-0.854-0.289-1.713-0.607-2.573-0.922
				c-1.7-0.678-3.381-1.404-4.926-2.151c-0.777-0.362-1.509-0.758-2.207-1.12c-0.703-0.352-1.346-0.732-1.94-1.081
				C135.582,195.342,134.119,194.18,134.119,194.18z"/>
		</g>
	</g>
</g>
<g>
	<g>
		<g>
			<path fill="#B4343C" d="M203.212,233.371c1.368,0.545,2.524,1.243,3.634,1.978c1.099,0.74,2.107,1.547,3.066,2.39
				c0.953,0.848,1.842,1.741,2.68,2.673c0.845,0.926,1.624,1.899,2.362,2.903l-4.259-1.245c0.445-0.171,0.746-0.264,1.109-0.379
				c0.35-0.105,0.699-0.198,1.049-0.286c0.703-0.166,1.412-0.3,2.136-0.388c1.443-0.169,2.941-0.191,4.464,0.056
				c0.761,0.12,1.527,0.313,2.278,0.586c0.377,0.153,0.748,0.296,1.111,0.492c0.36,0.191,0.716,0.401,1.051,0.646
				c0.333,0.244,0.649,0.521,0.938,0.81c0.279,0.315,0.544,0.619,0.749,0.977c0.21,0.345,0.384,0.707,0.491,1.084
				c0.107,0.378,0.17,0.755,0.176,1.13c-0.364-0.146-0.654-0.306-0.993-0.388c-0.307-0.109-0.625-0.166-0.915-0.215
				c-0.296-0.042-0.581-0.064-0.855-0.069c-0.286,0.007-0.545,0.003-0.817,0.04c-0.531,0.046-1.047,0.14-1.561,0.246l-0.775,0.184
				l-0.774,0.207c-1.036,0.3-2.085,0.622-3.143,0.98l-1.588,0.536l-0.786,0.272l-0.701,0.251l-2.67,0.957l-1.59-2.202
				c-0.729-1.011-1.417-2.051-2.04-3.139c-0.63-1.083-1.209-2.202-1.723-3.369c-0.509-1.172-0.968-2.379-1.336-3.652
				C203.622,236.155,203.311,234.841,203.212,233.371z"/>
		</g>
		<g>
			<path fill="#B4343C" d="M211.329,249.382c0.01,0.002-0.057-0.021-0.078-0.05c-0.021-0.026-0.022-0.068-0.118-0.124
				c-0.151-0.113-0.41-0.262-0.732-0.428c-0.321-0.16-0.716-0.336-1.142-0.475c-0.216-0.074-0.439-0.14-0.663-0.188
				c-0.24-0.065-0.451-0.084-0.698-0.122c-0.228-0.02-0.464-0.028-0.7-0.021c-0.209,0.032-0.479,0.029-0.678,0.106
				c-0.214,0.063-0.452,0.124-0.632,0.24c-0.191,0.105-0.406,0.205-0.548,0.349c-0.154,0.134-0.312,0.264-0.44,0.392
				c-0.11,0.143-0.207,0.268-0.286,0.37c-0.163,0.221-0.257,0.347-0.257,0.347s-0.017-0.155-0.045-0.428
				c-0.012-0.145-0.026-0.319-0.042-0.521c0.008-0.199,0.035-0.428,0.065-0.69c0.016-0.271,0.113-0.536,0.211-0.841
				c0.086-0.315,0.251-0.604,0.43-0.923c0.168-0.337,0.417-0.596,0.662-0.914c0.256-0.284,0.545-0.56,0.849-0.817
				c0.304-0.233,0.628-0.494,0.952-0.684c0.328-0.212,0.658-0.396,0.983-0.556c0.653-0.332,1.283-0.573,1.837-0.76
				c0.555-0.18,1.026-0.308,1.385-0.378c0.159-0.041,0.358-0.059,0.473-0.073c0.115-0.015,0.121-0.026,0.131-0.025L211.329,249.382z
				"/>
		</g>
	</g>
	<g>
		<g>
			<path fill="#CE3B45" d="M211.674,234.285c1.368,0.545,2.524,1.244,3.633,1.978c1.1,0.74,2.108,1.547,3.066,2.391
				c0.953,0.847,1.842,1.741,2.68,2.672c0.844,0.927,1.624,1.9,2.361,2.903l-4.259-1.245c0.445-0.171,0.746-0.264,1.109-0.379
				c0.351-0.105,0.699-0.197,1.05-0.286c0.703-0.165,1.412-0.3,2.135-0.387c1.444-0.169,2.942-0.191,4.464,0.055
				c0.762,0.12,1.528,0.314,2.278,0.587c0.378,0.152,0.749,0.296,1.112,0.492c0.36,0.191,0.716,0.401,1.051,0.646
				c0.333,0.244,0.649,0.52,0.938,0.81c0.279,0.314,0.544,0.619,0.749,0.977c0.21,0.345,0.384,0.706,0.491,1.084
				s0.17,0.755,0.176,1.13c-0.364-0.146-0.654-0.306-0.993-0.388c-0.307-0.109-0.625-0.166-0.915-0.215
				c-0.296-0.042-0.581-0.064-0.856-0.069c-0.285,0.007-0.544,0.003-0.816,0.04c-0.531,0.046-1.047,0.139-1.562,0.246l-0.775,0.184
				l-0.774,0.207c-1.036,0.299-2.084,0.621-3.143,0.979l-1.588,0.537l-0.786,0.271l-0.702,0.251l-2.67,0.956l-1.589-2.202
				c-0.729-1.01-1.417-2.051-2.04-3.138c-0.629-1.083-1.208-2.203-1.722-3.37c-0.509-1.171-0.968-2.378-1.335-3.651
				C212.084,237.069,211.772,235.755,211.674,234.285z"/>
		</g>
		<g>
			<path fill="#CE3B45" d="M219.788,250.297c0.01,0.002-0.057-0.021-0.077-0.05c-0.022-0.026-0.023-0.069-0.118-0.124
				c-0.152-0.113-0.411-0.263-0.732-0.429c-0.321-0.159-0.716-0.336-1.141-0.475c-0.217-0.074-0.439-0.14-0.664-0.188
				c-0.24-0.065-0.45-0.084-0.697-0.122c-0.229-0.021-0.464-0.029-0.7-0.021c-0.21,0.032-0.48,0.03-0.678,0.107
				c-0.214,0.063-0.453,0.123-0.633,0.239c-0.191,0.105-0.406,0.205-0.547,0.349c-0.155,0.134-0.313,0.264-0.441,0.392
				c-0.11,0.143-0.207,0.268-0.286,0.37c-0.163,0.221-0.257,0.347-0.257,0.347s-0.017-0.155-0.045-0.428
				c-0.012-0.145-0.025-0.319-0.042-0.521c0.008-0.199,0.036-0.428,0.066-0.69c0.016-0.271,0.112-0.536,0.21-0.84
				c0.087-0.316,0.251-0.604,0.43-0.923c0.168-0.338,0.418-0.597,0.662-0.915c0.257-0.284,0.546-0.559,0.849-0.816
				c0.304-0.233,0.629-0.495,0.952-0.684c0.328-0.213,0.658-0.396,0.983-0.556c0.654-0.333,1.283-0.573,1.837-0.76
				c0.555-0.18,1.027-0.308,1.385-0.378c0.16-0.041,0.358-0.059,0.474-0.073c0.115-0.014,0.121-0.026,0.131-0.025L219.788,250.297z"
				/>
		</g>
	</g>
	<path fill="#6D3600" d="M257.935,146.994c0,0,42.264,18.397,42.064,19.394s-45.652-6.236-45.652-6.236L257.935,146.994z"/>
	<path fill="#315E98" d="M260.925,154.769c0,0-2.093-20.334-30.8-23.623c-4.094-0.469-8.188-0.358-11.214-0.143
		c-3.487,0.248-8.274,0.406-10.167,1.495c-1.211,0.698,0.973,2.147-0.149,3.14c-1.122,0.992-3.755-0.115-4.485,0.898
		c-0.579,0.802,0.993,3.059,0.3,3.737c-0.694,0.679-3.505,1.722-3.439,2.691c0.061,0.896,2.735,2.829,2.49,3.659
		c-1.616,5.461-1.696,10.876-2.042,13.529c-0.897,6.878-18.241,11.961-31.1,26.315c-12.857,14.353-32.894,53.826-35.584,59.208
		c-2.691,5.383,25.118,0.598,39.172-4.485c14.056-5.084,17.046,8.373,38.875-2.99c21.83-11.363,43.096-44.045,35.884-62.797
		C244.179,163.74,260.028,159.554,260.925,154.769z"/>
	<g>
		<circle fill="#FFFFFF" cx="243.209" cy="149.39" r="5.382"/>
		<circle fill="#283D54" cx="243.21" cy="149.39" r="4.087"/>
	</g>
	<path fill="#FFA738" d="M231.659,149.59c-3.728,0.083-10.09,3.1-8.93,7.768c1.684,6.774,7.904,5.729,14.084,4.087
		c2.78-0.738,9.148-0.416,11.357-2.257c3.225-2.688-1.772-3.426-5.571-3.453C237.992,155.702,236.345,149.486,231.659,149.59z"/>
	<path fill="#FF8E38" d="M236.581,185.272c-2.691,17.492-35.434,41.713-43.955,44.853c-4.937,1.818-9.57,5.895-12.857,9.876
		c9.577-0.313,14.574,7.796,33.013-1.802c21.83-11.363,43.096-44.045,35.884-62.797c-0.662-1.721-0.878-3.278-0.768-4.699
		C244.614,170.788,238.515,172.706,236.581,185.272z"/>
	<path fill="#DC7A30" d="M249.628,178.768c1.356,19.052-17.718,46.275-37.245,56.44c-16.446,8.562-22.198,3.035-30.047,1.962
		c-0.923,0.929-1.784,1.882-2.567,2.831c9.577-0.313,14.574,7.796,33.013-1.802C233.356,227.488,253.428,197.841,249.628,178.768z"
		/>
	<path fill="#2072AC" d="M233.89,175.854c-1.408-9.515-25.52-10.724-35.791-10.805c-5.814,5.03-18.073,10.583-27.78,21.418
		c-12.857,14.353-32.894,53.826-35.584,59.208c-1.895,3.787,11.317,2.54,24.209-0.303
		C197.97,228.202,235.315,185.474,233.89,175.854z"/>
	<g>
		<g>
			<path fill="#FFC26D" d="M246.971,187.52c0,0,0.138,0.152,0.303,0.433c0.173,0.279,0.367,0.682,0.531,1.174
				c0.329,0.98,0.424,2.319,0.109,3.629c-0.08,0.323-0.181,0.65-0.311,0.961c-0.107,0.313-0.29,0.614-0.448,0.896
				c-0.341,0.565-0.779,1.045-1.221,1.387c-0.213,0.174-0.466,0.296-0.664,0.401c-0.188,0.115-0.404,0.165-0.567,0.207
				c-0.329,0.082-0.523,0.082-0.523,0.082s0.021-0.219,0.069-0.519c0.026-0.148,0.048-0.321,0.067-0.52
				c0.018-0.187,0.037-0.396,0.059-0.624c0.038-0.445,0.087-0.925,0.16-1.434c0.067-0.512,0.177-1.04,0.299-1.585
				c0.142-0.535,0.296-1.085,0.495-1.601c0.193-0.517,0.42-1.006,0.653-1.432c0.238-0.426,0.477-0.789,0.665-1.046
				C246.833,187.674,246.971,187.52,246.971,187.52z"/>
		</g>
		<g>
			<path fill="#FFC26D" d="M241.29,190.011c0,0,0.128,0.125,0.278,0.349c0.157,0.225,0.332,0.545,0.476,0.934
				c0.286,0.772,0.339,1.81,0.021,2.792c-0.081,0.241-0.181,0.486-0.305,0.714c-0.106,0.23-0.275,0.448-0.424,0.649
				c-0.319,0.404-0.719,0.732-1.112,0.945c-0.193,0.109-0.412,0.176-0.586,0.23c-0.165,0.064-0.353,0.075-0.491,0.085
				c-0.282,0.017-0.448-0.02-0.448-0.02s0.004-0.19,0.019-0.442c0.02-0.245,0.01-0.593,0.016-0.928
				c0.002-0.349,0.016-0.709,0.065-1.081c0.045-0.376,0.137-0.751,0.254-1.138c0.25-0.759,0.686-1.52,1.188-2.103
				c0.252-0.29,0.506-0.536,0.706-0.71C241.144,190.114,241.29,190.011,241.29,190.011z"/>
		</g>
		<g>
			<path fill="#FFC26D" d="M241.887,198.186c0,0,0.107,0.142,0.22,0.381c0.118,0.242,0.241,0.588,0.32,0.983
				c0.084,0.398,0.091,0.844,0.042,1.308c-0.021,0.233-0.08,0.464-0.148,0.694c-0.064,0.232-0.151,0.459-0.25,0.684
				c-0.12,0.215-0.235,0.434-0.378,0.632c-0.136,0.203-0.276,0.393-0.458,0.561c-0.353,0.337-0.713,0.614-1.09,0.794
				c-0.395,0.172-0.75,0.267-1.015,0.307c-0.261,0.043-0.432,0.036-0.432,0.036s-0.031-0.183-0.047-0.447
				c-0.019-0.267-0.024-0.611,0.001-0.967c0.015-0.177,0.029-0.367,0.046-0.569c0.024-0.192,0.058-0.387,0.109-0.573
				c0.058-0.181,0.092-0.392,0.166-0.578c0.06-0.194,0.15-0.375,0.236-0.56c0.345-0.742,0.899-1.412,1.482-1.899
				c0.298-0.243,0.583-0.435,0.809-0.571C241.727,198.264,241.887,198.186,241.887,198.186z"/>
		</g>
		<g>
			<path fill="#FFC26D" d="M234.91,202.97c0,0,0.081,0.146,0.156,0.377c0.079,0.234,0.151,0.558,0.178,0.913
				c0.027,0.358-0.012,0.744-0.112,1.129c-0.102,0.384-0.287,0.755-0.511,1.098c-0.256,0.33-0.542,0.632-0.881,0.861
				c-0.35,0.227-0.712,0.391-1.066,0.48c-0.374,0.078-0.707,0.094-0.952,0.078c-0.243-0.012-0.4-0.053-0.4-0.053
				s-0.02-0.173-0.022-0.415c-0.005-0.247,0.006-0.561,0.044-0.877c0.034-0.329,0.097-0.679,0.218-0.989
				c0.113-0.322,0.268-0.644,0.475-0.918c0.397-0.576,1.003-1.028,1.624-1.307c0.315-0.137,0.615-0.231,0.852-0.291
				C234.745,202.995,234.91,202.97,234.91,202.97z"/>
		</g>
		<g>
			<path fill="#FFC26D" d="M236.804,208.751c0,0,0.058,0.165,0.1,0.422c0.044,0.257,0.071,0.614,0.047,1.001
				c-0.044,0.781-0.364,1.672-0.941,2.396c-0.275,0.361-0.654,0.676-1.021,0.93c-0.374,0.253-0.822,0.425-1.199,0.528
				c-0.393,0.101-0.798,0.103-1.052,0.08c-0.262-0.022-0.419-0.074-0.419-0.074s0.015-0.186,0.054-0.44
				c0.037-0.27,0.099-0.559,0.171-0.916c0.076-0.366,0.199-0.703,0.361-1.065c0.158-0.372,0.385-0.687,0.631-1.023
				c0.512-0.637,1.217-1.154,1.91-1.452c0.352-0.146,0.675-0.246,0.932-0.305C236.63,208.77,236.804,208.751,236.804,208.751z"/>
		</g>
		<g>
			<path fill="#FFC26D" d="M229.428,212.738c0,0,0.072,0.155,0.141,0.396c0.07,0.242,0.137,0.574,0.159,0.942
				c0.046,0.735-0.141,1.588-0.588,2.306c-0.119,0.175-0.234,0.353-0.374,0.509c-0.129,0.164-0.298,0.311-0.456,0.445
				c-0.313,0.268-0.682,0.485-1.056,0.628c-0.18,0.071-0.36,0.117-0.519,0.153c-0.185,0.052-0.361,0.058-0.491,0.06
				c-0.266,0-0.405-0.056-0.405-0.056s0.01-0.193,0.007-0.433c-0.006-0.104-0.012-0.229-0.02-0.374
				c-0.006-0.158-0.015-0.333-0.006-0.5c0.015-0.327,0.06-0.688,0.163-1.058c0.105-0.353,0.262-0.715,0.465-1.049
				c0.415-0.658,1.04-1.213,1.689-1.535c0.326-0.16,0.636-0.273,0.881-0.341C229.259,212.762,229.428,212.738,229.428,212.738z"/>
		</g>
	</g>
	<g>
		<path fill="#2086CC" d="M211.686,132.896c0,0,0.092-0.132,0.25-0.3c0.158-0.17,0.378-0.38,0.648-0.563
			c0.54-0.36,1.25-0.597,1.957-0.517c0.352,0.04,0.697,0.135,1.012,0.285c0.162,0.078,0.293,0.153,0.457,0.272
			c0.154,0.114,0.293,0.236,0.414,0.359c0.24,0.255,0.406,0.511,0.506,0.715c0.102,0.2,0.139,0.347,0.139,0.347
			s-0.129,0.115-0.319,0.258c-0.191,0.147-0.44,0.322-0.699,0.479c-0.129,0.075-0.261,0.145-0.393,0.203
			c-0.119,0.05-0.298,0.12-0.45,0.157c-0.318,0.084-0.646,0.109-0.969,0.079c-0.641-0.077-1.286-0.366-1.759-0.812
			c-0.237-0.222-0.441-0.447-0.578-0.636C211.763,133.039,211.686,132.896,211.686,132.896z"/>
	</g>
	<g>
		<path fill="#2086CC" d="M208.098,137.282c0,0,0.073-0.134,0.198-0.305c0.126-0.175,0.304-0.384,0.516-0.578
			c0.424-0.386,0.98-0.625,1.528-0.602s1.088,0.31,1.486,0.734c0.199,0.213,0.363,0.439,0.478,0.626
			c0.114,0.182,0.179,0.324,0.179,0.324s-0.073,0.135-0.198,0.307c-0.126,0.176-0.304,0.386-0.516,0.58
			c-0.424,0.387-0.98,0.624-1.528,0.597s-1.088-0.316-1.486-0.739c-0.199-0.212-0.363-0.438-0.478-0.624
			C208.162,137.422,208.098,137.282,208.098,137.282z"/>
	</g>
	<g>
		<path fill="#2086CC" d="M215.273,135.688c0,0,0.082-0.126,0.217-0.285c0.135-0.162,0.321-0.354,0.538-0.527
			c0.432-0.344,0.968-0.531,1.467-0.458c0.498,0.073,0.959,0.406,1.274,0.864c0.157,0.229,0.281,0.469,0.364,0.665
			c0.084,0.191,0.126,0.338,0.126,0.338s-0.082,0.127-0.217,0.286c-0.135,0.163-0.322,0.356-0.538,0.53
			c-0.433,0.346-0.969,0.53-1.467,0.453c-0.498-0.076-0.958-0.413-1.273-0.869c-0.158-0.229-0.282-0.467-0.365-0.662
			C215.316,135.833,215.273,135.688,215.273,135.688z"/>
	</g>
	<g>
		<path fill="#2086CC" d="M204.509,142.465c0,0,0.035-0.15,0.121-0.346c0.085-0.201,0.225-0.45,0.405-0.685
			c0.362-0.475,0.937-0.81,1.554-0.86c0.314-0.009,0.631,0.035,0.925,0.15c0.303,0.127,0.57,0.31,0.784,0.523
			c0.22,0.237,0.374,0.482,0.467,0.679c0.094,0.193,0.13,0.338,0.13,0.338s-0.101,0.125-0.245,0.282
			c-0.146,0.162-0.334,0.355-0.523,0.53c-0.4,0.379-0.843,0.631-1.326,0.659c-0.484,0.038-1.007-0.169-1.461-0.499
			c-0.229-0.169-0.427-0.352-0.579-0.505C204.607,142.583,204.509,142.465,204.509,142.465z"/>
	</g>
	<g>
		<path fill="#2086CC" d="M209.891,140.073c0,0,0.084-0.137,0.231-0.313c0.147-0.181,0.357-0.398,0.609-0.601
			c0.505-0.405,1.178-0.669,1.851-0.67c0.673-0.002,1.346,0.26,1.851,0.666c0.252,0.203,0.462,0.422,0.609,0.603
			c0.147,0.177,0.231,0.315,0.231,0.315s-0.084,0.138-0.231,0.315c-0.147,0.181-0.357,0.4-0.609,0.603
			c-0.505,0.406-1.178,0.668-1.851,0.666c-0.673-0.001-1.346-0.266-1.851-0.67c-0.252-0.203-0.462-0.42-0.609-0.601
			C209.975,140.21,209.891,140.073,209.891,140.073z"/>
	</g>
	<g>
		<path fill="#2086CC" d="M220.456,132.896c0,0,0.057-0.147,0.172-0.341c0.114-0.197,0.285-0.439,0.503-0.668
			c0.436-0.457,1.071-0.785,1.753-0.82c0.676-0.037,1.41,0.229,1.926,0.708c0.254,0.236,0.451,0.514,0.541,0.736
			c0.1,0.237,0.09,0.385,0.09,0.385s-0.153,0.083-0.306,0.208c-0.137,0.119-0.333,0.289-0.569,0.492
			c-0.421,0.354-0.949,0.609-1.529,0.636c-0.576,0.026-1.193-0.179-1.695-0.529c-0.251-0.176-0.47-0.366-0.629-0.527
			C220.555,133.021,220.456,132.896,220.456,132.896z"/>
	</g>
	<g>
		<path fill="#2086CC" d="M218.264,139.275c0,0,0.098-0.141,0.272-0.323c0.175-0.185,0.43-0.411,0.737-0.62
			c0.616-0.417,1.451-0.695,2.301-0.688c0.422,0.005,0.849,0.07,1.251,0.206c0.393,0.124,0.772,0.322,1.087,0.553
			c0.297,0.218,0.572,0.487,0.726,0.709c0.152,0.211,0.205,0.361,0.205,0.361s-0.128,0.092-0.352,0.252
			c-0.09,0.064-0.2,0.143-0.326,0.232c-0.123,0.086-0.276,0.192-0.426,0.275c-0.302,0.169-0.641,0.32-1.021,0.427
			c-0.37,0.1-0.768,0.152-1.17,0.154c-0.799-0.011-1.613-0.261-2.234-0.653c-0.31-0.197-0.57-0.405-0.756-0.582
			C218.372,139.409,218.264,139.275,218.264,139.275z"/>
	</g>
	<g>
		<path fill="#2086CC" d="M223.049,135.887c0,0,0.076-0.146,0.221-0.334c0.144-0.191,0.362-0.429,0.628-0.646
			c0.533-0.441,1.287-0.733,2.065-0.73c0.383-0.004,0.789,0.089,1.146,0.217c0.363,0.135,0.711,0.364,0.972,0.59
			c0.27,0.239,0.479,0.535,0.59,0.741c0.116,0.21,0.158,0.361,0.158,0.361s-0.135,0.11-0.327,0.247
			c-0.201,0.146-0.427,0.296-0.697,0.467c-0.281,0.173-0.563,0.3-0.88,0.399c-0.323,0.108-0.642,0.135-0.985,0.146
			c-0.675-0.006-1.374-0.246-1.929-0.614c-0.278-0.189-0.512-0.386-0.686-0.554C223.153,136.014,223.049,135.887,223.049,135.887z"
			/>
	</g>
	<g>
		<path fill="#2086CC" d="M229.028,133.495c0,0,0.061-0.145,0.184-0.332c0.121-0.191,0.303-0.423,0.535-0.638
			c0.462-0.429,1.133-0.709,1.838-0.663c0.351,0.029,0.703,0.12,1.031,0.299c0.322,0.17,0.616,0.423,0.827,0.71
			c0.208,0.288,0.334,0.594,0.365,0.836c0.035,0.239,0.004,0.385,0.004,0.385s-0.158,0.06-0.344,0.146
			c-0.188,0.09-0.413,0.227-0.639,0.365c-0.222,0.131-0.451,0.25-0.696,0.328c-0.118,0.035-0.243,0.07-0.371,0.081
			c-0.124,0.018-0.256,0.014-0.387,0.013c-0.521-0.038-1.079-0.292-1.536-0.673c-0.229-0.192-0.429-0.395-0.574-0.563
			C229.12,133.623,229.028,133.495,229.028,133.495z"/>
	</g>
	<g>
		<path fill="#20B1CC" d="M196.634,170.474c-0.582,0.939-1.098,1.903-1.574,2.852c-0.465,0.95-0.844,1.941-1.034,2.85
			c-0.086,0.451-0.11,0.884-0.052,1.199c0.057,0.33,0.212,0.448,0.339,0.52c0.063,0.04,0.156,0.074,0.263,0.115l0.018,0.009
			c-0.056-0.034,0.128,0.077-0.124-0.076l0.006,0.003l0.012,0.005l0.023,0.009l0.095,0.038l0.189,0.076
			c0.105,0.031,0.039-0.052,0.052-0.048c0.151-0.026,0.487-0.061,0.83-0.168c0.706-0.204,1.553-0.637,2.368-1.11
			c0.82-0.497,1.646-1.053,2.46-1.648c0.81-0.603,1.613-1.233,2.409-1.881l1.174-0.995l1.118-0.989l6.04-5.34l-1.292,8.225
			c-0.061,0.39-0.133,0.944-0.177,1.425c-0.045,0.498-0.078,0.996-0.103,1.485c-0.041,0.977-0.02,1.94,0.11,2.78
			c0.098,0.843,0.34,1.568,0.563,1.888c0.109,0.165,0.183,0.219,0.226,0.261c0.024,0.017,0.055,0.034,0.095,0.055
			c0.021,0.011,0.057,0.011,0.082,0.025l0.021,0.011l0.003,0.001l0.001,0.001c-0.722-0.117-0.196-0.032-0.355-0.058l0.026,0.003
			l0.053,0.006l0.209,0.023l0.42,0.047c0.118,0.01,0.352,0.051,0.277,0.005c-0.017-0.05-0.045-0.055-0.049-0.021
			c0.11-0.052,0.224-0.084,0.345-0.106c0.121-0.02,0.27-0.132,0.409-0.183c0.141-0.045,0.296-0.16,0.45-0.263
			c0.155-0.103,0.315-0.188,0.475-0.337c0.323-0.246,0.644-0.547,0.975-0.861c0.321-0.33,0.653-0.659,0.96-1.042
			c0.318-0.363,0.613-0.766,0.919-1.16c0.3-0.404,0.594-0.815,0.876-1.239c0.269-0.411,0.566-0.887,0.772-1.243l4.368-7.571
			l0.691,8.267c0.031,0.363,0.083,0.799,0.135,1.201l0.177,1.228c0.137,0.813,0.262,1.626,0.439,2.401
			c0.175,0.771,0.372,1.535,0.605,2.148c0.109,0.299,0.25,0.556,0.291,0.659c0.007,0.037-0.006,0.052-0.151,0.017
			c-0.057,0.006-0.16-0.023-0.245,0.007c0.043-0.002-0.396,0.024-0.208,0.014h0.006h0.01h0.021l0.041-0.001h0.083
			c0.11-0.002-0.006,0-0.083,0.024c-0.062,0.012-0.179,0.085-0.172,0.084c-0.006,0.006-0.01,0.016-0.011,0.027
			c-0.001,0.022,0.036-0.005,0.062,0.002c0.075-0.043,0.175-0.114,0.287-0.216c0.223-0.204,0.456-0.507,0.675-0.826
			c0.439-0.646,0.861-1.388,1.247-2.149c0.801-1.524,1.497-3.146,2.229-4.778c0.052,1.797-0.085,3.579-0.354,5.386
			c-0.155,0.899-0.33,1.808-0.651,2.736c-0.162,0.467-0.343,0.939-0.633,1.443c-0.145,0.253-0.328,0.515-0.563,0.78
			c-0.147,0.141-0.265,0.271-0.453,0.408l-0.292,0.195c-0.084,0.06-0.313,0.153-0.474,0.208c-0.181,0.063-0.397,0.109-0.398,0.109
			l-0.08,0.02l-0.04,0.011l-0.02,0.005l-0.011,0.002l-0.005,0.001l-0.218,0.014c-0.301-0.001-0.628-0.026-0.887-0.113
			c-0.566-0.162-0.933-0.426-1.253-0.673c-0.594-0.502-0.938-0.984-1.256-1.446c-0.609-0.922-1.03-1.803-1.4-2.691
			c-0.366-0.887-0.697-1.763-0.969-2.65l-0.396-1.332c-0.126-0.453-0.242-0.877-0.36-1.374l5.06,0.694
			c-0.28,0.658-0.53,1.166-0.813,1.736c-0.281,0.55-0.582,1.094-0.895,1.633c-0.328,0.535-0.666,1.063-1.044,1.584
			c-0.358,0.525-0.779,1.036-1.205,1.545l-0.685,0.751c-0.245,0.244-0.517,0.48-0.777,0.719c-0.249,0.242-0.561,0.465-0.864,0.688
			c-0.304,0.224-0.599,0.447-0.972,0.639c-0.367,0.191-0.689,0.405-1.104,0.56c-0.413,0.154-0.833,0.3-1.256,0.425
			c-0.563,0.103-1.149,0.166-1.725,0.186c-0.353,0.017-0.399-0.012-0.561-0.021l-0.42-0.04l-0.21-0.02l-0.053-0.005l-0.026-0.003
			l-0.38-0.063l-0.022-0.006l-0.183-0.048c-0.243-0.068-0.483-0.129-0.724-0.219c-0.488-0.183-0.959-0.417-1.406-0.71
			c-0.894-0.586-1.592-1.384-2.073-2.173c-0.965-1.604-1.26-3.124-1.425-4.505c-0.137-1.396-0.087-2.692,0.027-3.959
			c0.056-0.633,0.146-1.254,0.256-1.87c0.114-0.633,0.227-1.189,0.404-1.899l4.747,2.885c-0.5,0.387-0.931,0.712-1.409,1.04
			l-1.421,0.951c-0.952,0.625-1.938,1.209-2.963,1.749c-1.019,0.55-2.085,1.05-3.222,1.472c-1.146,0.418-2.337,0.793-3.778,0.877
			c-0.726,0.033-1.492,0.016-2.386-0.304c-0.24-0.092-0.572-0.238-0.707-0.329l-0.483-0.34c-0.33-0.274-0.65-0.6-0.901-1
			c-0.52-0.797-0.66-1.784-0.543-2.531c0.102-0.768,0.365-1.393,0.665-1.947c0.6-1.108,1.383-1.963,2.183-2.762
			C194.829,171.778,195.71,171.085,196.634,170.474z"/>
	</g>
	<g>
		<path fill="#20B1CC" d="M181.384,182.734c-1.349,1.236-2.646,2.528-3.648,3.916c-0.472,0.692-0.904,1.433-0.993,2.031
			c-0.047,0.295,0.005,0.502,0.086,0.605c0.078,0.082,0.21,0.241,0.4,0.27l0.285,0.187c0.095,0.06,0.086-0.029,0.118-0.025
			c0.041-0.037,0.018-0.018,0.188-0.03c0.219,0.02,0.524-0.038,0.821-0.092c0.323-0.089,0.645-0.18,0.995-0.321
			c0.339-0.121,0.695-0.298,1.043-0.467c0.7-0.353,1.401-0.791,2.093-1.237c0.345-0.227,0.685-0.467,1.019-0.711
			c0.324-0.239,0.681-0.517,0.943-0.733l6.873-5.654l-3.245,8.743c-0.106,0.286-0.264,0.744-0.368,1.126
			c-0.113,0.398-0.212,0.802-0.276,1.192c-0.041,0.197-0.067,0.389-0.086,0.577c-0.031,0.191-0.05,0.375-0.054,0.55
			c-0.03,0.359-0.016,0.691,0.024,0.967c0.032,0.285,0.108,0.5,0.182,0.646c0.077,0.146,0.147,0.202,0.209,0.262
			c0.057,0.012,0.064,0.049,0.117,0.077c0.073,0.016,0.134,0.042,0.189,0.083l0.01,0.008l0.003,0.002l0.001,0.001
			c0.163,0.07-0.222-0.094-0.18-0.076l0.022,0.008l0.086,0.03l0.174,0.061c0.042,0.012,0.152,0.059,0.137,0.043
			c-0.017-0.017-0.035-0.03-0.055-0.04c-0.133-0.036-0.026-0.03-0.008-0.036c0.143-0.03,0.599-0.135,1.144-0.499
			c0.541-0.335,1.138-0.85,1.711-1.419c0.585-0.568,1.157-1.211,1.703-1.891c0.271-0.341,0.538-0.69,0.796-1.045l0.713-1.026
			l6.602-9.49l-0.769,11.394c-0.023,0.353-0.04,0.837-0.045,1.261c-0.005,0.438,0,0.876,0.016,1.31
			c0.033,0.863,0.104,1.712,0.219,2.481c0.109,0.752,0.318,1.481,0.481,1.778c0.072,0.147,0.104,0.145-0.084,0.034
			c-0.103-0.058-0.193-0.079-0.371-0.115l0.147,0.03c-0.069-0.02-0.143-0.03-0.215-0.032c-0.197,0.008-0.168,0.01-0.188,0.017
			c-0.039,0.028,0.167-0.011,0.41-0.13c0.247-0.114,0.547-0.299,0.86-0.514c0.627-0.424,1.286-0.989,1.925-1.591
			c0.637-0.61,1.282-1.252,1.903-1.928l0.92-1.03l0.879-1.028l3.774-4.418l0.495,5.344c0.032,0.341,0.09,0.76,0.146,1.143
			c0.059,0.392,0.124,0.782,0.197,1.169c0.139,0.776,0.302,1.542,0.506,2.266c0.206,0.711,0.446,1.422,0.715,1.905
			c0.125,0.241,0.264,0.399,0.258,0.439c-0.011,0.005-0.063,0.038-0.106,0.052l-0.015,0.014l-0.003,0.004l-0.001,0.002
			c-0.104,0.02,0.233-0.045-0.235,0.046l0.01-0.002l0.039-0.006l0.157-0.026l0.314-0.052c0.015-0.044,0.007-0.017,0.087-0.028
			l0.386-0.244c0.263-0.225,0.54-0.452,0.8-0.744c0.272-0.265,0.514-0.593,0.774-0.896c0.252-0.318,0.513-0.634,0.753-0.973
			c0.974-1.341,1.874-2.783,2.762-4.251c-0.291,1.696-0.726,3.365-1.332,5.01c-0.294,0.828-0.64,1.648-1.109,2.453
			c-0.219,0.405-0.505,0.808-0.806,1.212l-0.56,0.599c-0.266,0.228-0.644,0.464-0.986,0.642l-0.295,0.124l-0.146,0.062l-0.037,0.016
			l-0.009,0.004l-0.256,0.048l-0.043,0.005l-0.174,0.016c-0.469,0.049-0.933-0.059-1.332-0.21c-0.768-0.336-1.232-0.802-1.62-1.226
			c-0.753-0.866-1.215-1.712-1.635-2.565c-0.408-0.85-0.754-1.697-1.059-2.551c-0.148-0.428-0.288-0.856-0.42-1.288
			c-0.133-0.439-0.254-0.847-0.376-1.336l4.27,0.926c-0.292,0.479-0.551,0.895-0.843,1.325l-0.88,1.266
			c-0.604,0.833-1.23,1.664-1.935,2.462c-0.706,0.802-1.45,1.592-2.362,2.356c-0.451,0.385-0.955,0.754-1.561,1.105
			c-0.609,0.344-1.31,0.696-2.311,0.876c-0.261,0.038-0.472,0.084-0.913,0.073c-0.193-0.003-0.388-0.015-0.579-0.036l-0.212-0.029
			c-0.66-0.104-1.201-0.335-1.722-0.634c-1.028-0.614-1.616-1.409-2.032-2.095c-0.808-1.398-1.08-2.587-1.327-3.738
			c-0.231-1.145-0.332-2.236-0.387-3.315c-0.025-0.538-0.039-1.072-0.04-1.606c0-0.548,0.006-1.036,0.039-1.654l5.833,1.903
			c-0.344,0.542-0.631,0.941-0.964,1.388c-0.323,0.435-0.657,0.86-1.002,1.28c-0.693,0.839-1.435,1.655-2.267,2.442
			c-0.849,0.774-1.765,1.527-2.918,2.184c-0.57,0.328-1.203,0.632-1.938,0.86c-0.729,0.228-1.552,0.393-2.465,0.347
			c-0.469-0.034-0.855-0.061-1.46-0.232l-0.412-0.125c-0.134-0.045-0.135-0.055-0.208-0.083l-0.169-0.072l-0.085-0.036l-0.021-0.009
			l-0.189-0.082l-0.009-0.005l-0.018-0.01l-0.068-0.039c-0.365-0.211-0.725-0.437-1.071-0.673c-0.341-0.259-0.66-0.596-0.967-0.912
			c-0.579-0.676-1.02-1.473-1.261-2.254c-0.247-0.776-0.35-1.537-0.36-2.229c-0.018-0.699,0.041-1.354,0.148-1.964
			c0.092-0.623,0.243-1.198,0.42-1.755c0.17-0.562,0.372-1.093,0.592-1.615c0.229-0.539,0.438-0.992,0.759-1.588l3.628,3.089
			c-0.476,0.305-0.881,0.517-1.322,0.758c-0.435,0.229-0.873,0.449-1.32,0.658c-0.896,0.416-1.813,0.797-2.802,1.089
			c-0.499,0.144-0.991,0.287-1.53,0.381c-0.52,0.112-1.091,0.16-1.666,0.182c-0.604-0.013-1.209-0.038-1.872-0.244
			c-0.561-0.091-1.731-0.812-1.806-1.043c-0.561-0.483-0.929-1.151-1.09-1.933c-0.142-0.778,0.031-1.507,0.281-2.06
			c0.521-1.117,1.268-1.81,2.023-2.428C178.021,184.263,179.664,183.401,181.384,182.734z"/>
	</g>
	<g>
		<path fill="#20B1CC" d="M166.133,198.285c-0.487,0.842-0.941,1.686-1.36,2.529c-0.423,0.837-0.785,1.701-1.042,2.531
			c-0.129,0.412-0.226,0.822-0.258,1.189c-0.043,0.362-0.002,0.688,0.092,0.815c0.106,0.133,0.135,0.04,0.23,0.061
			c0.034,0.002,0.076,0.005,0.106,0.014l0.003,0.001h0.001c0.193,0.081-0.261-0.109-0.212-0.089l0.022,0.005l0.044,0.009
			l0.087,0.018l0.176,0.036l0.352,0.072c0.118,0.023,0.085-0.053,0.126-0.063c-0.012-0.063,0.368-0.131,0.645-0.234
			c0.315-0.137,0.631-0.269,0.97-0.474c0.328-0.164,0.678-0.41,1.014-0.618c0.34-0.246,0.679-0.473,1.013-0.748
			c0.673-0.516,1.342-1.082,1.985-1.678l0.958-0.905c0.307-0.298,0.642-0.631,0.89-0.901l8.856-9.675l-4.357,12.803
			c-0.132,0.389-0.288,0.891-0.423,1.343c-0.143,0.463-0.275,0.929-0.394,1.392c-0.236,0.925-0.412,1.846-0.527,2.695
			c-0.05,0.422-0.077,0.825-0.077,1.184c0.003,0.35,0.053,0.649,0.093,0.806c0.039,0.168,0.077,0.117-0.077-0.063
			c-0.153-0.185-0.429-0.281-0.408-0.269c0.005-0.002,0.009-0.003,0.013-0.001l0.007,0.003l0.001,0.002h0.001v0.001
			c-0.111-0.002,0.251,0.004-0.25-0.004l0.05-0.002l0.396-0.013c0.228-0.011,0.634,0.006,0.618-0.041
			c0.079-0.034,0.134-0.032,0.241-0.049c0.151-0.053,0.304-0.1,0.459-0.142c0.314-0.13,0.641-0.242,0.973-0.446
			c0.332-0.169,0.675-0.397,1.017-0.618c0.338-0.249,0.68-0.499,1.012-0.791c0.335-0.282,0.659-0.591,0.984-0.907
			c0.327-0.313,0.646-0.647,0.949-0.989c0.294-0.323,0.627-0.733,0.827-0.992l10.086-13.029l-4.875,15.327
			c-0.104,0.327-0.237,0.812-0.336,1.229c-0.103,0.435-0.191,0.871-0.265,1.305c-0.14,0.863-0.251,1.718-0.24,2.48
			c0.009,0.753,0.127,1.404,0.252,1.673c0.062,0.138,0.086,0.217,0.199,0.323c0.037,0.018,0.055,0.06,0.106,0.074l0.07,0.032
			l0.035,0.019l0.019,0.01l0.004,0.003l0.002,0.001c-0.455-0.03-0.122-0.008-0.223-0.015l0.023,0.003l0.757,0.087
			c0.167,0.027,0.132-0.01,0.195-0.008c0.042-0.006,0.087-0.002,0.135,0.004c0.068,0.044,0.279-0.03,0.444-0.061
			c0.351-0.041,0.725-0.239,1.107-0.391c0.381-0.193,0.772-0.395,1.151-0.662c0.389-0.237,0.759-0.542,1.143-0.826
			c0.74-0.609,1.491-1.263,2.196-1.977s1.411-1.451,2.091-2.231c-0.276,0.998-0.632,1.984-1.075,2.931
			c-0.226,0.473-0.449,0.951-0.709,1.414c-0.242,0.475-0.532,0.925-0.827,1.378c-0.319,0.439-0.611,0.903-0.996,1.316
			c-0.354,0.433-0.77,0.836-1.206,1.236c-0.214,0.203-0.482,0.369-0.728,0.555c-0.239,0.19-0.521,0.35-0.82,0.497
			c-0.306,0.148-0.548,0.314-0.984,0.423c-0.2,0.057-0.402,0.112-0.607,0.158c-0.186,0.04-0.463,0.102-0.551,0.101l-0.758,0.074
			l-0.024,0.002l-0.263-0.018l-0.075-0.008l-0.15-0.017l-0.302-0.038c-0.199-0.021-0.413-0.091-0.619-0.143
			c-0.836-0.236-1.657-0.77-2.229-1.417c-0.583-0.646-0.955-1.351-1.221-2.016c-0.267-0.669-0.423-1.316-0.53-1.942
			c-0.202-1.248-0.248-2.423-0.191-3.568c0.028-0.571,0.076-1.136,0.141-1.697c0.072-0.577,0.134-1.084,0.271-1.737l5.211,2.298
			c-0.39,0.618-0.696,1.051-1.068,1.548c-0.359,0.481-0.733,0.948-1.134,1.402c-0.389,0.462-0.824,0.892-1.271,1.319
			c-0.442,0.43-0.93,0.836-1.426,1.235c-0.525,0.383-1.039,0.779-1.644,1.105c-0.569,0.349-1.23,0.635-1.893,0.899l-1.052,0.339
			c-0.408,0.101-0.878,0.177-1.318,0.241c-0.531,0.081-0.66,0.053-0.959,0.069l-0.396,0.007l-0.049,0.001l-0.263-0.005l-0.012-0.001
			l-0.024-0.003l-0.047-0.005l-0.191-0.021l-0.38-0.05c-1.02-0.146-2.311-0.696-3.185-1.661c-0.884-0.951-1.265-2.014-1.455-2.872
			c-0.188-0.876-0.198-1.64-0.175-2.347c0.035-0.697,0.119-1.347,0.227-1.97c0.217-1.239,0.559-2.374,0.937-3.472
			c0.189-0.548,0.393-1.086,0.606-1.618c0.222-0.542,0.442-1.028,0.722-1.614l4.499,3.128c-0.443,0.38-0.82,0.673-1.234,0.992
			c-0.405,0.312-0.818,0.611-1.245,0.896c-0.85,0.573-1.713,1.13-2.648,1.62c-0.456,0.251-0.953,0.473-1.437,0.698
			c-0.518,0.204-0.995,0.432-1.563,0.586c-0.533,0.176-1.131,0.299-1.735,0.394c-0.656,0.048-1.224,0.145-2.181-0.057
			c-0.193-0.042-0.472-0.094-0.577-0.146l-0.323-0.154l-0.55-0.254c-0.172-0.114-0.339-0.226-0.501-0.355
			c-0.685-0.526-1.178-1.495-1.207-2.302c-0.054-0.813,0.144-1.449,0.365-1.993c0.236-0.543,0.521-1.006,0.821-1.438
			c0.604-0.862,1.308-1.577,2.017-2.26C164.563,199.444,165.326,198.831,166.133,198.285z"/>
	</g>
	<g>
		<path fill="#20B1CC" d="M157.461,214.731c-0.459,0.958-0.914,1.881-1.324,2.801c-0.393,0.926-0.781,1.831-1.016,2.696
			c-0.112,0.431-0.208,0.842-0.215,1.188c-0.014,0.342,0.07,0.599,0.151,0.558c0.092-0.044-0.025-0.328,0.034-0.335l0.028-0.013
			l0.006-0.001h0.003v-0.001c0.058,0.022-0.5-0.194-0.261-0.102l0.012,0.002l0.094,0.017l0.376,0.065
			c0.105,0.011,0.294,0.07,0.332,0.04l0.052-0.09c0.012-0.021,0.021-0.033,0.03-0.037l0.199-0.062
			c0.154-0.055,0.273-0.056,0.45-0.135c0.169-0.067,0.334-0.137,0.501-0.191l0.538-0.24c0.354-0.146,0.736-0.381,1.103-0.573
			c0.38-0.222,0.758-0.422,1.137-0.673c0.381-0.228,0.751-0.5,1.136-0.741c0.38-0.259,0.762-0.513,1.135-0.79l1.12-0.825
			c0.361-0.271,0.759-0.577,1.055-0.821l7.957-6.58l-2.954,10.004l-0.414,1.404c-0.14,0.479-0.272,0.963-0.396,1.443
			c-0.247,0.962-0.5,1.912-0.668,2.83c-0.095,0.456-0.176,0.899-0.23,1.313c-0.056,0.408-0.074,0.798-0.089,1.045
			c-0.049,0.248,0.112,0.297-0.415-0.203c-0.143-0.102-0.31-0.202-0.501-0.25l-0.035-0.008l-0.009-0.001l-0.273-0.075l0.012,0.004
			l0.048,0.016l0.096,0.032l0.095,0.031c0.018,0.006-0.065-0.017-0.095-0.02c-0.085-0.013-0.172-0.012-0.254,0.002
			c-0.042,0.01-0.004,0.009-0.009,0.018c-0.004,0.021,0.053,0.02,0.104,0.023c0.227,0.005,0.637-0.089,1.051-0.208
			c0.422-0.119,0.867-0.304,1.324-0.481c0.914-0.368,1.857-0.803,2.807-1.254c0.957-0.442,1.913-0.921,2.9-1.376
			c0.984-0.461,1.97-0.936,3.008-1.371c-0.556,0.981-1.2,1.884-1.87,2.769c-0.668,0.89-1.393,1.727-2.155,2.545
			c-0.771,0.81-1.583,1.59-2.495,2.324c-0.457,0.37-0.938,0.718-1.479,1.058c-0.546,0.341-1.124,0.666-1.936,0.921
			c-0.208,0.063-0.41,0.124-0.682,0.164c-0.138,0.021-0.232,0.043-0.406,0.057c-0.216,0.01-0.436,0.007-0.653-0.01l-0.395-0.04
			l-0.101-0.011l-0.05-0.006l-0.013-0.001l-0.305-0.087l-0.081-0.028c-0.438-0.152-0.842-0.373-1.181-0.661
			c-0.671-0.56-1.042-1.219-1.244-1.707c-0.229-0.529-0.326-0.953-0.415-1.369c-0.162-0.811-0.177-1.492-0.179-2.147
			c0.004-0.652,0.037-1.27,0.093-1.87c0.142-1.192,0.32-2.332,0.575-3.443c0.128-0.556,0.264-1.105,0.409-1.653
			c0.145-0.557,0.292-1.071,0.491-1.663l5.003,3.423c-0.491,0.387-0.902,0.684-1.355,1.007c-0.443,0.317-0.897,0.617-1.364,0.901
			c-0.931,0.573-1.876,1.131-2.906,1.598c-0.498,0.247-1.04,0.462-1.567,0.683c-0.565,0.189-1.096,0.396-1.707,0.541
			c-0.303,0.075-0.593,0.156-0.904,0.22c-0.324,0.056-0.651,0.096-0.975,0.14c-0.313,0.051-0.704,0.035-1.049,0.046
			c-0.188-0.002-0.33,0.01-0.555-0.008c-0.242-0.024-0.484-0.057-0.724-0.097c-0.239-0.039-0.474-0.093-0.702-0.149
			c-0.212-0.058-0.258-0.107-0.395-0.162l-0.346-0.16l-0.087-0.04l-0.011-0.005l-0.272-0.106l-0.01-0.006l-0.038-0.023l-0.077-0.047
			l-0.303-0.194c-0.398-0.269-0.813-0.658-1.133-1.133c-0.309-0.487-0.517-1.049-0.572-1.558c-0.121-1.034,0.125-1.806,0.398-2.424
			c0.284-0.62,0.61-1.131,0.972-1.59c0.718-0.914,1.503-1.66,2.351-2.322C155.636,215.814,156.512,215.218,157.461,214.731z"/>
	</g>
	<g>
		<path fill="#20B1CC" d="M152.077,229.384c0,0-0.035,0.426-0.117,1.113c-0.089,0.646-0.217,1.569-0.37,2.678
			c-0.069,0.521-0.147,1.066-0.181,1.603c-0.048,0.524-0.046,1.056,0.022,1.422c0.057,0.165,0.087,0.318,0.156,0.315
			c0.062,0.009,0.099-0.114,0.021-0.309c-0.135-0.425-0.562-0.51-0.104-0.47c0.024-0.027,0.41-0.038,0.781-0.112
			c0.397-0.07,0.882-0.188,1.392-0.331c0.516-0.136,1.048-0.307,1.589-0.459c0.534-0.166,1.073-0.318,1.591-0.459
			c1.037-0.281,1.983-0.512,2.714-0.624c0.706-0.14,1.18-0.181,1.18-0.181s-0.02,0.478-0.228,1.195
			c-0.184,0.744-0.57,1.709-1.229,2.747c-0.33,0.518-0.729,1.053-1.222,1.566c-0.485,0.525-1.066,1.024-1.751,1.49
			c-0.69,0.457-1.495,0.87-2.463,1.152c-0.988,0.269-2.057,0.451-3.449,0.182c-0.196-0.042-0.39-0.089-0.581-0.141l-0.266-0.098
			l-0.125-0.051l-0.016-0.006l-0.175-0.059l-0.016-0.007l-0.064-0.028l-0.127-0.058l-0.501-0.248
			c-0.688-0.395-1.39-1.011-1.851-1.799c-0.465-0.789-0.616-1.603-0.638-2.275c-0.024-0.689,0.081-1.223,0.22-1.721
			c0.282-0.96,0.7-1.667,1.115-2.281c0.432-0.603,0.875-1.101,1.315-1.523c0.872-0.847,1.732-1.386,2.348-1.739
			C151.674,229.525,152.077,229.384,152.077,229.384z"/>
	</g>
</g>
</svg>
