<?xml version="1.0" encoding="utf-8"?>
<!-- Generator: Adobe Illustrator 16.0.0, SVG Export Plug-In . SVG Version: 6.00 Build 0)  -->
<!DOCTYPE svg PUBLIC "-//W3C//DTD SVG 1.1//EN" "http://www.w3.org/Graphics/SVG/1.1/DTD/svg11.dtd">
<svg version="1.1" id="Capa_1" xmlns="http://www.w3.org/2000/svg" xmlns:xlink="http://www.w3.org/1999/xlink" x="0px" y="0px"
	 width="300px" height="300px" viewBox="0 0 300 300" enable-background="new 0 0 300 300" xml:space="preserve">
<g>
	<g>
		<ellipse fill="#DFE3EB" enable-background="new    " cx="109.341" cy="286.52" rx="100.022" ry="13.48"/>
		<path fill="#F9AE81" d="M50.75,123.067c0,0-15.941-14.924-15.941-28.831c3.392-3.053,14.245-11.195,16.28-11.195
			c2.036,0,2.036-6.105-5.088-6.445c-7.122,0.339-12.89,7.802-12.89,7.802s-3.73-12.211-10.175-8.819
			c-3.393,3.053-2.036,5.767-2.036,5.767s-4.409-5.088-5.766-1.357c-1.357,3.731-0.34,5.766-0.34,5.766s-5.427-1.356-4.07,5.655
			c-1.356,0-4.975,5.879,3.166,9.497c0.904,1.583,2.035,6.332,7.236,4.07c0,0-11.759,44.209,20.805,50.315
			c14.924-0.679,17.639-17.979,17.639-17.979l-3.731-6.445L50.75,123.067z"/>
		<path fill="#F79E77" d="M41.932,155.292c1.118-0.051,2.161-0.205,3.146-0.429l2.6-8.392
			c-27.477,7.464-26.551-41.495-26.551-41.495S9.368,149.187,41.932,155.292z"/>
		<path opacity="0.23" fill="#9F665C" enable-background="new    " d="M55.839,130.869l-1.505-2.307
			c-8.231,5.22-22.842,11.386-34.937,0.03c1.277,11.595,6.595,23.71,22.534,26.7c14.924-0.679,17.639-17.979,17.639-17.979
			L55.839,130.869z"/>
		<path fill="#CDD2D8" d="M79.583,104.412c0,0-26.458,16.959-28.833,18.655c1.696,3.731,5.089,7.801,5.089,7.801L79.583,104.412z"/>
		<path fill="#203A49" d="M127.05,230.255c0,0,17.639,27.138,26.457,48.166c2.714,0.679,10.854-0.678,10.854-0.678
			s-8.141-52.237-7.463-59.699C148.759,220.079,127.05,230.255,127.05,230.255z"/>
		<path fill="#203A49" d="M40.893,226.863c0,0,14.925,47.486,16.96,54.949c3.053,0.679,8.141-0.679,8.141-0.679
			s1.358-40.704,2.715-49.522C68.028,229.576,40.893,226.863,40.893,226.863z"/>
		<path fill="#CDD2D8" d="M83.992,101.02c0,0-66.258,40.365-48.168,131.27c3.618,3.619,16.734,11.308,25.328,12.664
			c1.808-7.235,3.617-14.021,3.617-14.021l8.143,17.639c0,0,47.031,9.498,85.023-27.588c-3.166-16.282-7.235-66.482,8.594-103.117
			c-0.905-3.166-9.498-18.995-25.327-27.135C131.253,93.897,83.992,101.02,83.992,101.02z"/>
		<path fill="#F9AE81" d="M147.401,73.544c-1.182-1.771-3.906-2.129-6.607-1.967c0.18-2.321,0.423-4.728,0.745-7.178
			c-0.003,0.021-0.006,0.042-0.009,0.064c-0.071-0.026-0.143-0.049-0.213-0.077C117.572,46.069,93.15,51.497,93.15,51.497
			s-4.07,8.141-4.07,14.246c-1.018,0.678-3.053,17.13-3.053,17.13s-5.879,11.928,0.452,20.974c5.201,0,20.804,3.166,54.272-11.307
			c-0.239-2.461-0.476-7.098-0.352-12.879C144.307,78.302,149.074,76.052,147.401,73.544z"/>
		<path fill="#203A49" d="M59.436,280.682c0,0-13.115,8.143-19.447,9.498c-0.452,2.262,3.618,3.166,9.045,1.357
			c5.428-1.811,14.473-9.046,14.473-10.855C63.507,278.873,59.436,280.682,59.436,280.682z"/>
		<path fill="#203A49" d="M161.162,277.291c0,0,13.115,8.141,19.447,9.497c0.451,2.262-3.618,3.166-9.045,1.356
			c-5.43-1.81-14.474-9.045-14.474-10.854C157.092,275.48,161.162,277.291,161.162,277.291z"/>
		<path fill="#AFAFCB" d="M134.173,154.613c0,0,8.48,15.941,13.907,41.721c0,0-7.422,43.193-73.36,52.689
			c5.521,2.261,57.758,2.601,83.215-28.039c-1.715-22.615-3.07-50.202-2.166-57.438
			C150.342,161.736,134.173,154.613,134.173,154.613z"/>
		<path fill="#F49772" d="M132.251,69.021c0,0-10.401,37.539-40.251,32.111c-3.184-0.813-5.778-1.676-7.906-2.558
			c0.447,1.794,1.204,3.583,2.386,5.271c5.201,0,20.804,3.166,54.272-11.307c-0.354-3.658-0.708-12.118,0.128-22.004L132.251,69.021
			z"/>
		<path fill="#7C3C3D" d="M130.781,54.889c0,0-0.339,16.281-1.696,21.369c2.035,0,8.141,0,8.141,0l3.053-4.41
			c0,0,10.176-1.357,8.819-5.427c-1.357-4.07-7.567-1.958-7.567-1.958L130.781,54.889z"/>
		<path fill="#F6E6D7" d="M139.261,102.716l-54.95,10.176l-2.713-6.105c0,0-18.318,14.246-31.376,30.188
			c-2.711,4.313-4.787,8.973-6.328,13.726c3.389,8.679,9.376,24.91,6.045,23.246c-3.164-1.582-7.206-5.148-9.353-7.153
			c-1.528,15.696,1.835,29.233,6.412,30.897c7.463,2.713,37.313-6.783,37.991-7.463c61.056-27.135,63.091-65.125,63.091-65.125
			L139.261,102.716z"/>
		<path fill="#F9AE81" d="M174.221,127.138c0,0,9.137,49.862-20.714,52.915c-30.527,0.68-20.804-33.016-23.517-36.406
			C124.11,146.359,174.221,127.138,174.221,127.138z"/>
		<path fill="#CDD2D8" d="M155.77,147.265c0,0,7.574,7.124,19.785,9.383c2.035-5.428,6.444-24.31-3.955-36.067
			c-8.143-9.045-23.52,4.522-23.52,4.522l4.521,11.308L155.77,147.265z"/>
		<path fill="#AFAFCB" d="M152.604,136.41l3.166,10.854c0,0,0.528,0.458,1.558,1.167c3.614-10.352,15.854-22.312,15.854-22.312
			l-22.654,5.098L152.604,136.41z"/>
		<path opacity="0.23" fill="#9F665C" enable-background="new    " d="M147.082,140.479l-4.123-1.451
			c-6.174,2.322-11.267,4.207-12.895,4.732c2.283,3.675-5.576,32.6,17.809,35.977C134.546,169.943,147.082,140.479,147.082,140.479z
			 M130.064,143.761c-0.025-0.04-0.047-0.081-0.074-0.114C129.301,143.963,129.389,143.978,130.064,143.761z"/>
		<path fill="#F79E77" d="M152.604,136.41c0,0-13.116,16.281-30.302,15.376c-5.88,0-6.333-6.783-6.333-6.783L152.604,136.41z"/>
		<path fill="#7C3C3D" d="M129.254,77.784l4.241-0.17c0,0-7.294,12.382-12.382,13.059C123.658,87.621,129.254,77.784,129.254,77.784
			z"/>
		<path fill="#7C3C3D" d="M104.437,62.238c0,0,0.228-3.392,2.036-3.392s6.784,2.035,7.01,4.975
			C112.126,63.368,104.437,62.238,104.437,62.238z"/>
		<path fill="#7C3C3D" d="M93.299,58.62c0,0,0.17,1.866-0.169,2.713c-0.34,0.848-3.901,1.357-3.901,1.357
			S89.907,59.468,93.299,58.62z"/>
		<path fill="#7C3C3D" d="M104.324,66.421c0,0-0.171,5.597,4.917,5.088c4.409-1.356,2.545-4.749,2.545-4.749h1.018
			c0,0-1.356-1.244-2.035-0.678c-0.228,0.792,1.923,3.448-2.035,4.579C106.443,70.633,105.087,69.39,104.324,66.421z"/>
		<path fill="#7C3C3D" d="M92.535,65.148c0,0-0.507,3.138-2.628,2.969c-1.696-0.254-0.679-3.478-0.679-3.478l-1.356,0.425
			l0.764,0.255c0,0-0.425,3.307,1.271,3.307C91.603,68.626,92.876,67.269,92.535,65.148z"/>
		<path fill="#DE705C" d="M88.776,87.621c0,0,23.97,10.628,23.744-10.176c-0.227,0-0.227,0-0.227,0h1.356
			c0,0-0.904,15.604-12.889,13.795C88.776,89.431,88.776,87.621,88.776,87.621z"/>
		<path fill="#DE705C" d="M112.294,73.375c0,0-3.899,0.848-1.018,3.562c2.885,2.713,6.784,0.678,5.598-1.526
			C115.686,73.205,112.294,73.375,112.294,73.375z"/>
		<path fill="#F79E77" d="M155.77,147.265c0,0,15.715,13.115,9.609,27.7c3.73-2.374,9.497-12.889,8.479-18.654
			C171.823,153.936,155.77,147.265,155.77,147.265z"/>
		<path opacity="0.23" fill="#9F665C" enable-background="new    " d="M10.025,96.441c0,0,3.902,5.766,7.633,4.41
			c3.562-1.357-4.919-8.481-4.919-8.481s11.104,7.003,9.837,3.394c-1.103-3.138-6.275-9.499-6.275-9.499s7.801,10.177,9.328,6.616
			c1.525-3.563-4.07-10.516-4.07-10.516s5.936,8.649,8.819,6.953c2.883-1.696-0.17-10.176-2.544-12.211
			c1.866,1.696,5.822,7.293,4.354,11.363c-1.356,3.958-5.993,0.339-5.993,0.339s1.584,3.958-0.112,5.201
			c-1.697,1.245-2.94-0.112-2.94-0.112s0.905,2.035-0.226,3.166c-1.131,1.13-5.202-0.453-5.202-0.453s2.94,2.94,1.357,4.522
			C17.488,102.716,13.644,102.038,10.025,96.441z"/>
		<path fill="#DE705C" d="M84.094,98.575c0,0-4.305,2.558,0.217,14.316c13.117-0.904,68.519-13.917,68.519-13.917l-5.436-4.511
			l-6.775-4.128l0.134,2.205c0,0-32.541,13.233-54.17,11.111C85.771,102.18,84.094,98.575,84.094,98.575z"/>
		<circle fill="#535866" cx="79.109" cy="124.878" r="2.035"/>
		<circle fill="#535866" cx="68.933" cy="149.752" r="2.036"/>
		<circle fill="#535866" cx="64.41" cy="188.421" r="2.035"/>
		<path fill="#DE705C" d="M84.311,112.892c13.117-0.904,68.519-13.917,68.519-13.917l-5.436-4.511"/>
		<path opacity="0.4" fill="#F6E7D7" enable-background="new    " d="M36.281,82.993c0.49-0.43,6.958-8.263,13.264-4.349
			C53.023,83.211,34.541,84.516,36.281,82.993z"/>
		<path fill="#DE705C" d="M95.136,67.483c0,0-5.546,12.032-5.256,15.51c1.159,1.16,7.575-1.304,7.575-1.304s0.433,0.145,0.071,0.507
			c-0.362,0.363-6.45,2.464-8.189,1.594C88.104,83.065,92.453,71.396,95.136,67.483z"/>
		<g>
			<path fill="#535866" d="M84.31,153.596l103.569-23.518h-18.091c0,0-10.854-27.588-44.774-22.162
				c-25.328,3.62-28.945,38.444-28.945,38.444L84.31,153.596z"/>
			<path fill="#6E767E" d="M117.327,112.439c0,0-15.831,11.759-17.642,30.301c16.283-1.357,47.49-11.759,47.49-11.759
				l-21.708-19.899C125.468,111.083,122.752,108.821,117.327,112.439z"/>
			<path fill="#E8D5CC" d="M120.851,112.51c0,0-13.474,8.184-16.526,18.359c7.123,0,25.778-12.889,25.778-12.889
				S124.584,110.814,120.851,112.51z"/>
			<polygon fill="#535866" points="123.658,110.178 119.249,104.412 125.693,102.038 126.372,109.5 			"/>
		</g>
		<path fill="#F49772" d="M93.15,51.497c0,0,32.717-0.25,37.5,15.406c1.738-7.828,0.131-12.014,0.131-12.014
			S108.271,43.917,93.15,51.497z"/>
		<path fill="#F6E7D7" d="M168.566,28.771c-0.453-10.177-14.021-14.926-19.448-8.821c0.679-2.713-1.583-14.924-18.996-17.864
			c-16.733-2.487-24.422,9.045-24.422,9.045s-13.794-8.593-21.256,1.131c-4.522,7.462,3.166,18.542,15.377,15.15
			C97.559,33.97,93.263,49.8,93.15,51.496c0,0,24.422-5.427,48.167,12.889c0.07,0.028,0.142,0.051,0.213,0.077
			c0.973-7.401,2.678-15.19,5.553-22.125C148.666,42.564,167.438,46.183,168.566,28.771z"/>
		<path fill="#D4D7DC" d="M151.698,31.031c-1.301,1.17-3.35,2.154-5.607,2.96L151.698,31.031l-3.166-4.974
			c0,0,5.88-16.282-10.401-21.257c0,0,10.401,6.332,5.879,14.474c-4.522,8.141-21.256,12.211-33.015,6.33
			c-4.523-3.166-5.429-9.045-5.429-9.045l-0.225-2.713c0,0-14.699,16.282-21.936,4.975c2.262,6.784,7.053,12.211,16.415,8.593
			c1.541,0.288,3.876,1.126,6.705,2.105l0.397,11.916l3.07-10.747c5.566,1.805,12.314,3.563,18.639,3.058
			c1.977,0.878,3.629,2.289,4.81,3.509l-8.528,17.832c5.294,2.059,10.864,5.027,16.403,9.299c0.07,0.028,0.142,0.051,0.213,0.077
			c0.858-6.524,2.286-13.345,4.581-19.622c0.165-0.75,0.336-1.442,0.519-2.05c0.088,0.014,0.176,0.025,0.263,0.038
			c0.066-0.162,0.123-0.328,0.19-0.49c1.455,0.208,17.422,3.268,20.871-9.761c0.015-0.212,0.025-0.424,0.025-0.641
			C164.813,39.625,154.412,35.555,151.698,31.031z"/>
		<path fill="#F49772" d="M89.988,91.691c0,0-5.437,1.522-1.956,4.566c3.479,3.043,7.394,2.066,8.589-0.218
			c0,0.545-3.479,5.219-8.371,1.088C86.617,95.497,84.336,92.886,89.988,91.691z"/>
	</g>
	<path opacity="0.25" fill="#D5E5E3" enable-background="new    " d="M136.338,113.916c0,0-6.814-11.586,6.133-15.674
		c12.949-4.09,24.534,13.63,25.216-1.362c0.682-14.993-14.313-35.438,4.088-29.304c18.4,6.133,23.17,20.444,36.119,7.497
		c12.946-12.949-6.854-4.589-7.306-7.768c-0.455-3.181,6.358-5.907,10.903-2.272c4.543,3.635,4.089,6.815-3.635,13.63
		c-7.725,6.815-9.088,6.815-20.445,1.817c-11.357-4.997-17.266-7.269-9.086,7.271c8.177,14.538,23.625,30.894,8.631,27.714
		c-14.993-3.181-15.9,5.452-20.898,9.995C161.061,130.001,142.513,130.542,136.338,113.916z"/>
</g>
</svg>
