<svg xmlns="http://www.w3.org/2000/svg" width="300" height="300" viewBox="0 0 300 300"><path fill="#FF6179" d="M128.739 281.982v-27.027H92.703v36.036h45.045l-9.009-9.009zm-82.883 0v-27.027h36.036v36.036H36.847l9.009-9.009z"/><path fill="#7A8C89" d="M6.216 178.379h162.163v81.08H6.216v-81.08zm162.343 0c0 11.171-2.252 21.892-6.396 31.531s-10 18.469-17.387 25.766a81.775 81.775 0 0 1-25.766 17.387c-9.729 4.145-20.36 6.396-31.531 6.396s-21.892-2.252-31.532-6.396c-9.729-4.144-18.468-10-25.766-17.387-7.297-7.388-13.243-16.036-17.387-25.766-4.145-9.73-6.396-20.36-6.396-31.531 0-11.172 2.252-21.893 6.396-31.532 4.144-9.729 10-18.468 17.387-25.766s16.036-13.243 25.766-17.387c9.73-4.144 20.36-6.396 31.532-6.396 11.171 0 21.892 2.252 31.531 6.396 9.73 4.144 18.469 10 25.766 17.387a81.775 81.775 0 0 1 17.387 25.766c4.144 9.639 6.396 20.36 6.396 31.532z"/><path fill="#E55A75" d="M148.919 161.262l-9.009-9.01-9.009 9.01v-36.037h18.018v36.037z"/><path fill="#FF6179" d="M87.478 164.865c27.297 0 50.721-16.126 61.441-39.37-1.352-1.532-2.703-2.973-4.054-4.415a81.775 81.775 0 0 0-25.766-17.387c-9.73-4.144-20.36-6.396-31.532-6.396-11.171 0-21.892 2.252-31.531 6.396s-18.469 10-25.766 17.387c-1.442 1.441-2.793 2.883-4.054 4.415 10.541 23.244 34.055 39.37 61.262 39.37z"/><circle fill="#EEE0B7" cx="87.478" cy="97.297" r="54.054"/><path fill="#B2A58E" d="M94.324 102.703c0-.36.09-.721.18-1.081.18-.36.36-.63.541-.901.271-.271.541-.45.901-.541.36-.18.721-.18 1.081-.18s.721.09 1.081.18c.36.18.631.36.901.541.271.271.451.541.541.901.18.36.18.721.18 1.081v1.802h.901v-1.802c0-.45-.09-.991-.271-1.441-.18-.45-.451-.811-.811-1.171s-.721-.63-1.171-.811c-.451-.18-.901-.271-1.441-.271s-.991.09-1.441.271c-.451.18-.811.45-1.171.811s-.63.721-.811 1.171a3.74 3.74 0 0 0-.271 1.441v1.802h.901v-1.802h.18zm-18.919 0c0-.36.09-.721.18-1.081.18-.36.36-.63.541-.901.271-.271.541-.45.901-.541.36-.18.721-.18 1.081-.18s.721.09 1.081.18c.36.18.631.36.901.541.271.271.451.541.541.901.18.36.18.721.18 1.081v1.802h.901v-1.802c0-.45-.09-.991-.271-1.441-.18-.45-.45-.811-.811-1.171-.361-.36-.721-.63-1.171-.811-.451-.18-.901-.271-1.441-.271s-.991.09-1.441.271c-.451.18-.811.45-1.171.811s-.63.721-.811 1.171a3.74 3.74 0 0 0-.271 1.441v1.802h.901v-1.802h.18zm15.676 5.405h-7.207l3.604-10.811 3.603 10.811z"/><g fill="#FF99AD"><circle cx="72.703" cy="113.513" r="5.406"/><circle cx="102.433" cy="113.513" r="5.406"/></g><circle fill="#FF6179" cx="87.478" cy="113.514" r="3.604"/><path fill="#7A8C89" d="M33.423 97.297V86.486c0-29.729 24.324-54.054 54.054-54.054 29.729 0 54.054 24.324 54.054 54.054v10.811H33.423z"/><path fill="#FFF" d="M81.712 43.243l-10.09-5.766-5.766-10.09V15.856l5.766-10.09L81.712 0h11.531l10.09 5.766 5.766 10.09v11.531l-5.766 10.09-10.09 5.766H81.712zm26.576 190.271l-9.009 9.009v27.027h18.018v-27.027l-9.009-9.009zm0 11.711c-1.531 0-2.703-1.17-2.703-2.702 0-1.531 1.171-2.702 2.703-2.702 1.532 0 2.703 1.171 2.703 2.702 0 1.532-1.171 2.702-2.703 2.702z"/><path fill="#5D4157" d="M107.838 204.775h.901v36.035h-.901v-36.035z"/><path fill="#FF6179" d="M105.676 252.703v1.08h2.162v-1.08h1.081v1.08h.811c1.262 0 2.523.901 2.523 2.703 0 .811-.18 1.621-.721 2.252l-1.171-1.08c.271-.271.451-.721.451-.992 0-.99-.721-1.261-1.352-1.261h-.541v1.712h-1.081v-1.712h-2.162v2.702h-1.261v-5.404h1.261z"/><path fill="#E5CFA5" d="M141.532 215.135l-54.054-18.018-54.054 18.018V107.027l54.054-18.018 54.054 18.018v108.108z"/><path fill="#CDBB93" d="M141.532 215.135l-54.054 18.019-54.054-18.019V107.027l54.054 18.018 54.054-18.018v108.108z"/><path fill="#B2A180" d="M87.478 125.045l-54.054-18.018v108.108l54.054 18.019V125.045z"/><path fill="#EEE0B7" d="M47.297 190.09h5.045v2.523h-5.045v-2.523zm0 2.523h10.09v2.521h-10.09v-2.521zm0 5.045h10.09v2.521h-10.09v-2.521zm0 2.522h7.567v2.523h-7.567v-2.523zm0-5.045H59.91v2.523H47.297v-2.523z"/><path fill="#B2A58E" d="M49.82 192.342h2.522v.271H49.82v-.271zm0 2.523h7.567v.27H49.82v-.27zm0 2.522h7.567v.271H49.82v-.271zm0 2.523h7.567v.27H49.82v-.27z"/><linearGradient id="a" gradientUnits="userSpaceOnUse" x1="209.314" y1="-217.576" x2="173.913" y2="-217.576" gradientTransform="matrix(.9009 0 0 -.9009 -141.274 .38)"><stop offset="0" stop-color="#80a8a8"/><stop offset="1" stop-color="#7a8c89"/></linearGradient><path fill="url(#a)" d="M15.405 190.09h31.892v12.613H15.405V190.09z"/><path fill="#EEE0B7" d="M122.703 190.09h5.045v2.523h-5.045v-2.523zm-5.045 2.523h10.09v2.521h-10.09v-2.521zm0 5.045h10.09v2.521h-10.09v-2.521zm2.522 2.522h7.567v2.523h-7.567v-2.523zm-5.045-5.045h12.612v2.523h-12.612v-2.523z"/><path fill="#B2A58E" d="M122.703 192.342h2.522v.271h-2.522v-.271zm-5.045 2.523h7.567v.27h-7.567v-.27zm0 2.522h7.567v.271h-7.567v-.271zm0 2.523h7.567v.27h-7.567v-.27z"/><linearGradient id="b" gradientUnits="userSpaceOnUse" x1="298.614" y1="-217.577" x2="334.014" y2="-217.577" gradientTransform="matrix(.9009 0 0 -.9009 -141.274 .38)"><stop offset="0" stop-color="#80a8a8"/><stop offset="1" stop-color="#7a8c89"/></linearGradient><path fill="url(#b)" d="M127.748 190.09h31.892v12.613h-31.892V190.09z"/></svg>