<?xml version="1.0" encoding="utf-8"?>
<!-- Generator: Adobe Illustrator 16.0.0, SVG Export Plug-In . SVG Version: 6.00 Build 0)  -->
<!DOCTYPE svg PUBLIC "-//W3C//DTD SVG 1.1//EN" "http://www.w3.org/Graphics/SVG/1.1/DTD/svg11.dtd">
<svg version="1.1" id="Capa_1" xmlns="http://www.w3.org/2000/svg" xmlns:xlink="http://www.w3.org/1999/xlink" x="0px" y="0px"
	 width="300px" height="300px" viewBox="0 0 300 300" enable-background="new 0 0 300 300" xml:space="preserve">
<path fill="#FFFFFF" d="M296.453,149.466c0-29.271-60.218-53-134.5-53s-134.5,23.729-134.5,53s60.218,53,134.5,53
	c28.576,0,55.066-3.515,76.852-9.503l17.648,9.503l-2.071-14.5C280.288,178.306,296.453,164.63,296.453,149.466z"/>
<g>
	<path fill="#E5352D" d="M35.149,112.206l16.403-1.986l-4.185,5.217l1.826,15.078c0.546,0.027,1.183,0.021,1.91-0.02l-1.809-14.938
		l3.348-4.229l0.773,0.543l-3.164,3.995l1.762,14.555l1.165-0.035c1.811-0.054,3.554-0.183,5.229-0.386
		c2.42-0.293,4.488-0.661,6.205-1.105l-1.944-16.055l-4.731-3.394l16.125-1.952l-4.255,5.226l4.404,36.367l4.68,3.258l-16.055,1.943
		l4.287-4.662l-1.792-14.798c-1.898,0.702-3.882,1.179-5.953,1.429c-1.955,0.236-3.992,0.377-6.111,0.422l-0.493,0.023l1.788,14.764
		l6.562,5.934l-18.044,2.186l-1.021-0.832l17.032-2.063l-5.376-4.626l-1.944-16.055l1.02-0.053c3.1-0.14,5.336-0.292,6.709-0.458
		c2.233-0.271,4.14-0.809,5.719-1.613l-0.152-1.257c-2.147,0.591-4.676,1.063-7.584,1.415c-1.559,0.188-2.704,0.291-3.433,0.309
		l-3.563,0.113c-0.143-0.007-0.413,0.002-0.812,0.027l2.097,17.311l4.924,3.229l-16.125,1.953l4.183-4.65l-1.847-15.252
		c-1.955,0.237-3.42,1.193-4.398,2.87l-0.775-0.261c1.144-1.861,2.833-3.022,5.067-3.481l-0.157-1.291
		c-2.605,0.315-4.545,1.554-5.817,3.714l-0.566-0.285c0.967-3.517,2.961-5.765,5.982-6.745l-1.901-15.705L35.149,112.206z
		 M75.767,109.271l-3.142,3.886l4.311,35.6l6.597,5.93l-18.114,2.193l-0.986-0.837l16.996-2.058l-5.314-4.704l-4.404-36.367
		l3.409-4.308L75.767,109.271z"/>
	<path fill="#E5352D" d="M98.719,104.048c5.654-0.685,10.433,0.909,14.336,4.78c3.904,3.871,6.29,9.39,7.158,16.557
		c0.82,6.771-0.196,12.371-3.047,16.801c-2.852,4.43-7.092,6.985-12.723,7.667c-4.445,0.538-8.572-0.402-12.382-2.821
		c-5.603-3.571-8.902-9.463-9.896-17.677c-0.852-7.026,0.218-12.822,3.206-17.387C88.36,107.403,92.809,104.764,98.719,104.048z
		 M99.083,107.05c-7.865,0.952-10.96,8.339-9.286,22.16c1.547,12.773,6.194,18.691,13.942,17.753
		c3.606-0.437,6.147-2.462,7.622-6.075c1.474-3.613,1.817-8.678,1.028-15.193c-0.894-7.376-2.423-12.408-4.591-15.097
		C105.525,107.804,102.619,106.621,99.083,107.05z M110.068,104.48c3.521,1.202,6.483,3.629,8.885,7.281
		c2.402,3.651,3.911,8.025,4.528,13.121c0.907,7.492-0.262,13.772-3.508,18.84s-7.964,7.976-14.153,8.726
		c-3.956,0.479-7.818-0.411-11.584-2.67l-0.021-0.175c3.142,1.769,6.888,2.389,11.239,1.862c5.84-0.708,10.366-3.486,13.58-8.338
		s4.406-10.697,3.578-17.538c-0.617-5.095-2.012-9.447-4.184-13.057c-2.172-3.608-4.943-6.165-8.312-7.669L110.068,104.48z
		 M107.186,111.38l-0.636-0.276c-2.383-0.963-4.505-1.331-6.366-1.106c-6.12,0.741-8.451,7.127-6.994,19.156
		c1.065,8.795,3.667,14.394,7.806,16.796l-0.272,0.388c-2.526-1.371-4.447-3.34-5.761-5.907c-1.315-2.567-2.249-6.144-2.804-10.727
		c-1.563-12.914,1.052-19.782,7.846-20.604C103.098,108.724,105.492,109.484,107.186,111.38z"/>
	<path fill="#E5352D" d="M112.126,143.4l16.523,0.004l-4.782,4.675l-0.003,15.188c0.539,0.093,1.171,0.163,1.899,0.211l0.003-15.047
		l3.833-3.796l0.702,0.633l-3.622,3.585l-0.004,14.661l1.161,0.105c1.804,0.164,3.55,0.246,5.238,0.246
		c2.438,0.001,4.535-0.115,6.293-0.35l0.003-16.172l-4.288-3.939l16.243,0.004l-4.854,4.676l-0.007,36.633l4.253,3.798
		l-16.172-0.005l4.817-4.111l0.003-14.906c-1.969,0.469-3.996,0.703-6.082,0.701c-1.969,0-4.008-0.106-6.117-0.316l-0.492-0.037
		l-0.003,14.872l5.799,6.681l-18.176-0.004l-0.914-0.949l17.156,0.004l-4.78-5.239l0.004-16.172l1.018,0.07
		c3.094,0.234,5.333,0.353,6.715,0.354c2.25,0,4.207-0.304,5.872-0.913v-1.266c-2.203,0.327-4.77,0.491-7.699,0.491
		c-1.57-0.001-2.719-0.037-3.445-0.107l-3.551-0.316c-0.141-0.024-0.411-0.048-0.809-0.071l-0.003,17.438l4.499,3.798l-16.243-0.003
		l4.712-4.113l0.003-15.363c-1.969,0-3.539,0.773-4.712,2.32l-0.738-0.353c1.36-1.71,3.177-2.659,5.45-2.846v-1.301
		c-2.625-0.001-4.699,0.995-6.223,2.986l-0.528-0.352c1.384-3.374,3.634-5.366,6.751-5.976l0.003-15.819L112.126,143.4z
		 M152.801,145.379l-3.586,3.479l-0.008,35.859l5.835,6.682l-18.247-0.005l-0.879-0.949l17.121,0.004l-4.709-5.31l0.008-36.633
		l3.903-3.866L152.801,145.379z"/>
	<path fill="#E5352D" d="M176.216,142.958c5.696,0.002,10.248,2.159,13.656,6.473c3.409,4.313,5.114,10.078,5.112,17.298
		c-0.002,6.819-1.686,12.257-5.049,16.312c-3.365,4.054-7.883,6.08-13.554,6.078c-4.478-0.001-8.461-1.432-11.952-4.291
		c-5.133-4.221-7.697-10.467-7.695-18.74c0.001-7.078,1.761-12.703,5.277-16.874S170.263,142.957,176.216,142.958z M176.215,145.981
		c-7.922-0.002-11.884,6.959-11.887,20.881c-0.003,12.867,3.898,19.302,11.703,19.303c3.633,0.001,6.398-1.703,8.298-5.113
		c1.897-3.409,2.849-8.396,2.851-14.959c0.002-7.43-0.911-12.609-2.739-15.539C182.52,147.506,179.777,145.981,176.215,145.981z
		 M187.431,144.754c3.351,1.618,5.999,4.384,7.943,8.299c1.944,3.914,2.915,8.438,2.915,13.571
		c-0.002,7.547-1.919,13.641-5.752,18.279c-3.834,4.64-8.867,6.959-15.102,6.958c-3.984-0.001-7.711-1.35-11.178-4.046l-0.001-0.176
		c2.905,2.134,6.55,3.201,10.933,3.202c5.883,0,10.711-2.213,14.486-6.642c3.774-4.43,5.662-10.089,5.664-16.979
		c0.001-5.132-0.859-9.62-2.582-13.466c-1.721-3.844-4.164-6.715-7.327-8.614V144.754z M183.737,151.257l-0.598-0.352
		c-2.249-1.243-4.312-1.864-6.187-1.865c-6.164-0.001-9.248,6.058-9.25,18.175c-0.002,8.858,1.906,14.73,5.727,17.614l-0.316,0.352
		c-2.344-1.666-4.014-3.852-5.008-6.559c-0.997-2.707-1.494-6.369-1.492-10.986c0.003-13.008,3.426-19.511,10.27-19.509
		C180,148.127,182.284,149.171,183.737,151.257z"/>
	<path fill="#E5352D" d="M204.093,114.879l16.515-0.517l-4.633,4.823l0.475,15.181c0.541,0.076,1.176,0.127,1.904,0.15
		l-0.471-15.039l3.712-3.913l0.723,0.608l-3.507,3.698l0.457,14.654l1.164,0.068c1.809,0.107,3.556,0.136,5.242,0.083
		c2.437-0.077,4.529-0.26,6.279-0.549l-0.505-16.164l-4.41-3.802l16.233-0.507l-4.703,4.825l1.145,36.615l4.371,3.661l-16.164,0.505
		l4.686-4.262l-0.466-14.898c-1.953,0.53-3.972,0.828-6.057,0.893c-1.968,0.062-4.01,0.019-6.124-0.124l-0.494-0.021l0.465,14.864
		l6.008,6.493l-18.168,0.569l-0.942-0.92l17.147-0.535l-4.942-5.088l-0.505-16.163l1.02,0.038c3.1,0.137,5.342,0.185,6.725,0.142
		c2.248-0.07,4.194-0.437,5.839-1.097l-0.04-1.266c-2.191,0.396-4.752,0.642-7.68,0.733c-1.569,0.048-2.719,0.05-3.447,0.001
		l-3.559-0.205c-0.141-0.02-0.412-0.034-0.811-0.044l0.545,17.429l4.617,3.653l-16.235,0.509l4.58-4.26l-0.479-15.355
		c-1.969,0.062-3.513,0.883-4.637,2.467l-0.749-0.328c1.306-1.753,3.091-2.759,5.358-3.017l-0.041-1.301
		c-2.624,0.083-4.666,1.143-6.125,3.182l-0.54-0.335c1.277-3.416,3.464-5.479,6.561-6.185l-0.493-15.813L204.093,114.879z
		 M244.81,115.577l-3.476,3.59l1.121,35.842l6.041,6.495l-18.237,0.569l-0.908-0.922l17.112-0.534l-4.873-5.159l-1.146-36.615
		l3.779-3.986L244.81,115.577z"/>
	<path fill="#E5352D" d="M268.137,112.42c5.692-0.178,10.311,1.835,13.854,6.04c3.543,4.203,5.428,9.912,5.652,17.129
		c0.213,6.815-1.299,12.304-4.533,16.461c-3.234,4.158-7.687,6.325-13.354,6.502c-4.476,0.141-8.502-1.164-12.082-3.912
		c-5.262-4.058-8.022-10.219-8.28-18.489c-0.223-7.075,1.359-12.752,4.743-17.031S262.186,112.606,268.137,112.42z M268.23,115.442
		c-7.918,0.247-11.659,7.33-11.225,21.244c0.402,12.861,4.504,19.169,12.305,18.926c3.631-0.114,6.342-1.905,8.133-5.372
		c1.791-3.468,2.584-8.481,2.379-15.042c-0.231-7.426-1.307-12.573-3.227-15.443C274.58,116.769,271.791,115.331,268.23,115.442z
		 M279.401,113.862c3.4,1.512,6.135,4.192,8.201,8.045c2.067,3.851,3.18,8.342,3.341,13.472c0.234,7.544-1.489,13.694-5.175,18.452
		c-3.685,4.759-8.644,7.234-14.874,7.43c-3.983,0.123-7.751-1.106-11.301-3.693l-0.006-0.175c2.971,2.042,6.648,2.993,11.028,2.856
		c5.88-0.185,10.636-2.547,14.27-7.094c3.634-4.545,5.343-10.262,5.127-17.149c-0.16-5.129-1.161-9.589-3.003-13.378
		c-1.842-3.787-4.374-6.581-7.596-8.379L279.401,113.862z M275.916,120.478l-0.609-0.332c-2.287-1.171-4.368-1.727-6.242-1.669
		c-6.162,0.192-9.053,6.345-8.674,18.456c0.277,8.855,2.369,14.664,6.277,17.426l-0.305,0.361c-2.395-1.59-4.133-3.723-5.212-6.396
		c-1.081-2.676-1.692-6.319-1.837-10.935c-0.406-13.003,2.812-19.61,9.651-19.824C272.08,117.468,274.396,118.438,275.916,120.478z"
		/>
</g>
</svg>
