<svg xmlns="http://www.w3.org/2000/svg" xmlns:xlink="http://www.w3.org/1999/xlink" width="300" height="300" viewBox="0 0 300 300"><defs><circle id="a" cx="149.957" cy="162.976" r="149.957"/></defs><clipPath id="b"><use xlink:href="#a" overflow="visible"/></clipPath><path clip-path="url(#b)" fill="#EEF7F8" d="M293.125 204.912c7.133-17.788 6.875-19.937 6.875-40.303 0-16.5-1.805-32.312-6.617-47.265h-.086c-8.852 0-14.523 2.234-21.741 6.273-4.297-9.023-13.492-15.296-24.147-15.296-11.258 0-20.797 6.961-24.75 16.757a51.344 51.344 0 0 0-21.484-4.726c-22.171 0-40.99 14.179-48.037 33.944-3.867-4.469-9.453-7.305-15.812-7.305-6.961 0-13.063 3.352-16.843 8.594-7.305-7.992-17.703-12.977-29.39-12.977-5.328 0-10.484 1.031-15.125 3.008-.688-7.305-6.875-13.062-14.351-13.062-3.609 0-6.789 1.289-9.367 3.438-9.195-15.554-22.687-26.039-42.022-26.039h-.947C2.836 126.969 0 145.359 0 164.609c0 17.788.602 25.437 6.188 41.248"/><path clip-path="url(#b)" fill="none" d="M10.312 93.97h291.235v103.895H10.312V93.97zm-3.695 33.257h294.586v70.724H6.617v-70.724z"/><path opacity=".6" clip-path="url(#b)" fill="#6AC5B4" d="M32.226 192.968l-11.773-48.983-13.836 53.88h24.319l1.29-4.897zm64.881-3.266l-6.703-27.843-9.281 36.006h13.835l2.149-8.163zm10.398 8.163l2.75-10.827-6.016-25.179-7.132 27.843 1.977 8.163h8.421zm-8.422 0l-1.977-8.163-2.148 8.163h4.125zm0 0l-1.977-8.163-2.148 8.163h4.125z"/><path opacity=".6" clip-path="url(#b)" fill="#38A893" d="M118.161 197.865l-5.156-21.569-2.75 10.742 2.578 10.827h5.328z"/><path opacity=".6" clip-path="url(#b)" fill="#6AC5B4" d="M112.833 197.865l-2.578-10.827-2.75 10.827h5.328z"/><path opacity=".6" clip-path="url(#b)" fill="#38A893" d="M112.833 197.865l-2.578-10.827-2.75 10.827h5.328z"/><path opacity=".6" clip-path="url(#b)" fill="#6AC5B4" d="M45.89 197.865l-7.219-30.076-6.445 25.179 1.117 4.897H45.89zm-12.547 0l-1.117-4.897-1.289 4.897h2.406zm0 0l-1.117-4.897-1.289 4.897h2.406z"/><path clip-path="url(#b)" fill="#33A7A5" d="M293.813 197.865h-24.835l3.437 14.352h-15.468l3.695-14.438H.602c8.937 36.609 30.851 68.062 60.67 89.201h178.144c29.819-21.14 51.732-52.592 60.67-89.201h-6.273v.086z"/><path clip-path="url(#b)" fill="#33A7A5" d="M268.892 197.951h24.921v-.086h-24.921v.086z"/><path opacity=".6" clip-path="url(#b)" fill="#6AC5B4" d="M268.892 197.951h24.921v-.086h-24.921v.086zm-80.264-53.967l-13.835 53.881h26.725l-12.89-53.881z"/><path clip-path="url(#b)" fill="#33A7A5" d="M201.518 197.951v-.086h-26.725v.086h26.725zm65.483-.086v.086h1.891v-.086h-1.891z"/><path opacity=".6" clip-path="url(#b)" fill="#6AC5B4" d="M267.001 197.865v.086h1.891v-.086h-1.891zm0 0v.086h1.891v-.086h-1.891z"/><g clip-path="url(#b)"><path fill="#E12145" d="M140.934 163.406h-8.765v2.836h8.765v-2.836z"/><path fill="#F0617A" d="M133.715 166.242v10.913h5.758v-10.913h-5.758z"/></g><path clip-path="url(#b)" fill="#FFF" d="M170.754 188.499c-.773 0-1.547-.344-2.148-.945l-18.563-18.733-18.82 18.733c-1.203 1.203-3.18 1.203-4.383 0s-1.203-3.18 0-4.383l20.968-20.882c.602-.602 1.375-.859 2.148-.859s1.633.344 2.148.945l20.711 20.882a3.113 3.113 0 0 1 0 4.383c-.428.515-1.202.859-2.061.859z"/><path clip-path="url(#b)" fill="#443639" d="M150.129 164.523l-20.968 20.882-.086.086h.086v36.351h41.679v-36.437l-20.711-20.882z"/><path clip-path="url(#b)" fill="#DE4126" d="M130.192 203.451h39.531v17.188h-39.531v-17.188z"/><path clip-path="url(#b)" fill="#215A6D" d="M130.192 186.265h39.531v17.187h-39.531v-17.187z"/><g clip-path="url(#b)"><path fill="#827B7D" d="M170.84 185.405h-41.765l21.054-20.882 20.711 20.882z"/><path fill="#686264" d="M169.121 185.405h-38.328l19.335-19.163 18.993 19.163z"/><path fill="#544F51" d="M167.402 185.405h-34.89l17.617-17.444 17.273 17.444z"/><path fill="#433F41" d="M165.684 185.405h-31.453l15.898-15.726 15.555 15.726z"/><path fill="#353233" d="M163.965 185.405H135.95l14.179-14.007 13.836 14.007z"/><path fill="#2B2929" d="M162.246 185.405h-24.578l12.46-12.288 12.118 12.288z"/><path fill="#222020" d="M160.527 185.405h-21.14l10.742-10.569 10.398 10.569z"/><path opacity=".1" d="M167.402 185.405h-34.89"/></g><g clip-path="url(#b)"><path fill="#282022" d="M129.075 185.405h41.765v1.719h-41.765v-1.719z"/><path opacity=".2" d="M169.293 185.835h.859v.859h-.859v-.859zm-1.719 0h.859v.859h-.859v-.859zm-1.719 0h.859v.859h-.859v-.859zm-1.718 0h.859v.859h-.859v-.859zm-1.719 0h.859v.859h-.859v-.859zm-1.719 0h.859v.859h-.859v-.859zm-1.719 0h.859v.859h-.859v-.859zm-1.718 0h.859v.859h-.859v-.859zm-1.719 0h.859v.859h-.859v-.859zm-1.719 0h.859v.859h-.859v-.859zm-1.719 0h.859v.859h-.859v-.859zm-1.718 0h.859v.859h-.859v-.859zm-1.719 0h.859v.859h-.859v-.859zm-1.719 0h.859v.859h-.859v-.859zm-1.719 0h.859v.859h-.859v-.859zm-1.718 0h.859v.859h-.859v-.859zm-1.719 0h.859v.859h-.859v-.859zm-1.718 0h.859v.859h-.859v-.859zm-1.719 0h.859v.859h-.859v-.859zm-1.719 0h.859v.859h-.859v-.859zm-1.719 0h.859v.859h-.859v-.859zm-1.718 0h.859v.859h-.859v-.859zm-1.719 0h.859v.859h-.859v-.859zm-1.719 0h.859v.859h-.859v-.859z"/></g><g clip-path="url(#b)"><path fill="#282022" d="M129.075 202.764h41.765v1.719h-41.765v-1.719z"/><path opacity=".2" d="M169.293 203.193h.859v.859h-.859v-.859zm-1.719 0h.859v.859h-.859v-.859zm-1.719 0h.859v.859h-.859v-.859zm-1.718 0h.859v.859h-.859v-.859zm-1.719 0h.859v.859h-.859v-.859zm-1.719 0h.859v.859h-.859v-.859zm-1.719 0h.859v.859h-.859v-.859zm-1.718 0h.859v.859h-.859v-.859zm-1.719 0h.859v.859h-.859v-.859zm-1.719 0h.859v.859h-.859v-.859zm-1.719 0h.859v.859h-.859v-.859zm-1.718 0h.859v.859h-.859v-.859zm-1.719 0h.859v.859h-.859v-.859zm-1.719 0h.859v.859h-.859v-.859zm-1.719 0h.859v.859h-.859v-.859zm-1.718 0h.859v.859h-.859v-.859zm-1.719 0h.859v.859h-.859v-.859zm-1.718 0h.859v.859h-.859v-.859zm-1.719 0h.859v.859h-.859v-.859zm-1.719 0h.859v.859h-.859v-.859zm-1.719 0h.859v.859h-.859v-.859zm-1.718 0h.859v.859h-.859v-.859zm-1.719 0h.859v.859h-.859v-.859zm-1.719 0h.859v.859h-.859v-.859z"/></g><g clip-path="url(#b)"><path fill="#282022" d="M129.075 220.123h41.765v1.719h-41.765v-1.719z"/><path opacity=".2" d="M169.293 220.553h.859v.859h-.859v-.859zm-1.719 0h.859v.859h-.859v-.859zm-1.719 0h.859v.859h-.859v-.859zm-1.718 0h.859v.859h-.859v-.859zm-1.719 0h.859v.859h-.859v-.859zm-1.719 0h.859v.859h-.859v-.859zm-1.719 0h.859v.859h-.859v-.859zm-1.718 0h.859v.859h-.859v-.859zm-1.719 0h.859v.859h-.859v-.859zm-1.719 0h.859v.859h-.859v-.859zm-1.719 0h.859v.859h-.859v-.859zm-1.718 0h.859v.859h-.859v-.859zm-1.719 0h.859v.859h-.859v-.859zm-1.719 0h.859v.859h-.859v-.859zm-1.719 0h.859v.859h-.859v-.859zm-1.718 0h.859v.859h-.859v-.859zm-1.719 0h.859v.859h-.859v-.859zm-1.718 0h.859v.859h-.859v-.859zm-1.719 0h.859v.859h-.859v-.859zm-1.719 0h.859v.859h-.859v-.859zm-1.719 0h.859v.859h-.859v-.859zm-1.718 0h.859v.859h-.859v-.859zm-1.719 0h.859v.859h-.859v-.859zm-1.719 0h.859v.859h-.859v-.859z"/></g><g clip-path="url(#b)"><path fill="#C5BC8E" d="M129.075 187.124h1.719v34.718h-1.719v-34.718z"/><path fill="#696758" d="M129.075 187.382h1.719v.688h-1.719v-.688z"/><path fill="#45484B" d="M129.075 188.241h.602v.688h-.602v-.688z"/><path fill="#36393B" d="M129.848 188.241h.945v.688h-.945v-.688z"/><path fill="#696758" d="M129.075 189.101h1.719v.688h-1.719v-.688z"/><path fill="#45484B" d="M130.192 189.96h.602v.688h-.602v-.688z"/><path fill="#36393B" d="M129.075 189.96h.945v.688h-.945v-.688z"/><path fill="#696758" d="M129.075 190.819h1.719v.688h-1.719v-.688z"/><path fill="#45484B" d="M129.075 191.679h.602v.688h-.602v-.688z"/><path fill="#36393B" d="M129.848 191.679h.945v.688h-.945v-.688z"/><path fill="#696758" d="M129.075 192.538h1.719v.688h-1.719v-.688z"/><path fill="#45484B" d="M130.192 193.397h.602v.688h-.602v-.688z"/><path fill="#36393B" d="M129.075 193.397h.945v.688h-.945v-.688z"/><path fill="#696758" d="M129.075 194.257h1.719v.688h-1.719v-.688z"/><path fill="#45484B" d="M129.075 195.116h.602v.688h-.602v-.688z"/><path fill="#36393B" d="M129.848 195.116h.945v.688h-.945v-.688z"/><path fill="#696758" d="M129.075 195.976h1.719v.687h-1.719v-.687z"/><path fill="#45484B" d="M130.192 196.834h.602v.688h-.602v-.688z"/><path fill="#36393B" d="M129.075 196.834h.945v.688h-.945v-.688z"/><path fill="#696758" d="M129.075 197.693h1.719v.688h-1.719v-.688z"/><path fill="#45484B" d="M129.075 198.553h.602v.688h-.602v-.688z"/><path fill="#36393B" d="M129.848 198.553h.945v.688h-.945v-.688z"/><path fill="#696758" d="M129.075 199.412h1.719v.688h-1.719v-.688z"/><path fill="#45484B" d="M130.192 200.271h.602v.688h-.602v-.688z"/><path fill="#36393B" d="M129.075 200.271h.945v.688h-.945v-.688z"/><path fill="#696758" d="M129.075 201.131h1.719v.688h-1.719v-.688z"/><path fill="#45484B" d="M129.075 201.99h.602v.688h-.602v-.688z"/><path fill="#36393B" d="M129.848 201.99h.945v.688h-.945v-.688z"/><path fill="#696758" d="M129.075 202.85h1.719v.688h-1.719v-.688z"/><path fill="#45484B" d="M130.192 203.709h.602v.688h-.602v-.688z"/><path fill="#36393B" d="M129.075 203.709h.945v.688h-.945v-.688z"/><path fill="#696758" d="M129.075 204.568h1.719v.688h-1.719v-.688z"/><path fill="#45484B" d="M129.075 205.428h.602v.688h-.602v-.688z"/><path fill="#36393B" d="M129.848 205.428h.945v.688h-.945v-.688z"/><path fill="#696758" d="M129.075 206.287h1.719v.688h-1.719v-.688z"/><path fill="#45484B" d="M130.192 207.146h.602v.688h-.602v-.688z"/><path fill="#36393B" d="M129.075 207.146h.945v.688h-.945v-.688z"/><path fill="#696758" d="M129.075 208.006h1.719v.688h-1.719v-.688z"/><path fill="#45484B" d="M129.075 208.865h.602v.688h-.602v-.688z"/><path fill="#36393B" d="M129.848 208.865h.945v.688h-.945v-.688z"/><path fill="#696758" d="M129.075 209.725h1.719v.688h-1.719v-.688z"/><path fill="#45484B" d="M130.192 210.584h.602v.688h-.602v-.688z"/><path fill="#36393B" d="M129.075 210.584h.945v.688h-.945v-.688z"/><path fill="#696758" d="M129.075 211.443h1.719v.688h-1.719v-.688z"/><path fill="#45484B" d="M129.075 212.303h.602v.688h-.602v-.688z"/><path fill="#36393B" d="M129.848 212.303h.945v.688h-.945v-.688z"/><path fill="#696758" d="M129.075 213.162h1.719v.688h-1.719v-.688z"/><path fill="#45484B" d="M130.192 214.021h.602v.688h-.602v-.688z"/><path fill="#36393B" d="M129.075 214.021h.945v.688h-.945v-.688z"/><path fill="#696758" d="M129.075 214.881h1.719v.688h-1.719v-.688z"/><path fill="#45484B" d="M129.075 215.74h.602v.688h-.602v-.688z"/><path fill="#36393B" d="M129.848 215.74h.945v.688h-.945v-.688z"/><path fill="#696758" d="M129.075 216.6h1.719v.688h-1.719v-.688z"/><path fill="#45484B" d="M130.192 217.459h.602v.688h-.602v-.688z"/><path fill="#36393B" d="M129.075 217.459h.945v.688h-.945v-.688z"/><path fill="#696758" d="M129.075 218.318h1.719v.688h-1.719v-.688z"/><path fill="#45484B" d="M129.075 219.178h.602v.688h-.602v-.688z"/><path fill="#36393B" d="M129.848 219.178h.945v.688h-.945v-.688z"/><path fill="#696758" d="M129.075 220.037h1.719v.688h-1.719v-.688z"/><path fill="#45484B" d="M130.192 220.896h.602v.688h-.602v-.688z"/><path fill="#36393B" d="M129.075 220.896h.945v.688h-.945v-.688z"/></g><g clip-path="url(#b)"><path fill="#C5BC8E" d="M169.121 187.124h1.719v34.718h-1.719v-34.718z"/><path fill="#696758" d="M169.121 187.382h1.719v.688h-1.719v-.688z"/><path fill="#45484B" d="M169.121 188.241h.602v.688h-.602v-.688z"/><path fill="#36393B" d="M169.895 188.241h.945v.688h-.945v-.688z"/><path fill="#696758" d="M169.121 189.101h1.719v.688h-1.719v-.688z"/><path fill="#45484B" d="M170.238 189.96h.602v.688h-.602v-.688z"/><path fill="#36393B" d="M169.121 189.96h.945v.688h-.945v-.688z"/><path fill="#696758" d="M169.121 190.819h1.719v.688h-1.719v-.688z"/><path fill="#45484B" d="M169.121 191.679h.602v.688h-.602v-.688z"/><path fill="#36393B" d="M169.895 191.679h.945v.688h-.945v-.688z"/><path fill="#696758" d="M169.121 192.538h1.719v.688h-1.719v-.688z"/><path fill="#45484B" d="M170.238 193.397h.602v.688h-.602v-.688z"/><path fill="#36393B" d="M169.121 193.397h.945v.688h-.945v-.688z"/><path fill="#696758" d="M169.121 194.257h1.719v.688h-1.719v-.688z"/><path fill="#45484B" d="M169.121 195.116h.602v.688h-.602v-.688z"/><path fill="#36393B" d="M169.895 195.116h.945v.688h-.945v-.688z"/><path fill="#696758" d="M169.121 195.976h1.719v.687h-1.719v-.687z"/><path fill="#45484B" d="M170.238 196.834h.602v.688h-.602v-.688z"/><path fill="#36393B" d="M169.121 196.834h.945v.688h-.945v-.688z"/><path fill="#696758" d="M169.121 197.693h1.719v.688h-1.719v-.688z"/><path fill="#45484B" d="M169.121 198.553h.602v.688h-.602v-.688z"/><path fill="#36393B" d="M169.895 198.553h.945v.688h-.945v-.688z"/><path fill="#696758" d="M169.121 199.412h1.719v.688h-1.719v-.688z"/><path fill="#45484B" d="M170.238 200.271h.602v.688h-.602v-.688z"/><path fill="#36393B" d="M169.121 200.271h.945v.688h-.945v-.688z"/><path fill="#696758" d="M169.121 201.131h1.719v.688h-1.719v-.688z"/><path fill="#45484B" d="M169.121 201.99h.602v.688h-.602v-.688z"/><path fill="#36393B" d="M169.895 201.99h.945v.688h-.945v-.688z"/><path fill="#696758" d="M169.121 202.85h1.719v.688h-1.719v-.688z"/><path fill="#45484B" d="M170.238 203.709h.602v.688h-.602v-.688z"/><path fill="#36393B" d="M169.121 203.709h.945v.688h-.945v-.688z"/><path fill="#696758" d="M169.121 204.568h1.719v.688h-1.719v-.688z"/><path fill="#45484B" d="M169.121 205.428h.602v.688h-.602v-.688z"/><path fill="#36393B" d="M169.895 205.428h.945v.688h-.945v-.688z"/><path fill="#696758" d="M169.121 206.287h1.719v.688h-1.719v-.688z"/><path fill="#45484B" d="M170.238 207.146h.602v.688h-.602v-.688z"/><path fill="#36393B" d="M169.121 207.146h.945v.688h-.945v-.688z"/><path fill="#696758" d="M169.121 208.006h1.719v.688h-1.719v-.688z"/><path fill="#45484B" d="M169.121 208.865h.602v.688h-.602v-.688z"/><path fill="#36393B" d="M169.895 208.865h.945v.688h-.945v-.688z"/><path fill="#696758" d="M169.121 209.725h1.719v.688h-1.719v-.688z"/><path fill="#45484B" d="M170.238 210.584h.602v.688h-.602v-.688z"/><path fill="#36393B" d="M169.121 210.584h.945v.688h-.945v-.688z"/><path fill="#696758" d="M169.121 211.443h1.719v.688h-1.719v-.688z"/><path fill="#45484B" d="M169.121 212.303h.602v.688h-.602v-.688z"/><path fill="#36393B" d="M169.895 212.303h.945v.688h-.945v-.688z"/><path fill="#696758" d="M169.121 213.162h1.719v.688h-1.719v-.688z"/><path fill="#45484B" d="M170.238 214.021h.602v.688h-.602v-.688z"/><path fill="#36393B" d="M169.121 214.021h.945v.688h-.945v-.688z"/><path fill="#696758" d="M169.121 214.881h1.719v.688h-1.719v-.688z"/><path fill="#45484B" d="M169.121 215.74h.602v.688h-.602v-.688z"/><path fill="#36393B" d="M169.895 215.74h.945v.688h-.945v-.688z"/><path fill="#696758" d="M169.121 216.6h1.719v.688h-1.719v-.688z"/><path fill="#45484B" d="M170.238 217.459h.602v.688h-.602v-.688z"/><path fill="#36393B" d="M169.121 217.459h.945v.688h-.945v-.688z"/><path fill="#696758" d="M169.121 218.318h1.719v.688h-1.719v-.688z"/><path fill="#45484B" d="M169.121 219.178h.602v.688h-.602v-.688z"/><path fill="#36393B" d="M169.895 219.178h.945v.688h-.945v-.688z"/><path fill="#696758" d="M169.121 220.037h1.719v.688h-1.719v-.688z"/><path fill="#45484B" d="M170.238 220.896h.602v.688h-.602v-.688z"/><path fill="#36393B" d="M169.121 220.896h.945v.688h-.945v-.688z"/></g><g clip-path="url(#b)"><path fill="#B5D561" d="M97.021 166.758l-12.632 38.326h25.437l-12.805-38.326z"/><path fill="#7DC148" d="M97.107 166.93l-.086-.172-12.632 38.326h12.718V166.93z"/><path fill="#C48B4D" d="M95.13 205.17h3.523v3.695H95.13v-3.695z"/><path fill="#996B3D" d="M97.794 205.17h.859v3.695h-.859v-3.695z"/><path fill="#FFF" d="M103.036 211.529c-.515-2.148-3.179-3.867-6.359-3.867s-5.844 1.633-6.359 3.867h12.718z"/><circle fill="#F5DF02" cx="88.427" cy="193.741" r=".859"/><circle fill="#F5D76B" cx="90.662" cy="194.858" r=".859"/><circle fill="#EEDD12" cx="92.638" cy="195.631" r=".859"/><circle fill="#ECDEB6" cx="94.701" cy="196.491" r=".859"/><circle fill="#F5DF02" cx="97.279" cy="197.092" r=".859"/><circle fill="#F5D76B" cx="99.771" cy="197.607" r=".859"/><circle fill="#ECDEB6" cx="102.263" cy="197.951" r=".859"/><circle fill="#EEDD12" cx="104.841" cy="198.467" r=".859"/><circle fill="#F5DF02" cx="107.333" cy="198.811" r=".859"/><circle fill="#EEDD12" cx="92.724" cy="182.054" r=".859"/><circle fill="#F5D76B" cx="95.388" cy="182.054" r=".859"/><circle fill="#EEDD12" cx="97.966" cy="181.624" r=".859"/><circle fill="#ECDEB6" cx="100.974" cy="180.765" r=".859"/></g><g clip-path="url(#b)"><path fill="#B5D561" d="M118.677 200.873l-9.625 29.219h19.335l-9.71-29.219z"/><path fill="#80C246" d="M118.677 200.959v-.086l-9.625 29.219h9.625v-29.133z"/><path fill="#C48B4D" d="M117.216 230.092h2.664v2.75h-2.664v-2.75z"/><path fill="#996B3D" d="M119.278 230.092h.602v2.75h-.602v-2.75z"/><path fill="#FFF" d="M123.231 234.904c-.43-1.633-2.406-2.922-4.898-2.922-2.406 0-4.469 1.289-4.898 2.922h9.796zm1.891-11.343h-.172c-.258-.258-.688-.516-1.117-.516-.344 0-.602.086-.859.258-.258-.172-.602-.258-.945-.258-.859 0-1.546.516-1.546 1.203s.688 1.203 1.546 1.203c.344 0 .602-.086.859-.172.258.086.602.172.945.172.688 0 1.203-.172 1.289-.43.688 0 1.289-.344 1.289-.773s-.602-.687-1.289-.687zm-12.719 2.921c-.086 0-.172 0-.258.086-.258-.258-.773-.516-1.203-.516-.859 0-1.633.602-1.633 1.289s.688 1.289 1.633 1.289c.516 0 .945-.172 1.203-.43.086 0 .172.086.344.086.516 0 .859-.43.859-.945-.171-.515-.515-.859-.945-.859zm6.532-18.906c.086 0 .172 0 .258-.086.258.258.602.43 1.031.43.773 0 1.375-.516 1.375-1.117s-.602-1.117-1.375-1.117c-.43 0-.773.172-1.031.43l-.258-.086c-.43 0-.688.344-.688.773s.258.773.688.773z"/></g><path clip-path="url(#b)" fill="#FFF" d="M287.539 286.98c-3.352-10.055-18.991-17.616-37.811-17.616-11.688 0-22.086 2.921-29.133 7.562a39.481 39.481 0 0 0-8.68-.945 39.75 39.75 0 0 0-7.305.688c-9.366-8.335-25.866-13.835-44.6-13.835-19.164 0-35.921 5.758-45.202 14.351-3.008-.773-6.273-1.203-9.797-1.203-4.812 0-9.281.773-13.062 2.234-6.961-5.328-18.218-8.851-30.937-8.851-18.82 0-34.46 7.562-37.812 17.616"/><g clip-path="url(#b)"><defs><circle id="c" cx="149.957" cy="162.976" r="149.957"/></defs><clipPath id="d"><use xlink:href="#c" overflow="visible"/></clipPath><g clip-path="url(#d)"><path fill="#E3F3F3" d="M295.875 264.638h-59.467c-2.922 0-5.242-2.32-5.242-5.242s2.32-5.242 5.242-5.242c.086 0 .172.086.172.172s-.086.172-.172.172c-2.664 0-4.898 2.234-4.898 4.898s2.234 4.898 4.898 4.898h59.467c.086 0 .172.086.172.172s-.086.172-.172.172z"/><path fill="none" d="M236.408 259.052c1.289 0 2.32-1.031 2.32-2.32s-1.031-2.32-2.32-2.32m0 2.234c-.602 0-1.203.516-1.203 1.203 0 .602.516 1.203 1.203 1.203"/><path fill="#E3F3F3" d="M227.986 251.403a.185.185 0 0 1-.172-.172v-4.64c0-.086.086-.172.172-.172s.172.086.172.172v4.64a.185.185 0 0 1-.172.172zm2.235-2.233h-4.641c-.086 0-.172-.086-.172-.172s.086-.172.172-.172h4.641c.086 0 .172.086.172.172s0 .172-.172.172zm-2.235-2.492c-.086 0-.086 0-.086-.086l-.773-.773c-.086-.086-.086-.172 0-.258s.172-.086.258 0l.688.688.688-.688c.086-.086.172-.086.258 0s.086.172 0 .258l-.773.773c-.174.086-.26.086-.26.086zm-.773 5.499c-.086 0-.086 0-.086-.086-.086-.086-.086-.172 0-.258l.773-.773c.086-.086.172-.086.258 0l.773.773c.086.086.086.172 0 .258s-.172.086-.258 0l-.688-.688-.688.688c.002.086-.084.086-.084.086zm3.867-2.32c-.086 0-.086 0-.086-.086l-.773-.773c-.086-.086-.086-.172 0-.258l.773-.773c.086-.086.172-.086.258 0s.086.172 0 .258l-.688.688.688.688c.086.086.086.172 0 .258h-.172v-.002zm-6.187 0c-.086 0-.086 0-.086-.086-.086-.086-.086-.172 0-.258l.688-.688-.688-.688c-.086-.086-.086-.172 0-.258s.172-.086.258 0l.773.773c.086.086.086.172 0 .258l-.773.773c-.086.174-.172.174-.172.174zm1.461.86c-.086 0-.086 0-.086-.086-.086-.086-.086-.173 0-.258l3.266-3.266c.086-.086.172-.086.258 0s.086.172 0 .258l-3.266 3.266c-.087.086-.087.086-.172.086zm4.382-3.352h-1.117a.185.185 0 0 1-.172-.172v-1.117c0-.086.086-.172.172-.172s.172.086.172.172v.945h.945c.086 0 .172.086.172.172s-.086.172-.172.172zm-4.382 4.468a.185.185 0 0 1-.172-.172v-.945h-1.031c-.086 0-.172-.086-.172-.172s.086-.172.172-.172h1.117c.086 0 .172.086.172.172v1.117c.085.086-.001.172-.086.172zm3.179-1.116c-.086 0-.086 0-.086-.086l-3.266-3.266c-.086-.086-.086-.172 0-.258s.172-.086.258 0l3.266 3.266c.086.086.086.172 0 .258s-.086.086-.172.086zm.086 1.116a.185.185 0 0 1-.172-.172v-1.116c0-.087.086-.173.172-.173h1.117c.086 0 .172.086.172.173a.185.185 0 0 1-.172.172h-.945v.944a.185.185 0 0 1-.172.172zm-3.351-4.382h-1.117c-.086 0-.172-.086-.172-.172s.086-.172.172-.172h.945v-.945c0-.086.086-.172.172-.172s.172.086.172.172v1.117c-.001.086-.086.172-.172.172zm66.255 18.562h-64.537a11.15 11.15 0 0 1-11.172-11.172 11.149 11.149 0 0 1 11.172-11.171c.086 0 .172.086.172.172s-.086.172-.172.172c-6.016 0-10.828 4.898-10.828 10.827 0 6.016 4.898 10.828 10.828 10.828h64.537c.086 0 .172.086.172.172s-.086.172-.172.172zm-64.537-11.946c-.086 0-.172-.086-.172-.172s.086-.172.172-.172c2.664 0 4.898-2.148 4.898-4.897 0-2.664-2.148-4.898-4.898-4.898-.086 0-.172-.086-.172-.172s.086-.172.172-.172c2.836 0 5.242 2.32 5.242 5.241-.085 2.922-2.406 5.242-5.242 5.242z"/><path fill="none" d="M227.986 248.912a2.493 2.493 0 0 0-2.492 2.491 2.494 2.494 0 0 0 2.492 2.492"/><path fill="#E3F3F3" d="M235.893 258.622c-.086 0-.086-.086-.086-.086v-2.664c0-.086.086-.086.086-.086l.086.086v2.664l-.086.086zm1.289-1.375h-2.664c-.086 0-.086-.086-.086-.086l.086-.086h2.664c.086 0 .086.086.086.086s0 .086-.086.086zm-1.289-1.375l-.516-.43v-.172h.172l.344.344.43-.43h.172v.172l-.602.516zm-.516 3.18c-.086-.086-.086-.086-.086-.172l.43-.43h.172l.43.43v.172h-.172l-.344-.344-.43.344zm2.32-1.375l-.516-.516v-.172l.43-.43h.172v.172l-.344.344.43.43-.172.172zm-3.609 0c-.086-.086-.086-.086-.086-.172l.344-.344-.43-.43v-.172h.172l.43.43v.172l-.43.516zm.859.515c-.086-.086-.086-.086-.086-.172l1.891-1.891h.172v.172l-1.977 1.891zm2.492-1.89h-.688c-.086 0-.086-.086-.086-.086v-.602c0-.086.086-.086.086-.086l.086.086v.516h.516c.086 0 .086.086.086.086s.086.086 0 .086zm-2.492 2.492c-.086 0-.086-.086-.086-.086v-.516h-.516c-.086 0-.086-.086-.086-.086l.086-.086h.688c.086 0 .086.086.086.086v.602c-.086.086-.172.086-.172.086zm1.805-.602l-1.977-1.891v-.172h.172l1.891 1.891c0 .086 0 .086-.086.172zm.086.602c-.086 0-.086-.086-.086-.086v-.688c0-.086.086-.086.086-.086h.602c.086 0 .086.086.086.086l-.086.086h-.516v.516c0 .172-.086.172-.086.172zm-1.977-2.492h-.602c-.086 0-.086-.086-.086-.086l.086-.086h.516v-.516c0-.086.086-.086.086-.086l.086.086v.688h-.086z"/></g></g><path clip-path="url(#b)" fill="#948C75" d="M88.771 203.365l-.688-.43h-.688l-.688.43-.344.602v1.805h-.773l-1.289.773-.773 1.289h-1.547l1.547 1.547.773 1.289 1.289.773h1.461l1.375-.773.773-1.289v-5.414l-.428-.602z"/><g clip-path="url(#b)"><path fill="#FF6179" d="M86.365 211.443l-.773.773v-.773h.773zm.687 0l-.688.773v-.773h.688zm-.687.43l.344.344h-.344v-.344zm-.774 0l.344.344h-.344v-.344z"/></g><path clip-path="url(#b)" fill="#D9CEB2" d="M87.396 205.771l-.688-.344-.344-.688v-.773l.344-.602.688-.43h.688l.688.43.43.602v.773l-.43.688-.688.344h-.688z"/><path clip-path="url(#b)" fill="#FF6179" d="M89.716 204.826H89.2v-.516l.516.516z"/><circle clip-path="url(#b)" fill="#FF6179" cx="88.169" cy="204.396" r=".43"/><circle clip-path="url(#b)" fill="#FFF" cx="88.169" cy="204.396" r=".258"/><circle clip-path="url(#b)" fill="#1D1D1B" cx="88.169" cy="204.396" r=".172"/><path clip-path="url(#b)" fill="#D5DED9" d="M85.591 211.443l-1.289-.773 4.125-4.125.773 1.289v1.547l-.773 1.289-1.375.773h-1.461z"/><g clip-path="url(#b)"><path fill="#7A6A53" d="M84.388 210.584l.344.43.602.258-.859-.773-.087.085zm.43-.43l1.289 1.289h.172l-1.375-1.375-.086.086zm.43-.429l1.633 1.719h.258l-1.805-1.805-.086.086zm.429-.43l1.805 1.891.172-.086-1.891-1.891-.086.086zm.344-.43l2.063 2.063.086-.086-1.977-2.063-.172.086zm.43-.429l2.063 2.063.086-.172-1.977-1.977-.172.086zm.429-.344l1.977 1.891.086-.172-1.891-1.891-.172.172zm.43-.43l1.805 1.805.086-.086v-.172l-1.719-1.719-.172.172zm.43-.43l1.461 1.375v-.258l-1.289-1.289-.172.172zm.601-.601l-.172.172.859.773-.344-.516-.343-.429z"/></g><g clip-path="url(#b)"><path fill="#778C79" d="M-19.761 190.23h93.223v46.267h-93.223z"/><path fill="#3C4C3F" d="M-19.265 190.444h8.399s-3.497 9.752-3.617 9.988c-.121.235-1.546 1.703-4.782 1.8-3.236.097-4.782-1.409-4.261-2.498.73-1.526 4.261-9.29 4.261-9.29z"/><path fill="#273329" d="M-14.219 199.673h-9.278l-.029.062c-.521 1.089 1.025 4.036 4.261 3.94 2.7-.081 4.136-2.556 4.609-3.034l.437-.968z"/><path fill="#475649" d="M-10.866 190.444h8.198s-2.351 9.124-2.712 9.988c-.362.863-2.291 1.998-5.486 1.8s-3.678-1.607-3.353-2.498c.388-1.06 3.353-9.29 3.353-9.29z"/><path fill="#374439" d="M-5.154 199.673h-9.042l-.023.062c-.325.891.158 3.74 3.353 3.94 3.195.198 5.124-2.379 5.486-3.242.045-.11.124-.354.225-.694l.001-.066z"/><path fill="#3C4C3F" d="M-2.668 190.444h8.561l-1.804 9.854s-1.632 2.104-5.369 1.938c-3.738-.166-4.048-1.896-3.873-2.502.174-.605 2.485-9.29 2.485-9.29z"/><path fill="#273329" d="M-1.281 203.679c3.517.156 5.169-3.14 5.352-3.357v-.583h-9.225c-.174.607.142 3.774 3.873 3.94z"/><path fill="#475649" d="M5.671 190.444h8.52l-1.125 10.224s-1.688 1.791-5.003 1.578c-3.316-.212-4.128-1.552-3.975-2.168.153-.617 1.583-9.634 1.583-9.634z"/><path fill="#374439" d="M4.155 199.738c-.03.168-.054.285-.067.34-.154.616.659 3.396 3.975 3.61 3.315.212 5.003-3.021 5.003-3.021l.103-.93H4.155z"/><path fill="#3C4C3F" d="M14.191 190.444h8.459l-.482 9.988s-1.408 1.786-4.954 1.675c-3.546-.11-4.128-1.675-4.128-1.675l1.105-9.988z"/><path fill="#273329" d="M22.176 199.738h-9.008l-.049.762c.16.301.993 2.952 4.096 3.049 3.545.111 4.954-3.116 4.954-3.116l.008-.171v-.524z"/><path fill="#475649" d="M22.65 190.444h8.259l.421 9.988s-.218 1.611-4.479 1.681c-4.261.068-4.675-1.851-4.675-1.851l.474-9.818z"/><path fill="#374439" d="M31.289 200.565l-.079-.827h-9.009l-.025.524s.414 3.36 4.675 3.291c3.513-.056 4.278-2.601 4.438-2.988z"/><path fill="#3C4C3F" d="M30.909 190.444h8.741l.905 9.988s-.543 1.647-4.22 1.681c-3.677.031-4.974-1.396-5.004-1.889-.029-.49-.422-9.78-.422-9.78z"/><path fill="#273329" d="M40.533 200.481l-.012-.406-.03-.337h-9.184l.023.486c.03.492 1.327 3.362 5.004 3.329 3.3-.028 4.075-2.799 4.199-3.072z"/><path fill="#475649" d="M39.65 190.444h8.259l1.929 9.988s-1.267 1.765-4.582 1.685c-3.316-.08-4.039-.986-4.701-1.685l-.905-9.988z"/><path fill="#374439" d="M49.78 200.503l-.077-.765h-9.212l.063.694c.663.698 1.385 3.046 4.701 3.127 2.916.071 4.246-2.726 4.525-3.056z"/><path fill="#3C4C3F" d="M47.909 190.444h8.56L59 200.433s-.576 1.48-3.677 1.681c-3.979.257-5.485-1.681-5.485-1.681l-1.906-9.866"/><path fill="#273329" d="M59 200.433l-.175-.692-.001-.002h-9.121l.134.694s1.506 3.379 5.485 3.122c3.102-.201 3.678-3.122 3.678-3.122z"/><path fill="#475649" d="M56.468 190.444h8.138l3.618 9.988s-.604 1.659-3.678 1.704c-3.074.045-5.433-1.259-5.545-1.704l-2.533-9.988z"/><path fill="#374439" d="M67.972 199.738h-9.148l.001.002.215.77c.327.503 2.593 3.111 5.506 3.068 3.075-.045 3.678-3.146 3.678-3.146l-.252-.694z"/><path fill="#3C4C3F" d="M64.606 190.444h8.598l4.122 9.988s0 1.705-3.798 1.705c-3.918 0-5.304-1.705-5.304-1.705l-3.618-9.988z"/><path fill="#273329" d="M77.039 199.738h-9.067l.252.694s1.386 3.147 5.304 3.147c3.798 0 3.798-3.147 3.798-3.147l-.287-.694zm-57.109 7.979h12.095v23.388H19.93z"/><path fill="#57706F" d="M20.57 208.412h10.814v21.997H20.57z"/><path fill="#273329" d="M25.668 207.984h.619v22.854h-.619z"/><path d="M20.265 215.096h11.426v.62H20.265zm0 9.611h11.426v.62H20.265z" fill="#273329"/><path opacity=".2" fill="#E4F4F3" d="M21.564 209.105h9.051v18.982c0 .001-.641-15.217-9.051-18.982z"/><path fill="#273329" d="M2.31 207.717h12.096v23.388H2.31z"/><path fill="#57706F" d="M2.95 208.412h10.814v21.997H2.95z"/><path fill="#273329" d="M8.048 207.984h.619v22.854h-.619z"/><path d="M2.644 215.096h11.427v.62H2.644zm0 9.611h11.427v.62H2.644z" fill="#273329"/><path opacity=".2" fill="#E4F4F3" d="M3.944 209.105h9.05v18.982c0 .001-.64-15.217-9.05-18.982z"/><path fill="#273329" d="M-15.311 207.717h12.096v23.388h-12.096z"/><path fill="#57706F" d="M-14.669 208.412h10.814v21.997h-10.814z"/><path fill="#273329" d="M-9.572 207.984h.619v22.854h-.619z"/><path d="M-14.976 215.096h11.427v.62h-11.427zm0 9.611h11.427v.62h-11.427z" fill="#273329"/><path opacity=".2" fill="#E4F4F3" d="M-13.676 209.105h9.051v18.982c0 .001-.642-15.217-9.051-18.982z"/><path fill="#273329" d="M58.374 207.717h12.095v23.388H58.374z"/><path fill="#57706F" d="M59.014 208.412h10.814v21.997H59.014z"/><path fill="#273329" d="M64.112 207.984h.619v22.854h-.619z"/><path d="M58.708 215.096h11.426v.62H58.708zm0 9.611h11.426v.62H58.708z" fill="#273329"/><path opacity=".2" fill="#E4F4F3" d="M60.008 209.105h9.05v18.982c.001.001-.64-15.217-9.05-18.982z"/><path fill="#6FD161" d="M36.119 228.67s-1.585-.426-2.256-2.65c-.67-2.224-.776-7.78 0-10.005.776-2.224 2.567-3.928 3.64-2.414 1.072 1.516 1.721 8.491.982 11.473-.739 2.982-1.812 3.454-2.366 3.596z"/><path opacity=".1" d="M35.742 213.289c1.031 9.419-.891 12.677-1.575 13.513.753 1.546 1.952 1.868 1.952 1.868.555-.142 1.627-.614 2.366-3.597.739-2.981.09-9.957-.982-11.473-.492-.693-1.134-.71-1.761-.311z"/><path fill="#F3F4EF" d="M36.061 225.951h-2.403l.801 8.849h3.204l.8-8.849z"/><path opacity=".1" d="M34.29 232.931s1.811-3.428 1.771-6.979h2.403l-.801 8.849h-3.204l-.169-1.87z"/><path fill="#6FD161" d="M55.514 228.67s-1.585-.426-2.256-2.65c-.67-2.224-.777-7.78 0-10.005.776-2.224 2.567-3.928 3.64-2.414 1.073 1.516 1.722 8.491.982 11.473-.739 2.982-1.812 3.454-2.366 3.596z"/><path opacity=".1" d="M55.137 213.289c1.032 9.419-.891 12.677-1.575 13.513.753 1.546 1.952 1.868 1.952 1.868.554-.142 1.627-.614 2.366-3.597.739-2.981.09-9.957-.982-11.473-.492-.693-1.135-.71-1.761-.311z"/><path fill="#F3F4EF" d="M55.456 225.951h-2.403l.801 8.849h3.204l.8-8.849z"/><path opacity=".1" d="M53.685 232.931s1.811-3.428 1.771-6.979h2.403l-.801 8.849h-3.204l-.169-1.87z"/><path fill="#57706F" d="M39.272 211.481l.99-3.487 3.924-2.459 3.963.181 2.932 2.206.319 2.389.156 1.091zm0 0h12.747v23.955H39.272z"/><path fill="#273329" d="M46.769 204.932l-1.091-.079-.211-.004-.949.083c-4.876.618-5.71 4.362-5.712 6.55v25.016H52.48V211.48c-.001-2.186-.837-5.93-5.711-6.548zm4.299 10.891h-4.979V212.1h4.979v3.723zm-5.796 5.717v4.084h-5.056v-4.084h5.056zm-5.056-.816v-4.083h5.056v4.083h-5.056zm5.056 5.716v4.084h-5.056v-4.084h5.056zm.817 0h4.979v4.084h-4.979v-4.084zm0-.816v-4.084h4.979v4.084h-4.979zm0-4.9v-4.083h4.979v4.083h-4.979zm4.897-10.016h-4.324l2.07-3.613c1.58.996 2.09 2.642 2.254 3.613zm-5.483-4.439l.119-.006.158.006a6.564 6.564 0 0 1 1.821.305l-1.958 3.416-1.958-3.416a6.517 6.517 0 0 1 1.818-.305zm-2.951.826l2.072 3.613h-4.326c.164-.971.675-2.619 2.254-3.613zm2.72 5.005v3.724h-5.056V212.1h5.056zm-5.056 19.241h5.056v3.421h-5.056v-3.421zm5.873 3.421v-3.421h4.979v3.421h-4.979z"/><path fill="#273329" d="M39.272 230.688h12.812v5.063H39.272z"/><path fill="#CDC2AC" d="M-19.349 172.664H73.05v3.097h-92.399z"/><path fill="#3C4C3F" d="M-19.203 175.494h92.399v14.95h-92.399z"/><path fill="#526654" d="M67.93 179.496v-1.338h-82.16v1.338s-4.198 2.913 0 6.684v1.504h82.16v-1.504c4.199-3.771 0-6.684 0-6.684zm6.921 10.734a.642.642 0 0 1-.641.642h-94.719a.64.64 0 1 1 0-1.282H74.21a.641.641 0 0 1 .641.64zm0-14.736a.641.641 0 0 1-.641.641h-94.719a.641.641 0 0 1 0-1.282H74.21a.642.642 0 0 1 .641.641z"/><g font-family="'LibreBaskerville-Regular'" font-size="7.491"><text transform="translate(1.938 186.49)" fill="#232D24">RESTAURANT</text><text transform="translate(1.618 186.169)" fill="#F9DE6B">RESTAURANT</text></g><path fill="#FFF" d="M44.226 237.539c-.688-2.148-4.039-3.695-7.992-3.695-3.953 0-7.305 1.633-7.992 3.695h15.984zm20.667-.667c-.688-2.148-4.039-3.695-7.992-3.695-3.953 0-7.305 1.633-7.992 3.695h15.984zm6.874-63.892c-1.038-3.115-5.884-5.458-11.714-5.458-3.621 0-6.843.905-9.026 2.343a12.33 12.33 0 0 0-4.952-.08c-2.902-2.582-8.014-4.286-13.818-4.286-5.938 0-11.129 1.784-14.005 4.446a12.13 12.13 0 0 0-3.035-.373c-1.491 0-2.875.24-4.047.692-2.157-1.65-5.645-2.742-9.585-2.742-5.831 0-10.676 2.343-11.715 5.458"/></g><g clip-path="url(#b)"><ellipse fill="#E0E0E0" cx="70.59" cy="278.524" rx="17.494" ry="2.949"/><path fill="#833729" d="M40.568 252.933l-.172.758 4.062.804 2.684 2.879-1.037.57.456.456 1.195-.368 8.268 2.996.428-1.483-8.241-2.383-3.062-3.358-.087-2.784-.656-.007-.085 2.287z"/><circle fill="#FFF" cx="66.342" cy="243.37" r="9.457"/><path fill="#E0E0E0" d="M66.342 233.914c-.616 0-1.217.061-1.801.173 4.362.841 7.657 4.677 7.657 9.283 0 4.608-3.295 8.442-7.657 9.284a9.456 9.456 0 1 0 1.801-18.74z"/><circle fill="#FFF" cx="66.342" cy="265.641" r="13.885"/><path fill="#E0E0E0" d="M66.342 251.756c-.792 0-1.566.066-2.321.193 6.563 1.105 11.563 6.813 11.563 13.691 0 6.877-5 12.587-11.563 13.691.755.127 1.53.194 2.321.194 7.668 0 13.885-6.218 13.885-13.886 0-7.667-6.217-13.883-13.885-13.883z"/><path fill="#E0E0E0" d="M60.024 253.272s8.674 2.151 12.38 1.238l.252-.71-12.632-.528z"/><g fill="#00C86B"><path d="M72.657 253.801c-6.147 0-6.147-.492-12.294-.492-.776 0-1.574-.563-1.361-1.311.268-.945-.168-1.449.806-1.581 6.674-.899 6.795-1.387 13.471-.486.974.132-.001 1.256.267 2.202.211.746-.113 1.668-.889 1.668z"/><path d="M67.232 261.865c.635.05 1.633-.396 2.27-.38.637.018 1.274.754 1.911.738.35-.01.594-.176.847-.333.409-.252.677-.679.735-1.153.116-.966.457-1.897.379-2.891-.102-1.294-.939-2.529-1.041-3.823-.102-1.294.511-2.741.409-4.034-.354.027-1.043.54-1.397.553-.355.012-.72-.721-1.075-.724s-.369.489-.724.472c-.144 1.293-1.008 2.403-1.175 3.694-.168 1.29.382 2.682.19 3.968-.192 1.287-1.113 2.63-1.329 3.913z"/></g><g fill="#686E85"><circle cx="61.813" cy="260.506" r="1.364"/><circle cx="61.593" cy="265.842" r="1.364"/><circle cx="61.813" cy="271.293" r="1.364"/></g><path fill="#E0E0E0" d="M65.287 242.812l1.357 1.284-1.803.821z"/><path fill="#F7890B" d="M64.479 242.566l-5.251.39 4.917 1.884a1.178 1.178 0 1 0 .334-2.274z"/><path fill="#833729" d="M81.759 259.605l.779-.46 1.09-.645 5.118-3.028 3.546.822.448-.768-3.241-.807 1.795-1.797-.517-.518-2.603 2.494-3.913 2.016.308-.869-.836-.084-.57 1.518-1.718.885-5.201.414.006 1.922z"/><g fill="#686E85"><circle cx="63.256" cy="241.154" r="1.037"/><circle cx="67.232" cy="241.29" r="1.364"/></g><path fill="#FF202B" d="M64.672 231.901c.422-.913 4.068-4.985 4.246-5.086.177-.102 1.151-.668 1.904-.609.752.057 8.258 1.083 8.258 1.083s-1.649 9.119-1.839 9.278c-.189.161-12.569-4.666-12.569-4.666z"/><path fill="#9B141A" d="M75.814 229.082c-.665-1.556-2.58-2.431-4.189-2.568-.421-.037-1.141-.078-1.273.447-.081.319.212.718.318.994.193.503.314 1.031.357 1.567.012.158.004.345-.127.432-.141.093-.326.012-.479-.059a3.68 3.68 0 0 0-2.155-.29c-.59.101-1.271.323-1.748-.002-.747.882-1.439 1.746-1.706 2.199.029.069.061.141.097.208.707.275 3.49 1.357 6.241 2.402.622.001 1.237-.07 1.83-.265a4.77 4.77 0 0 0 1.755-1.026c1.093-1.007 1.664-2.673 1.079-4.039z"/><g fill="#FCFCFA" stroke="#DFE3EB" stroke-width=".25" stroke-miterlimit="10"><path d="M71.747 231.011c.029.383.006.55-.094.541.142.165.147-.006.094-.541zm-.616.204l.025.038a.058.058 0 0 0 .018-.004l-.043-.034zm-6.117-.694l.01.015v-.001a.045.045 0 0 0-.01-.014z"/><path d="M71.149 231.255c.009.014.019.027.027.041a.126.126 0 0 0 .01.003l-.03-.046-.007.002zm.504.297l-.007-.007.006.007zm-6.628-1.177c.001.059.001.112-.001.16.122.178.07.044.001-.16zm6.298.95l.003-.001c-.022-.036-.045-.069-.073-.113l.097.104.007-.002a1.889 1.889 0 0 1-.106-.109l-.003.005c.027.042.051.081.075.116z"/><path d="M71.248 231.209l-.014-.021.017.017c.05-.057.084-.162.112-.312-.052.195-.128.296-.247.309.023.019.042.031.063.048a.17.17 0 0 0 .069-.041zm-.132-.008l-.001-.001v.001zm.264.133c.034-.005.061-.024.08-.063.027.043.055.088.079.122a.083.083 0 0 1-.048.023c.031.018.056.023.076.019a1.205 1.205 0 0 0 .002 0c.073-.019.084-.175.056-.486.001.247-.024.388-.085.443l-.079-.121c.035-.067.051-.184.054-.353a.83.83 0 0 1-.078.313l-.016-.023.016.023a.172.172 0 0 1-.079.081c.007.01.014.014.022.022zm-.012.003l-.019-.021c-.008.004-.015.008-.024.009l.003.005c.014.002.029.007.04.007z"/><path d="M77.973 237.981c.003-.083.109-.095.277-.093-.15-.094-.24-.171-.166-.158-.162-.161-.16-.231.063-.21-.13-.169-.042-.246.207-.299-.285-.075-.36-.139-.117-.175-.275-.124-.23-.222.063-.354-.273-.023-.296-.08-.062-.198-.251-.008-.243-.077-.034-.223-.191-.054-.183-.173-.074-.351-.105-.031-.107-.12-.069-.234-.054-.027-.069-.078-.064-.137-.042.004-.073-.029-.099-.096-.067-.015-.128-.062-.188-.14a.866.866 0 0 1-.268-.173 4.5 4.5 0 0 1-.331-.202 66.788 66.788 0 0 0-2.958-1.783c-.135-.077-.271-.153-.352-.211-.185-.093-.316-.165-.123-.149-.452-.161-.579-.229-.084-.203-.742-.161-.863-.228-.187-.407-.909.055-1.021-.004-.77-.739-.422.645-.484.613-.609-.218.04.764.019.728-.107-.104.011.604-.043.723-.269.426-.047-.005-.112-.049-.198-.13a.324.324 0 0 1-.084-.029c.147.228.141.222-.004-.002a.803.803 0 0 1-.103-.067.395.395 0 0 1-.077-.024c.149.235.14.227-.01-.003a.92.92 0 0 1-.11-.062c.03.012.058.021.083.021l-.034-.054a.338.338 0 0 1-.135-.018c.029.161-.018.189-.116.127.014-.005.006-.057-.006-.146.041-.071.073-.213.125-.401a2.844 2.844 0 0 1-.271.4c-.075.087-.137.127-.192.117-.109-.016-.19-.227-.292-.638.001.8-.069.792-.364.059.179.704.134.684-.156.038.104.481.064.597-.129.424.041-.007.022-.143-.028-.41.003.161-.014.268-.053.329a4.939 4.939 0 0 1-.144-.161c.056.077.098.131.134.171-.067.089-.188.069-.366-.035.103.198.044.167-.066-.004.074-.007.097-.152.161-.37-.557.625-.746.613-1.051-.196-.079.785-.274.772-.833.328.23.362.201.412-.028.239l-.11-.178a.774.774 0 0 1 .009.098c-.014-.013-.026-.021-.041-.033l.041.042c0 .171-.093.183-.223.089.097.071.144.003.188-.229-.05.179-.152.234-.251.228-.022.046-.042.033-.028-.028.034-.044.101-.136.208-.272a2.137 2.137 0 0 1-.372.259c-.162.075-.143-.059.061-.471-.423.552-.429.477-.14-.112-.379.535-.508.596-.503-.109-.16.616-.228.699-.281.286.008-.071.019-.2.032-.376a4.049 4.049 0 0 1-.053.185l-.011-.119.003.138c-.092.263-.193.278-.391-.087.072.591.001.623-.329.139.2.459.146.414-.089.036-.01.164-.057.239-.229.137.165.302.122.309-.107.082.103.092.019-.049-.093-.263.058.207.087.344-.01.33.101.153.075.159-.057.047.021.004-.063-.11-.179-.279.058.167.087.281.069.332.016.074-.015.088-.077.054a.532.532 0 0 1-.085-.059 1.423 1.423 0 0 0-.083-.29.54.54 0 0 1-.012.208 5.416 5.416 0 0 1-.081-.079l.076.093c-.038.096-.13.1-.277.031.077.146.03.129-.062.007.05-.009.056-.121.087-.289-.115.167-.205.278-.274.33-.069.052-.118.043-.15-.031-.034-.075-.052-.214-.061-.423-.171.626-.255.629-.397.002.007.631-.042.633-.23.041.098.603.032.633-.317.119.203.615.125.685-.411.288.123.189.194.328.211.423.018.094-.021.145-.125.127-.091.047-.249.023-.47-.025.16.128.256.228.242.178.088.209.064.271-.125.103.026.229-.068.292-.277.256l-.019-.021.016.021a1.036 1.036 0 0 1-.116-.026c.111.084.184.139.208.149.134.19.079.194-.217-.014.279.367.21.428-.23.28.129.091.215.159.249.188.044.063.036.088-.036.043-.043.053-.15.037-.31 0 .141.088.23.154.221.075.083.183.07.218-.073.05.012.168-.055.212-.192.182-.007-.015-.014-.025-.024-.041l.022.04a.935.935 0 0 1-.13-.043c.121.109.19.173.184.141.116.22.068.227-.202-.031.224.421.142.481-.3.274.42.324.445.387-.054.112.16.139.262.239.304.308.042.067.022.103-.06.105-.081.007-.225-.017-.433-.065.185.098.305.171.339.185.076.091.066.125-.056.063-.03.094-.172.097-.381.086.189.058.313.103.278.014.151.168.145.202-.056.063.052.162-.026.21-.187.216l-.006-.005.005.005a.669.669 0 0 1-.118-.001c.113.053.19.092.207.092.179.188.135.217-.198.061.305.321.227.4-.21.353.432.165.471.216-.015.12.497.225.47.303-.072.318.507.12.501.18-.012.254.489.041.491.096.047.224l.058.003c.164-.008.253-.002.267.02.663.06 1.395.222 2.165.557 0 0 1.802 1.127 4.882 1.427 0 0 5.159-.476 8.776 4.089.064-.199.158-.164.3.068-.028-.286.008-.318.127-.043-.033-.322.018-.337.174-.056-.025-.334.039-.374.246-.122-.128-.355-.084-.431.242-.19-.236-.425-.19-.533.301-.36-.397-.417-.348-.554.241-.589-.165-.086-.269-.161-.302-.214-.065-.087-.058-.155.075-.155-.018-.139.091-.213.271-.282l-.105-.031c-.199-.144-.198-.197.075-.144-.237-.189-.189-.267.117-.288-.292-.112-.306-.183.026-.221-.163-.063-.238-.116-.219-.15-.009-.071.078-.122.242-.173-.131-.089-.185-.177-.024-.12-.17-.248-.125-.352.211-.307-.149-.116-.224-.194-.201-.218.002-.057.102-.062.305-.024a1.315 1.315 0 0 1-.218-.155c-.076-.1-.068-.138.047-.105zm-6.958-6.77c.011.007.021.01.032.015.143.256.12.239-.032-.015z"/><path d="M71.38 231.334l-.012.003c.031.032.059.06.086.085.014.001.025-.003.036-.005a.562.562 0 0 1-.11-.083zm-.062-.008a.593.593 0 0 1-.14-.077h-.004c.03.027.061.054.089.074.019.003.038.006.055.003zm.006.002l-.001-.003-.005.001zm0 0l.041.063.004.002a1.322 1.322 0 0 0-.041-.063c-.001-.002-.002-.002-.004-.002z"/></g><path fill="#C6D3D3" d="M70.435 237.528c1.895.544 3.7 1.583 4.855 3.182a.662.662 0 0 1 .082.138h1.352c.082-.029.198-.048.359-.058-.163-.085-.266-.157-.298-.21-.063-.087-.057-.153.074-.154-.017-.137.09-.209.268-.278-.042-.012-.078-.022-.105-.032-.197-.141-.194-.194.076-.141-.234-.188-.188-.263.115-.285-.289-.11-.302-.18.026-.217-.16-.063-.235-.115-.217-.149-.008-.068.077-.119.239-.171-.13-.085-.184-.174-.024-.118-.168-.244-.125-.347.208-.303-.147-.114-.221-.191-.199-.216.002-.056.101-.059.303-.023a1.399 1.399 0 0 1-.216-.152c-.074-.092-.066-.128.047-.095.002-.083.108-.095.274-.093-.149-.093-.238-.169-.166-.156-.159-.159-.157-.229.063-.207-.129-.167-.042-.243.204-.295-.281-.074-.355-.137-.115-.174-.273-.122-.228-.219.062-.35-.27-.021-.293-.078-.061-.193-.248-.009-.241-.077-.034-.221-.189-.052-.181-.171-.073-.347-.104-.029-.106-.118-.069-.23-.053-.027-.068-.079-.064-.136-.04.004-.071-.028-.097-.094-.066-.015-.127-.063-.186-.139a.818.818 0 0 1-.265-.171c-.102-.052-.209-.123-.327-.199a67.14 67.14 0 0 0-2.921-1.76c-.134-.076-.268-.151-.348-.209-.182-.091-.312-.164-.12-.146-.447-.159-.573-.229-.084-.203-.732-.159-.852-.224-.183-.402-.898.055-1.009-.003-.76-.729-.418.637-.478.605-.601-.215.04.753.018.718-.106-.104.01.593-.042.713-.26.428-.048-.004-.115-.05-.202-.135a.296.296 0 0 1-.081-.029c.147.229.142.223-.005-.002a.82.82 0 0 1-.097-.063.45.45 0 0 1-.078-.024c.146.229.138.221-.01-.004a.82.82 0 0 1-.111-.063.218.218 0 0 0 .083.019l-.035-.053a.306.306 0 0 1-.132-.018c.029.16-.017.192-.115.129.016-.002.007-.056-.006-.146.04-.071.073-.211.124-.396a4.553 4.553 0 0 1-.155.246c.034.521.136 1.039.285 1.537.324 1.086.856 2.097 1.387 3.098-1.928.133-3.825.784-5.733.928 1.412.057 2.818.214 4.173.603zm.075-5.967l.032.016c.141.25.117.233-.032-.016z"/><path fill="#A7B9C1" d="M76.342 239.754c.086.179.15.375.138.571-.019.309-.213.577-.432.792l-.03.027h.8c-.01-.127.143-.185.487-.206-.163-.084-.265-.158-.298-.211-.063-.086-.056-.152.074-.153-.017-.138.09-.209.269-.278a2.305 2.305 0 0 1-.106-.032c-.197-.141-.195-.193.075-.141-.234-.187-.187-.263.115-.286-.289-.11-.302-.179.025-.217-.16-.061-.235-.114-.217-.148-.007-.069.077-.119.24-.172-.13-.085-.184-.172-.024-.117-.168-.244-.125-.347.208-.303-.146-.113-.221-.19-.198-.216.001-.055.101-.058.302-.022a1.321 1.321 0 0 1-.215-.153c-.075-.092-.065-.129.047-.095.002-.082.108-.096.274-.093-.149-.092-.238-.169-.166-.157-.158-.157-.157-.228.063-.207-.128-.165-.042-.242.205-.294-.282-.074-.356-.137-.115-.175-.273-.121-.228-.219.062-.35-.27-.021-.293-.076-.061-.193-.247-.008-.239-.077-.034-.221-.189-.052-.181-.17-.073-.346-.104-.03-.106-.118-.068-.229-.054-.027-.068-.079-.063-.136-.041.003-.072-.029-.098-.096-.067-.013-.127-.061-.186-.138a.818.818 0 0 1-.265-.171c-.101-.051-.209-.123-.326-.2a69.202 69.202 0 0 0-2.921-1.76c-.134-.076-.268-.15-.348-.208-.182-.091-.312-.165-.12-.146-.447-.159-.572-.228-.084-.201-.732-.16-.852-.225-.184-.402a3.33 3.33 0 0 1-.612.002 9.933 9.933 0 0 0 2.734 5.736c.41.421.868.819 1.126 1.345z"/><path fill="#FF202B" d="M70.017 226.311c1.384-.407 8.638.511 8.901 1.021.262.512.857 4.045.706 6.526-.151 2.481 1.449 3.947 1.175 6.559 0 0-.517-1.962-2.782-2.573-2.265-.609-4.875-1.884-5.67-6.029-.98-5.102-2.33-5.504-2.33-5.504z"/><path fill="#9B141A" d="M79.266 228.777l-.063-.09a21.18 21.18 0 0 1-.426 4.422c-.031.156-.075.325-.203.419-.144.105-.344.076-.516.032-1.513-.391-2.678-1.564-3.762-2.689a9.97 9.97 0 0 0 4.714 5.487 10.332 10.332 0 0 1-5.686-1.814c1.18 2.042 3.029 2.851 4.693 3.299 2.265.611 2.782 2.573 2.782 2.573.274-2.611-1.326-4.077-1.175-6.559.099-1.624-.122-3.697-.358-5.08z"/><path fill="#FCFCFA" stroke="#DFE3EB" stroke-width=".25" stroke-miterlimit="10" d="M83.543 240.095c-.229.165-.35.274-.109.244-.298.187-.235.231.145.184-.416.191-.513.288-.085.286-.365.145-.205.189.219.213-.415.094-.565.165-.181.242-.422.066-.308.138.136.244-.38.014-.431.06-.103.173-.234.003-.089.073.172.171-.437-.044-.635-.03-.188.218-.408-.103-.535-.101-.201.104-.358-.103-.256-.002.083.223-.435-.179-.634-.234-.302.054-.472-.226-.413-.107-.011.278-.47-.298-.598-.329-.267.076-.354-.258-.25-.08.03.295-.298-.272-.42-.348-.234-.027-.273-.274-.239-.155-.037.211-.341-.368-.29-.176-.123.22-.277-.36-.438-.518-.32.006-.218-.396-.314-.5-.245-.082-.18-.364-.194-.207-.142.23-.165-.491-.265-.699-.285-.212-.149-.563-.22-.429-.292.186-.065-.615-.133-.749-.289-.188-.01-.486-.109-.276-.274.211.055-.434.043-.59-.136-.229.075-.412-.018-.307-.23.089.12-.517-.031-.352-.291.015.164-.414.219-.629-.139-.243.212-.393.249-.526-.05-.236.201-.346.067-.268-.259.02.31-.406.427-.603.023-.341.374-.438.227-.418-.312-.126.463-.403.534-.535-.011-.341.389-.29.161-.253-.333-.111.388-.205.508-.305.109-.246.38-.181.241-.201-.207-.154.495-.203.274-.244-.176-.271.416-.085.6-.15.111-.22.41-.039.526-.079.15-.146.362-.029.233-.085-.156-.171.462.016.664-.002.256-.14.512.037.415-.048-.093-.256.539.104.667.085.217-.164.421.103.262-.025-.131-.271.375.143.515.166.227-.061.355.15.283.049-.034-.22.457.216.353.05.065-.276.229.152.37.228.238.037.28.197.289.13.081-.184.342.295.466.343.274-.032.285.263.255.1.09-.288.264.326.394.429.296.053.247.344.267.21.178-.232.182.331.254.354.228.009.116.209.133.05.129-.229.16.437.273.603.367.072.073.411.136.517.225.138.05.354.125.223.236-.15-.002.389.032.536.179.211-.023.389.067.306.253-.068-.063.534.09.408.368.034-.134.447-.145.648.251.28-.191.373-.205.495.096.246-.176.312-.035.253.278.021-.237.312-.299.45.016.28-.255.298-.133.285.245.098-.373.385-.172.377.275.243z"/></g><g clip-path="url(#b)"><path fill="#F5F4E6" d="M184.209 83.77h62.963v120.149h-62.963z"/><path fill="#E6DBAF" d="M184.189 198.688h62.962v5.23h-62.962zm.02-110.732h62.963v1.838h-62.963z"/><path opacity=".8" fill="#FFF" d="M184.209 196.493h62.963v2.195h-62.963z"/><path fill="#428296" d="M207.478 189.103h16.425v14.816h-16.425z"/><path fill="#BEE0EB" d="M208.836 190.511h13.709v13.408h-13.709z"/><path fill="#428296" d="M215.137 189.606h1.106v14.313h-1.106z"/><path d="M215.137 191.055l-6.301 8.182v-.537l6.301-8.18zm0 4.637l-6.301 8.227v-.966l6.301-8.182zm0-1.648l-6.301 8.182v-1.815l6.301-8.182zm7.408-2.989l-6.302 8.182v-.537l6.302-8.18zm0 4.637l-6.302 8.227v-.966l6.302-8.182zm0-1.648l-6.302 8.182v-1.815l6.302-8.182z" opacity=".4" fill="#FFF"/><path d="M214.242 200.5a.272.272 0 1 1-.544 0v-2.386a.272.272 0 0 1 .544 0v2.386zm3.441 0a.272.272 0 0 1-.543 0v-2.386c0-.149.122-.272.271-.272.15 0 .272.123.272.272v2.386z" fill="#428296"/><path fill="#DE4747" d="M228.506 190.656c-1.206-5.622-6.484-9.854-12.816-9.854-6.331 0-11.609 4.232-12.814 9.854h25.63z"/><path fill="#F55B5B" d="M226.229 190.656c-.991-5.622-5.332-9.854-10.54-9.854-5.206 0-9.547 4.232-10.538 9.854h21.078z"/><path fill="#DE4747" d="M223.011 190.656c-.688-5.622-3.703-9.854-7.321-9.854-3.616 0-6.631 4.232-7.32 9.854h14.641z"/><path fill="#F55B5B" d="M218.537 190.656c-.267-5.622-1.44-9.854-2.848-9.854-1.406 0-2.581 4.232-2.847 9.854h5.695z"/><g fill="#B33939"><path d="M204.476 192.237c.885 0 1.602-.708 1.602-1.581h-3.203a1.59 1.59 0 0 0 1.601 1.581zm3.204 0c.885 0 1.603-.708 1.603-1.581h-3.205a1.59 1.59 0 0 0 1.602 1.581z"/><path d="M210.884 192.237c.885 0 1.602-.708 1.602-1.581h-3.203a1.59 1.59 0 0 0 1.601 1.581zm3.205 0c.884 0 1.601-.708 1.601-1.581h-3.204a1.591 1.591 0 0 0 1.603 1.581zm3.203 0c.886 0 1.603-.708 1.603-1.581h-3.205a1.59 1.59 0 0 0 1.602 1.581zm3.204 0c.885 0 1.602-.708 1.602-1.581h-3.203a1.59 1.59 0 0 0 1.601 1.581z"/><path d="M223.701 192.237c.885 0 1.602-.708 1.602-1.581h-3.205c0 .873.717 1.581 1.603 1.581zm3.203 0c.885 0 1.603-.708 1.603-1.581h-3.204c0 .873.717 1.581 1.601 1.581z"/></g><path opacity=".6" fill="#E6DBAF" d="M184.209 178.389h62.963v.57h-62.963z"/><path opacity=".8" fill="#FFF" d="M184.209 178.959h62.963v.569h-62.963z"/><path opacity=".6" fill="#E6DBAF" d="M184.209 160.692h62.963v.57h-62.963z"/><path opacity=".8" fill="#FFF" d="M184.209 161.263h62.963v.567h-62.963z"/><path opacity=".6" fill="#E6DBAF" d="M184.209 142.996h62.963v.569h-62.963z"/><path opacity=".8" fill="#FFF" d="M184.209 143.565h62.963v.569h-62.963z"/><path opacity=".6" fill="#E6DBAF" d="M184.209 125.299h62.963v.569h-62.963z"/><path opacity=".8" fill="#FFF" d="M184.209 125.868h62.963v.569h-62.963z"/><path opacity=".6" fill="#E6DBAF" d="M184.209 107.603h62.963v.569h-62.963z"/><path opacity=".8" fill="#FFF" d="M184.209 108.171h62.963v.569h-62.963z"/><path fill="#428296" d="M188.105 164.455h6.96v11.106h-6.96z"/><path fill="#BEE0EB" d="M188.699 164.989h5.772v10.039h-5.772z"/><path d="M194.472 167.818l-5.773 5.96v-1.26l5.773-5.962zm0 1.275l-5.773 5.962v-.369l5.773-5.962zm0-3.165l-5.773 5.963v-.948l5.773-5.962z" opacity=".4" fill="#FFF"/><path fill="#1E6D85" d="M187.327 175.028h8.516v.866h-8.516z"/><path fill="#428296" d="M200.157 164.455h6.96v11.106h-6.96z"/><path fill="#BEE0EB" d="M200.752 164.989h5.771v10.039h-5.771z"/><path d="M206.523 167.818l-5.771 5.96v-1.26l5.771-5.962zm0 1.275l-5.771 5.962v-.369l5.771-5.962zm0-3.165l-5.771 5.963v-.948l5.771-5.962z" opacity=".4" fill="#FFF"/><path fill="#1E6D85" d="M199.379 175.028h8.517v.866h-8.517z"/><path fill="#428296" d="M212.21 164.455h6.96v11.106h-6.96z"/><path fill="#BEE0EB" d="M212.804 164.989h5.772v10.039h-5.772z"/><path d="M218.576 167.818l-5.772 5.96v-1.26l5.772-5.962zm0 1.275l-5.772 5.962v-.369l5.772-5.962zm0-3.165l-5.772 5.963v-.948l5.772-5.962z" opacity=".4" fill="#FFF"/><path fill="#1E6D85" d="M211.432 175.028h8.518v.866h-8.518z"/><path fill="#428296" d="M224.263 164.455h6.961v11.106h-6.961z"/><path fill="#BEE0EB" d="M224.856 164.989h5.771v10.039h-5.771z"/><path d="M230.628 167.818l-5.772 5.96v-1.26l5.772-5.962zm0 1.275l-5.772 5.962v-.369l5.772-5.962zm0-3.165l-5.772 5.963v-.948l5.772-5.962z" opacity=".4" fill="#FFF"/><path fill="#1E6D85" d="M223.485 175.028h8.516v.866h-8.516z"/><path fill="#428296" d="M236.315 164.455h6.96v11.106h-6.96z"/><path fill="#BEE0EB" d="M236.908 164.989h5.772v10.039h-5.772z"/><path d="M242.681 167.818l-5.773 5.96v-1.26l5.773-5.962zm0 1.275l-5.773 5.962v-.369l5.773-5.962zm0-3.165l-5.773 5.963v-.948l5.773-5.962z" opacity=".4" fill="#FFF"/><path fill="#1E6D85" d="M235.538 175.028h8.515v.866h-8.515z"/><path fill="#428296" d="M188.105 146.758h6.96v11.107h-6.96z"/><path fill="#BEE0EB" d="M188.699 147.292h5.772v10.038h-5.772z"/><path d="M194.472 150.121l-5.773 5.961v-1.262l5.773-5.96zm0 1.276l-5.773 5.962v-.371l5.773-5.96zm0-3.165l-5.773 5.961v-.946l5.773-5.961z" opacity=".4" fill="#FFF"/><path fill="#1E6D85" d="M187.327 157.33h8.516v.868h-8.516z"/><path fill="#428296" d="M200.157 146.758h6.96v11.107h-6.96z"/><path fill="#BEE0EB" d="M200.752 147.292h5.771v10.038h-5.771z"/><path d="M206.523 150.121l-5.771 5.961v-1.262l5.771-5.96zm0 1.276l-5.771 5.962v-.371l5.771-5.96zm0-3.165l-5.771 5.961v-.946l5.771-5.961z" opacity=".4" fill="#FFF"/><path fill="#1E6D85" d="M199.379 157.33h8.517v.868h-8.517z"/><path fill="#428296" d="M212.21 146.758h6.96v11.107h-6.96z"/><path fill="#BEE0EB" d="M212.804 147.292h5.772v10.038h-5.772z"/><path d="M218.576 150.121l-5.772 5.961v-1.262l5.772-5.96zm0 1.276l-5.772 5.962v-.371l5.772-5.96zm0-3.165l-5.772 5.961v-.946l5.772-5.961z" opacity=".4" fill="#FFF"/><path fill="#1E6D85" d="M211.432 157.33h8.518v.868h-8.518z"/><path fill="#428296" d="M224.263 146.758h6.961v11.107h-6.961z"/><path fill="#BEE0EB" d="M224.856 147.292h5.771v10.038h-5.771z"/><path d="M230.628 150.121l-5.772 5.961v-1.262l5.772-5.96zm0 1.276l-5.772 5.962v-.371l5.772-5.96zm0-3.165l-5.772 5.961v-.946l5.772-5.961z" opacity=".4" fill="#FFF"/><path fill="#1E6D85" d="M223.485 157.33h8.516v.868h-8.516z"/><path fill="#428296" d="M236.315 146.758h6.96v11.107h-6.96z"/><path fill="#BEE0EB" d="M236.908 147.292h5.772v10.038h-5.772z"/><path d="M242.681 150.121l-5.773 5.961v-1.262l5.773-5.96zm0 1.276l-5.773 5.962v-.371l5.773-5.96zm0-3.165l-5.773 5.961v-.946l5.773-5.961z" opacity=".4" fill="#FFF"/><path fill="#1E6D85" d="M235.538 157.33h8.515v.868h-8.515z"/><path fill="#428296" d="M188.105 129.061h6.96v11.106h-6.96z"/><path fill="#BEE0EB" d="M188.699 129.596h5.772v10.038h-5.772z"/><path d="M194.472 132.424l-5.773 5.961v-1.262l5.773-5.961zm0 1.275l-5.773 5.962v-.369l5.773-5.961zm0-3.164l-5.773 5.961v-.946l5.773-5.961z" opacity=".4" fill="#FFF"/><path fill="#1E6D85" d="M187.327 139.634h8.516v.868h-8.516z"/><path fill="#428296" d="M200.157 129.061h6.96v11.106h-6.96z"/><path fill="#BEE0EB" d="M200.752 129.596h5.771v10.038h-5.771z"/><path d="M206.523 132.424l-5.771 5.961v-1.262l5.771-5.961zm0 1.275l-5.771 5.962v-.369l5.771-5.961zm0-3.164l-5.771 5.961v-.946l5.771-5.961z" opacity=".4" fill="#FFF"/><path fill="#1E6D85" d="M199.379 139.634h8.517v.868h-8.517z"/><path fill="#428296" d="M212.21 129.061h6.96v11.106h-6.96z"/><path fill="#BEE0EB" d="M212.804 129.596h5.772v10.038h-5.772z"/><path d="M218.576 132.424l-5.772 5.961v-1.262l5.772-5.961zm0 1.275l-5.772 5.962v-.369l5.772-5.961zm0-3.164l-5.772 5.961v-.946l5.772-5.961z" opacity=".4" fill="#FFF"/><path fill="#1E6D85" d="M211.432 139.634h8.518v.868h-8.518z"/><path fill="#428296" d="M224.263 129.061h6.961v11.106h-6.961z"/><path fill="#BEE0EB" d="M224.856 129.596h5.771v10.038h-5.771z"/><path d="M230.628 132.424l-5.772 5.961v-1.262l5.772-5.961zm0 1.275l-5.772 5.962v-.369l5.772-5.961zm0-3.164l-5.772 5.961v-.946l5.772-5.961z" opacity=".4" fill="#FFF"/><path fill="#1E6D85" d="M223.485 139.634h8.516v.868h-8.516z"/><path fill="#428296" d="M236.315 129.061h6.96v11.106h-6.96z"/><path fill="#BEE0EB" d="M236.908 129.596h5.772v10.038h-5.772z"/><path d="M242.681 132.424l-5.773 5.961v-1.262l5.773-5.961zm0 1.275l-5.773 5.962v-.369l5.773-5.961zm0-3.164l-5.773 5.961v-.946l5.773-5.961z" opacity=".4" fill="#FFF"/><path fill="#1E6D85" d="M235.538 139.634h8.515v.868h-8.515z"/><path fill="#428296" d="M188.105 111.365h6.96v11.107h-6.96z"/><path fill="#BEE0EB" d="M188.699 111.898h5.772v10.039h-5.772z"/><path d="M194.472 114.728l-5.773 5.96v-1.261l5.773-5.962zm0 1.275l-5.773 5.961v-.369l5.773-5.961zm0-3.164l-5.773 5.961v-.946l5.773-5.962z" opacity=".4" fill="#FFF"/><path fill="#1E6D85" d="M187.327 121.937h8.516v.867h-8.516z"/><path fill="#428296" d="M200.157 111.365h6.96v11.107h-6.96z"/><path fill="#BEE0EB" d="M200.752 111.898h5.771v10.039h-5.771z"/><path d="M206.523 114.728l-5.771 5.96v-1.261l5.771-5.962zm0 1.275l-5.771 5.961v-.369l5.771-5.961zm0-3.164l-5.771 5.961v-.946l5.771-5.962z" opacity=".4" fill="#FFF"/><path fill="#1E6D85" d="M199.379 121.937h8.517v.867h-8.517z"/><path fill="#428296" d="M212.21 111.365h6.96v11.107h-6.96z"/><path fill="#BEE0EB" d="M212.804 111.898h5.772v10.039h-5.772z"/><path d="M218.576 114.728l-5.772 5.96v-1.261l5.772-5.962zm0 1.275l-5.772 5.961v-.369l5.772-5.961zm0-3.164l-5.772 5.961v-.946l5.772-5.962z" opacity=".4" fill="#FFF"/><path fill="#1E6D85" d="M211.432 121.937h8.518v.867h-8.518z"/><path fill="#428296" d="M224.263 111.365h6.961v11.107h-6.961z"/><path fill="#BEE0EB" d="M224.856 111.898h5.771v10.039h-5.771z"/><path d="M230.628 114.728l-5.772 5.96v-1.261l5.772-5.962zm0 1.275l-5.772 5.961v-.369l5.772-5.961zm0-3.164l-5.772 5.961v-.946l5.772-5.962z" opacity=".4" fill="#FFF"/><path fill="#1E6D85" d="M223.485 121.937h8.516v.867h-8.516z"/><path fill="#428296" d="M236.315 111.365h6.96v11.107h-6.96z"/><path fill="#BEE0EB" d="M236.908 111.898h5.772v10.039h-5.772z"/><path d="M242.681 114.728l-5.773 5.96v-1.261l5.773-5.962zm0 1.275l-5.773 5.961v-.369l5.773-5.961zm0-3.164l-5.773 5.961v-.946l5.773-5.962z" opacity=".4" fill="#FFF"/><path fill="#1E6D85" d="M235.538 121.937h8.515v.867h-8.515z"/><path fill="#428296" d="M188.105 93.667h6.96v11.107h-6.96z"/><path fill="#BEE0EB" d="M188.699 94.201h5.772v10.04h-5.772z"/><path d="M194.472 97.031l-5.773 5.961v-1.262l5.773-5.962zm0 1.275l-5.773 5.961v-.369l5.773-5.961zm0-3.165l-5.773 5.962v-.947l5.773-5.961z" opacity=".4" fill="#FFF"/><path fill="#1E6D85" d="M187.327 104.241h8.516v.867h-8.516z"/><path fill="#428296" d="M200.157 93.667h6.96v11.107h-6.96z"/><path fill="#BEE0EB" d="M200.752 94.201h5.771v10.04h-5.771z"/><path d="M206.523 97.031l-5.771 5.961v-1.262l5.771-5.962zm0 1.275l-5.771 5.961v-.369l5.771-5.961zm0-3.165l-5.771 5.962v-.947l5.771-5.961z" opacity=".4" fill="#FFF"/><path fill="#1E6D85" d="M199.379 104.241h8.517v.867h-8.517z"/><path fill="#428296" d="M212.21 93.667h6.96v11.107h-6.96z"/><path fill="#BEE0EB" d="M212.804 94.201h5.772v10.04h-5.772z"/><path d="M218.576 97.031l-5.772 5.961v-1.262l5.772-5.962zm0 1.275l-5.772 5.961v-.369l5.772-5.961zm0-3.165l-5.772 5.962v-.947l5.772-5.961z" opacity=".4" fill="#FFF"/><path fill="#1E6D85" d="M211.432 104.241h8.518v.867h-8.518z"/><path fill="#428296" d="M224.263 93.667h6.961v11.107h-6.961z"/><path fill="#BEE0EB" d="M224.856 94.201h5.771v10.04h-5.771z"/><path d="M230.628 97.031l-5.772 5.961v-1.262l5.772-5.962zm0 1.275l-5.772 5.961v-.369l5.772-5.961zm0-3.165l-5.772 5.962v-.947l5.772-5.961z" opacity=".4" fill="#FFF"/><path fill="#1E6D85" d="M223.485 104.241h8.516v.867h-8.516z"/><path fill="#428296" d="M236.315 93.667h6.96v11.107h-6.96z"/><path fill="#BEE0EB" d="M236.908 94.201h5.772v10.04h-5.772z"/><path d="M242.681 97.031l-5.773 5.961v-1.262l5.773-5.962zm0 1.275l-5.773 5.961v-.369l5.773-5.961zm0-3.165l-5.773 5.962v-.947l5.773-5.961z" opacity=".4" fill="#FFF"/><path fill="#1E6D85" d="M235.538 104.241h8.515v.867h-8.515z"/><path fill="#428296" d="M187.477 181.251h4.945v9.671h-4.945z"/><path fill="#BEE0EB" d="M187.899 181.715h4.1v8.741h-4.1z"/><path d="M191.999 184.178l-4.1 5.191v-1.099l4.1-5.191zm0 1.111l-4.1 5.191v-.323l4.1-5.189zm0-2.756l-4.1 5.192v-.826l4.1-5.19z" opacity=".4" fill="#FFF"/><path fill="#428296" d="M196.521 181.251h4.944v9.671h-4.944z"/><path fill="#BEE0EB" d="M196.942 181.715h4.101v8.741h-4.101z"/><path d="M201.043 184.178l-4.101 5.191v-1.099l4.101-5.191zm0 1.111l-4.101 5.191v-.323l4.101-5.189zm0-2.756l-4.101 5.192v-.826l4.101-5.19z" opacity=".4" fill="#FFF"/><path fill="#428296" d="M191.999 181.251h4.943v9.671h-4.943z"/><path fill="#BEE0EB" d="M192.422 181.715h4.099v8.741h-4.099z"/><path d="M196.521 184.178l-4.099 5.191v-1.099l4.099-5.191zm0 1.111l-4.099 5.191v-.323l4.099-5.189zm0-2.756l-4.099 5.192v-.826l4.099-5.19z" opacity=".4" fill="#FFF"/><path fill="#428296" d="M229.916 181.251h4.943v9.671h-4.943z"/><path fill="#BEE0EB" d="M230.338 181.715h4.1v8.741h-4.1z"/><path d="M234.438 184.178l-4.1 5.191v-1.099l4.1-5.191zm0 1.111l-4.1 5.191v-.323l4.1-5.189zm0-2.756l-4.1 5.192v-.826l4.1-5.19z" opacity=".4" fill="#FFF"/><path fill="#428296" d="M238.959 181.251h4.944v9.671h-4.944z"/><path fill="#BEE0EB" d="M239.381 181.715h4.1v8.741h-4.1z"/><path d="M243.48 184.178l-4.099 5.191v-1.099l4.099-5.191zm0 1.111l-4.099 5.191v-.323l4.099-5.189zm0-2.756l-4.099 5.192v-.826l4.099-5.19z" opacity=".4" fill="#FFF"/><path fill="#428296" d="M234.438 181.251h4.943v9.671h-4.943z"/><path fill="#BEE0EB" d="M234.859 181.715h4.1v8.741h-4.1z"/><path d="M238.959 184.178l-4.1 5.191v-1.099l4.1-5.191zm0 1.111l-4.1 5.191v-.323l4.1-5.189zm0-2.756l-4.1 5.192v-.826l4.1-5.19z" opacity=".4" fill="#FFF"/><path fill="#1E6D85" d="M182.534 83.231h66.312v4.724h-66.312z"/><path fill="#448BA1" d="M182.534 83.231h66.312v2.363h-66.312z"/><path fill="#F5F4E6" d="M184.209 83.77h62.963v120.149h-62.963z"/><path fill="#E6E5D8" d="M215.689 83.77h31.482v120.149h-31.482z"/><path fill="#E6DBAF" d="M184.189 198.688h62.962v5.23h-62.962zm.02-110.732h62.963v1.838h-62.963z"/><path opacity=".8" fill="#FFF" d="M184.209 196.493h62.963v2.195h-62.963z"/><path fill="#428296" d="M207.478 189.14h16.425v14.779h-16.425z"/><path fill="#BEE0EB" d="M208.836 190.548h13.709v13.371h-13.709z"/><path fill="#428296" d="M215.137 189.644h1.106v14.275h-1.106z"/><path d="M215.137 191.055l-6.301 8.182v-.537l6.301-8.18zm0 4.637l-6.301 8.227v-.966l6.301-8.182zm0-1.648l-6.301 8.182v-1.815l6.301-8.182zm7.408-2.989l-6.302 8.182v-.537l6.302-8.18zm0 4.637l-6.302 8.227v-.966l6.302-8.182zm0-1.648l-6.302 8.182v-1.815l6.302-8.182z" opacity=".4" fill="#FFF"/><path d="M214.222 200.5a.272.272 0 0 1-.544 0v-2.386c0-.149.122-.272.272-.272.15 0 .272.123.272.272v2.386zm3.441 0a.272.272 0 0 1-.544 0v-2.386a.272.272 0 0 1 .544 0v2.386z" fill="#428296"/><path opacity=".6" fill="#BDB490" d="M184.209 178.389h62.963v.57h-62.963z"/><path opacity=".8" fill="#FFF" d="M184.209 178.959h62.963v.569h-62.963z"/><path opacity=".6" fill="#BDB490" d="M184.209 160.692h62.963v.57h-62.963z"/><path opacity=".8" fill="#FFF" d="M184.209 161.263h62.963v.567h-62.963z"/><path opacity=".6" fill="#BDB490" d="M184.209 142.996h62.963v.569h-62.963z"/><path opacity=".8" fill="#FFF" d="M184.209 143.565h62.963v.569h-62.963z"/><path opacity=".6" fill="#BDB490" d="M184.209 125.299h62.963v.569h-62.963z"/><path opacity=".8" fill="#FFF" d="M184.209 125.868h62.963v.569h-62.963z"/><path opacity=".6" fill="#BDB490" d="M184.209 107.603h62.963v.569h-62.963z"/><path opacity=".8" fill="#FFF" d="M184.209 108.171h62.963v.569h-62.963z"/><path fill="#428296" d="M188.105 164.455h6.96v11.106h-6.96z"/><path fill="#BEE0EB" d="M188.699 164.989h5.772v10.039h-5.772z"/><path d="M194.472 167.818l-5.773 5.96v-1.26l5.773-5.962zm0 1.275l-5.773 5.962v-.369l5.773-5.962zm0-3.165l-5.773 5.963v-.948l5.773-5.962z" opacity=".4" fill="#FFF"/><path fill="#1E6D85" d="M187.327 175.028h8.516v.866h-8.516z"/><path fill="#428296" d="M200.157 164.455h6.96v11.106h-6.96z"/><path fill="#BEE0EB" d="M200.752 164.989h5.771v10.039h-5.771z"/><path d="M206.523 167.818l-5.771 5.96v-1.26l5.771-5.962zm0 1.275l-5.771 5.962v-.369l5.771-5.962zm0-3.165l-5.771 5.963v-.948l5.771-5.962z" opacity=".4" fill="#FFF"/><path fill="#1E6D85" d="M199.379 175.028h8.517v.866h-8.517z"/><path fill="#428296" d="M212.21 164.455h6.96v11.106h-6.96z"/><path fill="#BEE0EB" d="M212.804 164.989h5.772v10.039h-5.772z"/><path d="M218.576 167.818l-5.772 5.96v-1.26l5.772-5.962zm0 1.275l-5.772 5.962v-.369l5.772-5.962zm0-3.165l-5.772 5.963v-.948l5.772-5.962z" opacity=".4" fill="#FFF"/><path fill="#1E6D85" d="M211.432 175.028h8.518v.866h-8.518z"/><path fill="#428296" d="M224.263 164.455h6.961v11.106h-6.961z"/><path fill="#BEE0EB" d="M224.856 164.989h5.771v10.039h-5.771z"/><path d="M230.628 167.818l-5.772 5.96v-1.26l5.772-5.962zm0 1.275l-5.772 5.962v-.369l5.772-5.962zm0-3.165l-5.772 5.963v-.948l5.772-5.962z" opacity=".4" fill="#FFF"/><path fill="#1E6D85" d="M223.485 175.028h8.516v.866h-8.516z"/><path fill="#428296" d="M236.315 164.455h6.96v11.106h-6.96z"/><path fill="#BEE0EB" d="M236.908 164.989h5.772v10.039h-5.772z"/><path d="M242.681 167.818l-5.773 5.96v-1.26l5.773-5.962zm0 1.275l-5.773 5.962v-.369l5.773-5.962zm0-3.165l-5.773 5.963v-.948l5.773-5.962z" opacity=".4" fill="#FFF"/><path fill="#1E6D85" d="M235.538 175.028h8.515v.866h-8.515z"/><path fill="#428296" d="M188.105 146.758h6.96v11.107h-6.96z"/><path fill="#BEE0EB" d="M188.699 147.292h5.772v10.038h-5.772z"/><path d="M194.472 150.121l-5.773 5.961v-1.262l5.773-5.96zm0 1.276l-5.773 5.962v-.371l5.773-5.96zm0-3.165l-5.773 5.961v-.946l5.773-5.961z" opacity=".4" fill="#FFF"/><path fill="#1E6D85" d="M187.327 157.33h8.516v.868h-8.516z"/><path fill="#428296" d="M200.157 146.758h6.96v11.107h-6.96z"/><path fill="#BEE0EB" d="M200.752 147.292h5.771v10.038h-5.771z"/><path d="M206.523 150.121l-5.771 5.961v-1.262l5.771-5.96zm0 1.276l-5.771 5.962v-.371l5.771-5.96zm0-3.165l-5.771 5.961v-.946l5.771-5.961z" opacity=".4" fill="#FFF"/><path fill="#1E6D85" d="M199.379 157.33h8.517v.868h-8.517z"/><path fill="#428296" d="M212.21 146.758h6.96v11.107h-6.96z"/><path fill="#BEE0EB" d="M212.804 147.292h5.772v10.038h-5.772z"/><path d="M218.576 150.121l-5.772 5.961v-1.262l5.772-5.96zm0 1.276l-5.772 5.962v-.371l5.772-5.96zm0-3.165l-5.772 5.961v-.946l5.772-5.961z" opacity=".4" fill="#FFF"/><path fill="#1E6D85" d="M211.432 157.33h8.518v.868h-8.518z"/><path fill="#428296" d="M224.263 146.758h6.961v11.107h-6.961z"/><path fill="#BEE0EB" d="M224.856 147.292h5.771v10.038h-5.771z"/><path d="M230.628 150.121l-5.772 5.961v-1.262l5.772-5.96zm0 1.276l-5.772 5.962v-.371l5.772-5.96zm0-3.165l-5.772 5.961v-.946l5.772-5.961z" opacity=".4" fill="#FFF"/><path fill="#1E6D85" d="M223.485 157.33h8.516v.868h-8.516z"/><path fill="#428296" d="M236.315 146.758h6.96v11.107h-6.96z"/><path fill="#BEE0EB" d="M236.908 147.292h5.772v10.038h-5.772z"/><path d="M242.681 150.121l-5.773 5.961v-1.262l5.773-5.96zm0 1.276l-5.773 5.962v-.371l5.773-5.96zm0-3.165l-5.773 5.961v-.946l5.773-5.961z" opacity=".4" fill="#FFF"/><path fill="#1E6D85" d="M235.538 157.33h8.515v.868h-8.515z"/><path fill="#428296" d="M188.105 129.061h6.96v11.106h-6.96z"/><path fill="#BEE0EB" d="M188.699 129.596h5.772v10.038h-5.772z"/><path d="M194.472 132.424l-5.773 5.961v-1.262l5.773-5.961zm0 1.275l-5.773 5.962v-.369l5.773-5.961zm0-3.164l-5.773 5.961v-.946l5.773-5.961z" opacity=".4" fill="#FFF"/><path fill="#1E6D85" d="M187.327 139.634h8.516v.868h-8.516z"/><path fill="#428296" d="M200.157 129.061h6.96v11.106h-6.96z"/><path fill="#BEE0EB" d="M200.752 129.596h5.771v10.038h-5.771z"/><path d="M206.523 132.424l-5.771 5.961v-1.262l5.771-5.961zm0 1.275l-5.771 5.962v-.369l5.771-5.961zm0-3.164l-5.771 5.961v-.946l5.771-5.961z" opacity=".4" fill="#FFF"/><path fill="#1E6D85" d="M199.379 139.634h8.517v.868h-8.517z"/><path fill="#428296" d="M212.21 129.061h6.96v11.106h-6.96z"/><path fill="#BEE0EB" d="M212.804 129.596h5.772v10.038h-5.772z"/><path d="M218.576 132.424l-5.772 5.961v-1.262l5.772-5.961zm0 1.275l-5.772 5.962v-.369l5.772-5.961zm0-3.164l-5.772 5.961v-.946l5.772-5.961z" opacity=".4" fill="#FFF"/><path fill="#1E6D85" d="M211.432 139.634h8.518v.868h-8.518z"/><path fill="#428296" d="M224.263 129.061h6.961v11.106h-6.961z"/><path fill="#BEE0EB" d="M224.856 129.596h5.771v10.038h-5.771z"/><path d="M230.628 132.424l-5.772 5.961v-1.262l5.772-5.961zm0 1.275l-5.772 5.962v-.369l5.772-5.961zm0-3.164l-5.772 5.961v-.946l5.772-5.961z" opacity=".4" fill="#FFF"/><path fill="#1E6D85" d="M223.485 139.634h8.516v.868h-8.516z"/><path fill="#428296" d="M236.315 129.061h6.96v11.106h-6.96z"/><path fill="#BEE0EB" d="M236.908 129.596h5.772v10.038h-5.772z"/><path d="M242.681 132.424l-5.773 5.961v-1.262l5.773-5.961zm0 1.275l-5.773 5.962v-.369l5.773-5.961zm0-3.164l-5.773 5.961v-.946l5.773-5.961z" opacity=".4" fill="#FFF"/><path fill="#1E6D85" d="M235.538 139.634h8.515v.868h-8.515z"/><path fill="#428296" d="M188.105 111.365h6.96v11.107h-6.96z"/><path fill="#BEE0EB" d="M188.699 111.898h5.772v10.039h-5.772z"/><path d="M194.472 114.728l-5.773 5.96v-1.261l5.773-5.962zm0 1.275l-5.773 5.961v-.369l5.773-5.961zm0-3.164l-5.773 5.961v-.946l5.773-5.962z" opacity=".4" fill="#FFF"/><path fill="#1E6D85" d="M187.327 121.937h8.516v.867h-8.516z"/><path fill="#428296" d="M200.157 111.365h6.96v11.107h-6.96z"/><path fill="#BEE0EB" d="M200.752 111.898h5.771v10.039h-5.771z"/><path d="M206.523 114.728l-5.771 5.96v-1.261l5.771-5.962zm0 1.275l-5.771 5.961v-.369l5.771-5.961zm0-3.164l-5.771 5.961v-.946l5.771-5.962z" opacity=".4" fill="#FFF"/><path fill="#1E6D85" d="M199.379 121.937h8.517v.867h-8.517z"/><path fill="#428296" d="M212.21 111.365h6.96v11.107h-6.96z"/><path fill="#BEE0EB" d="M212.804 111.898h5.772v10.039h-5.772z"/><path d="M218.576 114.728l-5.772 5.96v-1.261l5.772-5.962zm0 1.275l-5.772 5.961v-.369l5.772-5.961zm0-3.164l-5.772 5.961v-.946l5.772-5.962z" opacity=".4" fill="#FFF"/><path fill="#1E6D85" d="M211.432 121.937h8.518v.867h-8.518z"/><path fill="#428296" d="M224.263 111.365h6.961v11.107h-6.961z"/><path fill="#BEE0EB" d="M224.856 111.898h5.771v10.039h-5.771z"/><path d="M230.628 114.728l-5.772 5.96v-1.261l5.772-5.962zm0 1.275l-5.772 5.961v-.369l5.772-5.961zm0-3.164l-5.772 5.961v-.946l5.772-5.962z" opacity=".4" fill="#FFF"/><path fill="#1E6D85" d="M223.485 121.937h8.516v.867h-8.516z"/><path fill="#428296" d="M236.315 111.365h6.96v11.107h-6.96z"/><path fill="#BEE0EB" d="M236.908 111.898h5.772v10.039h-5.772z"/><path d="M242.681 114.728l-5.773 5.96v-1.261l5.773-5.962zm0 1.275l-5.773 5.961v-.369l5.773-5.961zm0-3.164l-5.773 5.961v-.946l5.773-5.962z" opacity=".4" fill="#FFF"/><path fill="#1E6D85" d="M235.538 121.937h8.515v.867h-8.515z"/><path fill="#428296" d="M188.105 93.667h6.96v11.107h-6.96z"/><path fill="#BEE0EB" d="M188.699 94.201h5.772v10.04h-5.772z"/><path d="M194.472 97.031l-5.773 5.961v-1.262l5.773-5.962zm0 1.275l-5.773 5.961v-.369l5.773-5.961zm0-3.165l-5.773 5.962v-.947l5.773-5.961z" opacity=".4" fill="#FFF"/><path fill="#1E6D85" d="M187.327 104.241h8.516v.867h-8.516z"/><path fill="#428296" d="M200.157 93.667h6.96v11.107h-6.96z"/><path fill="#BEE0EB" d="M200.752 94.201h5.771v10.04h-5.771z"/><path d="M206.523 97.031l-5.771 5.961v-1.262l5.771-5.962zm0 1.275l-5.771 5.961v-.369l5.771-5.961zm0-3.165l-5.771 5.962v-.947l5.771-5.961z" opacity=".4" fill="#FFF"/><path fill="#1E6D85" d="M199.379 104.241h8.517v.867h-8.517z"/><path fill="#428296" d="M212.21 93.667h6.96v11.107h-6.96z"/><path fill="#BEE0EB" d="M212.804 94.201h5.772v10.04h-5.772z"/><path d="M218.576 97.031l-5.772 5.961v-1.262l5.772-5.962zm0 1.275l-5.772 5.961v-.369l5.772-5.961zm0-3.165l-5.772 5.962v-.947l5.772-5.961z" opacity=".4" fill="#FFF"/><path fill="#1E6D85" d="M211.432 104.241h8.518v.867h-8.518z"/><path fill="#428296" d="M224.263 93.667h6.961v11.107h-6.961z"/><path fill="#BEE0EB" d="M224.856 94.201h5.771v10.04h-5.771z"/><path d="M230.628 97.031l-5.772 5.961v-1.262l5.772-5.962zm0 1.275l-5.772 5.961v-.369l5.772-5.961zm0-3.165l-5.772 5.962v-.947l5.772-5.961z" opacity=".4" fill="#FFF"/><path fill="#1E6D85" d="M223.485 104.241h8.516v.867h-8.516z"/><path fill="#428296" d="M236.315 93.667h6.96v11.107h-6.96z"/><path fill="#BEE0EB" d="M236.908 94.201h5.772v10.04h-5.772z"/><path d="M242.681 97.031l-5.773 5.961v-1.262l5.773-5.962zm0 1.275l-5.773 5.961v-.369l5.773-5.961zm0-3.165l-5.773 5.962v-.947l5.773-5.961z" opacity=".4" fill="#FFF"/><path fill="#1E6D85" d="M235.538 104.241h8.515v.867h-8.515z"/><path fill="#428296" d="M187.477 181.251h4.945v9.671h-4.945z"/><path fill="#BEE0EB" d="M187.899 181.715h4.1v8.741h-4.1z"/><path d="M191.999 184.178l-4.1 5.191v-1.099l4.1-5.191zm0 1.111l-4.1 5.191v-.323l4.1-5.189zm0-2.756l-4.1 5.192v-.826l4.1-5.19z" opacity=".4" fill="#FFF"/><path fill="#428296" d="M196.521 181.251h4.944v9.671h-4.944z"/><path fill="#BEE0EB" d="M196.942 181.715h4.101v8.741h-4.101z"/><path d="M201.043 184.178l-4.101 5.191v-1.099l4.101-5.191zm0 1.111l-4.101 5.191v-.323l4.101-5.189zm0-2.756l-4.101 5.192v-.826l4.101-5.19z" opacity=".4" fill="#FFF"/><path fill="#428296" d="M191.999 181.251h4.943v9.671h-4.943z"/><path fill="#BEE0EB" d="M192.422 181.715h4.099v8.741h-4.099z"/><path d="M196.521 184.178l-4.099 5.191v-1.099l4.099-5.191zm0 1.111l-4.099 5.191v-.323l4.099-5.189zm0-2.756l-4.099 5.192v-.826l4.099-5.19z" opacity=".4" fill="#FFF"/><path fill="#428296" d="M229.916 181.251h4.943v9.671h-4.943z"/><path fill="#BEE0EB" d="M230.338 181.715h4.1v8.741h-4.1z"/><path d="M234.438 184.178l-4.1 5.191v-1.099l4.1-5.191zm0 1.111l-4.1 5.191v-.323l4.1-5.189zm0-2.756l-4.1 5.192v-.826l4.1-5.19z" opacity=".4" fill="#FFF"/><path fill="#428296" d="M238.959 181.251h4.944v9.671h-4.944z"/><path fill="#BEE0EB" d="M239.381 181.715h4.1v8.741h-4.1z"/><path d="M243.48 184.178l-4.099 5.191v-1.099l4.099-5.191zm0 1.111l-4.099 5.191v-.323l4.099-5.189zm0-2.756l-4.099 5.192v-.826l4.099-5.19z" opacity=".4" fill="#FFF"/><path fill="#428296" d="M234.438 181.251h4.943v9.671h-4.943z"/><path fill="#BEE0EB" d="M234.859 181.715h4.1v8.741h-4.1z"/><path d="M238.959 184.178l-4.1 5.191v-1.099l4.1-5.191zm0 1.111l-4.1 5.191v-.323l4.1-5.189zm0-2.756l-4.1 5.192v-.826l4.1-5.19z" opacity=".4" fill="#FFF"/><path fill="#1E6D85" d="M182.534 83.231h66.312v4.724h-66.312z"/><path fill="#448BA1" d="M182.534 83.231h66.312v2.363h-66.312z"/><path fill="#DE4747" d="M231.231 75.077c.651 0 1.178.527 1.178 1.177v13.955c0 .65-.526 1.178-1.178 1.178h-31.083a1.177 1.177 0 0 1-1.177-1.178V76.254c0-.65.525-1.177 1.177-1.177h31.083z"/><path fill="none" stroke="#FFDE5A" stroke-miterlimit="10" d="M229.786 76.199c.591 0 1.068.478 1.068 1.067v11.93c0 .59-.478 1.068-1.068 1.068h-28.192c-.59 0-1.068-.478-1.068-1.068v-11.93c0-.589.479-1.067 1.068-1.067h28.192z"/><path d="M204.004 81.845v2.481h2.619v-2.481h1.13v6.195h-1.13v-2.73h-2.619v2.73h-1.13v-6.195h1.13zm10.541 3.033c0 2.077-1.259 3.263-2.968 3.263-1.745 0-2.85-1.333-2.85-3.152 0-1.902 1.195-3.244 2.942-3.244 1.811-.001 2.876 1.368 2.876 3.133zm-4.622.092c0 1.259.634 2.261 1.719 2.261 1.094 0 1.709-1.011 1.709-2.307 0-1.167-.578-2.271-1.709-2.271-1.121 0-1.719 1.039-1.719 2.317zm6.534-2.178h-1.764v-.947h4.678v.947h-1.782v5.248h-1.132v-5.248zm7.105 2.5h-2.334v1.819h2.61v.929h-3.74v-6.195h3.602v.928h-2.472v1.6h2.334v.919zm1.269-3.447h1.13v5.248h2.546v.947h-3.676v-6.195z" fill="#FFF"/><path d="M203.887 77.79l.311.63.697.101-.504.491.118.693-.622-.327-.622.327.119-.693-.504-.491.696-.101zm5.889 0l.312.63.696.101-.505.491.119.693-.622-.327-.622.327.118-.693-.503-.491.696-.101zm5.888 0l.312.63.696.101-.504.491.119.693-.623-.327-.621.327.118-.693-.504-.491.697-.101zm5.89 0l.31.63.697.101-.503.491.119.693-.623-.327-.622.327.119-.693-.504-.491.696-.101zm5.888 0l.311.63.696.101-.503.491.118.693-.622-.327-.622.327.119-.693-.503-.491.695-.101z" fill="#FFDE5A"/><g fill="#FFF"><path d="M167.455 113.519a4.854 4.854 0 0 1-4.854 4.854h-20.856a4.853 4.853 0 0 1-4.854-4.854 4.853 4.853 0 0 1 4.854-4.854h20.856a4.854 4.854 0 0 1 4.854 4.854z"/><circle cx="141.179" cy="111.269" r="7.104"/><circle cx="159.456" cy="106.914" r="4.584"/><circle cx="149.333" cy="105.96" r="9.128"/></g><g fill="#FFF"><path d="M153.593 91.96a3.286 3.286 0 0 0 3.285 3.286h14.115a3.286 3.286 0 0 0 0-6.571h-14.115a3.285 3.285 0 0 0-3.285 3.285z"/><circle cx="171.377" cy="90.437" r="4.808"/><circle cx="159.007" cy="87.49" r="3.104"/><circle cx="165.857" cy="86.845" r="6.179"/></g><g fill="#FFF"><path d="M260.964 115.861a5.256 5.256 0 0 0 5.255 5.256h22.583a5.255 5.255 0 1 0 0-10.511h-22.583a5.255 5.255 0 0 0-5.255 5.255z"/><circle cx="289.415" cy="113.425" r="7.692"/><circle cx="269.625" cy="108.709" r="4.964"/><circle cx="280.585" cy="107.677" r="9.885"/></g><g opacity=".8" fill="#FFF"><path d="M274.482 102.528a3.354 3.354 0 0 1-3.354 3.355h-14.419a3.355 3.355 0 1 1 0-6.71h14.419a3.355 3.355 0 0 1 3.354 3.355z"/><circle cx="256.317" cy="100.973" r="4.911"/><circle cx="268.954" cy="97.962" r="3.169"/><circle cx="261.956" cy="97.303" r="6.311"/></g><path fill="#B37A4D" d="M254.796 198.513h.823v4.334h-.823z"/><path fill="#3DB830" d="M255.237 181.251s-3.75 6.687-3.75 12.62c0 5.933 3.75 5.933 3.75 5.933s3.75 0 3.75-5.933-3.75-12.62-3.75-12.62z"/><path opacity=".2" fill="#FFF" d="M255.207 181.303c-.338.619-3.72 6.931-3.72 12.568s3.382 5.919 3.72 5.932v-18.5z"/><path fill="#9DB6CC" d="M252.556 202.226h5.363v1.693h-5.363z"/><circle opacity=".2" fill="#FFF" cx="256.954" cy="191.235" r=".682"/><circle opacity=".2" fill="#FFF" cx="253.348" cy="193.391" r=".984"/><circle opacity=".2" fill="#FFF" cx="256.694" cy="196.064" r="1.075"/><circle opacity=".2" fill="#FFF" cx="254.834" cy="188.036" r="1.163"/><path fill="#B37A4D" d="M175.702 198.513h.822v4.334h-.822z"/><path fill="#3DB830" d="M176.144 181.251s-3.75 6.687-3.75 12.62c0 5.933 3.75 5.933 3.75 5.933s3.749 0 3.749-5.933-3.749-12.62-3.749-12.62z"/><path opacity=".2" fill="#FFF" d="M176.114 181.303c-.339.619-3.721 6.931-3.721 12.568s3.382 5.919 3.721 5.932v-18.5z"/><path fill="#9DB6CC" d="M173.461 202.226h5.364v1.693h-5.364z"/><circle opacity=".2" fill="#FFF" cx="177.86" cy="191.235" r=".681"/><circle opacity=".2" fill="#FFF" cx="174.253" cy="193.391" r=".985"/><circle opacity=".2" fill="#FFF" cx="177.6" cy="196.064" r="1.076"/><circle opacity=".2" fill="#FFF" cx="175.741" cy="188.036" r="1.163"/><path fill="#DE4747" d="M187.427 94.207h8.318v.685h-8.318z"/><path fill="#F55B5B" d="M194.945 93.167h-6.72l-.798 1.04h8.318z"/><path fill="#DE4747" d="M199.479 94.207h8.319v.685h-8.319z"/><path fill="#F55B5B" d="M206.998 93.167h-6.721l-.798 1.04h8.319z"/><path fill="#DE4747" d="M211.53 94.207h8.319v.685h-8.319z"/><path fill="#F55B5B" d="M219.051 93.167h-6.721l-.8 1.04h8.32z"/><path fill="#DE4747" d="M223.582 94.207h8.319v.685h-8.319z"/><path fill="#F55B5B" d="M231.104 93.167h-6.721l-.801 1.04h8.319z"/><path fill="#DE4747" d="M235.636 94.207h8.318v.685h-8.318z"/><path fill="#F55B5B" d="M243.155 93.167h-6.72l-.799 1.04h8.318z"/><path fill="#DE4747" d="M187.427 111.9h8.318v.685h-8.318z"/><path fill="#F55B5B" d="M194.945 110.861h-6.72l-.798 1.039h8.318z"/><path fill="#DE4747" d="M199.479 111.9h8.319v.685h-8.319z"/><path fill="#F55B5B" d="M206.998 110.861h-6.721l-.798 1.039h8.319z"/><path fill="#DE4747" d="M211.53 111.9h8.319v.685h-8.319z"/><path fill="#F55B5B" d="M219.051 110.861h-6.721l-.8 1.039h8.32z"/><path fill="#DE4747" d="M223.582 111.9h8.319v.685h-8.319z"/><path fill="#F55B5B" d="M231.104 110.861h-6.721l-.801 1.039h8.319z"/><path fill="#DE4747" d="M235.636 111.9h8.318v.685h-8.318z"/><path fill="#F55B5B" d="M243.155 110.861h-6.72l-.799 1.039h8.318z"/><g><path fill="#DE4747" d="M187.427 129.599h8.318v.685h-8.318z"/><path fill="#F55B5B" d="M194.945 128.561h-6.72l-.798 1.038h8.318z"/><path fill="#DE4747" d="M199.479 129.599h8.319v.685h-8.319z"/><path fill="#F55B5B" d="M206.998 128.561h-6.721l-.798 1.038h8.319z"/><path fill="#DE4747" d="M211.53 129.599h8.319v.685h-8.319z"/><path fill="#F55B5B" d="M219.051 128.561h-6.721l-.8 1.038h8.32z"/><path fill="#DE4747" d="M223.582 129.599h8.319v.685h-8.319z"/><path fill="#F55B5B" d="M231.104 128.561h-6.721l-.801 1.038h8.319z"/><path fill="#DE4747" d="M235.636 129.599h8.318v.685h-8.318z"/><path fill="#F55B5B" d="M243.155 128.561h-6.72l-.799 1.038h8.318z"/></g><g><path fill="#DE4747" d="M187.427 147.293h8.318v.685h-8.318z"/><path fill="#F55B5B" d="M194.945 146.255h-6.72l-.798 1.038h8.318z"/><path fill="#DE4747" d="M199.479 147.293h8.319v.685h-8.319z"/><path fill="#F55B5B" d="M206.998 146.255h-6.721l-.798 1.038h8.319z"/><path fill="#DE4747" d="M211.53 147.293h8.319v.685h-8.319z"/><path fill="#F55B5B" d="M219.051 146.255h-6.721l-.8 1.038h8.32z"/><path fill="#DE4747" d="M223.582 147.293h8.319v.685h-8.319z"/><path fill="#F55B5B" d="M231.104 146.255h-6.721l-.801 1.038h8.319z"/><path fill="#DE4747" d="M235.636 147.293h8.318v.685h-8.318z"/><path fill="#F55B5B" d="M243.155 146.255h-6.72l-.799 1.038h8.318z"/></g><g><path fill="#DE4747" d="M187.427 164.983h8.318v.686h-8.318z"/><path fill="#F55B5B" d="M194.945 163.945h-6.72l-.798 1.038h8.318z"/><path fill="#DE4747" d="M199.479 164.983h8.319v.686h-8.319z"/><path fill="#F55B5B" d="M206.998 163.945h-6.721l-.798 1.038h8.319z"/><path fill="#DE4747" d="M211.53 164.983h8.319v.686h-8.319z"/><path fill="#F55B5B" d="M219.051 163.945h-6.721l-.8 1.038h8.32z"/><path fill="#DE4747" d="M223.582 164.983h8.319v.686h-8.319z"/><path fill="#F55B5B" d="M231.104 163.945h-6.721l-.801 1.038h8.319z"/><path fill="#DE4747" d="M235.636 164.983h8.318v.686h-8.318z"/><path fill="#F55B5B" d="M243.155 163.945h-6.72l-.799 1.038h8.318z"/></g><g><path fill="#DE4747" d="M187.427 94.207h8.318v.685h-8.318z"/><path fill="#F55B5B" d="M194.945 93.167h-6.72l-.798 1.04h8.318z"/><path fill="#DE4747" d="M199.479 94.207h8.319v.685h-8.319z"/><path fill="#F55B5B" d="M206.998 93.167h-6.721l-.798 1.04h8.319z"/><path fill="#DE4747" d="M211.53 94.207h8.319v.685h-8.319z"/><path fill="#F55B5B" d="M219.051 93.167h-6.721l-.8 1.04h8.32z"/><path fill="#DE4747" d="M223.582 94.207h8.319v.685h-8.319z"/><path fill="#F55B5B" d="M231.104 93.167h-6.721l-.801 1.04h8.319z"/><path fill="#DE4747" d="M235.636 94.207h8.318v.685h-8.318z"/><path fill="#F55B5B" d="M243.155 93.167h-6.72l-.799 1.04h8.318z"/></g><g><path fill="#DE4747" d="M179.893 94.207h4.316v.685h-4.316z"/><path fill="#F55B5B" d="M184.209 93.167l-4.316 1.04h4.316z"/><path fill="#DE4747" d="M179.893 111.9h4.316v.685h-4.316z"/><path fill="#F55B5B" d="M184.209 110.861l-4.316 1.039h4.316z"/><path fill="#DE4747" d="M179.893 129.599h4.316v.685h-4.316z"/><path fill="#F55B5B" d="M184.209 128.561l-4.316 1.038h4.316z"/><path fill="#DE4747" d="M179.893 147.293h4.316v.685h-4.316z"/><path fill="#F55B5B" d="M184.209 146.255l-4.316 1.038h4.316z"/><path fill="#DE4747" d="M179.893 164.983h4.316v.686h-4.316z"/><path fill="#F55B5B" d="M184.209 163.945l-4.316 1.038h4.316z"/></g><g><path fill="#DE4747" d="M247.172 94.207h4.315v.685h-4.315z"/><path fill="#F55B5B" d="M247.172 93.167l4.315 1.04h-4.315z"/><path fill="#DE4747" d="M247.172 111.9h4.315v.685h-4.315z"/><path fill="#F55B5B" d="M247.172 110.861l4.315 1.039h-4.315z"/><path fill="#DE4747" d="M247.172 129.599h4.315v.685h-4.315z"/><path fill="#F55B5B" d="M247.172 128.561l4.315 1.038h-4.315z"/><path fill="#DE4747" d="M247.172 147.293h4.315v.685h-4.315z"/><path fill="#F55B5B" d="M247.172 146.255l4.315 1.038h-4.315z"/><path fill="#DE4747" d="M247.172 164.983h4.315v.686h-4.315z"/><path fill="#F55B5B" d="M247.172 163.945l4.315 1.038h-4.315z"/></g><g><path fill="#8AA0B3" d="M204.438 188.241h.746v13.053h-.746z"/><path fill="#7C90A1" d="M203.833 200.377h1.958v3.542h-1.958z"/><path fill="#8AA0B3" d="M226.196 188.241h.745v13.053h-.745z"/><path fill="#7C90A1" d="M225.589 200.377h1.959v3.542h-1.959z"/></g><g><path fill="#DE4747" d="M228.506 190.656c-1.206-5.622-6.484-9.854-12.816-9.854-6.331 0-11.609 4.232-12.814 9.854h25.63z"/><path fill="#F55B5B" d="M226.229 190.656c-.991-5.622-5.332-9.854-10.54-9.854-5.206 0-9.547 4.232-10.538 9.854h21.078z"/><path fill="#DE4747" d="M223.011 190.656c-.688-5.622-3.703-9.854-7.321-9.854-3.616 0-6.631 4.232-7.32 9.854h14.641z"/><path fill="#F55B5B" d="M218.537 190.656c-.267-5.622-1.44-9.854-2.848-9.854-1.406 0-2.581 4.232-2.847 9.854h5.695z"/><g fill="#B33939"><path d="M204.476 192.237c.885 0 1.602-.708 1.602-1.581h-3.203a1.59 1.59 0 0 0 1.601 1.581zm3.204 0c.885 0 1.603-.708 1.603-1.581h-3.205a1.59 1.59 0 0 0 1.602 1.581z"/><path d="M210.884 192.237c.885 0 1.602-.708 1.602-1.581h-3.203a1.59 1.59 0 0 0 1.601 1.581zm3.205 0c.884 0 1.601-.708 1.601-1.581h-3.204a1.591 1.591 0 0 0 1.603 1.581zm3.203 0c.886 0 1.603-.708 1.603-1.581h-3.205a1.59 1.59 0 0 0 1.602 1.581zm3.204 0c.885 0 1.602-.708 1.602-1.581h-3.203a1.59 1.59 0 0 0 1.601 1.581z"/><path d="M223.701 192.237c.885 0 1.602-.708 1.602-1.581h-3.205c0 .873.717 1.581 1.603 1.581zm3.203 0c.885 0 1.603-.708 1.603-1.581h-3.204c0 .873.717 1.581 1.601 1.581z"/></g></g></g><g clip-path="url(#b)"><path fill="#C0D9D8" d="M329.566 238.468H227.481l18.036-11.906h66.015z"/><path fill="#91D3BE" d="M244.94 194.276h62.653v36.795H244.94z"/><path fill="#00AE9E" d="M244.206 230.809h64.122v3.406h-64.122z"/><path fill="#008E7F" d="M309.9 195.699h-69.461v-7.363l70.936-4.894z"/><path fill="#2E6A75" d="M288.656 194.276h13.095v39.938h-13.095z"/><ellipse fill="#29404F" cx="289.745" cy="214.433" rx=".525" ry=".533"/><path fill="#FFD200" d="M237.896 164.57l53.538.159-2.787 23.726-45.003 5.514z"/><ellipse transform="rotate(-4.98 269.209 178.599)" fill="#60C5BA" cx="269.337" cy="178.675" rx="31.207" ry="14.324"/><ellipse transform="rotate(-4.974 269.682 179.05)" fill="#512512" cx="269.524" cy="178.954" rx="28.436" ry="13.164"/><text transform="matrix(1.2772 -.2598 .2592 1.2739 243.502 186.855)" fill="#DEB408" font-family="'GreatVibes-Regular'" font-size="12.206">Coffee</text><path fill="#E7E5D3" d="M249.81 198.492h14.345v16.98H249.81z"/><path fill="#C5C19D" d="M250.696 199.286h5.852v15.392h-5.852zm6.722 0h5.85v15.392h-5.85z"/><path d="M250.934 199.498h5.332v14.964h-5.332zm6.766 0h5.328v14.964H257.7z" fill="#375163"/><path fill="#29404F" d="M250.934 199.498h2.544l-2.544 14.964zm6.766 0h2.545l-2.545 14.964z"/><path fill="#E7E5D3" d="M267.816 198.492h14.345v16.98h-14.345z"/><path fill="#C5C19D" d="M268.704 199.286h5.851v15.392h-5.851zm6.722 0h5.849v15.392h-5.849z"/><path d="M268.94 199.498h5.333v14.964h-5.333zm6.767 0h5.328v14.964h-5.328z" fill="#375163"/><path fill="#29404F" d="M268.94 199.498h2.544l-2.544 14.964zm6.767 0h2.545l-2.545 14.964z"/><path fill="#375163" d="M290.642 196.092h9.04v17.343h-9.04z"/><path fill="#29404F" d="M290.642 196.092h4.313l-4.313 17.343z"/><path fill="#375163" d="M290.642 215.087h9.04v17.344h-9.04z"/><path fill="#29404F" d="M290.642 215.087h4.313l-4.313 17.344z"/><ellipse opacity=".5" fill="#B8BABC" cx="275.596" cy="235.678" rx="9.596" ry=".284"/><path d="M269.461 231.539h.609v4.11h-.609zm12.536 0h.609v4.11h-.609zm-11.503-7.65h.42v5.927h-.42zm9.509 0h.419v5.927h-.419z" fill="#663700"/><path fill="#A7600C" d="M285.62 231.125h-19.394l2.764-1.68h13.853z"/><path fill="#754200" d="M266.226 231.125h19.395v.494h-19.395z"/><path fill="#A7600C" d="M283.226 227.307H268.62l.37 1.678h13.853z"/><path fill="#754200" d="M282.905 227.012h-13.966l-.319.295h14.606z"/><path fill="#A7600C" d="M283.226 224.868H268.62l.37 1.679h13.853z"/><path fill="#754200" d="M282.905 224.572h-13.966l-.319.296h14.606z"/><path fill="#A7600C" d="M283.226 222.393H268.62l.37 1.678h13.853z"/><path fill="#754200" d="M282.905 222.098h-13.966l-.319.295h14.606z"/><ellipse opacity=".5" fill="#B8BABC" cx="255.005" cy="235.678" rx="9.596" ry=".284"/><path d="M248.631 231.539h.61v4.11h-.61zm12.536 0h.611v4.11h-.611zm-11.502-7.65h.42v5.927h-.42zm9.508 0h.42v5.927h-.42z" fill="#663700"/><path fill="#A7600C" d="M264.79 231.125h-19.394l2.766-1.68h13.852z"/><path fill="#754200" d="M245.396 231.125h19.395v.494h-19.395z"/><path fill="#A7600C" d="M262.396 227.307h-14.605l.371 1.678h13.852z"/><path fill="#754200" d="M262.077 227.012H248.11l-.319.295h14.605z"/><path fill="#A7600C" d="M262.396 224.868h-14.605l.371 1.679h13.852z"/><path fill="#754200" d="M262.077 224.572H248.11l-.319.296h14.605z"/><path fill="#A7600C" d="M262.396 222.393h-14.605l.371 1.678h13.852z"/><path fill="#754200" d="M262.077 222.098H248.11l-.319.295h14.605z"/><path d="M236.653 198.763h.266v6.312h-.266zm5.049 0h.266v6.312h-.266z" fill="#91D3BE"/><path fill="#00AE9E" d="M234.08 198.058h10.86v1.047h-10.86z"/><circle fill="#008E7F" cx="234.473" cy="198.515" r="1.245"/><linearGradient id="e" gradientUnits="userSpaceOnUse" x1="239.117" y1="208.272" x2="239.117" y2="201.231"><stop offset="0" stop-color="#874524"/><stop offset="1" stop-color="#5a3119"/></linearGradient><ellipse fill="url(#e)" cx="239.118" cy="204.931" rx="3.969" ry="3.379"/><text transform="matrix(.9229 -.2127 .158 .9874 236.373 206.91)" fill="#FFF" font-family="'GoodDog'" font-size="3.115">Open</text><ellipse opacity=".5" fill="#B8BABC" cx="235.877" cy="235.764" rx="7.272" ry=".627"/><path fill="#FBB034" d="M239.065 216.079h-6.502a3.337 3.337 0 0 0-3.327 3.328v16.535h2.937v-3.522h7.282v3.522h2.938v-16.535a3.338 3.338 0 0 0-3.328-3.328z"/><path fill="#663700" d="M230.459 230.902v-10.596a2.717 2.717 0 0 1 2.709-2.708h5.292a2.715 2.715 0 0 1 2.708 2.708v10.596h-10.709z"/><path d="M232.311 227.784h7.117v.358h-7.117zm0-2.333h7.117v.359h-7.117zm0-2.333h7.117v.359h-7.117zm0-2.333h7.117v.359h-7.117z" fill="#DEB408"/><ellipse transform="rotate(11.098 292.323 187.152)" fill="#E6E7E8" cx="292.304" cy="187.174" rx="13.79" ry="3.677"/><radialGradient id="f" cx="8043.922" cy="4279.834" r="15.741" gradientTransform="matrix(-.7193 -.141 .0151 -.077 6013.647 1650.911)" gradientUnits="userSpaceOnUse"><stop offset="0"/><stop offset="1" stop-color="#fff" stop-opacity="0"/></radialGradient><path fill="url(#f)" d="M280.829 184.835c.148-.759 5.384-.37 11.692.865 6.308 1.238 11.302 2.855 11.153 3.614-.148.758-5.383.37-11.691-.868-6.309-1.236-11.302-2.852-11.154-3.611z"/><path opacity=".75" fill="#FFF" d="M293.402 183.872c-4.881-.957-7.768-1.218-10.026-.528 2.416-.438 4.821-.093 9.104.746 6.884 1.351 12.172 3.932 11.812 5.768-.104.535-.677.947-1.604 1.23 1.467-.266 2.393-.754 2.529-1.447.358-1.837-4.93-4.419-11.815-5.769z"/><path opacity=".5" fill="#D1D3D4" d="M294.807 190.835c-7.474-1.465-13.215-4.273-12.823-6.273.206-1.051 2.066-1.668 4.87-1.806-4.537-.272-7.806.354-8.082 1.765-.392 1.993 5.351 4.797 12.825 6.262 3.466.681 6.695.951 9.201.851a47.366 47.366 0 0 1-5.991-.799z"/><path fill="#E6E7E8" d="M308.7 180.718c-.326-3.361-3.875-2.591-4.755-2.907l-.478-.201 1.349-3.284s-10.071-3.048-20.374-3.958c0 0 .524 14.586 1.095 15.271.57.687 9.592 3.101 12.925 2.642 0 0 1.088-2.673 2.14-3.005 1.052-.332 8.453-.93 8.098-4.558zm-3.338 1.709c-1.229.798-2.734.95-3.428.365-.71-.597-.093-1.592.842-2.666 1.188-1.37 2.921-.938 3.654-.242.717.679.228 1.7-1.068 2.543z"/><path fill="#D1D3D4" d="M308.7 180.718c-.326-3.361-3.875-2.591-4.755-2.907l-.478-.201 1.349-3.284-9.95-.152c5.542 1.312 6.079 1.988 6.014 2.754s-.215 3.269-2.151 7.496c-1.934 4.229-7 3.136-7 3.136l.003.001c2.533.545 5.218.93 6.73.721 0 0 1.088-2.673 2.14-3.005 1.052-.333 8.453-.931 8.098-4.559zm-3.338 1.709c-1.229.798-2.734.95-3.428.365-.71-.597-.093-1.592.842-2.666 1.188-1.37 2.921-.938 3.654-.242.717.679.228 1.7-1.068 2.543z"/><ellipse transform="rotate(11.098 294.632 172.333)" fill="#FFF" cx="294.626" cy="172.364" rx="10.377" ry="1.733"/><ellipse transform="rotate(11.098 294.634 172.335)" fill="#663700" cx="294.625" cy="172.364" rx="8.715" ry="1.437"/><path opacity=".7" fill="#BCBEC0" d="M306.807 179.816c-.821-.732-2.708-1.266-3.965.163-1.072 1.219-1.816 2.424-.869 3.128.915.68 2.706.407 4.001-.565 1.261-.947 1.626-2.014.833-2.726zm-1.445 2.611c-1.229.798-2.734.95-3.428.365-.71-.597-.093-1.592.842-2.666 1.188-1.37 2.921-.938 3.654-.242.717.679.228 1.7-1.068 2.543z"/><path fill="#FFF" d="M284.917 171.609s1.073.814 3.467 1.433l-.929 13.129s-1.422-.384-1.635-.803c-.215-.418-.903-13.759-.903-13.759z"/><path fill="#F16D9A" d="M286.496 196.213h-5.207l3.895-5.744h3.677z"/><path fill="#9C0059" d="M281.289 196.213c.062 1.501 1.28 2.719 2.72 2.719 1.443 0 2.555-1.218 2.487-2.719h-5.207z"/><linearGradient id="g" gradientUnits="userSpaceOnUse" x1="286.496" y1="193.341" x2="292.542" y2="193.341"><stop offset="0" stop-color="#fff"/><stop offset=".314" stop-color="#fcfeff"/><stop offset=".586" stop-color="#f1fafe"/><stop offset=".84" stop-color="#dff3fe"/><stop offset="1" stop-color="#d0edfd"/></linearGradient><path fill="url(#g)" d="M291.703 196.213h-5.207l2.365-5.744h3.681z"/><linearGradient id="h" gradientUnits="userSpaceOnUse" x1="286.496" y1="197.572" x2="291.706" y2="197.572"><stop offset="0" stop-color="#f1f2f2"/><stop offset=".694" stop-color="#cfecf0"/><stop offset="1" stop-color="#bfe9ef"/></linearGradient><path fill="url(#h)" d="M286.496 196.213c.067 1.501 1.291 2.719 2.731 2.719 1.441 0 2.549-1.218 2.476-2.719h-5.207z"/><path fill="#F16D9A" d="M296.909 196.213h-5.206l.839-5.744h3.68z"/><path fill="#9C0059" d="M291.703 196.213c.073 1.501 1.303 2.719 2.743 2.719 1.442 0 2.543-1.218 2.463-2.719h-5.206z"/><linearGradient id="i" gradientUnits="userSpaceOnUse" x1="296.222" y1="193.341" x2="302.115" y2="193.341"><stop offset="0" stop-color="#fff"/><stop offset=".314" stop-color="#fcfeff"/><stop offset=".586" stop-color="#f1fafe"/><stop offset=".84" stop-color="#dff3fe"/><stop offset="1" stop-color="#d0edfd"/></linearGradient><path fill="url(#i)" d="M302.115 196.213h-5.206l-.687-5.744h3.68z"/><linearGradient id="j" gradientUnits="userSpaceOnUse" x1="296.909" y1="197.572" x2="302.12" y2="197.572"><stop offset="0" stop-color="#f1f2f2"/><stop offset=".694" stop-color="#cfecf0"/><stop offset="1" stop-color="#bfe9ef"/></linearGradient><path fill="url(#j)" d="M296.909 196.213c.08 1.501 1.315 2.719 2.757 2.719 1.44 0 2.537-1.218 2.449-2.719h-5.206z"/><path fill="#F16D9A" d="M307.322 196.213h-5.207l-2.213-5.744h3.679z"/><path fill="#9C0059" d="M302.115 196.213c.088 1.501 1.327 2.719 2.769 2.719s2.532-1.218 2.438-2.719h-5.207z"/><path fill="#FFF" d="M238.227 238.372c-.688-2.148-4.039-3.695-7.992-3.695s-7.305 1.633-7.992 3.695h15.984zm53.359.011c-.688-2.148-4.039-3.695-7.992-3.695s-7.305 1.633-7.992 3.695h15.984z"/></g><g clip-path="url(#b)" fill-rule="evenodd" clip-rule="evenodd" fill="#FFF"><circle cx="135.06" cy="160.047" r="1.899"/><circle cx="135.169" cy="156.792" r="2.736"/><circle cx="138.584" cy="155.349" r="2.735"/><circle cx="140.604" cy="148.78" r="5.33"/><circle cx="138.139" cy="161.734" r=".923"/><circle cx="134.372" cy="153.719" r=".667"/></g></svg>