<svg xmlns="http://www.w3.org/2000/svg" width="232" height="64" viewBox="0 0 232 64"><path d="M91.816 31.646h-.107c-2.554 0-4.563.76-6.265 2.384.001-.295.001-.518-.002-.74-.024-1.308-.269-1.353-1.741-1.4l-.278-.007c-.392 0-.672.091-.859.278-.266.267-.286.666-.285 1.12.01 4.352.01 8.699.01 13.053 0 3.063 0 6.125.003 9.188 0 .245-.004.452-.007.63-.013.562-.02.868.186 1.081.21.219.525.223 1.151.232.171.004.368.007.596.015l.103.001c.405 0 .681-.089.872-.284.26-.264.29-.661.284-1.016a278.052 278.052 0 0 1-.018-5.396l.004-1.707c0-.117.006-.234.015-.373 1.493 1.323 3.197 2.027 5.189 2.153.295.021.587.028.875.029 2.899 0 5.153-.979 6.89-2.984 2.119-2.442 2.299-5.351 2.219-7.604-.174-4.89-3.971-8.61-8.835-8.653zm4.975 12.634c-.922 2.231-3 3.619-5.421 3.619l-.111-.002c-2.432-.04-4.718-1.629-5.434-3.773-.225-.674-.3-1.394-.38-2.15-.037-.35-.073-.696-.123-1.021-.217-2.434.797-4.231 3.1-5.509.986-.545 1.983-.817 2.963-.817 1.146 0 2.276.375 3.362 1.117 2.48 1.683 3.357 5.356 2.044 8.536zm135.17-5.104c-.103-4.703-2.983-7.514-7.729-7.521-2.188 0-3.961.664-5.525 2.079a5.883 5.883 0 0 1 .011-.614c.038-.418-.032-.726-.229-.938-.205-.228-.524-.321-.969-.281-.188.018-.39.031-.574.001-.512-.081-.846-.001-1.073.229-.281.281-.313.738-.313 1.147.031 5.441.03 10.846-.004 16.057-.003.504.094.842.31 1.057.229.232.562.313 1.069.236a1.06 1.06 0 0 1 .287-.002c.146.021.28.033.401.033.351 0 .61-.095.803-.287.231-.234.336-.609.326-1.18a182.888 182.888 0 0 1-.013-4.186c.009-1.715.018-3.486-.041-5.231-.049-1.534.525-2.726 1.81-3.741 1.029-.813 2.36-1.283 3.649-1.283 2.148 0 3.762 1.257 4.31 3.359.163.626.25 1.309.259 2.028.021 1.825.021 3.653.02 5.479-.002.973-.005 1.943 0 2.918 0 .239-.005.449-.01.635-.014.629-.021.976.211 1.211.246.252.636.252 1.4.252h.61c.351 0 .604-.083.774-.256.232-.236.265-.584.262-.859-.008-1.303-.002-2.605.004-3.908.004-2.111.012-4.291-.036-6.434zm-42.894-9.715c.545.062.896.099 1.187.099 1.124 0 1.127-.662 1.136-2.112v-.283c-.002-.342 0-.632.004-.879.006-.817.01-1.191-.235-1.439-.214-.214-.535-.23-.972-.23l-.6.003c-.121 0-.251-.001-.436-.004-.323 0-.563.083-.729.252s-.247.409-.245.731c.004.318 0 .637-.002.955-.009.658-.015 1.339.032 2.01.026.368.494.853.86.897zM79.072 32.118c-.213-.214-.508-.298-.96-.25a3.014 3.014 0 0 1-.678.001c-.476-.055-.792.027-1.013.25-.274.278-.3.717-.296 1.024.016 1.291.009 2.582.002 3.873-.011 1.849-.021 3.761.039 5.642.067 2.125-.922 3.58-3.109 4.579-.802.366-1.607.552-2.393.552-1.932 0-3.477-1.117-4.133-2.988a6.981 6.981 0 0 1-.387-2.172c-.038-2.203-.035-4.447-.033-6.619l.001-2.15c-.001-1.504-.002-2.011-1.411-2.011-.187 0-.403.006-.656.013l-.066.001c-.743.021-1.086.372-1.081 1.104.009 1.263.008 2.528.006 3.792-.001 2.39-.003 4.861.064 7.291.09 3.232 2.2 5.865 5.25 6.549.875.197 1.714.298 2.494.298 2.093 0 3.89-.688 5.472-2.103v.334c.008 1.354.134 1.479 1.5 1.479l.286-.007c.048 0 .097.003.143.008.084.011.162.015.234.015.308 0 .55-.086.721-.258.209-.209.3-.521.298-1.007-.02-5.751-.02-11.063 0-16.242.006-.301-.024-.727-.294-.998zm33.688-.472h-.109c-2.553 0-4.563.76-6.262 2.384 0-.294 0-.518-.002-.742-.027-1.292-.222-1.349-1.742-1.398l-.277-.007c-.391 0-.671.091-.858.278-.266.267-.286.666-.284 1.12.008 4.189.008 8.381.008 12.567 0 3.226 0 6.442.004 9.67.002.243-.004.452-.008.629-.013.562-.021.868.188 1.082.209.222.523.226 1.15.231.17.002.367.008.597.016l.103.001c.405 0 .682-.089.873-.284.258-.264.287-.658.282-1.016-.03-1.801-.024-3.626-.019-5.396l.006-1.707c0-.119.006-.236.015-.373 1.492 1.324 3.196 2.028 5.188 2.154.297.02.59.028.875.029 2.9 0 5.153-.977 6.891-2.984 2.12-2.445 2.3-5.351 2.22-7.605-.179-4.886-3.979-8.606-8.839-8.649zm4.973 12.634c-.922 2.231-3.001 3.619-5.423 3.619l-.109-.002c-2.434-.04-4.717-1.629-5.434-3.773-.225-.674-.301-1.394-.381-2.15-.037-.35-.072-.696-.123-1.023-.217-2.431.799-4.229 3.102-5.507.986-.545 1.98-.817 2.963-.817 1.145 0 2.275.375 3.361 1.117 2.479 1.683 3.357 5.355 2.044 8.536zm13.553-15.041c.251.254.643.254 1.354.254h.072c.166 0 .35 0 .557.002h.027c.33 0 .573-.082.739-.251.166-.167.245-.407.241-.731l-.006-.446c-.008-.696-.021-1.415.021-2.115.024-.472-.062-.797-.272-1.022-.213-.226-.535-.332-1.014-.332l-.177.003c-1.683.032-1.798.157-1.78 1.897.002.158 0 .313 0 .348v.134h.002c.004.325 0 .602-.004.839-.008.777-.012 1.164.24 1.42zm1.426-.021zm.584 0v.002-.002zm70.319 2.437c-5.759.014-9.62 3.903-9.607 9.678.015 5.721 3.896 9.564 9.661 9.564h.076c5.6-.031 9.503-3.99 9.495-9.633-.012-5.657-3.955-9.609-9.625-9.609zm.006 2.739v.275c3.515 0 6.377 2.998 6.378 6.683.003 3.604-2.879 6.535-6.43 6.538-1.604 0-3.145-.662-4.346-1.866a6.798 6.798 0 0 1-1.992-4.771c.004-3.625 2.865-6.578 6.381-6.584l.009-.275zm-35.615-2.391c-1.85-.603-3.884-.64-6.067-.109-2.041.495-3.603 1.558-4.638 3.155-.183.283-.741 1.146.214 1.814.637.444 1.049.629 1.422.629.476 0 .771-.315.951-.553 1.387-1.804 3.305-2.529 5.899-2.244 1.095.119 2.058.651 2.709 1.502.617.801.894 1.799.793 2.826-.457.034-.914.065-1.372.098-1.216.084-2.475.17-3.71.297-2.272.229-3.935.714-5.381 1.562-1.798 1.058-2.611 2.724-2.415 4.949.175 1.981 1.206 3.387 3.066 4.171 1.058.443 2.198.66 3.492.66.741 0 1.549-.07 2.465-.221 1.479-.238 2.789-.898 3.979-2.01.016.096.027.182.036.271.108 1.337.143 1.737 1.438 1.737.137 0 .285-.002.459-.006.02 0 .039.004.063.008a.746.746 0 0 0 .129.012.363.363 0 0 0 .27-.104c.063-.059.133-.121.207-.183.266-.224.539-.455.539-.769.024-3.414.043-7.443-.027-11.451-.049-2.871-1.741-5.132-4.521-6.041zm-.411 10.002c.318 0 .637.008.965.015.258.006.521.011.785.013.156 2.031-.601 3.604-2.253 4.68-2.014 1.313-4.008 1.544-5.94.69-.902-.401-1.381-1.057-1.418-1.952-.036-.933.416-1.643 1.395-2.168 1.706-.923 3.707-1.096 5.313-1.231.336-.032.705-.047 1.153-.047zm23.795 1.555c.004-.781.004-1.564.004-2.348v-7.477c0-1.671-.108-1.792-1.666-1.848l-.271-.008c-.289 0-.703.033-.978.309-.289.291-.321.749-.319 1.116.028 3.834.024 7.729.021 11.502l-.004 3.905c0 1.795.127 1.923 1.903 1.936l.126.003c.297 0 .672-.03.922-.284.198-.199.285-.492.279-.945-.026-1.952-.019-3.941-.017-5.861zm-1.184 6.816zm-6.732-3.265a2.704 2.704 0 0 1-1.709.636c-1.084 0-1.812-.717-1.996-1.967l-.019-.125a4.962 4.962 0 0 1-.08-.746 2740.31 2740.31 0 0 1-.017-9.511 3.87 3.87 0 0 1 .052-.562c.405-.002.808-.006 1.207-.01.465-.006.925-.014 1.382-.014.717 0 1.301.016 1.842.041.569.033.928-.068 1.168-.32.293-.313.311-.775.286-1.19l-.006-.104c-.069-1.246-.161-1.425-1.435-1.425l-1.588.001-2.855-.001c-.016-.035-.029-.062-.035-.078-.012-.736-.023-1.472-.02-2.209l.004-.346c.015-1.349-.063-1.522-1.37-1.547-.157-.003-.341-.005-.552-.014l-.114-.002c-.415 0-.7.093-.894.294-.256.271-.271.681-.254 1.006.032.706.024 1.411.02 2.157-.002.243-.006.489-.006.738l-.43.004c-.477.005-.91.011-1.339-.012-.485-.025-.825.074-1.04.315-.195.218-.27.527-.222.944.021.218.021.446.002.681-.03.359.034.627.206.816.174.189.436.281.797.281l.104-.002c.478-.02.953-.014 1.467-.012.146.002.298.004.453.004l-.002 4.014c-.002 2.229-.004 4.457.007 6.688.016 3.135 1.573 4.862 4.635 5.138.333.03.63.046.912.046 1.528 0 2.635-.444 3.479-1.396l.039-.045c.396-.441.989-1.111.33-1.912-.616-.753-1.678-.864-2.409-.254zm-49.185-3.646l.007-9.847c0-.771 0-1.158-.22-1.419-.25-.298-.69-.298-1.304-.298l-.297.003c-.523-.073-.888.018-1.127.265-.229.232-.326.58-.315 1.099.032 1.562.026 3.151.019 4.688-.002.646-.005 1.295-.005 1.941l.003 2.563c.002 2.277.006 4.56-.014 6.84-.002.313.025.762.307 1.046.221.22.536.31 1 .255.188-.021.385-.021.577.004.106.016.205.021.296.021.342 0 .596-.092.781-.277.218-.223.316-.557.309-1.055-.028-1.94-.022-3.92-.017-5.829zm-8.324-18.849h-.094c-1.315.004-1.481.167-1.479 1.458l.002 14.574c.004 2.813.008 5.723-.017 8.582-.004.389.03.822.313 1.105.205.207.506.306.939.306l.305-.009c1.513-.055 1.705-.111 1.705-1.405.002-3.019.002-6.036.002-9.056v-13.92c.002-.756.002-1.136-.256-1.388-.258-.247-.646-.247-1.42-.247zm28.193 20.127c-.58-.359-1.019-.586-1.423-.586-.498 0-.829.334-1.176.836-1.215 1.771-2.855 2.707-4.879 2.781-2.188.08-4.179-.861-5.441-2.566-1.264-1.693-1.623-3.885-.987-6.002.772-2.58 2.47-4.102 5.037-4.521 2.688-.438 4.817.498 6.294 2.772.262.401.572.773 1.066.773.395 0 .834-.229 1.464-.615.375-.233.589-.498.653-.809.088-.438-.147-.854-.394-1.205-1.842-2.657-4.476-4.017-8.048-4.158l-.029-.002-.025.005c-.322.055-.647.1-.977.143-.706.096-1.438.194-2.129.405-4.889 1.482-7.382 6.166-6.209 11.65.909 4.264 4.238 6.932 8.906 7.141.199.01.4.015.601.015h.001c3.354 0 6-1.328 7.873-3.947.286-.399.559-.829.464-1.3-.06-.308-.278-.58-.642-.81zM9.743 44.14c1.388-.805 2.768-1.625 4.153-2.438 1.113-.65 2.222-1.305 3.343-1.941.186-.104.227-.217.227-.408.019-12.256.042-24.512.063-36.767V2.2c-.126.066-.206.103-.279.147-5.284 3.077-10.567 6.157-15.855 9.231-.214.124-.274.263-.274.498-.008 5.844-.029 11.689-.035 17.533-.006 6.355-.001 12.708-.001 19.064v.467c.162-.092.283-.16.403-.23 1.482-.861 2.962-1.729 4.445-2.582 1.267-.739 2.543-1.452 3.81-2.188zm23.958 4.373V41.2a6230.707 6230.707 0 0 1-6.29 3.658l6.29 3.655zm-.254 1.998a2671.26 2671.26 0 0 1-8.362-4.85c-2.289-1.33-4.579-2.662-6.86-4.004-.249-.146-.428-.16-.686-.008-2.962 1.73-5.932 3.453-8.9 5.18l-6.307 3.67c.076.053.119.084.166.111 1.428.832 2.851 1.676 4.284 2.496 3.129 1.795 6.265 3.576 9.393 5.369 3.15 1.807 6.297 3.615 9.442 5.436.194.113.336.121.535.006 2.425-1.406 4.855-2.805 7.289-4.199.192-.109.279-.223.278-.459-.01-2.762-.009-5.523-.001-8.287.001-.229-.074-.35-.271-.461z" fill="#00C86B"/><path fill="#FF202B" d="M27.083 15.814C28.128 13.555 37.14 3.493 37.577 3.242c.438-.25 2.846-1.65 4.707-1.506 1.859.143 20.41 2.678 20.41 2.678s-4.078 22.537-4.547 22.932c-.466.395-31.064-11.532-31.064-11.532z"/><path fill="#9B141A" d="M54.624 8.843c-1.645-3.845-6.377-6.009-10.354-6.35-1.04-.088-2.82-.191-3.148 1.107-.199.791.523 1.773.785 2.457a13.87 13.87 0 0 1 .883 3.875c.029.39.01.852-.314 1.067-.348.229-.805.03-1.182-.146a9.104 9.104 0 0 0-5.327-.717c-1.46.248-3.142.798-4.321-.007-1.846 2.18-3.557 4.317-4.217 5.435.072.176.15.349.24.518 1.749.682 8.627 3.354 15.428 5.938 1.536.003 3.056-.177 4.521-.652a11.849 11.849 0 0 0 4.336-2.539c2.701-2.49 4.115-6.608 2.67-9.986z"/><path fill="#FCFCFA" stroke="#DFE3EB" stroke-width=".25" stroke-miterlimit="10" d="M22.436 12.39c.464 1.463.587 1.456.568-.102.351 1.547.558 1.544.981-.003.021.515.066.858.15 1.042.082.183.202.206.373.078.17-.126.392-.402.676-.816-.076.416-.09.695-.215.715.229.302.344.346.154-.017.551.257.797.108.725-.625.287.853.338 1.026-.229.318.285.286.504.474.643.546.154.082.23.049.192-.135.044-.128-.025-.408-.171-.822.285.418.494.701.443.691.325.279.389.266.139-.115.24.031.166-.305.025-.814.273.525.482.875.229.646.567.562.674.545.266-.204.551.331.588-.07.57-.735.176.52.309.863-.025.363.604.971.743 1.098.244-.051.815 1.195.99 1.114.811-.347.598 1.101.84.823 1.116-.285-.097 1.243-.124 1.582-.157.162.152 1.825.297 1.89.772.059-.013 1.745.308 1.595 1.244.271-.714 1.456-.7 1.64.345.278-.503 1.016-.549 1.346-.15 1.164.199-.091.509-.309.92-.641-.266.339-.431.564-.514.676-.033.147.014.182.07.067.244.015.498-.121.622-.564-.11.575-.226.747-.466.571.379.27.634.19.529-.483.434.69.507.787-.078.157.877.738 1.095.75.421-.311 1.38 1.1 1.864 1.129 2.06-.811.754 1.998 1.221 2.029 2.596.483-.156.537-.213.899-.396.917.272.422.418.5.162.008.743.434 1.086.296 1.062-.751.226 1.187.206 1.372-.485.415.941 1.127 1.209 1.111.875-.447.716 1.595.828 1.646.385-.094.729 1.813.901 1.831.9-.146.25 1.018.451 1.536.721 1.578.137.021.29-.076.475-.291.187-.214.404-.545.67-.988-.129.464-.211.814-.311.992.045.313.07.454-.061.318.301.222.444.168.363-.271.499.154.773-.076.945-.719-.148.773-.345 1.074-.86.787.378.631.437.673.071.023.738.506 1.055.318 1.162-.746-.021 1.094-.244 1.311-.987.694.567.876.612.92.042.036.92.819 1.225.712 1.219-.654.129 1.418-.054 1.578-.965.588.777 1.205.827 1.261.047.059 1.088 1.23 1.348 1.205 1.223-.496.182 1.84.098 1.968-.809.49 1.047 1.657 1.27 1.709 1.236-.205.311 2.055.364 2.143.265.258.307 2.052.459 2.131 1.505.539-.623 1.814-.346 1.961 1.903 1.824-1.673.445-1.375.606.458 1.005-1.223-.064-.908.108.21.507-.479-.043-.155.139.301.367.202.143.535.332.87.521 2.675 1.529 5.462 3.2 7.313 4.405.294.191.563.37.817.501.229.199.443.351.662.426.147.193.299.313.465.348.064.163.143.244.244.236-.011.143.025.271.16.34-.094.279-.088.499.171.576-.271.438-.29.735.183.865-.516.361-.534.532.084.553-.58.291-.522.431.153.485-.726.327-.836.57-.154.876-.603.092-.416.247.288.435-.616.13-.834.319-.512.736-.549-.053-.555.122-.156.521-.183-.031.041.16.414.391-.416-.006-.68.027-.686.231-.283-.083-.306.008-.119.238.002.019.214.181.539.383-.503-.089-.752-.082-.756.057-.057.061.131.255.498.539-.834-.109-.943.147-.523.759-.396-.137-.264.082.063.297-.407.128-.619.253-.6.427-.045.086.143.219.543.373-.82.094-.786.266-.064.543-.756.057-.874.246-.288.717-.694-.139-.683.004-.147.381-.334-.143-.143-.051.222.049-.442.174-.712.354-.669.697-.328.002-.346.168-.186.385.081.131.34.316.746.527-1.457.09-1.576.426-.598 1.455-1.212-.424-1.326-.156-.742.893-.808-.594-.916-.408-.599.469-.513-.621-.669-.521-.606.301-.387-.693-.513-.656-.43.139-.295-.68-.383-.6-.314.107-.398-.652-.643-.68-.803.051-.139-.559-.191-.363-.113.168-.337-.391-.617-.545-.939-.24-.133-.4-.307-.344-.482-.035-.081.066-.164.385-.209.861-.193-.477-.346-.795-.467-.947-.123-.156-.215-.146-.291.031-.074.176-.133.521-.184 1.039-.223-1.516-.388-1.477-.713-.021-.127-1.471-.411-1.527-1.135-.324.341-1.059.243-.859.021.133-.09-.875-.378-1.074-1.047-.67.178-.57-.025-.535-.377-.188.002.004-.146.322-.287.803-.32-1.504-.549-1.525-1.082-.082.111-1.441-.079-1.422-.748-.188.199-1.279-.081-1.348-.934-.492.446-.738.32-.553.012.23-.016-.688-.275-.895-.813-.748.082-.332-.111-.313-.354-.117-.112.109-.273.395-.433.834-.484-1.441-.967-1.506-2.08-.551.392-1.059.152-1.094-.707-.449.403-.68.188-.678-.43-.293.145-.459-.113-.535-.508-.428-.068-.084-.275.014-.457.25-.325-.59-.553-.629-.799-.01-.201-.697-.422-.736-.799-.119-.061-.699-.28-.744-.719-.201.063-.521-.094-.457-.358.012-.149-.555-.407-.707-.795-.5-.034-.174-.198.008-.323.418-.172-.332-.326-.563-.486-.682-.146-.131-.296-.152-.459-.061-.164.09-.34.289-.541.605-.087-1.123-.413-1.215-1.256-.516.234-.879-.047-.969-.83-.604.393-.5.266-.547-.296-.27.331-.35.228-.377-.2-.172.096-.381-.082-.473-.273-.168.025-.289-.086-.416-.268-.395.012-.053-.045.045-.081.299-.161-.377-.302-.596-.421-.617-.121-.021-.223.156-.316.576-.279-1.125-.529-1.279-1.099-.221.173-1.301.038-1.383-.649-.26.416-1.271.279-1.338-.592-.332.582-1.184.427-1.297-.615-.506.749-.869.61-.836-.23-.088.529-.939.355-1.164-.585-.879.563-.387.361-.262-.168.221.283-.635.241-.908-.253-.861.276-.137.1.053-.207.488.105-.363.133-.611-.031-.73.119-.166.048-.205-.137-.139-.07.053-.256.213-.504.471.406-.985.236-1.091-.615-.463.518-.751.355-.767-.352-.236.36-.747.176-.949-.545-.753.324-.313.111-.229-.266.109.061-.392-.021-.639-.271-.762.027-.197-.117-.271-.313-.257-.179.012-.411.11-.702.296.355-.889.184-1-.604-.478.454-.7.292-.769-.419-.384.374-.604.199-.756-.438-.578.285-.275.11-.221-.221.068.054-.359-.043-.576-.283-.676.014-.172-.115-.225-.283-.187-.148.035-.334.163-.561.389.192-1.011.016-1.134-.701-.39.377-.865.216-.865-.391-.203.277-.895.109-1.13-.674-.757.412-.478.209-.348-.195.138.129-.506.081-.791-.34-.816.254-.32.133-.382-.215-.266a4.697 4.697 0 0 0-.506.452c.129-.419.19-.72.156-.904.002-.191-.091-.269-.272-.24-.182.026-.45.157-.82.384.737-1.02.581-1.174-.552-.729.894-.723.807-.847-.273-.543.998-.483.975-.572-.12-.357 1.068-.42 1.065-.535-.098-.461 1.175-.328 1.191-.468-.047-.57 1.269-.184 1.284-.332.029-.627 1.337-.042 1.404-.232.177-.789 1.201.238 1.105.11.037-.295 1.08.115 1.271-.078.52-.873.945.445.949.287.254-.387.463.382.227.246-.277.012.592.029.913-.039.755-.531.495.343.511.262.14-.155.082.222-.221.108-.688-.034.515.025.866.021.94-.211.301.15.326.068.139-.158-.084-.033-.381-.214-.838-.456.514.12.869.179 1.068.161.202-.009.249-.094.146-.262-.102-.167-.354-.416-.749-.758 1.233.677 1.171.521.134-.277 1.092.511 1.295.361.742-.681.787.751.818.606.311-.263.362.566.186.406-.269-.006.562.223.843.193.804-.34.355.415.389.327.181-.123.022.195-.196.029-.546-.186.394.09.658.131.765 0 .177.109.196.048.089-.109a9.042 9.042 0 0 0-.615-.465c1.088.365 1.26.216.569-.689.887.621.913.486.271-.326.494.546.318.416-.248-.011.726.196 1.058.097.98-.567.467.413.525.263.31-.254.035.121-.202-.124-.599-.438.547.121.936.175 1.16.063.259.041.354-.084.312-.317-.042-.232-.219-.574-.522-1.044 1.324.98 1.52.808 1.017-.711.86 1.276 1.023 1.2.781-.29z"/><path fill="#C6D3D3" d="M46.313 40.308c.026-.027.053-.049.077-.072a14.77 14.77 0 0 1-.303.033c.038.117.06.262.063.438.062-.161.118-.294.163-.399z"/><path fill="#C6D3D3" d="M60.013 24.833c-.102.008-.18-.073-.244-.236-.166-.035-.317-.154-.465-.348-.219-.075-.433-.227-.662-.426-.254-.131-.523-.31-.817-.501-1.852-1.205-4.639-2.876-7.313-4.405a12.116 12.116 0 0 1-.87-.521c-.456-.229-.78-.41-.301-.367-1.118-.398-1.433-.571-.21-.507-1.833-.398-2.131-.56-.458-1.005-2.249.137-2.526-.01-1.903-1.824-1.046 1.592-1.198 1.513-1.505-.539.1 1.885.046 1.797-.265-.258.025 1.484-.105 1.782-.652 1.069-.119-.009-.286-.125-.506-.338a.702.702 0 0 1-.202-.071c.368.569.354.557-.012-.006a2.09 2.09 0 0 1-.242-.158.874.874 0 0 1-.196-.059c.367.573.344.553-.025-.012a1.838 1.838 0 0 1-.275-.154c.076.03.145.047.205.047a7.04 7.04 0 0 0-.086-.133.832.832 0 0 1-.332-.043c.074.4-.041.479-.289.322.041-.006.02-.141-.014-.369.1-.178.182-.528.311-.992-.145.239-.271.443-.391.616.088 1.302.342 2.6.714 3.849.812 2.719 2.146 5.247 3.472 7.756-4.826.331-9.576 1.961-14.352 2.321 3.535.143 7.055.532 10.447 1.507 4.742 1.362 9.264 3.963 12.154 7.962.148.205.299.439.262.689-.052.352-.434.537-.766.66a34.55 34.55 0 0 1-7.105 1.779c.029.174.012.445-.047.828.669-1.234.859-1.254.748.188.533-1.443.762-1.422 1.082.082.141-.48.289-.799.287-.805.352-.346.555-.381.377.189.63-.381.924-.227 1.029.525l-.004.012.004-.006c.006.045.013.09.018.139.021-.096.042-.182.061-.264.662-1.061.932-.959 1.053.455.325-1.455.49-1.494.713.021.051-.518.109-.863.184-1.039.076-.178.168-.188.291-.031.121.152.273.471.467.947.045-.477.128-.795.209-.861.176-.309.35-.365.482.035.322-.305.603-.15.939.24-.078-.531-.025-.727.113-.168.16-.73.404-.705.803-.051-.068-.707.02-.787.314-.107-.083-.795.043-.832.43-.139-.063-.822.094-.922.606-.301-.317-.877-.209-1.063.599-.469-.584-1.049-.47-1.316.742-.893-.979-1.029-.859-1.365.598-1.455-.406-.211-.665-.396-.746-.527-.16-.217-.143-.383.186-.385-.043-.344.227-.523.669-.697a5.267 5.267 0 0 1-.263-.08c-.493-.354-.486-.484.188-.35-.586-.471-.468-.66.288-.717-.722-.277-.756-.449.064-.543-.4-.154-.588-.287-.543-.373-.02-.174.192-.299.6-.427-.326-.215-.459-.434-.063-.297-.42-.612-.311-.869.523-.759-.367-.284-.555-.479-.498-.539.004-.139.253-.146.756-.057-.325-.202-.537-.364-.539-.383-.187-.23-.164-.321.119-.238.005-.206.27-.237.686-.231-.373-.23-.597-.422-.414-.391-.398-.398-.393-.573.156-.521-.322-.417-.104-.606.512-.736-.704-.188-.891-.343-.288-.435-.682-.306-.571-.549.154-.876-.676-.055-.733-.194-.153-.485-.618-.021-.6-.191-.084-.553-.473-.13-.453-.427-.183-.865-.259-.077-.265-.297-.171-.576-.136-.064-.172-.193-.161-.336zM42.76 14.107c.028.016.055.029.081.041.352.63.293.583-.081-.041z"/><path d="M60.013 24.833c-.102.008-.18-.073-.244-.236-.166-.035-.317-.154-.465-.348-.219-.075-.433-.227-.662-.426-.254-.131-.523-.31-.817-.501-1.852-1.205-4.639-2.876-7.313-4.405a12.116 12.116 0 0 1-.87-.521c-.456-.229-.78-.41-.301-.367-1.118-.398-1.433-.571-.21-.507-1.833-.398-2.131-.56-.458-1.005-.685.042-1.184.056-1.533.006.63 5.363 3.071 10.498 6.845 14.36 1.027 1.052 2.175 2.046 2.821 3.366.217.447.375.938.345 1.432-.047.77-.533 1.439-1.082 1.98-1.548 1.525-3.558 2.287-5.664 2.916.092.119.154.307.191.57l-.004.012.004-.006c.006.045.013.09.018.139.021-.096.042-.182.061-.264.662-1.061.932-.959 1.053.455.325-1.455.49-1.494.713.021.051-.518.109-.863.184-1.039.076-.178.168-.188.291-.031.121.152.273.471.467.947.045-.477.128-.795.209-.861.176-.309.35-.365.482.035.322-.305.603-.15.939.24-.078-.531-.025-.727.113-.168.16-.73.404-.705.803-.051-.068-.707.02-.787.314-.107-.083-.795.043-.832.43-.139-.063-.822.094-.922.606-.301-.317-.877-.209-1.063.599-.469-.584-1.049-.47-1.316.742-.893-.979-1.029-.859-1.365.598-1.455-.406-.211-.665-.396-.746-.527-.16-.217-.143-.383.186-.385-.043-.344.227-.523.669-.697a5.267 5.267 0 0 1-.263-.08c-.493-.354-.486-.484.188-.35-.586-.471-.468-.66.288-.717-.722-.277-.756-.449.064-.543-.4-.154-.588-.287-.543-.373-.02-.174.192-.299.6-.427-.326-.215-.459-.434-.063-.297-.42-.612-.311-.869.523-.759-.367-.284-.555-.479-.498-.539.004-.139.253-.146.756-.057-.325-.202-.537-.364-.539-.383-.187-.23-.164-.321.119-.238.005-.206.27-.237.686-.231-.373-.23-.597-.422-.414-.391-.398-.398-.393-.573.156-.521-.322-.417-.104-.606.512-.736-.704-.188-.891-.343-.288-.435-.682-.306-.571-.549.154-.876-.676-.055-.733-.194-.153-.485-.618-.021-.6-.191-.084-.553-.473-.13-.453-.427-.183-.865-.259-.077-.265-.297-.171-.576-.136-.066-.172-.195-.161-.338zm-11.16 16.188l.049.217a6.47 6.47 0 0 1 .079-.252l-.128.035z" fill="#A7B9C1"/><path fill="#C6D3D3" d="M44.659 40.397c-.068.004-.137.01-.205.016.031.08.063.168.096.262.035-.102.072-.192.109-.278zm-1.566-26.183l.07.107.025.012-.078-.121-.017.002zm1.254.751l-.007-.008.007.008zM32.126 27.542a106.178 106.178 0 0 0-4.221-.074c1.411.179 2.817.18 4.221.074zm11.537-13.128c-.01.002-.02.004-.029.004.072.078.142.148.207.21a.268.268 0 0 0 .098-.001 1.738 1.738 0 0 1-.276-.213zm.908-.803c.07.945.02 1.371-.225 1.354.348.398.356-.038.225-1.354zm-1.565.468l.001.003h.002z"/><path fill="#C6D3D3" d="M43.86 14.259c.07.112.137.219.197.309a.228.228 0 0 1-.119.059c.077.043.141.059.19.047.081.118.15.213.211.283a7.525 7.525 0 0 1-.205-.285c.179-.048.202-.443.132-1.211.003.607-.057.965-.204 1.104-.063-.094-.13-.197-.2-.309.084-.164.122-.453.131-.871-.037.359-.097.616-.189.782l-.041-.065.041.066a.433.433 0 0 1-.193.197c.019.019.035.033.053.049.083-.012.148-.063.196-.155zm-.336.133a.024.024 0 0 1 .008-.002 27.438 27.438 0 0 0-.184-.283c.087.098.166.186.242.267.006-.001.013-.006.02-.009a6.523 6.523 0 0 1-.267-.273l-.007.01.188.29zm-.357-.187l-.012.003c.08.069.158.132.229.185a.458.458 0 0 0 .122.003 1.349 1.349 0 0 1-.339-.191zm.363.197c.035.054.066.103.097.148.005.002.009.003.012.006-.03-.047-.062-.098-.097-.15l-.012-.004z"/><path fill="#C6D3D3" d="M43.634 14.417c-.016-.014-.029-.029-.043-.044-.018.009-.039.013-.059.017l.01.016a.326.326 0 0 0 .092.011zm-.104-.015l-.006-.01-.018.003.024.007zm-.482-.287c.023.035.043.065.063.098.016-.002.031-.002.045-.005l-.108-.093zm.289-.014a.695.695 0 0 0-.035-.053l.042.043c.122-.141.205-.401.276-.771-.129.48-.314.732-.611.762.057.047.108.086.158.123a.334.334 0 0 0 .17-.104z"/><path fill="#FF202B" d="M40.853 1.993c3.42-1.005 21.35 1.262 21.999 2.524.648 1.264 2.119 9.996 1.743 16.129-.373 6.133 3.582 9.758 2.906 16.21 0 0-1.279-4.848-6.879-6.358-5.598-1.509-12.047-4.659-14.014-14.902-2.42-12.608-5.755-13.603-5.755-13.603z"/><path fill="#A7B9C1" d="M19.308 25.115c6.99 4.064 14.65 2.873 21.706 5.145 7.056 2.27 11.487 6.544 11.487 6.544s-9.441.822-15.607-.551-17.586-11.138-17.586-11.138z"/><path fill="#C6D3D3" d="M36.894 36.253c4.402.98 10.472.844 13.584.684-.334-.514-.793-.965-1.278-1.338-3.614-2.772-8.603-2.489-13.112-3.125a29.776 29.776 0 0 1-9.415-2.984c-.599-.307-1.298-.64-1.911-.363a.622.622 0 0 0-.199.145c3.815 2.837 8.89 6.215 12.331 6.981z"/><path fill="#9B141A" d="M63.709 8.091a21.73 21.73 0 0 1-.156-.224A52.198 52.198 0 0 1 62.499 18.8c-.078.385-.184.803-.5 1.035-.357.26-.851.188-1.278.077-3.739-.964-6.619-3.866-9.298-6.648 2.002 5.766 6.254 10.716 11.652 13.564-4.989-.06-9.943-1.656-14.053-4.483 2.916 5.045 7.486 7.044 11.6 8.153 5.6 1.51 6.879 6.358 6.879 6.358.676-6.453-3.279-10.078-2.906-16.21.246-4.013-.299-9.137-.886-12.555z"/><path fill="#FCFCFA" stroke="#DFE3EB" stroke-width=".25" stroke-miterlimit="10" d="M72.798 32.723c-.568.408-.864.677-.271.603-.734.459-.581.572.357.453-1.025.473-1.266.713-.209.707-.902.357-.508.469.541.525-1.025.232-1.398.408-.447.602-1.044.162-.762.34.334.602-.94.033-1.064.148-.253.426-.579.01-.22.184.425.424-1.08-.107-1.569-.076-.465.537-1.009-.252-1.32-.248-.496.256-.885-.254-.633-.006.205.553-1.076-.443-1.567-.58-.746.133-1.166-.559-1.02-.268-.027.688-1.162-.738-1.479-.813-.662.189-.875-.639-.618-.199.076.727-.738-.674-1.039-.857-.58-.068-.676-.678-.591-.381-.09.521-.844-.91-.717-.434-.305.545-.685-.891-1.08-1.281-.791.016-.537-.982-.775-1.238-.604-.205-.444-.9-.479-.514-.35.568-.409-1.213-.656-1.729-.704-.521-.37-1.393-.544-1.061-.721.455-.161-1.518-.329-1.848-.714-.463-.026-1.201-.271-.684-.679.521.135-1.074.105-1.459-.336-.566.184-1.02-.047-.76-.569.221.296-1.277-.078-.869-.719.033.404-1.023.542-1.553-.344-.6.525-.971.615-1.301-.121-.584.494-.854.165-.662-.643.047.768-1.004 1.057-1.49.059-.84.924-1.086.561-1.035-.771-.314 1.145-.996 1.318-1.32-.026-.84.96-.717.397-.627-.823-.275.957-.508 1.254-.756.268-.611.939-.443.595-.494-.512-.379 1.223-.5.678-.605-.436-.668 1.027-.211 1.484-.373.273-.543 1.014-.098 1.301-.197.373-.359.895-.072.574-.209-.387-.424 1.143.037 1.641-.002.633-.346 1.268.094 1.026-.117-.229-.631 1.332.256 1.649.209.535-.406 1.041.254.648-.063-.324-.669.927.352 1.271.41.561-.15.878.369.701.119-.084-.543 1.131.532.873.122.162-.684.566.377.914.563.59.092.693.488.715.32.199-.453.844.727 1.15.848.676-.08.706.648.631.246.225-.711.65.807.971 1.059.73.131.61.848.661.516.439-.578.451.819.631.877.565.023.286.517.328.123.317-.569.398 1.079.678 1.491.908.18.18 1.019.336 1.28.556.343.122.873.31.548.584-.375-.005.961.079 1.325.442.523-.057.961.164.754.626-.17-.157 1.322.223 1.009.909.086-.333 1.104-.357 1.602.621.69-.474.923-.508 1.227.236.609-.434.771-.088.624.688.052-.585.769-.739 1.113.04.69-.631.736-.326.705.605.243-.924.962-.426.939.68.611z"/><path fill="#00C86B" d="M41.347 30.592c-1.892-.609-3.828-.964-5.782-1.243.003 9.569.005 19.14.005 28.708v.42c.144-.078.241-.125.334-.18 4.873-2.797 9.745-5.596 14.622-8.385.239-.135.3-.289.3-.547-.005-4.626-.002-9.252-.004-13.878-1.949-1.446-5.231-3.529-9.475-4.895z"/></svg>