<svg xmlns="http://www.w3.org/2000/svg" width="232" height="64" viewBox="0 0 232 64"><g fill="#00C86B"><path d="M91.818 30.921h-.108c-2.554 0-4.563.76-6.265 2.383a43.32 43.32 0 0 0-.002-.74c-.024-1.307-.269-1.352-1.741-1.402l-.278-.007c-.392 0-.672.091-.859.278-.266.267-.286.665-.285 1.119.01 4.351.01 8.7.01 13.051 0 3.063 0 6.125.003 9.188 0 .245-.004.452-.007.63-.013.561-.02.868.186 1.081.21.219.525.223 1.151.233.171.003.368.006.596.014l.103.001c.405 0 .681-.089.872-.284.26-.264.29-.661.284-1.016a277.975 277.975 0 0 1-.018-5.395l.004-1.707c0-.118.006-.235.015-.373 1.493 1.325 3.197 2.029 5.189 2.155.295.02.587.028.875.029 2.899 0 5.154-.977 6.89-2.984 2.119-2.445 2.299-5.351 2.219-7.605-.174-4.887-3.972-8.606-8.834-8.649zm4.974 12.634c-.922 2.231-3 3.619-5.421 3.619l-.111-.002c-2.432-.04-4.718-1.629-5.434-3.773-.225-.675-.3-1.394-.38-2.153-.037-.348-.073-.696-.123-1.024-.217-2.431.797-4.231 3.1-5.506.986-.545 1.983-.82 2.963-.82 1.145 0 2.276.375 3.362 1.117 2.479 1.688 3.357 5.361 2.044 8.542zm135.17-5.105c-.102-4.703-2.983-7.514-7.729-7.521-2.189 0-3.962.664-5.528 2.079a5.909 5.909 0 0 1 .011-.615c.038-.417-.035-.725-.231-.938-.206-.228-.525-.321-.969-.281a2.305 2.305 0 0 1-.575.001c-.512-.081-.846-.001-1.073.229-.281.281-.313.738-.313 1.147.031 5.441.03 10.845-.004 16.057-.003.504.094.839.308 1.054.231.234.561.312 1.071.239.094-.013.192-.016.286-.002.148.021.281.032.402.032.35 0 .611-.094.803-.286.231-.237.336-.612.326-1.18-.025-1.393-.02-2.812-.012-4.185.008-1.715.017-3.487-.041-5.232-.05-1.535.525-2.726 1.809-3.742a5.993 5.993 0 0 1 3.65-1.283c2.149 0 3.761 1.256 4.309 3.36.163.626.25 1.309.258 2.028.021 1.826.021 3.654.018 5.479a567.65 567.65 0 0 0 0 2.918c0 .242-.003.452-.008.636-.013.628-.021.975.211 1.211.246.251.634.251 1.401.251h.61c.35 0 .604-.083.774-.256.235-.236.265-.584.262-.859-.007-1.302-.002-2.606.004-3.908.01-2.11.018-4.289-.03-6.433zm-42.893-9.714c.545.062.897.099 1.186.099 1.124 0 1.127-.662 1.135-2.112l.001-.283c-.003-.342 0-.632.003-.879.006-.817.01-1.191-.237-1.439-.211-.214-.535-.23-.97-.23l-.599.003c-.121 0-.251-.001-.436-.004-.323 0-.562.083-.729.252-.167.169-.247.409-.245.731.003.318 0 .637-.002.955-.009.658-.015 1.339.032 2.01.027.367.494.853.861.897zM79.073 31.392c-.213-.214-.508-.298-.96-.25a3.014 3.014 0 0 1-.678.001c-.476-.055-.792.027-1.013.25-.274.278-.3.718-.296 1.024.016 1.291.009 2.582.002 3.873-.011 1.849-.021 3.761.039 5.641.067 2.125-.922 3.581-3.109 4.58-.802.366-1.607.551-2.393.551-1.932 0-3.477-1.117-4.133-2.99a6.952 6.952 0 0 1-.387-2.169c-.038-2.206-.035-4.45-.033-6.622l.001-2.15c-.001-1.504-.002-2.011-1.411-2.011-.187 0-.403.006-.656.013l-.066.001c-.743.021-1.086.372-1.081 1.103.009 1.263.008 2.527.006 3.791-.001 2.389-.003 4.86.064 7.291.09 3.233 2.2 5.865 5.25 6.548.875.197 1.714.298 2.494.298 2.093 0 3.89-.689 5.472-2.103v.338c.008 1.354.134 1.479 1.5 1.48l.286-.005c.048 0 .097.003.143.008.084.009.162.014.234.014.308 0 .55-.087.721-.259.209-.209.3-.521.298-1.005-.02-5.751-.02-11.065 0-16.243.006-.3-.024-.727-.294-.998zm33.688-.471h-.109c-2.554 0-4.563.76-6.263 2.383 0-.293 0-.517-.002-.741-.026-1.294-.221-1.349-1.742-1.401l-.277-.007c-.391 0-.671.091-.858.278-.266.267-.287.665-.285 1.119.008 4.19.009 8.379.009 12.568 0 3.224 0 6.445.004 9.67.001.243-.004.452-.008.629-.013.559-.021.868.187 1.082.209.219.524.223 1.151.233.169.003.367.006.596.014l.103.001c.405 0 .681-.089.872-.284.259-.264.288-.661.283-1.016-.03-1.798-.024-3.626-.018-5.395l.005-1.707c0-.118.006-.235.015-.373 1.492 1.325 3.196 2.029 5.189 2.155.296.02.589.028.875.029 2.899 0 5.153-.977 6.89-2.984 2.12-2.445 2.3-5.351 2.219-7.605-.176-4.886-3.976-8.605-8.836-8.648zm4.974 12.634c-.923 2.231-3 3.619-5.423 3.619l-.11-.002c-2.433-.04-4.717-1.629-5.433-3.773-.225-.675-.301-1.394-.381-2.153-.037-.348-.073-.696-.123-1.025-.217-2.429.798-4.23 3.101-5.505.986-.545 1.981-.82 2.963-.82 1.145 0 2.275.375 3.361 1.117 2.479 1.688 3.357 5.36 2.045 8.542zm13.552-15.042c.251.254.643.254 1.353.254h.073c.166 0 .35 0 .557.002h.027c.33 0 .573-.082.739-.251.166-.167.245-.407.242-.731l-.006-.446c-.009-.696-.019-1.415.021-2.115.025-.472-.061-.797-.274-1.022-.213-.226-.534-.332-1.012-.332l-.177.003c-1.682.032-1.798.157-1.78 1.897.002.158 0 .313 0 .348v.134h.002c.003.325 0 .602-.004.839-.009.777-.013 1.165.239 1.42zm1.426-.021zm.584 0v.002-.002zm70.319 2.437c-5.759.014-9.62 3.903-9.607 9.678.014 5.721 3.896 9.567 9.661 9.567h.076c5.599-.033 9.503-3.992 9.495-9.633-.012-5.659-3.955-9.612-9.625-9.612zm.006 2.739v.275c3.515 0 6.377 2.998 6.378 6.683.003 3.604-2.879 6.535-6.43 6.538-1.601 0-3.142-.662-4.345-1.866-1.268-1.27-1.993-3.007-1.992-4.77.004-3.626 2.864-6.579 6.38-6.585l.009-.275zm-35.615-2.39c-1.85-.603-3.884-.64-6.067-.109-2.042.495-3.603 1.558-4.638 3.155-.183.284-.741 1.146.214 1.814.637.447 1.048.629 1.421.629.474 0 .771-.315.951-.55 1.388-1.804 3.305-2.532 5.9-2.247 1.095.122 2.057.654 2.709 1.503.617.801.894 1.798.793 2.828-.457.034-.914.065-1.372.096-1.216.083-2.474.169-3.71.296-2.273.232-3.934.714-5.381 1.562-1.798 1.057-2.611 2.723-2.415 4.949.175 1.982 1.206 3.387 3.066 4.171 1.058.443 2.199.66 3.492.66.744 0 1.55-.07 2.465-.22 1.481-.239 2.789-.899 3.979-2.01.016.096.027.182.036.272.108 1.337.143 1.74 1.439 1.74.137 0 .287-.003.458-.006.02 0 .04.004.063.007.045.006.089.01.129.01a.37.37 0 0 0 .27-.102 5 5 0 0 1 .206-.182c.265-.223.539-.455.54-.769.024-3.414.043-7.443-.027-11.451-.05-2.877-1.741-5.138-4.521-6.046zm-.412 10.002c.319 0 .638.007.965.014.259.006.521.011.785.013.157 2.031-.6 3.604-2.252 4.68-2.014 1.311-4.008 1.543-5.94.69-.905-.401-1.382-1.057-1.419-1.953-.037-.932.417-1.642 1.393-2.168 1.706-.922 3.707-1.095 5.314-1.233.338-.029.707-.043 1.154-.043zm23.796 1.554c.003-.781.003-1.565.003-2.348v-7.474c0-1.671-.11-1.792-1.666-1.848l-.271-.008c-.289 0-.703.033-.977.309-.289.291-.322.749-.32 1.116.03 3.834.025 7.731.021 11.502l-.003 3.906c0 1.794.127 1.922 1.903 1.935l.126.003c.297 0 .672-.032.922-.286.198-.2.285-.492.279-.946-.026-1.952-.02-3.94-.017-5.861zm-1.184 6.816zm-6.732-3.264a2.713 2.713 0 0 1-1.71.636c-1.083 0-1.811-.718-1.996-1.968l-.018-.125a4.934 4.934 0 0 1-.08-.746c-.011-3.168-.017-6.34-.017-9.51 0-.165.022-.33.045-.51a.926.926 0 0 0 .007-.052c.405-.001.808-.006 1.207-.01.465-.006.925-.011 1.382-.011.716 0 1.3.014 1.842.041.569.033.928-.071 1.167-.323.294-.31.31-.775.287-1.19l-.006-.104c-.069-1.246-.161-1.425-1.435-1.425l-1.588.001-2.855-.001c-.016-.035-.03-.062-.035-.078-.012-.736-.024-1.472-.019-2.209l.003-.346c.015-1.349-.062-1.522-1.37-1.547-.157-.003-.341-.005-.551-.014l-.115-.002c-.415 0-.7.093-.893.294-.256.271-.271.681-.255 1.006.035.706.027 1.411.02 2.157-.002.243-.006.489-.006.738l-.43.004c-.474.005-.909.011-1.338-.012-.486-.025-.825.074-1.041.315-.194.218-.267.527-.219.944.023.217.023.446.002.681-.033.359.034.627.206.816.174.189.433.281.797.281l.104-.002c.476-.02.952-.014 1.465-.011l.454.004-.001 4.013c-.002 2.228-.005 4.457.005 6.687.016 3.135 1.575 4.863 4.635 5.138.333.03.63.044.912.044 1.53 0 2.635-.444 3.481-1.396l.038-.044c.396-.442.991-1.112.331-1.913-.619-.75-1.681-.861-2.412-.251zm-49.185-3.647l.007-9.846c0-.77 0-1.156-.22-1.42-.25-.298-.691-.298-1.303-.298l-.297.003c-.524-.073-.886.018-1.127.265-.227.232-.327.58-.316 1.099.033 1.562.026 3.151.019 4.689-.002.647-.005 1.295-.005 1.943l.003 2.565c.002 2.277.006 4.557-.014 6.837-.002.313.025.762.307 1.046.22.22.536.308 1 .255.188-.023.385-.021.577.004.107.014.205.019.296.019.341 0 .596-.091.781-.277.218-.223.316-.557.309-1.054-.027-1.941-.022-3.92-.017-5.83zm-8.324-18.849h-.094c-1.315.004-1.481.167-1.48 1.458l.003 14.574c.004 2.813.008 5.723-.017 8.582-.004.388.03.822.313 1.106.205.207.506.305.942.305l.303-.009c1.512-.054 1.704-.111 1.704-1.405.002-3.018.002-6.036.002-9.055l.001-13.92c.001-.756.001-1.136-.257-1.388-.258-.248-.646-.248-1.42-.248zm28.193 20.128c-.58-.362-1.019-.586-1.422-.586-.499 0-.83.334-1.176.835-1.216 1.771-2.856 2.708-4.879 2.782-2.187.08-4.177-.862-5.442-2.566-1.263-1.696-1.623-3.885-.987-6.002.773-2.58 2.469-4.102 5.037-4.521 2.688-.438 4.818.498 6.294 2.773.262.403.572.775 1.067.775.394 0 .834-.227 1.463-.618.375-.233.589-.497.653-.806.089-.435-.147-.853-.391-1.205-1.842-2.657-4.474-4.017-8.048-4.158l-.029-.002-.028.005c-.322.055-.647.1-.974.143-.706.096-1.435.194-2.129.405-4.887 1.482-7.382 6.164-6.209 11.65.909 4.261 4.239 6.93 8.906 7.139.202.01.403.014.601.014h.001c3.353 0 6-1.328 7.873-3.947.286-.399.557-.829.462-1.3-.061-.308-.278-.581-.643-.81z"/><path fill-rule="evenodd" clip-rule="evenodd" d="M.615 48.682v-.467c0-6.355-.005-12.708.001-19.063.006-5.845.027-11.689.035-17.534 0-.235.06-.374.274-.498C6.213 8.047 11.496 4.967 16.78 1.889c.073-.044.153-.081.279-.147v.386c-.021 12.255-.044 24.511-.063 36.766 0 .193-.041.304-.227.409-1.121.636-2.23 1.291-3.343 1.942-1.385.811-2.765 1.632-4.153 2.437-1.267.736-2.543 1.449-3.81 2.185-1.483.855-2.963 1.723-4.445 2.585-.12.07-.241.139-.403.23zm34.819 9.158c4.873-2.796 9.745-5.596 14.622-8.385.239-.135.3-.289.3-.546-.006-5.403-.001-10.806-.005-16.209-.005-7.06-.017-14.119-.025-21.18v-.393c-.175.096-.291.156-.403.222-4.824 2.794-9.645 5.59-14.473 8.376-.263.153-.357.31-.357.614.008 12.42.007 24.84.007 37.26v.42c.144-.078.241-.124.334-.179zM2.028 50.153c1.428.832 2.851 1.675 4.284 2.495 3.129 1.795 6.265 3.576 9.393 5.369 3.15 1.807 6.297 3.619 9.442 5.436.194.113.336.121.535.006 2.425-1.406 4.855-2.804 7.289-4.198.192-.11.279-.223.278-.459-.01-2.762-.009-5.525-.001-8.288.001-.23-.074-.349-.271-.461a2670.985 2670.985 0 0 1-8.362-4.849c-2.289-1.33-4.579-2.662-6.86-4.005-.249-.146-.428-.16-.686-.008-2.962 1.733-5.932 3.454-8.9 5.181l-6.307 3.67c.076.052.119.084.166.111zM26.941 44.4c2.11 1.226 4.181 2.43 6.29 3.654v-7.31a8945.065 8945.065 0 0 1-6.29 3.656z"/></g></svg>